<?xml version="1.0" encoding="UTF-8"?>
<svg width="631px" height="377px" viewBox="0 0 631 377" version="1.1" xmlns="http://www.w3.org/2000/svg" xmlns:xlink="http://www.w3.org/1999/xlink">
    <!-- Generator: Sketch 53 (72520) - https://sketchapp.com -->
    <title>A_system_that_works_IMG</title>
    <desc>Created with Sketch.</desc>
    <defs>
        <linearGradient x1="54.6306792%" y1="98.9085704%" x2="53.0457973%" y2="-5.7720886%" id="linearGradient-1">
            <stop stop-color="#0CD2C2" offset="0%"></stop>
            <stop stop-color="#3455B5" offset="100%"></stop>
        </linearGradient>
        <linearGradient x1="51.9387965%" y1="98.9085704%" x2="51.27523%" y2="-5.7720886%" id="linearGradient-2">
            <stop stop-color="#0CD2C2" offset="0%"></stop>
            <stop stop-color="#3455B5" offset="100%"></stop>
        </linearGradient>
        <linearGradient x1="57.755186%" y1="98.9085704%" x2="55.10092%" y2="-5.7720886%" id="linearGradient-3">
            <stop stop-color="#0CD2C2" offset="0%"></stop>
            <stop stop-color="#3455B5" offset="100%"></stop>
        </linearGradient>
        <linearGradient x1="23.553719%" y1="19.6353312%" x2="97.459771%" y2="84.245169%" id="linearGradient-4">
            <stop stop-color="#FFFFFF" offset="0%"></stop>
            <stop stop-color="#797979" offset="100%"></stop>
        </linearGradient>
        <linearGradient x1="54.9159368%" y1="98.9085704%" x2="53.2334234%" y2="-5.7720886%" id="linearGradient-5">
            <stop stop-color="#0CD2C2" offset="0%"></stop>
            <stop stop-color="#3455B5" offset="100%"></stop>
        </linearGradient>
        <linearGradient x1="52.0384322%" y1="98.9085704%" x2="51.3407647%" y2="-5.7720886%" id="linearGradient-6">
            <stop stop-color="#0CD2C2" offset="0%"></stop>
            <stop stop-color="#3455B5" offset="100%"></stop>
        </linearGradient>
        <linearGradient x1="57.6811512%" y1="98.9085704%" x2="55.0522241%" y2="-5.7720886%" id="linearGradient-7">
            <stop stop-color="#0CD2C2" offset="0%"></stop>
            <stop stop-color="#3455B5" offset="100%"></stop>
        </linearGradient>
        <linearGradient x1="23.3678055%" y1="19.6353312%" x2="97.7934063%" y2="84.245169%" id="linearGradient-8">
            <stop stop-color="#FFFFFF" offset="0%"></stop>
            <stop stop-color="#797979" offset="100%"></stop>
        </linearGradient>
        <polygon id="path-9" points="0.000426 0.520127482 354.48028 0.520127482 354.48028 355.472298 0.000426 355.472298"></polygon>
        <linearGradient x1="54.8191684%" y1="98.9085704%" x2="53.1697747%" y2="-5.7720886%" id="linearGradient-11">
            <stop stop-color="#0CD2C2" offset="0%"></stop>
            <stop stop-color="#3455B5" offset="100%"></stop>
        </linearGradient>
        <linearGradient x1="52.1215026%" y1="98.9085704%" x2="51.3954037%" y2="-5.7720886%" id="linearGradient-12">
            <stop stop-color="#0CD2C2" offset="0%"></stop>
            <stop stop-color="#3455B5" offset="100%"></stop>
        </linearGradient>
        <linearGradient x1="57.7320879%" y1="98.9085704%" x2="55.0857274%" y2="-5.7720886%" id="linearGradient-13">
            <stop stop-color="#0CD2C2" offset="0%"></stop>
            <stop stop-color="#3455B5" offset="100%"></stop>
        </linearGradient>
        <linearGradient x1="22.9340398%" y1="19.6353312%" x2="98.5718303%" y2="84.245169%" id="linearGradient-14">
            <stop stop-color="#FFFFFF" offset="0%"></stop>
            <stop stop-color="#797979" offset="100%"></stop>
        </linearGradient>
    </defs>
    <g id="HD_Desktop" stroke="none" stroke-width="1" fill="none" fill-rule="evenodd">
        <g id="VW_HD_Desktop_About" transform="translate(-285.000000, -2928.000000)">
            <g id="A_system_that_just_works" transform="translate(0.000000, 2825.000000)">
                <g id="A_system_that_works_IMG" transform="translate(148.000000, 103.000000)">
                    <g id="Group-2" transform="translate(137.000000, 76.000000)">
                        <path d="M93.4458599,0 C79.3694268,0 68,9.42495057 68,21.0417501 C68,27.8364819 71.8980892,33.8640666 78.0700637,37.6998023 C78.611465,38.0285796 78.9363057,38.6861343 78.7197452,39.343689 C77.8535032,42.1930926 76.3375796,45.4808661 73.7388535,48.1110849 C73.4140127,48.4398622 73.6305732,49.0974169 74.1719745,48.9878245 C76.7707006,48.5494547 82.4012739,47.1247528 88.1401274,41.9739078 C88.4649682,41.6451304 88.8980892,41.535538 89.3312102,41.6451304 C90.7388535,41.8643153 92.1464968,41.9739078 93.5541401,41.9739078 C107.630573,41.9739078 119,32.5489572 119,20.9321577 C118.89172,9.42495057 107.522293,0 93.4458599,0 Z M77.6971831,24.5 C75.4548915,24.5 73.7464789,22.6790541 73.7464789,20.5367647 C73.7464789,18.3944754 75.5616673,16.5735294 77.6971831,16.5735294 C79.8326989,16.5735294 81.6478873,18.3944754 81.6478873,20.5367647 C81.6478873,22.6790541 79.9394747,24.5 77.6971831,24.5 Z M93.5,24.5 C91.2577084,24.5 89.5492958,22.6790541 89.5492958,20.5367647 C89.5492958,18.3944754 91.3644842,16.5735294 93.5,16.5735294 C95.6355158,16.5735294 97.4507042,18.3944754 97.4507042,20.5367647 C97.4507042,22.6790541 95.7422916,24.5 93.5,24.5 Z M108.584507,24.5 C106.342215,24.5 104.633803,22.6790541 104.633803,20.5367647 C104.633803,18.3944754 106.448991,16.5735294 108.584507,16.5735294 C110.826799,16.5735294 112.535211,18.3944754 112.535211,20.5367647 C112.535211,22.6790541 110.826799,24.5 108.584507,24.5 Z" id="Shape" fill="#CDFFFB" fill-rule="nonzero"></path>
                        <path d="M33.499963,42 C19.4167345,42 8,52.7452163 8,66 L59,66 C59,52.7452163 47.5831914,42 33.499963,42" id="Fill-6" fill="#FEFEFE" transform="translate(33.500000, 54.000000) scale(-1, 1) translate(-33.500000, -54.000000) "></path>
                        <path d="M51.4745183,49.0408531 C51.4745183,49.0408531 51.6629051,32.6418051 41.8609127,26.1732694 C32.0589203,19.7047337 37.5131434,16.8172882 37.5131434,16.8172882 C37.5131434,16.8172882 41.1209633,13.3960213 50.4375409,20.5533193 C59.7541186,27.7106173 60.3087973,43.1765729 60.9691427,47.5764524 C61.6294172,51.9763318 51.4745183,49.0408531 51.4745183,49.0408531" id="Fill-9" fill="#FFFFFF" transform="translate(48.500000, 33.000000) scale(-1, 1) translate(-48.500000, -33.000000) "></path>
                        <path d="M26.6410425,47.0201379 C26.6410425,47.0201379 30.9834504,30.8838784 23.7029615,21.720115 C16.4224727,12.5563515 22.1234288,11.2513889 22.1234288,11.2513889 C22.1234288,11.2513889 26.2788344,8.8963565 32.9421487,18.6025406 C39.6053959,28.3086511 36.1770204,43.7343048 35.6592452,48.2651343 C35.141403,52.7959638 26.6410425,47.0201379 26.6410425,47.0201379" id="Fill-10" fill="#FFFFFF" transform="translate(28.500000, 30.500000) scale(-1, 1) translate(-28.500000, -30.500000) "></path>
                        <path d="M56.6981492,36.2442428 C56.6981492,36.2442428 56.0220622,32.5437056 53.749024,28.3598645 C53.080753,27.1297643 52.2738976,25.8582492 51.3059869,24.6263517 C48.3721931,21.0960844 45.124856,19.810035 44.1737047,19.4924688 C42.5119705,18.9634522 40.7516341,18.6842534 40.1573148,19.5828783 C39.7874811,20.1420574 40.1062851,20.9333161 40.7326201,21.7666148 C40.7326952,21.766693 44.3601622,25.0184647 45.4114189,25.5797536 C45.4114189,25.5797536 49.8622751,29.6749825 52.8645344,39.1736036 C52.8645344,39.1736036 53.5731632,41 54.9080518,41 C55.6863485,41 56.2666139,40.3087621 56.271048,40.3035267 C56.8834043,39.563763 57.3198246,38.3126428 56.6981492,36.2442428" id="Fill-21" fill="url(#linearGradient-1)" transform="translate(48.500000, 30.000000) scale(-1, 1) translate(-48.500000, -30.000000) "></path>
                        <path d="M34.9465034,36.082588 C34.9465034,36.082588 35.2942513,32.5062947 34.2165228,28.0460635 C33.8995977,26.7346516 33.4589238,25.3470755 32.8504794,23.9513016 C30.9506835,19.906993 28.1345971,17.8317025 27.2936851,17.2779837 C25.8174732,16.3342769 24.1772294,15.592085 23.3532546,16.2509582 C22.8405592,16.6609188 22.9360792,17.4737602 23.3200667,18.410089 C23.320143,18.4101635 25.9718922,22.3910516 26.8440848,23.1956953 C26.8440848,23.1956953 30.0692594,28.1765563 30.4118955,37.706333 C30.4118955,37.706333 30.6058348,39.5750409 31.9073335,39.9439384 C32.6660769,40.1590168 33.4199375,39.6861573 33.4256596,39.6825801 C34.2239996,39.1742469 34.9898384,38.1489355 34.9465034,36.082588" id="Fill-22" fill="url(#linearGradient-2)" transform="translate(29.000000, 28.000000) scale(-1, 1) translate(-29.000000, -28.000000) "></path>
                        <path d="M33.499963,66 C19.4167345,66 8,74.9543469 8,86 L59,86 C59,74.9543469 47.5831914,66 33.499963,66" id="Fill-6" fill="#FEFEFE" transform="translate(33.500000, 76.000000) scale(-1, 1) rotate(-180.000000) translate(-33.500000, -76.000000) "></path>
                        <circle id="Oval" fill="#EAEAEA" transform="translate(36.500000, 64.500000) scale(-1, 1) translate(-36.500000, -64.500000) " cx="36.5" cy="64.5" r="15.5"></circle>
                        <path d="M26,64.5 C26,58.1486494 31.1486494,53 37.5,53 C43.8513506,53 49,58.1486494 49,64.5 C49,70.8513506 43.8513506,76 37.5,76 C31.1486494,76 26,70.8513506 26,64.5" id="Fill-14" fill="url(#linearGradient-3)" transform="translate(37.500000, 64.500000) scale(-1, 1) translate(-37.500000, -64.500000) "></path>
                        <path d="M40.4727899,75 C40.4727899,75 37.5399298,62.8044558 50,54.1117728 C50,54.1117728 38.6120327,48.9285294 34.5385001,60.9453562 C34.5385001,60.9453562 31.3540793,70.1752879 40.4727899,75" id="Fill-19" fill="url(#linearGradient-4)" opacity="0.263416109" transform="translate(42.000000, 64.000000) scale(-1, 1) translate(-42.000000, -64.000000) "></path>
                        <path d="M68,63 C58.6666667,63.6060606 54,64.7575758 54,66.4545455 C54,68.1515152 58.6666667,69 68,69 L68,63 Z" id="Path-4" fill="#FFFFFF" transform="translate(61.000000, 66.000000) scale(-1, 1) translate(-61.000000, -66.000000) "></path>
                        <path d="M14,63 C4.66666667,63.6060606 4.21106619e-16,64.7575758 0,66.4545455 C0,68.1515152 4.66666667,69 14,69 L14,63 Z" id="Path-4" fill="#FFFFFF"></path>
                    </g>
                    <g id="Group-4" transform="translate(664.000000, 304.000000)">
                        <path d="M22.4522293,0 C10.0318471,0 0,8.27087499 0,18.4652093 C0,24.4279331 3.43949045,29.7174462 8.88535032,33.0834999 C9.36305732,33.3720188 9.64968153,33.9490566 9.45859873,34.5260944 C8.69426752,37.0265915 7.3566879,39.9117805 5.06369427,42.2199316 C4.77707006,42.5084505 4.96815287,43.0854883 5.44585987,42.9893153 C7.7388535,42.6046235 12.7070064,41.3543749 17.7707006,36.8342456 C18.0573248,36.5457267 18.4394904,36.4495537 18.8216561,36.5457267 C20.0636943,36.7380726 21.3057325,36.8342456 22.5477707,36.8342456 C34.9681529,36.8342456 45,28.5633706 45,18.3690363 C44.9044586,8.27087499 34.8726115,0 22.4522293,0 Z M8.55633803,21.5 C6.57784545,21.5 5.07042254,19.902027 5.07042254,18.0220588 C5.07042254,16.1420906 6.67205938,14.5441176 8.55633803,14.5441176 C10.4406167,14.5441176 12.0422535,16.1420906 12.0422535,18.0220588 C12.0422535,19.902027 10.5348306,21.5 8.55633803,21.5 Z M22.5,21.5 C20.5215074,21.5 19.0140845,19.902027 19.0140845,18.0220588 C19.0140845,16.1420906 20.6157214,14.5441176 22.5,14.5441176 C24.3842786,14.5441176 25.9859155,16.1420906 25.9859155,18.0220588 C25.9859155,19.902027 24.4784926,21.5 22.5,21.5 Z M35.8098592,21.5 C33.8313666,21.5 32.3239437,19.902027 32.3239437,18.0220588 C32.3239437,16.1420906 33.9255805,14.5441176 35.8098592,14.5441176 C37.7883517,14.5441176 39.2957746,16.1420906 39.2957746,18.0220588 C39.2957746,19.902027 37.7883517,21.5 35.8098592,21.5 Z" id="Shape" fill="#CDFFFB" fill-rule="nonzero" transform="translate(22.500000, 21.500000) scale(-1, 1) translate(-22.500000, -21.500000) "></path>
                        <g id="Group-3" transform="translate(43.000000, 7.000000)">
                            <path d="M30.6315464,27.2884615 C18.2487697,27.2884615 8.21052632,36.6646959 8.21052632,48.2307692 L53.0526316,48.2307692 C53.0526316,36.6646959 43.0143231,27.2884615 30.6315464,27.2884615" id="Fill-6" fill="#FEFEFE"></path>
                            <path d="M19.9985214,33.4099046 C19.9985214,33.4099046 20.165095,18.7175449 11.4980702,12.9222052 C2.83104534,7.1268655 7.65372681,4.53992333 7.65372681,4.53992333 C7.65372681,4.53992333 10.8437991,1.47471592 19.0816151,7.88713677 C27.3194312,14.2995576 27.809884,28.1559341 28.3937683,32.0979076 C28.9775899,36.039881 19.9985214,33.4099046 19.9985214,33.4099046" id="Fill-9" fill="#FFFFFF"></path>
                            <path d="M33.0793196,31.6508312 C33.0793196,31.6508312 36.951188,17.4719287 30.4596066,9.41974598 C23.9680252,1.36756329 29.0512307,0.220894984 29.0512307,0.220894984 C29.0512307,0.220894984 32.7563601,-1.84846781 38.6976434,6.68033895 C44.6388669,15.209081 41.5819872,28.7635755 41.1203177,32.7448074 C40.6585884,36.7260392 33.0793196,31.6508312 33.0793196,31.6508312" id="Fill-10" fill="#FFFFFF"></path>
                            <path d="M24.3624365,21.9036717 C24.3624365,21.9036717 23.7596097,18.7012837 21.7328758,15.080652 C21.1370181,14.0161422 20.4175929,12.9157926 19.5545642,11.8497274 C16.9386737,8.79468842 14.0432152,7.68176106 13.1951298,7.40694415 C11.7134598,6.94914136 10.1438719,6.70752698 9.61395252,7.48518311 C9.28419365,7.9690881 9.56845236,8.65383123 10.1269182,9.37495514 C10.1269852,9.37502276 13.361383,12.189056 14.2987264,12.6747868 C14.2987264,12.6747868 18.2672917,16.2187348 20.9442288,24.4386954 C20.9442288,24.4386954 21.5760712,26.0192308 22.7663124,26.0192308 C23.4602736,26.0192308 23.977662,25.4210441 23.9816156,25.4165135 C24.5276175,24.7763334 24.9167477,23.6936332 24.3624365,21.9036717" id="Fill-21" fill="url(#linearGradient-5)"></path>
                            <path d="M39.7416083,21.3316813 C39.7416083,21.3316813 40.0527511,18.2110216 39.0884678,14.319041 C38.8049032,13.174708 38.410616,11.9639144 37.8662184,10.7459675 C36.166401,7.21691933 33.6467448,5.40602886 32.8943498,4.92285594 C31.5735287,4.09938102 30.1059421,3.45174723 29.3687015,4.02667748 C28.909974,4.38440752 28.9954393,5.09368976 29.3390071,5.91072671 C29.3390753,5.91079174 31.711693,9.38449937 32.4920758,10.0866283 C32.4920758,10.0866283 35.3777584,14.4329085 35.6843276,22.748555 C35.6843276,22.748555 35.8578522,24.3791823 37.022351,24.7010809 C37.7012267,24.8887574 38.3757336,24.4761421 38.3808533,24.4730206 C39.0951575,24.029451 39.7803817,23.1347682 39.7416083,21.3316813" id="Fill-22" fill="url(#linearGradient-6)"></path>
                            <path d="M30.6315464,48.2307692 C18.2487697,48.2307692 8.21052632,56.1863621 8.21052632,66 L53.0526316,66 C53.0526316,56.1863621 43.0143231,48.2307692 30.6315464,48.2307692" id="Fill-6" fill="#FEFEFE" transform="translate(30.631579, 57.115385) rotate(-180.000000) translate(-30.631579, -57.115385) "></path>
                            <ellipse id="Oval" fill="#EAEAEA" cx="27.4736842" cy="46.6442308" rx="13.5789474" ry="13.6442308"></ellipse>
                            <path d="M16.4210526,46.9615385 C16.4210526,41.353657 20.9452663,36.8076923 26.5263158,36.8076923 C32.1073653,36.8076923 36.6315789,41.353657 36.6315789,46.9615385 C36.6315789,52.5694199 32.1073653,57.1153846 26.5263158,57.1153846 C20.9452663,57.1153846 16.4210526,52.5694199 16.4210526,46.9615385" id="Fill-14" fill="url(#linearGradient-7)"></path>
                            <path d="M22.0421596,55.8461538 C22.0421596,55.8461538 19.4952022,45.2923175 30.3157895,37.7698034 C30.3157895,37.7698034 20.4262389,33.2843043 16.8886974,43.6834813 C16.8886974,43.6834813 14.1232794,51.6709222 22.0421596,55.8461538" id="Fill-19" fill="url(#linearGradient-8)" opacity="0.263416109"></path>
                            <path d="M12,45.0576923 C4,45.6346154 3.6094853e-16,46.7307692 0,48.3461538 C0,49.9615385 4,50.7692308 12,50.7692308 L12,45.0576923 Z" id="Path-4" fill="#FFFFFF"></path>
                            <path d="M60,45.0576923 C52,45.6346154 48,46.7307692 48,48.3461538 C48,49.9615385 52,50.7692308 60,50.7692308 L60,45.0576923 Z" id="Path-4" fill="#FFFFFF" transform="translate(54.000000, 47.913462) scale(-1, 1) translate(-54.000000, -47.913462) "></path>
                        </g>
                    </g>
                    <g id="Group-12" transform="translate(298.000000, 21.000000)">
                        <g id="Group-3">
                            <mask id="mask-10" fill="white">
                                <use xlink:href="#path-9"></use>
                            </mask>
                            <g id="Clip-2"></g>
                            <path d="M354.480706,177.996213 C354.480706,276.014222 275.126846,355.472298 177.240566,355.472298 C79.354286,355.472298 0.000426,276.014222 0.000426,177.996213 C0.000426,79.9782028 79.354286,0.520127482 177.240566,0.520127482 C275.126846,0.520127482 354.480706,79.9782028 354.480706,177.996213" id="Fill-1" fill="#CDFFFB" mask="url(#mask-10)"></path>
                        </g>
                        <path d="M66.3312493,181.624977 C77.8466795,159.77434 99.5657635,174.430672 121.450066,157.849023 C144.503715,140.381614 145.081979,175.043014 161.390164,184.017383 C175.651636,191.865327 187.732512,173.77988 198.73662,188.437637 C206.537487,198.828936 200.155218,213.065173 181.707741,223.049195 C166.046186,231.52657 153.906915,246.946193 158.088647,261.801893 C167.157137,294.015349 189.581247,320.535449 177.980359,325.294627 C151.659376,336.091781 124.550757,293.297627 110.461625,262.290342 C98.1343464,235.159324 87.1031768,242.802205 71.5840516,223.722771 C56.0620778,204.641912 66.3312493,181.624977 66.3312493,181.624977" id="Fill-4" fill="#0CD2C2"></path>
                        <path d="M355,177.617126 C355,220.45371 339.879773,259.745619 314.696451,290.428627 C300.673499,297.623362 288.78398,297.503735 283.949999,292.054991 C275.363677,282.376563 290.844925,277.656977 295.025089,253.533539 C300.872487,219.787214 286.671867,218.032679 285.762209,196.985374 C284.615187,170.375395 287.57584,157.625106 268.841142,154.597393 C253.594416,152.133638 247.084674,159.138963 226.83909,155.202651 C211.79988,152.2789 199.142837,133.101486 205.835932,124.266147 C222.306433,102.521016 200.414937,87.8566885 235.193734,80.6363195 C262.496276,74.9696828 270.103293,86.038067 276.092825,84.3547383 C284.394879,82.0220037 275.443272,71.7810425 270.548173,66.1585539 C259.585369,53.5677684 265.128599,36.0395038 274.954331,29 C323.171908,60.772472 355,115.470684 355,177.617126" id="Fill-6" fill="#0CD2C2"></path>
                        <path d="M194.669215,43.8045566 C172.98069,41.0618563 190.584559,24.4240468 159.267918,26.6576745 C127.951276,28.8927322 111.612654,61.3604128 123.866621,66.8515334 C136.120587,72.342654 160.272714,67.2075982 152.405127,83.0160196 C145.567954,96.756691 127.292323,107.640264 103.387837,111.592726 C68.1929074,117.412742 49.2284351,99.5294209 46.5043826,114.632862 C43.7803301,129.736304 68.4690131,146.152467 51.3718119,148 C22.2981729,146.857447 12.0210656,114.308257 19.2055051,98.0608321 C48.4798188,39.8821233 108.51714,0 177.83104,0 C194.515506,0 210.663417,2.30655665 225.977317,6.639394 C236.218844,25.8611761 219.10314,46.8933119 194.669215,43.8045566" id="Fill-8" fill="#0CD2C2"></path>
                        <path d="M159.599394,51.264595 C165.988378,40.5837724 175.722837,44.5978117 181.69469,55.5067047 C187.666544,66.4170232 201.402368,61.8712948 197.221228,69.4475089 C190.697414,81.2715344 149.446401,68.2344593 159.599394,51.264595" id="Fill-10" fill="#0CD2C2"></path>
                    </g>
                    <g id="Group-5" transform="translate(683.000000, 0.000000)">
                        <path d="M17.462845,0 C7.80254777,0 0,6.53976162 0,14.600398 C0,19.3151099 2.67515924,23.4975156 6.91082803,26.1590465 C7.28237792,26.3871777 7.50530786,26.8434401 7.3566879,27.2997026 C6.76220807,29.2768398 5.72186837,31.558152 3.93842887,33.3832017 C3.71549894,33.611333 3.8641189,34.0675954 4.23566879,33.9915517 C6.01910828,33.6873767 9.88322718,32.6988081 13.8216561,29.1247523 C14.044586,28.8966211 14.3418259,28.8205774 14.6390658,28.8966211 C15.6050955,29.0487086 16.5711253,29.1247523 17.537155,29.1247523 C27.1974522,29.1247523 35,22.5849907 35,14.5243543 C34.92569,6.53976162 27.1231423,0 17.462845,0 Z M6.91860465,17 C5.30169705,17 4.06976744,15.6981982 4.06976744,14.1666667 C4.06976744,12.6351351 5.37869265,11.3333333 6.91860465,11.3333333 C8.45851666,11.3333333 9.76744186,12.6351351 9.76744186,14.1666667 C9.76744186,15.6981982 8.53551226,17 6.91860465,17 Z M17.5,17 C15.8830924,17 14.6511628,15.6981982 14.6511628,14.1666667 C14.6511628,12.6351351 15.960088,11.3333333 17.5,11.3333333 C19.039912,11.3333333 20.3488372,12.6351351 20.3488372,14.1666667 C20.3488372,15.6981982 19.1169076,17 17.5,17 Z M28.0813953,17 C26.4644877,17 25.2325581,15.6981982 25.2325581,14.1666667 C25.2325581,12.6351351 26.5414833,11.3333333 28.0813953,11.3333333 C29.698303,11.3333333 30.9302326,12.6351351 30.9302326,14.1666667 C30.9302326,15.6981982 29.698303,17 28.0813953,17 Z" id="Shape" fill="#CDFFFB" fill-rule="nonzero" transform="translate(17.500000, 17.000000) scale(-1, 1) translate(-17.500000, -17.000000) "></path>
                        <g id="Group-3" transform="translate(35.000000, 2.000000)">
                            <path d="M25.4098087,22.9850746 C14.9979072,22.9850746 6.55737705,30.7031871 6.55737705,40.2238806 L44.2622951,40.2238806 C44.2622951,30.7031871 35.8217101,22.9850746 25.4098087,22.9850746" id="Fill-6" fill="#FEFEFE"></path>
                            <path d="M16.8996525,28.0134568 C16.8996525,28.0134568 17.0355381,15.7393669 9.96524851,10.8979036 C2.89495893,6.05644029 6.82915263,3.8952925 6.82915263,3.8952925 C6.82915263,3.8952925 9.43151451,1.33459892 16.1516689,6.6915757 C22.8718232,12.0485525 23.2719194,23.6242568 23.7482341,26.9174062 C24.2244977,30.2105556 16.8996525,28.0134568 16.8996525,28.0134568" id="Fill-9" fill="#FFFFFF"></path>
                            <path d="M27.753888,26.5360755 C27.753888,26.5360755 30.8944916,14.6484753 25.62895,7.89752058 C20.3634084,1.14656587 24.4865686,0.185198485 24.4865686,0.185198485 C24.4865686,0.185198485 27.4919246,-1.5497565 32.3111008,5.60080011 C37.1302285,12.7513025 34.6506898,24.1153987 34.276214,27.4532658 C33.9016897,30.791133 27.753888,26.5360755 27.753888,26.5360755" id="Fill-10" fill="#FFFFFF"></path>
                            <path d="M20.2734927,17.9716647 C20.2734927,17.9716647 19.7845194,15.3481495 18.140567,12.3819935 C17.6572466,11.5099075 17.0736965,10.6084602 16.3736646,9.73510009 C14.2518272,7.23229864 11.9032228,6.3205472 11.2153119,6.09540698 C10.0134792,5.72035793 8.74033323,5.52241846 8.31049769,6.15950325 C8.04301909,6.55593618 8.27359097,7.11690319 8.72658154,7.70767469 C8.72663589,7.70773009 11.3501655,10.0130907 12.1104765,10.4110194 C12.1104765,10.4110194 15.3295143,13.3143532 17.5008686,20.0484503 C17.5008686,20.0484503 18.0133774,21.3432836 18.9788224,21.3432836 C19.5417178,21.3432836 19.9613891,20.8532269 19.964596,20.8495152 C20.4074766,20.3250559 20.7231133,19.4380677 20.2734927,17.9716647" id="Fill-21" fill="url(#linearGradient-11)"></path>
                            <path d="M32.7466897,17.7085753 C32.7466897,17.7085753 33.0079757,15.1397826 32.198207,11.9360717 C31.9600802,10.9941061 31.6289728,9.99743294 31.1718083,8.99487148 C29.744366,6.08991099 27.6284541,4.59926392 26.9966213,4.20153678 C25.8874457,3.52368768 24.6550221,2.99058343 24.0359153,3.46384125 C23.6506934,3.75830922 23.7224639,4.34215982 24.0109791,5.01470946 C24.0110364,5.01476299 26.0034709,7.87416954 26.6588069,8.45213185 C26.6588069,8.45213185 29.0820938,12.0298026 29.339539,18.8748847 C29.339539,18.8748847 29.4852584,20.2171469 30.4631604,20.4821199 C31.0332545,20.6366072 31.5996798,20.29696 31.6039792,20.2943906 C32.2038248,19.9292631 32.7792501,19.1927988 32.7466897,17.7085753" id="Fill-22" fill="url(#linearGradient-12)"></path>
                            <path d="M25.4098087,40.2238806 C14.9979072,40.2238806 6.55737705,46.8394055 6.55737705,55 L44.2622951,55 C44.2622951,46.8394055 35.8217101,40.2238806 25.4098087,40.2238806" id="Fill-6" fill="#FEFEFE" transform="translate(25.409836, 47.611940) rotate(-180.000000) translate(-25.409836, -47.611940) "></path>
                            <ellipse id="Oval" fill="#EAEAEA" cx="22.9508197" cy="38.5820896" rx="11.4754098" ry="11.4925373"></ellipse>
                            <path d="M13.1147541,38.9925373 C13.1147541,34.2321156 16.9679842,30.3731343 21.7213115,30.3731343 C26.4746387,30.3731343 30.3278689,34.2321156 30.3278689,38.9925373 C30.3278689,43.7529591 26.4746387,47.6119403 21.7213115,47.6119403 C16.9679842,47.6119403 13.1147541,43.7529591 13.1147541,38.9925373" id="Fill-14" fill="url(#linearGradient-13)"></path>
                            <path d="M18.576796,46.7910448 C18.576796,46.7910448 16.4733103,38.14495 25.4098361,31.982227 C25.4098361,31.982227 17.2422366,28.3075395 14.3206456,36.8269316 C14.3206456,36.8269316 12.0367372,43.3705399 18.576796,46.7910448" id="Fill-19" fill="url(#linearGradient-14)" opacity="0.263416109"></path>
                            <path d="M9.83606557,37.761194 C3.27868852,38.2587065 2.95859451e-16,39.2039801 0,40.5970149 C0,41.9900498 3.27868852,42.6865672 9.83606557,42.6865672 L9.83606557,37.761194 Z" id="Path-4" fill="#FFFFFF"></path>
                            <path d="M50,37.761194 C43.442623,38.2587065 40.1639344,39.2039801 40.1639344,40.5970149 C40.1639344,41.9900498 43.442623,42.6865672 50,42.6865672 L50,37.761194 Z" id="Path-4" fill="#FFFFFF" transform="translate(45.081967, 40.223881) scale(-1, 1) translate(-45.081967, -40.223881) "></path>
                        </g>
                    </g>
                </g>
            </g>
        </g>
    </g>
</svg>