<?xml version="1.0" encoding="UTF-8"?>
<svg width="384px" height="328px" viewBox="0 0 384 328" version="1.1" xmlns="http://www.w3.org/2000/svg" xmlns:xlink="http://www.w3.org/1999/xlink">
    <!-- Generator: Sketch 53 (72520) - https://sketchapp.com -->
    <title>Research_Image</title>
    <desc>Created with Sketch.</desc>
    <defs>
        <polygon id="path-1" points="0.066339422 0.213009851 293.792751 0.213009851 293.792751 238.815386 0.066339422 238.815386"></polygon>
        <path d="M20.6099064,0.538669075 C9.2816733,0.538669075 0,9.82000578 0,21.147828 L0,21.147828 L15.467269,183.3974 C15.467269,194.731782 24.7423828,204 36.0771754,204 L36.0771754,204 L294.114252,204 C305.442486,204 314.730718,194.731782 314.730718,183.3974 L314.730718,183.3974 L330.191428,21.147828 C330.191428,9.82000578 320.916314,0.538669075 309.568402,0.538669075 L309.568402,0.538669075 L20.6099064,0.538669075 Z" id="path-3"></path>
        <polygon id="path-5" points="0.00174000001 0.108947368 172.1846 0.108947368 172.1846 217 0.00174000001 217"></polygon>
        <polygon id="path-7" points="0 217 172 217 172 0 0 0"></polygon>
    </defs>
    <g id="HD_Desktop" stroke="none" stroke-width="1" fill="none" fill-rule="evenodd">
        <g id="VW_HD_Desktop_Home" transform="translate(-1191.000000, -2638.000000)">
            <g id="Research_Module" transform="translate(0.000000, 2524.000000)">
                <g id="Research_Image" transform="translate(1191.000000, 114.000000)">
                    <g id="Documents_Folder" transform="translate(53.000000, 0.000000)">
                        <g id="Group-10" transform="translate(18.000000, 0.000000)">
                            <g id="Group-3">
                                <mask id="mask-2" fill="white">
                                    <use xlink:href="#path-1"></use>
                                </mask>
                                <g id="Clip-2"></g>
                                <path d="M131.068593,20.6894443 L109.82269,6.43751075 L109.776971,6.50952327 C106.308919,2.6797662 101.364822,0.211700533 95.8263874,0.211700533 L18.9610208,0.211700533 C8.56992574,0.211700533 0.066339422,8.73536499 0.066339422,19.1575415 L0.066339422,39.6352853 L0.066339422,192.334574 L0.066339422,219.869545 C0.066339422,230.291722 8.57645691,238.815386 18.9610208,238.815386 L274.891538,238.815386 C285.276102,238.815386 293.792751,230.291722 293.792751,219.869545 L293.792751,39.6352853 C293.792751,29.2131088 285.276102,20.6894443 274.891538,20.6894443 L131.068593,20.6894443 Z" id="Fill-1" fill="#145072" mask="url(#mask-2)"></path>
                            </g>
                            <polygon id="Fill-4" fill="#C3C3C3" points="257.696268 32.9420483 27.8904396 32.9420483 27.8904396 75.2068546 281.365236 75.2068546 281.365236 56.6669024"></polygon>
                            <polygon id="Fill-6" fill="#FFFFFF" points="273.664331 75.1623378 20.1895343 75.1623378 20.1895343 40.0725977 252.085337 40.0725977 273.664331 61.702542"></polygon>
                            <polygon id="Fill-8" fill="#E5E4E4" points="252.084031 40.0699791 252.084031 61.6999233 273.663024 61.6999233"></polygon>
                        </g>
                        <g id="Group-13" transform="translate(0.000000, 74.000000)">
                            <mask id="mask-4" fill="white">
                                <use xlink:href="#path-3"></use>
                            </mask>
                            <g id="Clip-12"></g>
                            <path d="M20.6099064,0.538669075 C9.2816733,0.538669075 0,9.82000578 0,21.147828 L0,21.147828 L15.467269,183.3974 C15.467269,194.731782 24.7423828,204 36.0771754,204 L36.0771754,204 L294.114252,204 C305.442486,204 314.730718,194.731782 314.730718,183.3974 L314.730718,183.3974 L330.191428,21.147828 C330.191428,9.82000578 320.916314,0.538669075 309.568402,0.538669075 L309.568402,0.538669075 L20.6099064,0.538669075 Z" id="Fill-11" fill="#2D77A0" mask="url(#mask-4)"></path>
                        </g>
                    </g>
                    <g id="Group-11" transform="translate(0.000000, 111.000000)">
                        <g id="Group-3" transform="translate(129.000000, 0.000000)" fill="#E3E2E2">
                            <path d="M0.284475,33.6586496 C0.284475,38.8478981 4.5195916,43.08775 9.70436526,43.08775 L43.284475,43.08775 L0.284475,0.08775 L0.284475,33.6586496 Z" id="Fill-1"></path>
                        </g>
                        <g id="Group-6">
                            <mask id="mask-6" fill="white">
                                <use xlink:href="#path-5"></use>
                            </mask>
                            <g id="Clip-5"></g>
                            <path d="M129.90434,33.0684211 L129.90434,0.108947368 L9.26434,0.108947368 C4.16614,0.108947368 0.00174000001,4.26578947 0.00174000001,9.35473684 L0.00174000001,207.748421 C0.00174000001,212.831579 4.16614,217 9.26434,217 L162.92374,217 C168.01614,217 172.18634,212.831579 172.18634,207.748421 L172.18634,42.3257895 L139.16694,42.3257895 C134.06874,42.3257895 129.90434,38.1631579 129.90434,33.0684211" id="Fill-4" fill="#FFFFFF" mask="url(#mask-6)"></path>
                        </g>
                        <mask id="mask-8" fill="white">
                            <use xlink:href="#path-7"></use>
                        </mask>
                        <g id="Clip-8"></g>
                        <polygon id="Fill-7" fill="#E3E2E2" mask="url(#mask-8)" points="39 81 134 81 134 71 39 71"></polygon>
                        <polygon id="Fill-9" fill="#E3E2E2" mask="url(#mask-8)" points="39 106 134 106 134 96 39 96"></polygon>
                        <polygon id="Fill-10" fill="#E3E2E2" mask="url(#mask-8)" points="39 131 134 131 134 121 39 121"></polygon>
                    </g>
                </g>
            </g>
        </g>
    </g>
</svg>