<?xml version="1.0" encoding="UTF-8"?>
<svg width="924px" height="391px" viewBox="0 0 924 391" version="1.1" xmlns="http://www.w3.org/2000/svg" xmlns:xlink="http://www.w3.org/1999/xlink">
    <!-- Generator: Sketch 53 (72520) - https://sketchapp.com -->
    <title>Research_Robot</title>
    <desc>Created with Sketch.</desc>
    <defs>
        <path d="M56.65011,124.629076 C42.2469992,201.611526 22.3512719,249.225527 0.375178715,249.225527 L0.375178715,249.225527 L225.480532,249.225527 C203.502563,249.225527 183.608711,201.611526 169.2056,124.629076 L169.2056,124.629076 C154.802489,47.6504014 134.904886,0.0364002313 112.928793,0.0364002313 L112.928793,0.0364002313 C90.950824,0.0364002313 71.0532209,47.6504014 56.65011,124.629076" id="path-1"></path>
        <linearGradient x1="49.9998673%" y1="-7.24242424e-05%" x2="49.9998673%" y2="99.9999276%" id="linearGradient-3">
            <stop stop-color="#28FFFF" offset="0%"></stop>
            <stop stop-color="#6067F6" offset="100%"></stop>
        </linearGradient>
        <path d="M42.1038848,94.0856658 C31.3271616,152.047007 16.4429705,187.899906 0,187.899906 L0,187.899906 L168.413668,187.899906 C151.970697,187.899906 137.086506,152.047007 126.309783,94.0856658 L126.309783,94.0856658 C115.534931,36.1224451 100.65074,0.269546043 84.2077695,0.269546043 L84.2077695,0.269546043 C67.7629278,0.269546043 52.8768654,36.1224451 42.1038848,94.0856658 M249.814512,128.887662 C243.352969,165.349671 234.417589,187.899906 224.552181,187.899906 L224.552181,187.899906 L325.603376,187.899906 C315.736096,187.899906 306.80633,165.349671 300.342916,128.887662 L300.342916,128.887662 C293.875759,92.4275326 284.944122,69.8754181 275.076843,69.8754181 L275.076843,69.8754181 C265.211435,69.8754181 256.281668,92.4275326 249.814512,128.887662" id="path-4"></path>
        <linearGradient x1="56.4611092%" y1="64.2890311%" x2="54.5241829%" y2="14.2142433%" id="linearGradient-6">
            <stop stop-color="#0CD2C2" offset="0%"></stop>
            <stop stop-color="#3455B5" offset="100%"></stop>
        </linearGradient>
        <linearGradient x1="36.8791544%" y1="69.4039021%" x2="53.082235%" y2="-57.7660044%" id="linearGradient-7">
            <stop stop-color="#0CD2C2" offset="0%"></stop>
            <stop stop-color="#3455B5" offset="100%"></stop>
        </linearGradient>
        <linearGradient x1="45.3198947%" y1="69.4039021%" x2="51.0994097%" y2="-57.7660044%" id="linearGradient-8">
            <stop stop-color="#0CD2C2" offset="0%"></stop>
            <stop stop-color="#3455B5" offset="100%"></stop>
        </linearGradient>
        <polygon id="path-9" points="0 0 56 0 56 14 0 14"></polygon>
        <linearGradient x1="128.501045%" y1="-25.3003888%" x2="29.3159089%" y2="135.034199%" id="linearGradient-11">
            <stop stop-color="#FFFFFF" offset="0%"></stop>
            <stop stop-color="#00BFD6" offset="58.129223%"></stop>
            <stop stop-color="#2A3B93" offset="100%"></stop>
        </linearGradient>
        <polygon id="path-12" points="0 0 53 0 53 54 0 54"></polygon>
        <polygon id="path-14" points="0 0 53 0 53 54 0 54"></polygon>
        <path d="M324.173258,239.05067 L333.626088,239.05067 L333.626088,0.148417391 L324.173258,0.148417391 L324.173258,239.05067 Z M270.157686,239.05067 L279.610516,239.05067 L279.610516,49.6016174 L270.157686,49.6016174 L270.157686,239.05067 Z M216.142113,239.05067 L225.594943,239.05067 L225.594943,84.6828348 L216.142113,84.6828348 L216.142113,239.05067 Z M108.104667,239.05067 L117.557497,239.05067 L117.557497,84.6828348 L108.104667,84.6828348 L108.104667,239.05067 Z M162.120239,239.05067 L171.573069,239.05067 L171.573069,133.798635 L162.120239,133.798635 L162.120239,239.05067 Z M54.0890943,239.05067 L63.5419245,239.05067 L63.5419245,154.851557 L54.0890943,154.851557 L54.0890943,239.05067 Z M0.0756226415,239.05067 L9.52845283,239.05067 L9.52845283,196.951113 L0.0756226415,196.951113 L0.0756226415,239.05067 Z" id="path-16"></path>
        <linearGradient x1="49.9993327%" y1="-0.000264037404%" x2="49.9993327%" y2="100.000613%" id="linearGradient-18">
            <stop stop-color="#28FFFF" offset="0%"></stop>
            <stop stop-color="#6067F6" offset="100%"></stop>
        </linearGradient>
        <path d="M270.453874,218.049678 L279.906704,218.049678 L279.906704,0.306418106 L270.453874,0.306418106 L270.453874,218.049678 Z M216.440403,218.049678 L225.893233,218.049678 L225.893233,42.4499365 L216.440403,42.4499365 L216.440403,218.049678 Z M324.469447,218.049678 L333.922277,218.049678 L333.922277,49.4735066 L324.469447,49.4735066 L324.469447,218.049678 Z M162.42483,218.049678 L171.87766,218.049678 L171.87766,77.5698849 L162.42483,77.5698849 L162.42483,218.049678 Z M108.409258,218.049678 L117.862088,218.049678 L117.862088,98.6405952 L108.409258,98.6405952 L108.409258,218.049678 Z M54.3936855,218.049678 L63.8465157,218.049678 L63.8465157,112.687735 L54.3936855,112.687735 L54.3936855,218.049678 Z M0.371811321,218.049678 L9.82464151,218.049678 L9.82464151,154.83545 L0.371811321,154.83545 L0.371811321,218.049678 Z" id="path-19"></path>
        <linearGradient x1="58.6602523%" y1="57.0174345%" x2="54.5241829%" y2="4.07511037%" id="linearGradient-21">
            <stop stop-color="#0CD2C2" offset="0%"></stop>
            <stop stop-color="#3455B5" offset="100%"></stop>
        </linearGradient>
    </defs>
    <g id="HD_Desktop" stroke="none" stroke-width="1" fill="none" fill-rule="evenodd">
        <g id="VW_HD_Desktop_Learn" transform="translate(-274.000000, -4574.000000)">
            <g id="Research_module" transform="translate(0.000000, 4094.000000)">
                <g id="Research_Robot" transform="translate(256.000000, 451.000000)">
                    <rect id="Rectangle" fill="#656565" opacity="0" x="0" y="0" width="960" height="439"></rect>
                    <g id="Group-17" transform="translate(18.000000, 114.083971)">
                        <g id="Group-12">
                            <g id="Group-3" transform="translate(86.097046, 49.646154)">
                                <mask id="mask-2" fill="white">
                                    <use xlink:href="#path-1"></use>
                                </mask>
                                <g id="Clip-2"></g>
                                <path d="M56.65011,124.629076 C42.2469992,201.611526 22.3512719,249.225527 0.375178715,249.225527 L0.375178715,249.225527 L225.480532,249.225527 C203.502563,249.225527 183.608711,201.611526 169.2056,124.629076 L169.2056,124.629076 C154.802489,47.6504014 134.904886,0.0364002313 112.928793,0.0364002313 L112.928793,0.0364002313 C90.950824,0.0364002313 71.0532209,47.6504014 56.65011,124.629076" id="Fill-1" fill="url(#linearGradient-3)" mask="url(#mask-2)"></path>
                            </g>
                            <g id="Group-18" transform="translate(0.000000, 0.087466)">
                                <g id="Group-6" transform="translate(17.219409, 110.887839)">
                                    <mask id="mask-5" fill="white">
                                        <use xlink:href="#path-4"></use>
                                    </mask>
                                    <g id="Clip-5"></g>
                                    <path d="M42.1038848,94.0856658 C31.3271616,152.047007 16.4429705,187.899906 0,187.899906 L0,187.899906 L168.413668,187.899906 C151.970697,187.899906 137.086506,152.047007 126.309783,94.0856658 L126.309783,94.0856658 C115.534931,36.1224451 100.65074,0.269546043 84.2077695,0.269546043 L84.2077695,0.269546043 C67.7629278,0.269546043 52.8768654,36.1224451 42.1038848,94.0856658 M249.814512,128.887662 C243.352969,165.349671 234.417589,187.899906 224.552181,187.899906 L224.552181,187.899906 L325.603376,187.899906 C315.736096,187.899906 306.80633,165.349671 300.342916,128.887662 L300.342916,128.887662 C293.875759,92.4275326 284.944122,69.8754181 275.076843,69.8754181 L275.076843,69.8754181 C265.211435,69.8754181 256.281668,92.4275326 249.814512,128.887662" id="Fill-4" fill="url(#linearGradient-6)" mask="url(#mask-5)"></path>
                                </g>
                                <path d="M284.106295,164.417901 L292.544784,172.900629 L300.983273,164.417901 L309.421762,164.417901 C314.081683,164.417901 317.860251,160.619523 317.860251,155.935172 L317.860251,138.965945 C317.860251,134.281594 314.081683,130.483216 309.421762,130.483216 L275.667806,130.483216 C271.007885,130.483216 267.229317,134.281594 267.229317,138.965945 L267.229317,155.935172 C267.229317,160.619523 271.007885,164.417901 275.667806,164.417901 L284.106295,164.417901 Z M190.7091,33.9346845 L199.147589,42.4174131 L207.586077,33.9346845 L216.024566,33.9346845 C220.684487,33.9346845 224.463055,30.1381922 224.463055,25.4519559 L224.463055,8.48272859 C224.463055,3.79837736 220.684487,3.26849658e-13 216.024566,3.26849658e-13 L182.270611,3.26849658e-13 C177.608814,3.26849658e-13 173.832122,3.79837736 173.832122,8.48272859 L173.832122,25.4519559 C173.832122,30.1381922 177.608814,33.9346845 182.270611,33.9346845 L190.7091,33.9346845 Z M84.3841392,94.62578 C79.724218,94.62578 75.9456502,90.8274026 75.9456502,86.1430514 L75.9456502,69.1738241 C75.9456502,64.4875878 79.724218,60.6910955 84.3841392,60.6910955 L118.138095,60.6910955 C122.798016,60.6910955 126.576584,64.4875878 126.576584,69.1738241 L126.576584,86.1430514 C126.576584,90.8274026 122.798016,94.62578 118.138095,94.62578 L109.699606,94.62578 L101.261117,103.108509 L92.8226281,94.62578 L84.3841392,94.62578 Z" id="Fill-9" fill="#333268"></path>
                                <path d="M360.042194,298.06638 L6.15821896,298.06638" id="Line" stroke="#FFFFFF" stroke-width="2" stroke-linecap="square"></path>
                                <ellipse id="Oval" fill="#FFFFFF" cx="364.738397" cy="298.06638" rx="6.26160338" ry="6.27692308"></ellipse>
                                <ellipse id="Oval" fill="#FFFFFF" cx="6.26160338" cy="298.06638" rx="6.26160338" ry="6.27692308"></ellipse>
                            </g>
                            <path d="M299.847827,143.740402 C299.847827,143.078749 299.74094,142.550934 299.52904,142.155074 C299.315265,141.757328 298.988977,141.561283 298.550175,141.561283 C298.132001,141.561283 297.815089,141.751673 297.599439,142.136223 C297.381913,142.522659 297.273151,143.056128 297.273151,143.740402 C297.273151,144.407709 297.381913,144.946834 297.599439,145.35212 C297.815089,145.761176 298.139502,145.964761 298.572678,145.964761 C299.005854,145.964761 299.326516,145.761176 299.534666,145.35212 C299.742815,144.946834 299.847827,144.407709 299.847827,143.740402 L299.847827,143.740402 Z M298.572678,153.516275 C299.065861,153.516275 299.448405,153.303264 299.714687,152.881013 C299.980968,152.456876 300.114108,151.868741 300.114108,151.11472 C300.114108,150.362585 299.975342,149.770679 299.695934,149.344658 C299.418402,148.916751 299.035857,148.70374 298.550175,148.70374 C298.062618,148.70374 297.678198,148.916751 297.39504,149.344658 C297.113757,149.770679 296.973115,150.362585 296.973115,151.11472 C296.973115,151.868741 297.113757,152.456876 297.39504,152.881013 C297.678198,153.303264 298.070119,153.516275 298.572678,153.516275 L298.572678,153.516275 Z M303.116335,143.565092 C303.116335,144.388859 302.94194,145.118374 302.593149,145.755521 C302.246233,146.392668 301.768052,146.901632 301.156731,147.282412 C301.852437,147.678273 302.401877,148.223052 302.803174,148.918636 C303.206346,149.61422 303.405119,150.432332 303.405119,151.371087 C303.405119,152.879128 302.973819,154.068595 302.107467,154.943258 C301.242991,155.816037 300.063478,156.255254 298.572678,156.255254 C297.080003,156.255254 295.894864,155.816037 295.013511,154.943258 C294.134033,154.068595 293.693356,152.879128 293.693356,151.371087 C293.693356,150.432332 293.894005,149.612335 294.295302,148.912981 C294.696599,148.213627 295.249788,147.670732 295.952996,147.282412 C295.334173,146.901632 294.852242,146.392668 294.503451,145.755521 C294.15466,145.118374 293.98214,144.388859 293.98214,143.565092 C293.98214,142.081557 294.394688,140.920366 295.223535,140.081518 C296.050507,139.240785 297.158762,138.822304 298.550175,138.822304 C299.95659,138.822304 301.068595,139.244555 301.888066,140.090943 C302.705662,140.939216 303.116335,142.096637 303.116335,143.565092 L303.116335,143.565092 Z M284.4654,149.612335 L287.015698,149.612335 L287.015698,143.936447 L286.946315,144.066515 L284.4654,149.612335 Z M290.297333,149.612335 L291.733751,149.612335 L291.733751,152.349429 L290.297333,152.349429 L290.297333,156.021507 L287.015698,156.021507 L287.015698,152.349429 L281.429419,152.349429 L281.279401,150.219321 L287.004447,139.05605 L290.297333,139.05605 L290.297333,149.612335 Z M212.777623,15.0856845 C212.777623,13.7510686 212.648233,12.7482215 212.383827,12.0790285 C212.121296,11.4117205 211.712499,11.0780665 211.155558,11.0780665 C210.112936,11.0780665 209.570998,12.2995794 209.533493,14.7482604 L209.533493,18.9764294 C209.533493,20.3449763 209.666634,21.3629037 209.932915,22.0320967 C210.199196,22.6994047 210.615495,23.0330587 211.178061,23.0330587 C211.712499,23.0330587 212.10817,22.7201403 212.36695,22.0961884 C212.625731,21.4703516 212.762622,20.5127458 212.777623,19.221486 L212.777623,15.0856845 Z M216.070509,18.5240172 C216.070509,20.8690204 215.64671,22.6654738 214.800985,23.9077223 C213.955261,25.1499707 212.74762,25.7720375 211.178061,25.7720375 C209.625379,25.7720375 208.427114,25.1688212 207.579514,23.9586186 C206.73379,22.7503011 206.294989,21.0198244 206.264985,18.7671887 L206.264985,15.5644874 C206.264985,13.2270244 206.685034,11.4362262 207.528883,10.1977478 C208.368982,8.95926943 209.578498,8.33908772 211.155558,8.33908772 C212.730743,8.33908772 213.94026,8.95361428 214.784108,10.1788973 C215.626082,11.4079504 216.053632,13.1610477 216.070509,15.436304 L216.070509,18.5240172 Z M200.770591,15.0856845 C200.770591,13.7510686 200.639326,12.7482215 200.376795,12.0790285 C200.112389,11.4117205 199.703591,11.0780665 199.146651,11.0780665 C198.104029,11.0780665 197.563965,12.2995794 197.524586,14.7482604 L197.524586,18.9764294 C197.524586,20.3449763 197.657726,21.3629037 197.924008,22.0320967 C198.190289,22.6994047 198.604712,23.0330587 199.171029,23.0330587 C199.703591,23.0330587 200.099263,22.7201403 200.358043,22.0961884 C200.616823,21.4703516 200.753714,20.5127458 200.770591,19.221486 L200.770591,15.0856845 Z M204.061602,18.5240172 C204.061602,20.8690204 203.637802,22.6654738 202.792078,23.9077223 C201.946354,25.1499707 200.738712,25.7720375 199.171029,25.7720375 C197.616472,25.7720375 196.418206,25.1688212 195.570607,23.9586186 C194.724883,22.7503011 194.286081,21.0198244 194.256078,18.7671887 L194.256078,15.5644874 C194.256078,13.2270244 194.678002,11.4362262 195.518101,10.1977478 C196.360074,8.95926943 197.569591,8.33908772 199.146651,8.33908772 C200.723711,8.33908772 201.933227,8.95361428 202.775201,10.1788973 C203.617175,11.4079504 204.0466,13.1610477 204.061602,15.436304 L204.061602,18.5240172 Z M189.468642,25.5382912 L186.175756,25.5382912 L186.175756,12.580452 L182.96538,13.8283556 L182.96538,11.0780665 L189.121726,8.54832836 L189.468642,8.54832836 L189.468642,25.5382912 Z M107.380897,77.5807736 C106.964598,77.5807736 106.615807,77.7146122 106.332649,77.9785194 C106.051366,78.2443115 105.841341,78.5704253 105.7007,78.9606308 L105.7007,80.1519829 C105.7007,81.3489902 105.860093,82.2443893 106.177006,82.8344102 C106.493918,83.4282012 106.910217,83.7222691 107.427777,83.7222691 C107.952839,83.7222691 108.374763,83.4376265 108.691675,82.864571 C109.008587,82.2915156 109.166106,81.5601159 109.166106,80.6647167 C109.166106,79.7542372 109.002962,79.0115272 108.674798,78.4403568 C108.34476,77.8691864 107.915334,77.5807736 107.380897,77.5807736 L107.380897,77.5807736 Z M110.199352,69.0867347 L110.199352,71.8841501 L110.013705,71.8841501 C108.783561,71.8916903 107.808447,72.2630453 107.086487,72.9982152 C106.362652,73.7296149 105.925726,74.7588526 105.770083,76.0783882 C106.47329,75.2715864 107.354644,74.8681855 108.414143,74.8681855 C109.634911,74.8681855 110.610025,75.3903446 111.341361,76.4403179 C112.070821,77.4884062 112.436489,78.8871138 112.436489,80.6345559 C112.436489,81.7448509 112.226465,82.7495829 111.810166,83.641212 C111.391992,84.534726 110.806923,85.2284247 110.053085,85.722308 C109.301122,86.2143063 108.447897,86.461248 107.49716,86.461248 C105.966981,86.461248 104.740587,85.8429513 103.817979,84.608243 C102.893496,83.3735347 102.432192,81.7109199 102.432192,79.6203986 L102.432192,78.3970006 C102.432192,76.5270302 102.722851,74.8870361 103.307919,73.4807882 C103.891113,72.0745403 104.733086,70.9925211 105.83384,70.2366157 C106.934594,69.4769403 108.21912,69.0942749 109.689292,69.0867347 L110.199352,69.0867347 Z M100.264438,71.1621757 L94.9331879,86.2275017 L91.4659066,86.2275017 L96.8215342,71.9991382 L90.0538661,71.9991382 L90.0538661,69.2620445 L100.264438,69.2620445 L100.264438,71.1621757 Z" id="Fill-10" fill="#FFFFFF"></path>
                        </g>
                    </g>
                    <g id="Group-14" transform="translate(356.000000, 19.000000)">
                        <path d="M103.293642,106.316032 L100.679416,119.577969 L100.55175,118.769591 L51.623268,98.8628794 L53.1075839,85.8973571 L103.293642,106.316032 Z" id="Combined-Shape" fill="#D0D0D0" transform="translate(77.458455, 102.737663) rotate(-16.000000) translate(-77.458455, -102.737663) "></path>
                        <g id="Group-21" transform="translate(77.000000, 357.083971)" fill="#FFFFFF">
                            <path d="M42.7777778,8.0625 C28.6638342,8.0625 17.2222222,6.2576479 17.2222222,4.03125 C17.2222222,1.8048521 28.6638342,0 42.7777778,0 C56.8917214,0 68.3333333,1.8048521 68.3333333,4.03125 C68.3333333,6.2576479 56.8917214,8.0625 42.7777778,8.0625 Z M43.0555556,5.375 C53.9478381,5.375 62.7777778,4.65305916 62.7777778,3.7625 C62.7777778,2.87194084 53.9478381,2.15 43.0555556,2.15 C32.163273,2.15 23.3333333,2.87194084 23.3333333,3.7625 C23.3333333,4.65305916 32.163273,5.375 43.0555556,5.375 Z" id="Combined-Shape" opacity="0.365908668"></path>
                            <path d="M42.7777778,24.1875 C24.9819358,24.1875 10.5555556,21.901354 10.5555556,19.08125 C10.5555556,16.261146 24.9819358,13.975 42.7777778,13.975 C60.5736197,13.975 75,16.261146 75,19.08125 C75,21.901354 60.5736197,24.1875 42.7777778,24.1875 Z M43.6111111,20.9625 C57.2648174,20.9625 68.3333333,19.9999122 68.3333333,18.8125 C68.3333333,17.6250878 57.2648174,16.6625 43.6111111,16.6625 C29.9574048,16.6625 18.8888889,17.6250878 18.8888889,18.8125 C18.8888889,19.9999122 29.9574048,20.9625 43.6111111,20.9625 Z" id="Combined-Shape" opacity="0.774158296"></path>
                            <path d="M42.5,43 C19.0278981,43 0,40.1122366 0,36.55 C0,32.9877634 19.0278981,30.1 42.5,30.1 C65.9721019,30.1 85,32.9877634 85,36.55 C85,40.1122366 65.9721019,43 42.5,43 Z M43.0555556,38.7 C61.0048099,38.7 75.5555556,37.6170887 75.5555556,36.28125 C75.5555556,34.9454113 61.0048099,33.8625 43.0555556,33.8625 C25.1063012,33.8625 10.5555556,34.9454113 10.5555556,36.28125 C10.5555556,37.6170887 25.1063012,38.7 43.0555556,38.7 Z" id="Combined-Shape" opacity="0.899274554"></path>
                        </g>
                        <path d="M187.765571,162.083971 C194.27463,172.968401 198,185.605369 198,199.083971 L45,199.083971 C45,185.605369 48.7253457,172.968401 55.2343723,162.083971 L187.765571,162.083971 Z" id="Combined-Shape" fill="#FEFEFE"></path>
                        <g id="Group-4" transform="translate(217.866126, 97.018185) rotate(66.000000) translate(-217.866126, -97.018185) translate(141.366126, 30.518185)">
                            <path d="M48.280497,119.009718 C48.280497,119.009718 48.8682638,67.8832748 18.2860476,47.7166635 C-12.2961686,27.5500522 4.72100747,18.548016 4.72100747,18.548016 C4.72100747,18.548016 15.9774055,7.8817135 45.0451277,30.1956426 C74.11285,52.5095717 75.8434477,100.726963 77.9037252,114.444234 C79.9637817,128.161505 48.280497,119.009718 48.280497,119.009718" id="Fill-9" fill="#FFFFFF"></path>
                            <path d="M95.8763752,108.984007 C95.8763752,108.984007 110.180778,60.1614783 86.1979909,32.4352196 C62.215204,4.70896092 80.9948244,0.760612584 80.9948244,0.760612584 C80.9948244,0.760612584 94.6832193,-6.36487006 116.63296,23.0025588 C138.582481,52.3697648 127.289008,99.0422556 125.583396,112.750919 C123.877563,126.459583 95.8763752,108.984007 95.8763752,108.984007" id="Fill-10" fill="#FFFFFF"></path>
                            <path d="M152.765571,133 L20.2343723,133 C33.4615818,110.881388 58.1841839,96 86.4998889,96 C114.815594,96 139.538296,110.881388 152.765571,133 Z" id="Combined-Shape" fill="#FEFEFE"></path>
                            <path d="M63.0766918,75.3812407 C63.0766918,75.3812407 61.0086609,64.7842479 54.055838,52.8032484 C52.0117149,49.2806887 49.5436869,45.6395318 46.5830188,42.1118253 C37.6090612,32.0024235 27.6760301,28.3196457 24.766626,27.4102515 C19.6836745,25.8953405 14.299116,25.0958166 12.4811982,27.6691514 C11.3499421,29.270437 12.3251074,31.5363142 14.2409555,33.9225788 C14.2411854,33.9228026 25.3369667,43.2346944 28.5525754,44.8420217 C28.5525754,44.8420217 42.166959,56.569268 51.3503404,83.7698648 C51.3503404,83.7698648 53.5179109,89 57.6010995,89 C59.9817718,89 61.7567014,87.0205461 61.7702645,87.0055536 C63.6433544,84.8871396 64.9782872,81.3043862 63.0766918,75.3812407" id="Fill-21" fill="url(#linearGradient-7)"></path>
                            <path d="M121.843968,72.4109895 C121.843968,72.4109895 122.858233,61.8311219 119.714858,48.6362712 C118.790493,44.7566777 117.505194,40.6517649 115.730565,36.5226006 C110.189494,24.5581875 101.975908,18.4187865 99.5232481,16.7807017 C95.2176302,13.9889024 90.4335856,11.7932514 88.0303259,13.742418 C86.5349642,14.9552182 86.8135644,17.3598738 87.9335279,20.1298467 C87.9337504,20.1300671 95.6680189,31.906861 98.2119139,34.2872651 C98.2119139,34.2872651 107.618673,49.0223124 108.618029,77.2145686 C108.618029,77.2145686 109.183685,82.7428294 112.979723,83.8341511 C115.192724,84.4704247 117.391485,83.0715487 117.408174,83.0609662 C119.736665,81.557147 121.970362,78.5239341 121.843968,72.4109895" id="Fill-22" fill="url(#linearGradient-8)"></path>
                        </g>
                        <g id="Group-3" transform="translate(91.000000, 336.083971)">
                            <mask id="mask-10" fill="white">
                                <use xlink:href="#path-9"></use>
                            </mask>
                            <g id="Clip-2"></g>
                            <path d="M28.0000611,0 L28.0000611,0 L0,0 C0,0 3.2855693,11.4067204 7.95652392,11.4067204 C7.95652392,11.4067204 14.3027742,12.9550539 21.5452778,13.6564195 L21.5451555,13.656547 C21.5634888,13.6584594 21.5813332,13.6599894 21.5996665,13.6617744 C21.6830218,13.6698067 21.7664994,13.6777116 21.8500992,13.6856165 C28.7440259,14.3426128 33.2315254,13.7659401 33.2315254,13.7659401 L33.2316476,13.7659401 C40.9673166,13.1332959 48.0435983,11.4067204 48.0435983,11.4067204 C52.7144307,11.4067204 56,0 56,0 L28.0000611,0 Z" id="Fill-1" fill="#EAEAEA" mask="url(#mask-10)"></path>
                        </g>
                        <path d="M52.9496613,230.476128 C18.7464255,302.21469 39.5535117,338.083971 115.37092,338.083971 C191.188328,338.083971 215.454176,301.299657 188.168465,227.73103 L118,231.574167 L95.4803999,231.574167 L76.7969206,226.083971 L52.9496613,230.476128 Z" id="Path-11" fill="#FFFFFF"></path>
                        <path d="M101.552366,99.3647844 L104.197536,99.9395346 L130.525069,187.439482 L119.949433,198.083971 L95.3194104,114.795577 L101.552366,99.3647844 Z" id="Combined-Shape" fill="#D0D0D0"></path>
                        <path d="M53.4708191,162.083971 L53.4689723,162.083971 L53.2577433,162.083971 L53.2577433,162.09148 C46.4686369,162.415994 41,178.180713 41,197.583971 C41,216.986903 46.4686369,232.751622 53.2577433,233.076136 L53.2577433,233.083971 L187.529181,233.083971 C194.41663,233.083971 200,217.189969 200,197.583971 C200,177.977647 194.41663,162.083971 187.529181,162.083971 L53.4708191,162.083971 Z" id="Fill-8" fill="#FFFFFF"></path>
                        <circle id="Oval" fill="#D8D8D8" cx="90.5" cy="199.583971" r="28.5"></circle>
                        <ellipse id="Oval" fill="#FDFDFD" cx="90" cy="199.583971" rx="26" ry="25.5"></ellipse>
                        <path d="M99.0176537,194.615136 C95.1908948,194.615136 92.0926272,191.515964 92.0926272,187.697096 C92.0926272,185.938948 92.7688166,184.35512 93.8422518,183.136121 C92.021646,182.468722 90.0565872,182.083971 88.0006226,182.083971 C78.6149141,182.083971 71,189.695558 71,199.081481 C71,208.471139 78.6149141,216.083971 88.0006226,216.083971 C97.390067,216.083971 105,208.471139 105,199.081481 C105,196.827764 104.551698,194.684865 103.75347,192.713796 C102.518148,193.884235 100.854448,194.615136 99.0176537,194.615136" id="Fill-46" fill="url(#linearGradient-11)"></path>
                        <path d="M85.1964706,135.863171 L81.192286,147.19361 L81.0978847,146.867352 L2.38684853,129.388288 L4.77466111,118.003927 L85.1964706,135.863171 Z" id="Combined-Shape" fill="#D0D0D0" transform="translate(43.791660, 132.598769) rotate(-87.000000) translate(-43.791660, -132.598769) "></path>
                        <g id="Group-11" transform="translate(0.000000, 166.083971)">
                            <g id="Group-3" transform="translate(2.000000, 1.000000)">
                                <mask id="mask-13" fill="white">
                                    <use xlink:href="#path-12"></use>
                                </mask>
                                <g id="Clip-2"></g>
                                <path d="M11.3935444,13.3419983 C19.0421555,4.62469169 31.8387211,3.53058801 39.9755489,10.8987369 C48.1127292,18.2665305 48.5085901,31.3062571 40.859979,40.0235637 C33.2113679,48.7408703 20.4148023,49.8346187 12.277622,42.4668251 C4.14079423,35.0990314 3.74493331,22.0593049 11.3935444,13.3419983 M7.02180162,9.38297701 C-2.90151163,20.6831498 -2.22541078,37.7305639 8.53227717,47.4602716 C19.2896126,57.1896241 36.0546575,55.9168405 45.9783232,44.617023 C55.9016365,33.3168502 55.2251831,16.2694361 44.4678477,6.53972835 C33.7101597,-3.18962414 16.9451149,-1.91684054 7.02180162,9.38297701" id="Fill-1" fill="#212121" mask="url(#mask-13)"></path>
                            </g>
                            <path d="M50.9887878,27.0774746 C51.3815396,39.7348815 41.4075066,50.8564109 28.7109894,51.9182097 C16.0148604,52.9800085 5.40396404,43.5799324 5.01121224,30.9225254 C4.61846043,18.2651185 14.5924934,7.14358909 27.2890106,6.08179029 C39.9851396,5.01999149 50.596036,14.4200676 50.9887878,27.0774746" id="Fill-4" fill-opacity="0.46" fill="#ADFFF7"></path>
                            <g id="Group-8">
                                <mask id="mask-15" fill="white">
                                    <use xlink:href="#path-14"></use>
                                </mask>
                                <g id="Clip-7"></g>
                                <path d="M11.6099232,13.5595953 C19.3400025,4.7772612 32.2728689,3.67535384 40.496365,11.0981081 C48.7202174,18.5212203 49.1202948,31.6578599 41.3898593,40.440194 C33.6601363,49.2225281 20.7269136,50.3244354 12.5034175,42.9016811 C4.27992141,35.4789268 3.87984403,22.3422872 11.6099232,13.5595953 M7.1912592,9.57139922 C-2.83276324,20.9598032 -2.3136958,37.9951693 8.35016545,47.6206647 C19.0140267,57.2461601 35.7845009,55.8171519 45.8088796,44.4287479 C55.8325458,33.0403439 55.3138346,16.0049778 44.6499733,6.37948245 C33.9861121,-3.24637081 17.2152816,-1.81700479 7.1912592,9.57139922" id="Fill-6" fill="#454545" mask="url(#mask-15)"></path>
                            </g>
                            <path d="M14.4738113,27.7837636 C14.6669015,27.6269108 14.8068824,27.3951787 14.8482318,27.1260068 C15.4483669,23.2066589 17.4505874,19.6881131 20.4861631,17.2178796 C23.5221181,14.7480402 27.2276296,13.6224839 30.9206226,14.0481144 C31.4278164,14.1064416 31.9054207,13.7182507 31.9877401,13.1799069 C32.0704388,12.6419572 31.7259871,12.1583936 31.2191727,12.1000665 C27.0356775,11.6172911 22.8377669,12.8922122 19.3989399,15.6903389 C15.9597335,18.4888597 13.6915872,22.4744167 13.0121675,26.9139797 C12.9298481,27.4523235 13.2739205,27.9358871 13.7811143,27.9942142 C14.0345215,28.0233778 14.280721,27.9406163 14.4738113,27.7837636" id="Fill-9" fill="#FFFFFF"></path>
                        </g>
                        <path d="M59.0884664,90.627671 C64.4329989,93.7868219 66.2149564,100.697493 63.068618,106.063789 C59.9231728,111.429189 53.0405296,113.218403 47.6959971,110.0597 L59.0884664,90.627671 Z" id="Fill-11" fill="#A3A3A3" transform="translate(56.159398, 101.123800) rotate(-1.000000) translate(-56.159398, -101.123800) "></path>
                        <path d="M47.669477,110.156703 C42.3258377,106.997553 40.5434336,100.086882 43.6893254,94.7210338 C46.8356638,89.3547373 53.718307,87.5655234 59.0619463,90.7246743 L47.669477,110.156703 Z" id="Fill-13" fill="#BFBFBF" transform="translate(50.598744, 99.660434) rotate(-1.000000) translate(-50.598744, -99.660434) "></path>
                        <path d="M98.8681523,94.3204591 C106.451504,94.4708147 112.478476,100.859827 112.331003,108.591405 C112.18353,116.322617 105.916645,122.46776 98.3336524,122.317771 L98.8681523,94.3204591 Z" id="Fill-2" fill="#A3A3A3"></path>
                        <path d="M98.7991526,122.320459 C91.2158007,122.16937 85.188829,115.780364 85.3363021,108.04916 C85.4837751,100.317222 91.7503006,94.1724514 99.3336524,94.3231736 L98.7991526,122.320459 Z" id="Fill-4" fill="#BFBFBF"></path>
                    </g>
                    <g id="Group-14" transform="translate(539.000000, 174.083971)">
                        <g id="Group-3" transform="translate(49.000000, 0.000000)">
                            <mask id="mask-17" fill="white">
                                <use xlink:href="#path-16"></use>
                            </mask>
                            <g id="Clip-2"></g>
                            <path d="M324.173258,239.05067 L333.626088,239.05067 L333.626088,0.148417391 L324.173258,0.148417391 L324.173258,239.05067 Z M270.157686,239.05067 L279.610516,239.05067 L279.610516,49.6016174 L270.157686,49.6016174 L270.157686,239.05067 Z M216.142113,239.05067 L225.594943,239.05067 L225.594943,84.6828348 L216.142113,84.6828348 L216.142113,239.05067 Z M108.104667,239.05067 L117.557497,239.05067 L117.557497,84.6828348 L108.104667,84.6828348 L108.104667,239.05067 Z M162.120239,239.05067 L171.573069,239.05067 L171.573069,133.798635 L162.120239,133.798635 L162.120239,239.05067 Z M54.0890943,239.05067 L63.5419245,239.05067 L63.5419245,154.851557 L54.0890943,154.851557 L54.0890943,239.05067 Z M0.0756226415,239.05067 L9.52845283,239.05067 L9.52845283,196.951113 L0.0756226415,196.951113 L0.0756226415,239.05067 Z" id="Fill-1" fill="url(#linearGradient-18)" mask="url(#mask-17)"></path>
                        </g>
                        <g id="Group-6" transform="translate(20.000000, 21.000000)">
                            <mask id="mask-20" fill="white">
                                <use xlink:href="#path-19"></use>
                            </mask>
                            <g id="Clip-5"></g>
                            <path d="M270.453874,218.049678 L279.906704,218.049678 L279.906704,0.306418106 L270.453874,0.306418106 L270.453874,218.049678 Z M216.440403,218.049678 L225.893233,218.049678 L225.893233,42.4499365 L216.440403,42.4499365 L216.440403,218.049678 Z M324.469447,218.049678 L333.922277,218.049678 L333.922277,49.4735066 L324.469447,49.4735066 L324.469447,218.049678 Z M162.42483,218.049678 L171.87766,218.049678 L171.87766,77.5698849 L162.42483,77.5698849 L162.42483,218.049678 Z M108.409258,218.049678 L117.862088,218.049678 L117.862088,98.6405952 L108.409258,98.6405952 L108.409258,218.049678 Z M54.3936855,218.049678 L63.8465157,218.049678 L63.8465157,112.687735 L54.3936855,112.687735 L54.3936855,218.049678 Z M0.371811321,218.049678 L9.82464151,218.049678 L9.82464151,154.83545 L0.371811321,154.83545 L0.371811321,218.049678 Z" id="Fill-4" fill="url(#linearGradient-21)" mask="url(#mask-20)"></path>
                        </g>
                        <polygon id="Fill-7" fill="#FFFFFF" points="0 239.853 403 239.853 403 237.147 0 237.147"></polygon>
                    </g>
                </g>
            </g>
        </g>
    </g>
</svg>