<?xml version="1.0" encoding="UTF-8"?>
<svg width="681px" height="362px" viewBox="0 0 681 362" version="1.1" xmlns="http://www.w3.org/2000/svg" xmlns:xlink="http://www.w3.org/1999/xlink">
    <!-- Generator: Sketch 53 (72520) - https://sketchapp.com -->
    <title>How_it_Works_Image</title>
    <desc>Created with Sketch.</desc>
    <defs>
        <polygon id="path-1" points="0 0 34 0 34 41 0 41"></polygon>
        <polygon id="path-3" points="0.146706766 0.7212875 36.1248125 0.7212875 36.1248125 17.936117 0.146706766 17.936117"></polygon>
        <polygon id="path-5" points="0.295976319 0.277467971 32.8152174 0.277467971 32.8152174 21 0.295976319 21"></polygon>
        <polygon id="path-7" points="0 0 32 0 32 8 0 8"></polygon>
        <polygon id="path-9" points="0 0.718842388 52.1664278 0.718842388 52.1664278 68.8423883 0 68.8423883"></polygon>
        <polygon id="path-11" points="0 0.251681325 19.2967315 0.251681325 19.2967315 16.5276182 0 16.5276182"></polygon>
        <linearGradient x1="37.3106957%" y1="69.4039021%" x2="52.9808611%" y2="-57.7660044%" id="linearGradient-13">
            <stop stop-color="#0CD2C2" offset="0%"></stop>
            <stop stop-color="#3455B5" offset="100%"></stop>
        </linearGradient>
        <linearGradient x1="45.6026072%" y1="69.4039021%" x2="51.0329973%" y2="-57.7660044%" id="linearGradient-14">
            <stop stop-color="#0CD2C2" offset="0%"></stop>
            <stop stop-color="#3455B5" offset="100%"></stop>
        </linearGradient>
        <polygon id="path-15" points="0 0 28.6686391 0 28.6686391 7.07329843 0 7.07329843"></polygon>
        <linearGradient x1="124.71437%" y1="-25.3003888%" x2="30.3136527%" y2="135.034199%" id="linearGradient-17">
            <stop stop-color="#FFFFFF" offset="0%"></stop>
            <stop stop-color="#00BFD6" offset="58.129223%"></stop>
            <stop stop-color="#2A3B93" offset="100%"></stop>
        </linearGradient>
    </defs>
    <g id="HD_Desktop" stroke="none" stroke-width="1" fill="none" fill-rule="evenodd">
        <g id="VW_HD_Desktop_Learn" transform="translate(-980.000000, -2405.000000)">
            <g id="How_it_works_module" transform="translate(0.000000, 1693.000000)">
                <g id="How_it_Works_Image" transform="translate(980.000000, 712.000000)">
                    <g id="Group-29" transform="translate(0.000000, 75.000000)">
                        <path d="M60.1146737,281.760275 C58.4545933,283.64269 55.0332082,282.909662 53.1623429,282.580093 C52.166771,282.397129 51.3772206,282.169598 50.6900855,281.912745 C48.3285795,280.997926 47.0317161,280.202738 44.6547288,278.802363 C40.7784292,276.531737 38.8480201,275.397597 37.1557861,275.258028 C34.6001675,275.055126 33.4616905,276.087229 32.5709157,275.337782 C31.8290003,274.711483 31.4645924,272.9616 33.7010565,267.687321 C34.2405231,257.442529 34.1535892,249.183362 33.9713852,243.64402 C33.4747902,227.56433 31.7956558,218.199171 36.4841324,206.271348 C36.650855,205.874927 36.7997144,205.479679 36.9652461,205.116097 C36.9664369,205.083257 36.9843001,205.066838 36.985491,205.050418 C38.0191708,202.628495 39.0337967,200.740216 39.7566581,199.493483 C39.3862958,175.32938 39.0326058,151.164103 38.6622436,127 L59.0917117,135.506637 C59.4001484,136.401517 59.9360423,138.058745 60.5410071,140.201531 C61.2102791,162.571184 57.7817487,182.76521 53.1432889,199.608422 C53.1242349,199.657681 53.1051808,199.724534 53.0861268,199.773793 C52.5502329,201.543614 51.9750401,203.46356 51.4093742,205.550049 C51.4081834,205.585235 51.3915111,205.616901 51.3903202,205.634494 C48.1690022,226.236671 44.9476841,246.841193 41.7263661,267.443369 C44.8678955,269.93449 47.1841482,271.781719 48.8049297,273.099995 C49.1383748,273.370922 49.7933563,273.913949 50.7401022,274.559013 C51.9012058,275.350683 53.0158652,276.006303 54.0662173,276.543465 C56.3693704,277.17211 58.6725235,277.800754 60.9756766,278.446991 C61.0471291,279.318414 61.0149755,280.736382 60.1146737,281.760275" id="Fill-1" fill="#BFCAFF"></path>
                        <g id="Group-5" transform="translate(15.000000, 0.000000)">
                            <mask id="mask-2" fill="white">
                                <use xlink:href="#path-1"></use>
                            </mask>
                            <g id="Clip-4"></g>
                            <path d="M31.4231597,9.92725848 C30.5681069,8.2569451 26.0715558,-0.611331129 20.330487,0.0334589621 C17.875972,0.308920307 16.0569932,2.09590999 14.9691465,3.48549843 C9.44493881,1.81255325 6.5177549,3.13985585 5.40600921,3.788155 C-0.691774259,7.34985265 -2.30893936,19.8008809 4.10218644,34.0397761 C6.27699469,35.6881578 9.50158827,37.5233971 13.3944685,37.3830346 C14.583222,37.3400486 15.2754076,37.1338913 16.0685001,37.0049332 C18.7655456,36.5663005 22.8142118,36.9987924 28.628748,41 C30.6690137,37.0619555 37.7599331,22.306351 31.4231597,9.92725848" id="Fill-3" fill="#000C4C" mask="url(#mask-2)"></path>
                        </g>
                        <path d="M37,51.0694424 C36.980303,44.7984405 36.9606061,38.5283213 36.9400527,32.2573194 C35.326614,31.172429 33.7131752,30.0857731 32.0997365,29 L24,53 C28.3333333,52.3564808 32.6666667,51.7129616 37,51.0694424" id="Fill-6" fill="#AEBCFD"></path>
                        <path d="M46.1080045,26.7803846 C45.3543636,30.136532 44.1291411,35.5953903 40.3911892,36.7767185 C36.5055344,38.0052287 30.7264348,34.0980322 26.7980707,26.6886915 C26.5889732,27.1053167 26.3051344,27.4720893 25.9207509,27.5326246 C24.1598828,27.8041431 20.8330077,21.5236074 22.4150307,19.6746106 C22.9328807,19.0692577 23.868036,19.0648066 23.9445568,19.0656968 C25.4571772,19.0799404 26.3611903,20.7419901 26.4305929,20.8728531 C26.2953469,20.5488113 23.5806382,13.7697497 27.3168105,9.3658078 C28.7555794,7.67081984 30.5725034,7.00760239 31.5112178,6.67821923 C34.9973629,5.45148951 39.3029923,5.89393121 42.2908625,7.96459402 C49.249806,12.7878318 46.5715781,24.7177339 46.1080045,26.7803846" id="Fill-8" fill="#BFCAFF"></path>
                        <path d="M49.8340837,50.2465402 C49.4498513,49.549356 48.8729152,48.6840068 48.0174987,47.8326713 C46.4429685,46.2666345 44.7297856,45.5460941 43.7157411,45.2109318 C42.0190085,44.7823446 40.3222759,44.3537573 38.6243683,43.92517 L38.5761924,43.9134919 C38.5479918,43.906485 38.4716153,43.8901356 38.4716153,43.8901356 C21.745169,40.0760593 15.760779,43.2139721 15.760779,43.2139721 C14.6245322,43.8095566 12.8537731,44.9446705 11.0794891,47.1716893 C10.7892585,47.9295998 10.3333497,49.0296794 10.1582714,50.4205443 C9.03964986,59.3286196 14.0922469,67.5535245 17.7113165,72.6813901 C26.4722848,85.0987426 34.5811156,96.6016977 42.6123949,94.8161121 C49.4945021,93.2862775 53.131197,82.96982 54.7609533,78.3289323 C56.879519,72.2983475 57.0910231,66.9626113 56.9746958,63.609821 C54.5941001,59.1557833 52.2146794,54.7005779 49.8340837,50.2465402 L21,62.0811212" id="Fill-10" fill="#AEBCFD"></path>
                        <path d="M52.7318566,199.721524 C52.7142546,199.770822 52.6954791,199.837726 52.6767036,199.887025 C52.1416026,201.858952 51.590073,203.798014 51.0244618,205.667824 C51.0232883,205.703037 51.0056863,205.734729 51.0056863,205.752335 C50.9857374,205.834499 50.9493599,205.916663 50.9294109,206 C46.2238073,205.721817 41.5170303,205.445982 36.8102532,205.1678 C36.0252036,205.125544 35.2413275,205.080941 34.4562779,205.037512 C28.8318495,204.712378 23.189819,204.387245 17.5653906,204.045679 C17.6181966,203.495183 17.6710026,202.92708 17.7425841,202.310852 C18.284726,196.709639 18.9031432,188.316035 18.8644188,178.161782 C18.7787557,151.159286 14.236264,145.082698 17.6322782,128.354179 C18.194369,125.597002 18.8233474,123.309331 19.4593667,121.340925 C19.5708461,121.008749 19.6823255,120.695353 19.7938048,120.380784 C20.0719166,119.554452 20.3652834,118.778593 20.6739053,118.070812 C22.366045,114.061226 24.3151741,111.836938 25.1976215,107.501045 C25.2175704,107.417708 25.2375193,107.317938 25.2574683,107.2346 C25.3184886,106.903598 25.3795089,106.586681 25.4229272,106.287371 C25.5778248,105.188725 25.6447125,104.203935 25.6564471,103.350607 C25.6646614,103.134634 25.6717022,102.899881 25.6634879,102.682734 C25.6717022,102.415115 25.6482329,102.128716 25.6411921,101.844665 C23.5324715,102.392814 22.1372189,102.093503 21.2794144,101.763675 C19.1167143,100.920911 16.1337606,98.1930777 13.6225407,77.0969743 C13.0498887,72.3103549 12.7154505,68.3852801 12.5194815,65.7689548 C15.6831491,67.823046 17.6510537,67.9110785 18.9254391,67.3265428 C24.5322655,64.7595157 22.8401258,46.3900716 17.835288,44.7221495 C16.7650859,44.3664983 13.3256535,44.0331486 13.3256535,44.0331486 C13.2071333,44.0953583 13.1378987,44.1446565 13.0874396,44.1751744 C10.1303022,46.066112 9.05071233,52.2178217 9.00260018,52.668548 C9.01316138,52.3504573 8.67520282,46.066112 12.9982561,42.8675986 C14.7467223,41.589367 16.5433006,41.3992168 19.0944184,41.1186867 C21.4613018,40.8639794 23.4268594,41.0646934 24.7739998,41.2947516 C33.5480143,48.819768 38.643209,51.970157 40.0548901,50.7811317 C40.8997865,50.0569178 40.4245323,47.7821585 38.6303009,43.9756341 C41.2975919,44.2326889 43.2279455,44.9838994 44.3474332,45.523832 C45.4012068,46.0121188 46.1041137,46.4874942 46.3165112,46.6447789 C47.2318157,47.2610062 48.1576813,48.0791214 49.1375265,49.2341075 C53.6905793,54.5066662 56.2205747,60.2968558 56.2205747,60.2968558 C57.052563,62.8674042 58.3093464,67.2091662 59.2938854,72.7129568 C60.79475,81.1793338 62.8788278,99.5499517 57.6627659,101.463191 C57.1217975,101.661557 56.1971053,101.797714 54.7150162,101.095802 C55.0975666,104.621796 55.796953,110.09859 57.0431752,116.731544 C57.7097046,120.266929 58.3774075,123.233036 59.0556715,125.916266 C59.0556715,125.933873 59.0709266,125.949132 59.0544981,125.966738 C59.5755175,130.817915 59.880619,135.596318 60.0226085,140.267908 C60.6820971,162.655154 57.3025115,182.865064 52.7318566,199.721524" id="Fill-12" fill="#6C9FD1"></path>
                        <g id="Group-16" transform="translate(31.000000, 267.000000)">
                            <mask id="mask-4" fill="white">
                                <use xlink:href="#path-3"></use>
                            </mask>
                            <g id="Clip-15"></g>
                            <path d="M2.55501875,0.7212875 C3.96458125,1.0656625 5.99401875,1.7354125 8.04245625,3.16635 C11.0836437,5.2907875 11.0967062,6.9437875 14.4442687,9.799725 C16.1138937,11.2235375 18.4295187,13.16035 21.7533312,13.6626625 C24.8372687,14.12935 28.2216437,13.3182875 28.3297062,12.3255375 C28.4793312,10.953975 22.1962687,9.0171625 22.4373312,9.08485 C23.8611437,9.48385 26.1280812,10.1144125 28.9353312,10.8577875 C35.0521437,12.4799125 36.0211437,12.6046 36.1173312,13.21735 C36.3809562,14.905975 29.7962687,18.7237875 23.4098937,17.7916 C20.0587687,17.30235 17.1208937,15.5555375 16.5865187,15.2325375 C14.1022687,13.723225 12.7283312,12.6675375 8.91764375,10.6001 C8.43551875,10.33885 7.78951875,9.8769125 6.79558125,9.5016625 C6.32058125,9.32235 5.91683125,9.210725 5.64251875,9.144225 C5.38958125,10.1951625 5.16514375,11.452725 5.06776875,12.8836625 C4.95495625,14.516475 5.03333125,15.9592875 5.17701875,17.1396625 C4.68776875,17.0066625 4.19733125,16.872475 3.70926875,16.7371 C3.46583125,13.8491 2.75808125,11.713975 2.15839375,10.298475 C1.10626875,7.818975 0.03395625,6.7134125 0.15626875,4.8704125 C0.27739375,3.0677875 1.49458125,1.6570375 2.55501875,0.7212875" id="Fill-14" fill="#13CEBF" mask="url(#mask-4)"></path>
                        </g>
                        <path d="M47,133.097631 C46.9930087,144.731261 45.7986656,161.995546 39.5775941,181.961228 C37.7726794,187.753966 36.9780043,189.166915 35.7580264,192.463795 C35.7580264,192.463795 34.8025519,195.008982 33.6408347,198.881378 C32.3276398,203.25412 27.615519,229.929841 22.4175045,266.724061 C25.4086059,268.841723 28.5127329,271.372815 31.5749123,274.400731 C32.241414,275.058462 32.8834463,275.718543 33.4998439,276.376275 C34.814204,277.053974 36.3149982,277.958355 37.8682269,279.164588 C38.8971098,279.964437 39.7861672,280.767809 40.5435556,281.52655 C40.1147573,281.616988 36.5503712,282.34754 33.6990953,281.795515 C32.4872739,281.559436 31.2952612,281.124863 31.2952612,281.124863 C28.9846441,280.208737 27.7133969,279.418284 25.3853016,278.022953 C21.5971946,275.75143 19.7025585,274.615668 18.0502867,274.4759 C15.5415835,274.262137 14.4253095,275.294541 13.5653825,274.554593 C12.8301331,273.923875 12.473578,272.160919 14.6723347,266.886145 C15.1966804,256.629053 15.1034634,248.34868 14.9345076,242.803766 C14.4416225,226.701083 12.7975072,217.330754 17.3872806,205.390574 C18.5455022,202.377927 19.7771322,200.038281 20.5927812,198.600668 C20.2338956,174.399662 19.8738448,150.199831 19.5137941,126 C28.6758627,128.365485 37.8379314,130.732145 47,133.097631" id="Fill-17" fill="#BFCAFF"></path>
                        <path d="M14.82316,267 C16.191555,267.465439 18.1452202,268.307661 20.0467561,269.892951 C22.8700334,272.250473 22.7290472,273.868426 25.7880913,276.96785 C27.314059,278.513479 29.4335903,280.619034 32.6881193,281.415762 C35.573004,282.122669 39.0609303,281.78788 39.3452721,280.711189 C39.7409811,279.219219 33.9036806,276.554905 33.999646,276.390426 C34.0671772,276.276108 36.7636854,277.863732 40.0833761,279.330038 C45.0806835,281.539413 46.9466767,281.461256 46.998806,282.296479 C47.1042494,283.972758 40.2065909,287.102511 33.9510709,285.605876 C30.6669229,284.819646 27.9099921,282.843574 27.4112091,282.478455 C25.0831605,280.774181 23.8166547,279.614667 20.223285,277.244313 C18.9141279,276.379928 17.8123033,275.724348 17.1073726,275.314902 C16.7626081,276.438253 16.4391693,277.712085 16.186816,279.125898 C15.8918113,280.776514 15.7555642,282.28948 15.7081739,283.618138 C15.1880653,283.535316 14.666772,283.452493 14.1454787,283.368505 C14.4949822,280.230586 14.0341115,277.896394 13.537698,276.329768 C12.7782684,273.936084 11.7487141,272.707746 12.0555663,270.838993 C12.3422777,269.084558 13.6834232,267.817725 14.82316,267" id="Fill-19" fill="#0CD2C2"></path>
                        <path d="M53.4129701,200.077267 C53.3948575,200.126791 53.3755373,200.194002 53.3562171,200.243526 C52.8055926,202.224482 52.2380629,204.172421 51.656043,206.050792 C51.6548355,206.086166 51.6367229,206.118003 51.6367229,206.13569 C51.6161952,206.21823 51.5787624,206.30077 51.5582347,206.384489 C51.4990667,206.600271 51.4242011,206.799546 51.3650331,207 C46.7197421,206.475283 41.9343798,206.014239 37.010154,205.61451 C36.2204424,205.539045 35.4150332,205.478909 34.607209,205.417594 C28.6336569,204.967162 22.8291563,204.64054 17.2263098,204.42122 C17.2806477,203.868203 17.3349857,203.297499 17.4086438,202.678451 C17.9665134,197.051593 18.6028712,188.61956 18.5630234,178.418817 C18.4748751,151.292694 13.8006038,145.188284 17.2951378,128.383176 C17.8735351,125.613375 18.5207605,123.315231 19.1752309,121.337813 C19.2899444,121.004116 19.4046578,120.689285 19.5193713,120.373276 C19.8055512,119.543161 20.1074287,118.763749 20.4250038,118.052728 C22.3413222,113.459976 24.2202078,110.917749 25.0799549,107.434569 C25.1004826,107.35085 25.1210103,107.250623 25.141538,107.166904 C25.203121,106.867402 25.2659115,106.551393 25.3117969,106.215338 C25.4808483,105.314475 25.5665815,104.341684 25.5520914,103.265129 C25.5605439,103.048167 25.567789,102.812339 25.5593364,102.594198 C25.567789,102.325354 25.5436388,102.037643 25.5363937,101.752292 C26.5965875,101.97397 27.8415304,102.266397 29.483744,102.538778 C31.7260901,102.917282 33.3574361,103.021047 34.1290351,103.080004 C38.7791562,103.470299 40.8089805,104.461956 43.3121488,104.746129 C46.054404,105.07393 50.0621298,104.618782 55.4536621,101 C56.708265,105.980689 57.799854,111.193668 58.6777138,116.633043 C59.1896981,119.760123 59.5966289,122.865978 59.9202416,125.934102 C59.9202416,125.951789 59.9359393,125.967118 59.9190341,125.984805 C60.4551686,130.858192 60.7691212,135.658472 60.9152299,140.351451 C61.5938505,162.841194 58.1162217,183.143633 53.4129701,200.077267" id="Fill-21" fill="#081141"></path>
                        <path d="M9.58721128,48.3667442 C9.99026584,47.1475321 10.9786796,44.1334681 13.5123426,43.2515356 C15.7768891,42.4637554 18.2485437,43.7342149 18.9666009,44.2216614 C24.9342887,48.2761673 16.0993328,70.485373 13.7268916,76.2477293 L13.7268916,76.2489211 C11.7252607,85.1194936 9.65542051,95.1294275 7.65378957,104 C7.62402554,103.995233 7.59426151,103.991657 7.56325731,103.98689 C2.63607036,103.252741 -0.71238289,98.7870638 0.129691095,94.0627659 C2.32106772,81.7514649 2.59762516,69.5271653 9.58721128,48.3667442" id="Fill-23" fill="#BFCAFF"></path>
                        <path d="M9.07405583,92.0848807 C15.4952856,106.516587 21.9165154,120.948293 28.3377451,135.378822 C31.5588866,137.849836 34.7800281,140.320849 38,142.789508 C36.1227552,145.334687 33.0150672,146.518984 30.2547571,145.785567 C26.7587542,144.855553 24.3235993,140.9801 25.0978897,136.849187 C17.1011779,124.548274 9.10446602,112.24736 1.10775419,99.9476237 C-1.1636535,96.4535944 0.187260963,91.718761 3.97917844,90.0258991 C3.99087466,90.020013 3.9978924,90.0176585 3.99906202,90.0164813 L4.05637355,90 C4.05637355,90 5.46459953,90.0412032 5.95701078,90.0977104 C6.73481001,90.1860029 7.80969346,90.6027436 9.07405583,92.0848807" id="Fill-25" fill="#BFCAFF"></path>
                        <path d="M40,5.65860846 C39.8881456,7.45323941 39.4581481,10.1730584 37.8903533,13.0286435 C34.3742755,19.4330304 27.8738866,21.5306626 26.270335,22 C26.1254745,21.7194765 25.9329383,21.3975938 25.6762233,21.0622244 C25.3544128,20.6414392 25.0225171,20.3168591 24.738297,20.0758967 C24.5301745,19.8052635 20.5180867,14.4276644 22.5947272,9.66685735 C24.7062076,4.82692829 32.5048407,2.01809708 40,5.65860846" id="Fill-27" fill="#000C4C"></path>
                    </g>
                    <g id="Group-38" transform="translate(92.000000, 40.000000)">
                        <path d="M91.9976197,98.1832531 C92.2747774,104.063374 68.2659955,99.0481057 63,98.1905576 C63,98.1905576 64.616753,90.9065116 66.5438648,81.6283375 L69.344312,88.8860873 C69.344312,88.8860873 80.2804911,93.2687864 80.2804911,88.8860873 C80.2804911,85.9628269 73.2490591,71.0032138 73.2490591,71.0032138 L68.7308119,70.8249841 C71.0159191,58.85145 73.0743921,46.191293 72.8593062,40 C72.8593062,40 89.8814055,53.2021508 91.9976197,98.1832531" id="Fill-1" fill="#2F3676"></path>
                        <g id="Group-5" transform="translate(72.000000, 301.000000)">
                            <mask id="mask-6" fill="white">
                                <use xlink:href="#path-5"></use>
                            </mask>
                            <g id="Clip-4"></g>
                            <path d="M0.306486957,4.18525333 C0.3464,5.32338667 0.741095652,6.52312 0.781008696,7.68178667 C0.820921739,9.48725333 0.900747826,11.2956533 1.0190087,13.10112 C1.11805217,14.4768533 1.23631304,15.85112 1.35457391,17.2268533 C1.4344,18.13032 1.55413913,19.0528533 2.02866087,19.8184533 C3.09744348,21.4889867 6.83892174,20.8993867 8.62022609,20.8993867 L31.6426609,20.8993867 C32.9095304,21.0768533 34.7898783,17.10952 27.1886609,15.3597867 C24.4361391,14.7129867 21.9024,14.1424533 19.6066609,13.3768533 C19.3302261,13.2785867 19.0316174,13.18032 18.7551826,13.10112 C16.7950087,12.4733867 14.8156174,11.8456533 13.272313,10.4904533 C12.2035304,9.56645333 11.4111826,8.38872 10.7385739,7.15085333 C9.96692174,5.69738667 9.80874783,3.40058667 8.67935652,2.24192 C7.70961739,1.23872 6.42353043,0.492186667 5.01770435,0.316186667 C3.61187826,0.13872 2.10848696,0.571386667 1.13726957,1.61272 C0.426226087,2.39738667 0.247356522,3.28178667 0.306486957,4.18525333" id="Fill-3" fill="#BFCAFF" mask="url(#mask-6)"></path>
                        </g>
                        <path d="M7.00149392,318.663306 C6.90444928,322.69812 11.5582465,321.944205 14.2943258,321.944205 L36.8506854,321.944205 C38.0919877,322.118629 39.9343873,318.219318 32.4865737,316.501026 C29.7910504,315.865316 27.3084458,315.304565 25.0590381,314.55065 C24.5738149,314.397849 24.0697622,314.223425 23.5266019,314.050442 C20.4820076,313.006782 17.0101271,311.501835 16.8160379,307.970111 C16.7378228,306.501203 17.1071718,305.055358 17.1071718,303.608072 C17.1071718,303.316885 17.1071718,303.009841 16.9898492,302.738836 C16.8348674,302.313587 16.504626,302.00366 16.1367254,301.754278 C14.7983785,300.866301 12.9950864,300.769719 11.5205874,301.425611 C10.0460883,302.062763 8.92210863,303.375987 8.37894836,304.899674 C8.26162574,305.24708 8.16458111,305.595928 8.10664401,305.943334 C7.97049184,306.599226 7.89372519,307.255117 7.83578809,307.911009 C7.60259128,310.015628 7.36939447,312.120247 7.21441274,314.243606 C7.09853855,315.709632 7.02032347,317.177099 7.00149392,318.663306" id="Fill-6" fill="#BFCAFF"></path>
                        <path d="M68.0090954,99 C68.0090954,99 75.3125062,181.294836 77.9103735,203.105128 C80.5067863,224.9125 87,307.696421 87,307.696421 C87,307.696421 76.7743521,310.629474 70.9298779,307.696421 C70.9298779,307.696421 58.4656422,215.790691 57.386349,207.991603 C54.6270241,188.070494 41.8762375,125.033947 40.5773038,117.312236 C39.2783702,109.590525 40.5773038,100.308121 40.5773038,100.308121 L68.0090954,99 Z" id="Fill-8" fill="#101028"></path>
                        <path d="M50,100.443702 C50,100.443702 41.0204678,193.238742 36.748538,210.813991 C32.4766082,228.38924 22.4649123,306.095406 21.128655,308.759693 C21.128655,308.759693 6.66959064,309.95257 4,307.022875 C4,307.022875 16.130117,217.226069 16.6520468,203.91047 C17.1856725,190.320714 17.369883,108.089489 21.374269,99 L50,100.443702 Z" id="Fill-10" fill="#101028"></path>
                        <path d="M18.1266549,129.774383 C18.9446131,130.477159 24.0404488,131.048712 30.7736589,131.429261 C35.2031721,131.694625 40.3587873,131.847719 45.4925319,131.942492 C47.3369474,131.980401 49.1813629,131.999355 50.9893275,131.999355 C61.8283669,132.01831 71.1466747,131.620264 71.2035381,130.668163 C72.9910902,96.3414723 75.0833718,44.4235012 73.3526831,40.9052451 C72.9910902,40.1820561 69.169578,39.1745488 63.6727824,38.2618143 C59.5465406,37.5765344 54.4492469,36.9306217 49.1813629,36.5121635 C43.5722986,36.0747508 37.7722315,35.8647927 32.6559833,36.0937054 C28.9671523,36.2642963 25.6384562,36.6448454 23.0329459,37.3490798 C17.8787888,38.7181816 15.3884633,127.396316 18.1266549,129.774383" id="Fill-12" fill="#6C9FD1"></path>
                        <g id="Group-16" transform="translate(73.000000, 314.000000)">
                            <mask id="mask-8" fill="white">
                                <use xlink:href="#path-7"></use>
                            </mask>
                            <g id="Clip-15"></g>
                            <path d="M0,0 C0.0996769271,1.39196193 0.218694154,2.78540941 0.339199095,4.17885689 C0.418048008,5.09395673 0.53855295,6.02836874 1.01610957,6.80382672 C2.09172775,8.49587009 5.85713526,7.89719276 7.64983223,7.89719276 L30.8195108,7.89719276 C32.0944828,8.07694452 33.9868567,4.05852721 26.3370245,2.2877496 C23.5668985,1.6326213 21.0169545,1.0547417 18.7065326,0.277798165 C18.4283298,0.179751754 18.129299,0.0802197911 17.8496085,0 C13.7271494,0.77545798 6.7929082,1.55240151 0,0" id="Fill-14" fill="#6C9FD1" mask="url(#mask-8)"></path>
                        </g>
                        <path d="M14.2943258,321.943851 L36.8506854,321.943851 C38.0919877,322.119382 39.9343873,318.195328 32.4865737,316.466134 C29.7910504,315.826389 27.3084458,315.26208 25.0590381,314.503381 C24.5738149,314.349611 24.0697622,314.17408 23.5266019,314 C20.2676403,314.835584 14.2943258,315.80608 7.21441274,314.194389 C7.09853855,315.669717 7.02032347,317.146496 7.00149392,318.642134 C6.90444928,322.70255 11.5582465,321.943851 14.2943258,321.943851 Z" id="Fill-17" fill="#6C9FD1"></path>
                        <path d="M41.3719735,5.19313011 C43.1962596,3.95799194 45.2629026,3.84896697 47.2781365,3.56349369 C47.5689647,3.48029042 47.8641994,3.43725425 48.1623718,3.41143254 C49.219929,3.21633522 50.2539849,2.92799286 51.2160681,2.32692098 C53.0271348,1.19506963 55.1128725,-0.473299344 57.4688749,0.126338001 C61.1762003,1.07026473 62.5789323,5.27776791 61.7857645,8.69484005 C60.8824344,12.5996555 57.9256808,14.6883444 54.3711137,15.3625778 C53.6308236,16.0282039 52.9742569,16.5991505 52.5262639,17.0280777 C49.3198094,20.0822114 48.7616542,27.6293216 42.9627157,26.9579573 C38.7838961,26.4745177 37.510421,20.9730602 37.1138371,17.6678821 C36.6247169,13.5794457 37.6514286,7.71074623 41.3719735,5.19313011" id="Fill-19" fill="#000C4C"></path>
                        <path d="M42.3602135,18.0002319 C43.7901198,17.9842482 45.131813,18.796506 46.097889,19.8732197 C47.0653878,20.9499334 47.7141811,22.2751195 48.3515921,23.582869 C48.9591244,24.8281371 49.6562927,26.0574216 49.9195093,27.4392768 C50.1670751,28.7354018 50.4758211,31.4046638 50.8613978,35.5008257 C50.9609933,36.5702741 51.6666983,40.1593199 48.5721249,40.8335374 C43.4571864,41.9480305 41.9276846,37.1355125 41.9106111,36.2084635 C41.7441444,27.5119296 39.691055,18.030746 42.3602135,18.0002319" id="Fill-21" fill="#BFCAFF"></path>
                        <path d="M42.396077,11.219068 C45.2964363,8.20993105 49.8499116,7.13720929 53.7782839,8.74411455 C60.066346,11.3163242 59.684174,20.1042234 57.7422071,25.4576711 C57.1689492,27.0355447 56.3497976,28.5945476 55.0092332,29.6338829 C53.0835605,31.1232097 50.3535491,31.2959484 47.996822,30.6267674 C43.8018181,29.4350157 42.3694138,27.4942457 41.1651278,23.7230263 C39.8304884,19.538105 38.9905989,14.7536789 42.396077,11.219068" id="Fill-23" fill="#BFCAFF"></path>
                        <path d="M38.9708092,15.4207329 C40.1005712,14.4641914 41.4747598,15.3091873 42.3160417,16.2596167 C42.4183598,16.3772743 42.5249411,16.5209083 42.6301013,16.6737105 C42.8759489,16.9044417 43.1075857,17.1718455 43.315064,17.5294025 C43.8309176,18.4125989 44.3609821,20.3638823 43.6703351,21.2577749 C43.4557513,21.5328188 43.1502182,21.7177094 42.8318953,21.8139747 C42.7068399,21.9026 42.5604682,21.9560807 42.4041489,21.9499686 C41.5998152,21.9270483 41.007223,22.1547235 40.2128369,21.7941104 C39.4553989,21.4503056 38.9310188,20.8941058 38.5032724,20.1514873 C37.7586242,18.8557251 37.7813616,16.4292271 38.9708092,15.4207329" id="Fill-25" fill="#BFCAFF"></path>
                        <path d="M40.6631481,10.9358096 C41.2020578,10.4033557 42.1744069,10.3249667 42.83179,10.7169119 C42.9170331,10.5128046 43.0152794,10.3086973 43.1193048,10.1045899 C41.8291001,9.20977156 42.1397317,6.61849587 44.0728715,6.71907049 C45.7242757,6.80633377 47.2297553,6.59778932 48.8753803,6.41143046 C49.6729089,6.3212091 50.4834406,6.31085583 51.2939723,6.3019816 C52.5466123,6.10379042 53.7992522,5.95292848 55.1010153,6.01356906 C56.31898,6.07125157 57.0124831,7.32103922 56.8492209,8.34601299 C57.5051593,8.52793474 58.150984,8.74535342 58.7765816,9.03672404 C59.1450051,9.20977156 59.0221972,9.79103374 58.6667769,9.88569221 C55.4087572,10.7612831 51.832882,10.6888102 48.3480291,10.5556967 C47.3655664,10.986097 46.5304731,11.5969399 46.0406865,12.5154229 C45.2113724,14.0669344 45.4671017,16.0266606 44.2332441,17.3858971 C41.7554154,20.1176815 38.61009,12.9694878 40.6631481,10.9358096" id="Fill-27" fill="#000C4C"></path>
                        <path d="M44.576294,20.0136887 C45.2103679,20.1291102 45.6462026,20.9589766 46.2671577,21.3651437 C48.0804631,22.550041 50.4112312,21.3841371 52.1604005,20.6667702 C54.3541502,19.7653132 56.7140711,20.6024847 58.4049347,22.2081594 C59.6293532,23.3696802 58.655649,26.787035 58.2125261,28.0683605 C57.3058734,30.6967578 55.1121236,32.7904173 52.2653506,32.9861956 C49.2975934,33.1922012 46.5776352,31.0620159 45.0252475,28.6367021 C44.1652392,27.2940133 43.5996745,25.7745395 43.3023157,24.2097738 C43.0807543,23.0365648 42.5764105,21.0963137 43.7294046,20.2664473 C44.0559162,20.0312211 44.3314103,19.9683967 44.576294,20.0136887" id="Fill-29" fill="#000C4C"></path>
                        <path d="M39.0506329,109.209485 L45.2378642,69.4991336 C45.5522004,67.4839945 47.2680721,66 49.2838608,66 L75.9029419,66 C78.4046539,66 80.3223928,68.2486092 79.954706,70.7540356 L74.1322777,110.462927 C73.8338025,112.495577 72.1092794,114 70.0805135,114 L43.0980714,114 C40.5804983,114 38.6598756,111.725125 39.0506329,109.209485" id="Fill-31" fill="#FFFFFF"></path>
                        <path d="M61.4336363,86.7415925 C62.0114699,87.607322 62.275951,88.8726189 61.5974996,89.656955 C61.389077,89.8981753 61.1145342,90.0654017 60.8328044,90.2074702 C57.424736,91.9300498 53.3238424,90.2148695 49.5736735,90.8216201 C49.2660706,90.871936 48.9555928,90.9370507 48.6465525,90.897094 C48.0069108,90.811261 47.4923227,90.2696251 47.25084,89.6525154 C47.0079199,89.0368855 46.9921085,88.3546611 47.0021703,87.6901952 C47.0165442,86.7889486 47.1372856,85.7648721 47.8473597,85.238035 C48.1506505,85.0145732 48.5229363,84.918381 48.8865978,84.8310681 C50.3239948,84.4877361 51.7843901,84.2450359 53.2548473,84.1029674 C54.7483028,83.9579393 56.273381,83.9224222 57.7309016,84.2909121 C59.1884222,84.6594021 60.5841347,85.4703761 61.4336363,86.7415925" id="Fill-33" fill="#BFCAFF"></path>
                        <g id="Group-37" transform="translate(0.000000, 36.000000)">
                            <mask id="mask-10" fill="white">
                                <use xlink:href="#path-9"></use>
                            </mask>
                            <g id="Clip-36"></g>
                            <path d="M22.0050111,1.02360417 C22.0050111,1.02360417 3.77301111,12.4875625 -0.000294444444,60.8444375 C0.0497611111,61.0602708 -0.443433333,70.6065208 9.43223333,68.5531875 C20.9082056,66.1658958 52.1664278,54.5561042 52.1664278,54.5561042 L49.7608167,47.4627708 C49.7608167,47.4627708 20.7138722,53.8356875 12.4988722,56.1719375 C12.4988722,56.1719375 23.6892333,32.5411042 26.0830667,18.7963125 C28.2678444,6.2488125 24.2516222,-0.8780625 22.0050111,1.02360417" id="Fill-35" fill="#2F3676" mask="url(#mask-10)"></path>
                        </g>
                    </g>
                    <g id="Group-49" transform="translate(214.000000, 0.000000)">
                        <polygon id="Fill-1" fill="#000C4C" points="440 205.125124 463.38527 362 467 362 443.595461 205"></polygon>
                        <polygon id="Fill-2" fill="#263564" points="283 205.125124 306.38527 362 310 362 286.596746 205"></polygon>
                        <polygon id="Fill-3" fill="#000C4C" points="252 0 288.094038 243 449 243 412.905962 0"></polygon>
                        <polygon id="Fill-4" fill="#3869AC" points="197 362 200.61473 362 224 205.125124 220.404539 205"></polygon>
                        <polygon id="Fill-5" fill="#3869AC" points="354 362 357.613789 362 381 205.125124 377.406766 205"></polygon>
                        <polygon id="Fill-6" fill="#687FF9" points="250.094272 0 214 243 374.903176 243 411 0"></polygon>
                        <g id="Group-48" transform="translate(0.000000, 40.000000)">
                            <path d="M238.306799,47.2342182 C238.306799,47.2342182 250.242369,38.5249455 257.909953,36.5547636 C265.577537,34.5833091 269.251295,35.4894909 268.908275,36.2467636 C268.56143,37.0040364 257.561832,39.2249455 257.083644,40.6898545 C256.601631,42.1509455 256.030356,47.6249455 254.704181,48.9396727 C253.379282,50.2505818 248.895792,50.1780364 245.920826,50.8640364 C242.942034,51.5424 238.837268,54.7993091 238.837268,54.7993091 L238.306799,47.2342182 Z" id="Fill-15" fill="#BFCAFF"></path>
                            <path d="M130.665933,57.1228 C130.665933,57.1228 160.756067,80.7548 197.455396,70.9293455 C223.127074,64.0578909 248.625329,51.3929818 248.625329,51.3929818 L243.686604,42.4775273 C243.686604,42.4775273 201.62647,56.8300727 187.816403,54.4042545 C174.022913,51.9809818 136.561034,38.2660727 125.108752,41.5077091 C113.646268,44.7569818 129.226268,55.2340727 130.665933,57.1228" id="Fill-17" fill="#6C9FD1"></path>
                            <g id="Group-21" transform="translate(0.000000, 54.454545)">
                                <mask id="mask-12" fill="white">
                                    <use xlink:href="#path-11"></use>
                                </mask>
                                <g id="Clip-20"></g>
                                <path d="M19.2967315,14.0941636 C19.2967315,14.0941636 16.7910268,9.20689091 16.5155906,7.76107273 C16.2414295,6.31143636 15.302906,4.65816364 14.4689463,3.52034545 C13.6337114,2.38889091 8.77532215,-0.252018182 8.52538926,0.335981818 C8.28820805,0.918890909 8.54961745,1.74361818 10.1321007,2.92852727 C10.8959262,3.50634545 11.1764631,4.49525455 11.1764631,4.49525455 C11.1764631,4.49525455 8.60189933,3.50252727 7.54478523,2.93743636 C6.1727047,2.21452727 4.92686577,1.63670909 4.01639597,1.23707273 C2.52955034,0.586709091 1.32069128,0.0801636364 0.331161074,0.422527273 C0.331161074,0.422527273 -0.325550336,1.59852727 0.210020134,3.87798182 C1.04525503,7.41489091 4.24210067,8.08434545 8.87733557,10.9950727 C11.7260604,12.7832545 14.550557,16.5276182 14.550557,16.5276182 L19.2967315,14.0941636 Z" id="Fill-19" fill="#BFCAFF" mask="url(#mask-12)"></path>
                            </g>
                            <path d="M84.8221208,47.7636727 C84.8221208,47.7636727 77.2603758,52.8253091 62.8037987,69.2384 C48.3472215,85.6553091 42.9111812,91.4780364 42.9111812,91.4780364 L17.4664832,63.6142182 L11.4935973,69.3733091 C11.4935973,69.3733091 31.0635973,120.978582 54.5483624,110.493855 C70.5147383,103.366582 91.845745,72.1529455 91.845745,72.1529455 L84.8221208,47.7636727 Z" id="Fill-22" fill="#6C9FD1"></path>
                            <path d="M153.590262,134.940527 C154.850128,146.476527 157.612141,163.281618 143.450128,167.349255 C126.546503,172.1958 94.2414027,170.933255 91.9142215,160.182527 C90.7691208,154.909618 90.5969732,145.585618 90.1659664,135.975255 C109.053752,136.876345 141.041336,135.5438 153.590262,134.940527" id="Fill-24" fill="#081141"></path>
                            <path d="M81.2344362,316.9978 C83.7057114,316.390709 88.7898054,315.254164 89.3802081,314.479073 C89.3980604,314.458709 89.4184631,314.406527 89.4375906,314.375982 C90.1185302,313.533436 92.8894698,305.586527 92.8894698,305.586527 L99.6822886,304.946345 C99.6822886,304.946345 100.131148,306.310709 100.437188,311.721073 C100.543027,313.633982 100.397658,316.584164 100.064839,318.396527 L93.6418188,319.417255 C93.6418188,319.417255 93.6711477,318.237436 92.6675906,318.602709 C91.6627584,318.960345 88.4761141,320.458345 85.1109463,320.737073 C81.7445034,321.017073 79.1571879,321.498164 78.8332953,320.294164 C78.519604,319.076164 78.6700738,317.618891 81.2344362,316.9978" id="Fill-26" fill="#171614"></path>
                            <path d="M143.654154,317.923709 C146.12543,317.316618 151.209523,316.180073 151.798651,315.403709 C151.817779,315.383345 151.838181,315.331164 151.857309,315.301891 C152.538248,314.458073 155.309188,306.512436 155.309188,306.512436 L162.103282,305.876073 C162.103282,305.876073 162.550866,307.235345 162.856906,312.646982 C162.962745,314.558618 162.817376,317.510073 162.484557,319.321164 L156.061537,320.341891 C156.061537,320.341891 156.090866,319.162073 155.087309,319.528618 C154.082477,319.884982 150.895832,321.382982 147.530664,321.662982 C144.164221,321.942982 141.578181,322.424073 141.254289,321.220073 C140.939322,320.0008 141.089792,318.5448 143.654154,317.923709" id="Fill-28" fill="#171614"></path>
                            <path d="M124.49055,153.772945 C124.49055,153.772945 118.339141,195.341491 114.601624,232.419855 C114.601624,232.419855 113.582765,271.805673 100.484242,313.595673 L88.7475973,313.431491 C88.7475973,313.431491 89.2002819,242.370036 87.9098121,230.066582 C86.6231678,217.755491 90.4805503,143.022218 90.4805503,143.022218 L124.49055,153.772945 Z" id="Fill-30" fill="#081141"></path>
                            <path d="M154.425879,145.326236 L118.001987,153.773327 C118.001987,153.773327 129.081919,223.335509 131.906416,230.260418 C134.736013,237.185327 151.992859,316.001509 151.992859,316.001509 L162.189101,315.692236 C162.189101,315.692236 165.897289,262.952964 161.88051,221.624964 C161.88051,221.624964 157.250376,157.893145 154.425879,145.326236" id="Fill-32" fill="#081141"></path>
                            <path d="M155.333671,78.288 C155.96998,67.9661818 157.75649,56.7038182 153.739711,49.3258182 C149.731859,41.9427273 124.645483,39.6047273 124.645483,39.6047273 C115.775416,38.9785455 90.8573624,41.7161818 83.8949463,48.4616364 C77.9169597,54.2398182 83.8656174,83.4158182 86.8010537,100.185273 C86.8966913,104.050545 87.7727315,136.072364 89.2634027,139.893091 C90.4811879,143.021455 114.910852,143.440182 133.451792,141.898909 C151.992732,140.357636 154.614477,138.770545 155.391054,132.954182 C155.998034,128.367273 155.105416,103.756545 154.60555,91.434 C154.883537,86.0363636 155.150047,81.3145455 155.333671,78.288" id="Fill-34" fill="#6C9FD1"></path>
                            <path d="M123.529201,28.1687636 C123.529201,28.1687636 123.582758,16.7294909 122.312691,12.0356727 C121.042624,7.34694545 120.676651,4.49858182 116.610141,2.59458182 C112.539805,0.705854545 100.710074,0.248945455 96.911349,1.51530909 C93.1075235,2.77912727 93.879,4.98476364 96.1003423,6.45858182 C97.891953,7.64985455 101.512154,8.07367273 101.512154,8.07367273 C101.512154,8.07367273 106.306785,18.2516727 110.113161,23.1096727 C113.916987,27.9625818 123.529201,28.1687636 123.529201,28.1687636" id="Fill-36" fill="#000C4C"></path>
                            <path d="M95.6124631,21.0756 C95.1929329,20.4443273 98.6588389,14.1265091 99.5093758,12.3625091 C100.098503,11.1534182 100.301255,7.85705455 100.301255,7.85705455 L111.110852,8.07341818 L110.072866,16.1119636 L113.385752,17.7741455 C113.385752,17.7741455 113.650987,15.0759636 115.470651,13.8999636 C116.456356,13.2597818 117.248235,13.4659636 117.828436,14.0259636 C117.832262,14.0259636 117.837362,14.0106909 117.837362,14.0106909 C117.837362,14.0106909 120.149242,15.8765091 119.015617,18.0070545 C118.198235,19.5381455 116.432128,20.5830545 115.489779,21.0666909 C115.489779,21.0756 115.494879,21.0857818 115.49998,21.0896 C116.291859,23.6261455 123.525886,27.5906909 123.525886,27.5906909 L126.189711,39.5428727 C118.261993,40.8156 111.332732,42.8112364 111.332732,42.8112364 C111.332732,42.8112364 109.329443,33.5572364 109.015752,32.7083273 C108.69696,31.8696 103.274946,33.1716 101.585349,31.6876 C99.8893758,30.2188727 99.7593087,23.1577818 99.6534698,22.3203273 C99.5476309,21.4752364 96.037094,21.7068727 95.6124631,21.0756" id="Fill-38" fill="#BFCAFF"></path>
                            <polygon id="Fill-40" fill="#2A3B93" points="114.301705 40.3672182 115.698013 41.0226727 117.068819 40.5988545 118.74949 47.2539455 116.034658 50.0284909 113.361906 49.6479455 111.657007 46.8390364"></polygon>
                            <path d="M113.307966,49.6442545 C113.307966,49.6442545 111.265148,77.2140727 114.660919,92.6102545 L119.882732,96.6575273 L123.983671,90.8704364 C123.983671,90.8704364 116.764946,63.7829818 116.30206,49.6824364 L113.307966,49.6442545 Z" id="Fill-42" fill="#2A3B93"></path>
                            <path d="M124.890315,33.5530364 C124.890315,33.5530364 122.901054,36.5210364 115.229644,40.5543091 L118.464745,50.1443091 C118.464745,50.1443091 125.238436,42.2559455 126.692128,39.9281273 L124.890315,33.5530364 Z" id="Fill-44" fill="#6C9FD1"></path>
                            <path d="M109.904544,36.1898727 C109.904544,36.1898727 113.867765,40.3236909 115.408168,40.5884182 L110.661993,49.2200545 C110.661993,49.2200545 109.140718,41.8318727 109.185349,40.4687818 L109.904544,36.1898727 Z" id="Fill-46" fill="#6C9FD1"></path>
                        </g>
                    </g>
                    <g id="Group-24" transform="translate(487.000000, 25.000000)">
                        <g id="Group-22">
                            <g id="Group-21" transform="translate(22.130178, 170.264398)" fill="#FFFFFF">
                                <path d="M21.7685733,4.26292539 C14.5863298,4.26292539 8.76397107,3.30863704 8.76397107,2.1314627 C8.76397107,0.954288354 14.5863298,0 21.7685733,0 C28.9508168,0 34.7731755,0.954288354 34.7731755,2.1314627 C34.7731755,3.30863704 28.9508168,4.26292539 21.7685733,4.26292539 Z M21.9099277,2.84195026 C27.452746,2.84195026 31.9460881,2.46023492 31.9460881,1.98936518 C31.9460881,1.51849545 27.452746,1.1367801 21.9099277,1.1367801 C16.3671093,1.1367801 11.8737673,1.51849545 11.8737673,1.98936518 C11.8737673,2.46023492 16.3671093,2.84195026 21.9099277,2.84195026 Z" id="Combined-Shape" opacity="0.365908668"></path>
                                <path d="M21.7685733,12.7887762 C12.7127011,12.7887762 5.37146614,11.5800109 5.37146614,10.0889234 C5.37146614,8.59783593 12.7127011,7.38907068 21.7685733,7.38907068 C30.8244455,7.38907068 38.1656805,8.59783593 38.1656805,10.0889234 C38.1656805,11.5800109 30.8244455,12.7887762 21.7685733,12.7887762 Z M22.1926364,11.083606 C29.1406763,11.083606 34.7731755,10.5746522 34.7731755,9.94682592 C34.7731755,9.3189996 29.1406763,8.81004581 22.1926364,8.81004581 C15.2445965,8.81004581 9.6120973,9.3189996 9.6120973,9.94682592 C9.6120973,10.5746522 15.2445965,11.083606 22.1926364,11.083606 Z" id="Combined-Shape" opacity="0.774158296"></path>
                                <path d="M21.6272189,22.7356021 C9.68283574,22.7356021 0,21.2087407 0,19.3252618 C0,17.4417828 9.68283574,15.9149215 21.6272189,15.9149215 C33.5716021,15.9149215 43.2544379,17.4417828 43.2544379,19.3252618 C43.2544379,21.2087407 33.5716021,22.7356021 21.6272189,22.7356021 Z M21.9099277,20.4620419 C31.0438678,20.4620419 38.4483892,19.8894689 38.4483892,19.1831643 C38.4483892,18.4768597 31.0438678,17.9042866 21.9099277,17.9042866 C12.7759876,17.9042866 5.37146614,18.4768597 5.37146614,19.1831643 C5.37146614,19.8894689 12.7759876,20.4620419 21.9099277,20.4620419 Z" id="Combined-Shape" opacity="0.899274554"></path>
                            </g>
                            <path d="M44.511777,49.513089 C22.7063839,49.513089 5.0295858,67.1569029 5.0295858,88.921466 L83.9940828,88.921466 C83.9940828,67.1569029 66.3171701,49.513089 44.511777,49.513089" id="Fill-6" fill="#FEFEFE"></path>
                            <path d="M9.9113609,69.2172775 L9.91041451,69.2172775 L9.80217057,69.2172775 L9.80217057,69.221285 C6.32310409,69.3944779 3.52071006,77.8081018 3.52071006,88.1636126 C3.52071006,98.5189491 6.32310409,106.932573 9.80217057,107.105766 L9.80217057,107.109948 L78.6093492,107.109948 C82.1388112,107.109948 85,98.6273254 85,88.1636126 C85,77.6997255 82.1388112,69.2172775 78.6093492,69.2172775 L9.9113609,69.2172775 Z" id="Fill-8" fill="#FFFFFF"></path>
                            <path d="M24.9057335,61.6008952 C24.9057335,61.6008952 25.208936,35.0389324 9.43294825,24.5616776 C-6.34303947,14.0844228 2.43535509,9.40755244 2.43535509,9.40755244 C2.43535509,9.40755244 8.24202378,3.8660379 23.2367523,15.4588989 C38.2314808,27.0517599 39.1242182,52.1023687 40.1870225,59.2289674 C41.2497129,66.355566 24.9057335,61.6008952 24.9057335,61.6008952" id="Fill-9" fill="#FFFFFF"></path>
                            <path d="M49.6207238,56.4624969 C49.6207238,56.4624969 57.072193,31.1684933 44.5790464,16.8040572 C32.0858998,2.43962118 41.8686057,0.394058605 41.8686057,0.394058605 C41.8686057,0.394058605 48.9991834,-3.29751554 60.4332729,11.9171789 C71.8672474,27.1317579 65.9842362,51.3118688 65.0957462,58.4140611 C64.2071412,65.5162534 49.6207238,56.4624969 49.6207238,56.4624969" id="Fill-10" fill="#FFFFFF"></path>
                            <path d="M32.2189914,39.382559 C32.2189914,39.382559 31.158855,33.8586134 27.5946234,27.6132199 C26.5467428,25.7769982 25.2815555,23.8789548 23.7638257,22.0400502 C19.163498,16.7702735 14.0715197,14.8505342 12.5800694,14.3764899 C9.97439163,13.5868049 7.21410078,13.1700332 6.28218002,14.5114479 C5.70226321,15.3461577 6.20216305,16.5273025 7.18428591,17.7712022 C7.18440376,17.7713188 12.8724437,22.6253736 14.5208639,23.4632329 C14.5208639,23.4632329 21.5000171,29.5763512 26.2077018,43.7553376 C26.2077018,43.7553376 27.3188653,46.4816754 29.4120338,46.4816754 C30.6324399,46.4816754 31.5423236,45.4498359 31.5492765,45.4420207 C32.5094801,44.3377448 33.1938079,42.4701456 32.2189914,39.382559" id="Fill-21" fill="url(#linearGradient-13)"></path>
                            <path d="M62.7891028,37.7704473 C62.7891028,37.7704473 63.3138111,32.1239764 61.6876527,25.0818902 C61.2094521,23.0113528 60.5445299,20.8205626 59.626463,18.6168293 C56.7599071,12.231427 52.5107826,8.95483133 51.2419509,8.08058613 C49.0145306,6.59060403 46.5396064,5.418786 45.2963309,6.45905542 C44.5227372,7.10632633 44.6668651,8.38969005 45.2462545,9.86802339 C45.2463696,9.86814105 49.2475297,16.153411 50.5635599,17.4238317 C50.5635599,17.4238317 55.4299476,25.2879202 55.946943,40.3341155 C55.946943,40.3341155 56.2395732,43.284546 58.203373,43.8669839 C59.3482226,44.2065628 60.4857046,43.4599833 60.4943384,43.4543354 C61.6989343,42.6517478 62.8544899,41.0329233 62.7891028,37.7704473" id="Fill-22" fill="url(#linearGradient-14)"></path>
                            <g id="Group-3" transform="translate(29.171598, 159.654450)">
                                <mask id="mask-16" fill="white">
                                    <use xlink:href="#path-15"></use>
                                </mask>
                                <g id="Clip-2"></g>
                                <path d="M14.3343508,0 L14.3343508,0 L0,0 C0,0 1.68201429,5.76308123 4.07326272,5.76308123 C4.07326272,5.76308123 7.32216199,6.54535448 11.0298891,6.89970931 L11.0298266,6.89977373 C11.0392121,6.90073998 11.0483474,6.90151297 11.0577329,6.9024148 C11.1004058,6.90647304 11.1431413,6.91046686 11.1859394,6.91446068 C14.7152161,7.24639859 17.0125465,6.95504304 17.0125465,6.95504304 L17.0126091,6.95504304 C20.9728073,6.63540866 24.5954389,5.76308123 24.5954389,5.76308123 C26.9866248,5.76308123 28.6686391,0 28.6686391,0 L14.3343508,0 Z" id="Fill-1" fill="#EAEAEA" mask="url(#mask-16)"></path>
                            </g>
                            <path d="M9.2260107,104.861154 C-8.40156096,142.400489 2.32193915,161.170157 41.396511,161.170157 C80.4710829,161.170157 92.9771505,141.921671 78.9147139,103.4247 L42.7514793,105.435736 L31.1453884,105.435736 L21.516347,102.562827 L9.2260107,104.861154 Z" id="Path-11" fill="#FFFFFF"></path>
                            <ellipse id="Oval" fill="#D8D8D8" cx="41.4940828" cy="85.6374346" rx="20.8727811" ry="20.9672775"></ellipse>
                            <ellipse id="Oval" fill="#FDFDFD" cx="41.2426036" cy="85.8900524" rx="19.112426" ry="19.1989529"></ellipse>
                            <path d="M47.4684177,82.0645015 C44.6945835,82.0645015 42.4487978,79.7618365 42.4487978,76.9244425 C42.4487978,75.6181496 42.9389351,74.4413759 43.7170168,73.5356671 C42.3973469,73.0397939 40.97297,72.7539267 39.4826998,72.7539267 C32.6794496,72.7539267 27.1597633,78.4092868 27.1597633,85.3829665 C27.1597633,92.3594216 32.6794496,98.0157068 39.4826998,98.0157068 C46.2886581,98.0157068 51.8047337,92.3594216 51.8047337,85.3829665 C51.8047337,83.7084692 51.4797808,82.1163091 50.9011841,80.6518179 C50.0057583,81.5214463 48.7998219,82.0645015 47.4684177,82.0645015" id="Fill-46" fill="url(#linearGradient-17)"></path>
                        </g>
                    </g>
                </g>
            </g>
        </g>
    </g>
</svg>