<?xml version="1.0" encoding="UTF-8"?>
<svg width="673px" height="350px" viewBox="0 0 673 350" version="1.1" xmlns="http://www.w3.org/2000/svg" xmlns:xlink="http://www.w3.org/1999/xlink">
    <!-- Generator: Sketch 53 (72520) - https://sketchapp.com -->
    <title>How_it_works_conclusion_image</title>
    <desc>Created with Sketch.</desc>
    <defs>
        <polygon id="path-1" points="8.44512195e-05 0.283694569 276.82772 0.283694569 276.82772 12.2462043 8.44512195e-05 12.2462043"></polygon>
        <polygon id="path-3" points="0 0.608295003 276.82772 0.608295003 276.82772 205.213466 0 205.213466"></polygon>
    </defs>
    <g id="HD_Desktop" stroke="none" stroke-width="1" fill="none" fill-rule="evenodd">
        <g id="VW_HD_Desktop_Learn" transform="translate(-255.000000, -3538.000000)">
            <g id="How_it_works_module" transform="translate(0.000000, 1693.000000)">
                <g id="How_it_works_conclusion_image" transform="translate(255.000000, 1845.000000)">
                    <g id="Group-8" transform="translate(198.000000, 65.000000)">
                        <g id="Group-6">
                            <g id="Group-15">
                                <g id="Group-13">
                                    <g id="Group-3">
                                        <mask id="mask-2" fill="white">
                                            <use xlink:href="#path-1"></use>
                                        </mask>
                                        <g id="Clip-2"></g>
                                        <path d="M274.241908,0.283611374 L2.58598079,0.283611374 C1.15791067,0.283611374 8.44512195e-05,1.42421329 8.44512195e-05,2.8318708 L8.44512195e-05,5.68628741 L8.44512195e-05,9.69877687 L8.44512195e-05,12.2462043 L2.58598079,12.2462043 L274.241908,12.2462043 L276.828648,12.2462043 L276.828648,9.69877687 L276.828648,5.68628741 L276.828648,2.8318708 C276.828648,1.42421329 275.669978,0.283611374 274.241908,0.283611374" id="Fill-1" fill="#BFCAFF" mask="url(#mask-2)"></path>
                                    </g>
                                    <path d="M12.4962406,5.89297125 C12.4962406,7.61658811 11.0970647,9.01277955 9.37262239,9.01277955 C7.6472962,9.01277955 6.2481203,7.61658811 6.2481203,5.89297125 C6.2481203,4.17023693 7.6472962,2.77316294 9.37262239,2.77316294 C11.0970647,2.77316294 12.4962406,4.17023693 12.4962406,5.89297125" id="Fill-4" fill="#000C4C"></path>
                                    <path d="M24.2982456,5.89297125 C24.2982456,7.61658811 22.8990697,9.01277955 21.1737435,9.01277955 C19.4484173,9.01277955 18.0501253,7.61658811 18.0501253,5.89297125 C18.0501253,4.17023693 19.4484173,2.77316294 21.1737435,2.77316294 C22.8990697,2.77316294 24.2982456,4.17023693 24.2982456,5.89297125" id="Fill-6" fill="#000C4C"></path>
                                    <path d="M36.1002506,5.89297125 C36.1002506,7.61658811 34.7010747,9.01277955 32.9757485,9.01277955 C31.2504223,9.01277955 29.8521303,7.61658811 29.8521303,5.89297125 C29.8521303,4.17023693 31.2504223,2.77316294 32.9757485,2.77316294 C34.7010747,2.77316294 36.1002506,4.17023693 36.1002506,5.89297125" id="Fill-8" fill="#000C4C"></path>
                                    <g id="Group-12" transform="translate(0.000000, 11.785942)">
                                        <mask id="mask-4" fill="white">
                                            <use xlink:href="#path-3"></use>
                                        </mask>
                                        <g id="Clip-11"></g>
                                        <path d="M-0.000168902439,0.608295003 L-0.000168902439,202.67067 C-0.000168902439,204.075077 1.13907805,205.213466 2.54350183,205.213466 L274.28388,205.213466 C275.689148,205.213466 276.828395,204.075077 276.828395,202.67067 L276.828395,0.608295003 L-0.000168902439,0.608295003 Z" id="Fill-10" fill="#000C4C" mask="url(#mask-4)"></path>
                                    </g>
                                </g>
                            </g>
                            <rect id="Rectangle" fill="#BFCAFF" x="11.1077694" y="33.2779553" width="254.090226" height="8.31948882"></rect>
                            <rect id="Rectangle" fill="#BFCAFF" x="11.1077694" y="97.7539936" width="254.090226" height="8.31948882"></rect>
                            <rect id="Rectangle" fill="#BFCAFF" x="11.1077694" y="183.722045" width="254.090226" height="8.31948882"></rect>
                            <rect id="Rectangle" fill="#BFCAFF" x="11.1077694" y="140.738019" width="191.609023" height="8.31948882"></rect>
                            <rect id="Rectangle" fill="#BFCAFF" x="99.2756892" y="119.246006" width="165.922306" height="8.31948882"></rect>
                            <rect id="Rectangle" fill="#BFCAFF" x="11.1077694" y="119.246006" width="79.8370927" height="8.31948882"></rect>
                            <rect id="Rectangle" fill="#BFCAFF" x="11.1077694" y="76.2619808" width="27.075188" height="8.31948882"></rect>
                            <rect id="Rectangle" fill="#BFCAFF" x="126.350877" y="76.2619808" width="27.075188" height="8.31948882"></rect>
                            <rect id="Rectangle" fill="#BFCAFF" x="45.8195489" y="76.2619808" width="72.8947368" height="8.31948882"></rect>
                            <rect id="Rectangle" fill="#BFCAFF" x="11.1077694" y="54.7699681" width="88.1679198" height="8.31948882"></rect>
                            <rect id="Rectangle" fill="#BFCAFF" x="108.994987" y="54.7699681" width="116.631579" height="8.31948882"></rect>
                            <rect id="Rectangle" fill="#BFCAFF" x="11.1077694" y="162.230032" width="88.1679198" height="8.31948882"></rect>
                            <rect id="Rectangle" fill="#BFCAFF" x="108.994987" y="162.230032" width="116.631579" height="8.31948882"></rect>
                        </g>
                    </g>
                    <path d="M482,128 L555.008094,128 L613,65" id="Path-7" stroke="#BFCAFF" stroke-width="6" stroke-linecap="square" stroke-dasharray="3,11"></path>
                    <circle id="Oval" fill="#BFCAFF" cx="632" cy="41" r="41"></circle>
                    <g id="Group" transform="translate(604.000000, 25.000000)" fill="#FFFFFF" fill-rule="nonzero">
                        <path d="M45,12.5283019 C45,12.1320755 44.8301887,11.7358491 44.5471698,11.4528302 C44.2641509,11.1698113 43.8679245,11 43.4716981,11 C43.0754717,11 42.6792453,11.1698113 42.3962264,11.4528302 L39,14.8490566 L35.6037736,11.4528302 C35.3207547,11.1698113 34.9245283,11 34.5283019,11 C34.1320755,11 33.7358491,11.1698113 33.4528302,11.4528302 C33.1698113,11.7358491 33,12.1320755 33,12.5283019 C33,12.9245283 33.1698113,13.3207547 33.4528302,13.6037736 L36.8490566,17 L33.4528302,20.3962264 C33.1698113,20.6792453 33,21.0754717 33,21.4716981 C33,21.8679245 33.1698113,22.2641509 33.4528302,22.5471698 C33.7358491,22.8301887 34.1320755,23 34.5283019,23 L34.5283019,23 C34.9245283,23 35.3207547,22.8301887 35.6037736,22.5471698 L39,19.1509434 L42.3962264,22.5471698 C42.6792453,22.8301887 43.0754717,23 43.4716981,23 C43.8679245,23 44.2641509,22.8301887 44.5471698,22.5471698 C44.8301887,22.2641509 45,21.8679245 45,21.4716981 C45,21.0754717 44.8301887,20.6792453 44.5471698,20.3962264 L41.1509434,17 L44.5471698,13.6037736 C44.8301887,13.3207547 45,12.9245283 45,12.5283019 Z" id="Path"></path>
                        <path d="M48.2764255,0 L6.78072243,0 C3.01365442,0 0,3.05769231 0,6.75 L0,26.25 C0,30 3.07160931,33 6.78072243,33 L48.2184706,33 C51.9855387,33 54.9991931,29.9423077 54.9991931,26.25 L54.9991931,6.75 C55.057148,3 51.9855387,0 48.2764255,0 Z M21.1535358,13.6153846 L14.6046329,21.4038462 C14.3148585,21.75 13.8512193,21.9807692 13.3875802,21.9807692 C12.9239411,21.9807692 12.5182568,21.75 12.1705274,21.4038462 L8.40345943,16.9615385 C7.8239105,16.3269231 7.93982029,15.3461538 8.57732411,14.7692308 C9.21482792,14.1923077 10.2000611,14.3076923 10.77961,14.9423077 L13.3296253,18 L18.7194303,11.6538462 C19.0092048,11.3076923 19.3569341,11.1346154 19.7626184,11.0769231 C20.1683026,11.0192308 20.5739869,11.1923077 20.9217162,11.4230769 C21.6751298,12 21.7330847,12.9807692 21.1535358,13.6153846 Z M49.4934783,26.25 C49.4934783,26.8846154 48.9718843,27.4615385 48.2764255,27.4615385 L28.4558523,27.4615385 L28.4558523,5.53846154 L48.2184706,5.53846154 C48.8559745,5.53846154 49.4355234,6.05769231 49.4355234,6.75 L49.4355234,26.25 L49.4934783,26.25 Z" id="Shape"></path>
                    </g>
                    <g id="Group-9" transform="translate(95.500000, 64.500000) scale(-1, 1) translate(-95.500000, -64.500000) ">
                        <path d="M1.42108547e-14,128.089457 L73.280361,128.089457 L131.488535,65" id="Path-7" stroke="#BFCAFF" stroke-width="6" stroke-linecap="square" stroke-dasharray="3,11"></path>
                        <circle id="Oval" fill="#BFCAFF" cx="150" cy="41" r="41"></circle>
                    </g>
                    <g id="noun_Search_2428114" transform="translate(19.000000, 19.000000)" fill="#FFFFFF">
                        <path d="M28.6773201,23.6007324 L42.8809645,37.8043768 C46.2833585,41.1527645 41.1527645,46.2833585 37.8043768,42.8809645 L23.6007324,28.6773201 C17.6600446,32.3497453 9.72112546,31.647664 4.53652522,26.4630638 C-1.51217507,20.4143635 -1.51217507,10.5852255 4.53652522,4.53652522 C10.5852255,-1.51217507 20.4143635,-1.51217507 26.4630638,4.53652522 C31.647664,9.72112546 32.3497453,17.6600446 28.6773201,23.6007324 Z M13.2855381,23.6547386 C14.6356944,23.9787761 14.0956319,25.9770075 12.7994819,25.65297 C11.8813756,25.3829387 11.0172755,25.0589012 10.261188,24.5728449 C5.2386065,21.7105135 3.51040642,15.2837695 6.42674406,10.261188 C7.07481909,9.07305043 8.85702542,10.0991692 8.20895039,11.2873068 C5.88668153,15.3377757 7.23683784,20.4683697 11.2873068,22.7906386 C11.9353818,23.1686824 12.5834568,23.4387136 13.2855381,23.6547386 Z M15.2297632,24.2488074 C15.607807,23.8167574 16.255882,23.8167574 16.687932,24.2488074 C17.0659758,24.6268512 17.0659758,25.2749262 16.687932,25.7069762 C16.255882,26.08502 15.607807,26.08502 15.2297632,25.7069762 C14.7977132,25.2749262 14.7977132,24.6268512 15.2297632,24.2488074 Z M6.64276907,6.64276907 C11.5573381,1.78220633 19.4422509,1.78220633 24.3568199,6.64276907 C29.2173826,11.5573381 29.2173826,19.4422509 24.3568199,24.3568199 C19.4422509,29.2173826 11.5573381,29.2173826 6.64276907,24.3568199 C1.78220633,19.4422509 1.78220633,11.5573381 6.64276907,6.64276907 Z" id="Shape"></path>
                    </g>
                    <circle id="Oval" fill="#BFCAFF" cx="623.5" cy="169.5" r="32.5"></circle>
                    <g id="Shape-2" transform="translate(610.000000, 148.000000)" fill="#FFFFFF" fill-rule="nonzero">
                        <path d="M24.0995025,24.6797203 C22.5207297,27.1048951 20.8490879,29.5776224 20.7562189,32.9062937 C20.7562189,33.3342657 20.5704809,33.7146853 20.3383085,34 L7.70812604,34 C7.42951907,33.7146853 7.29021559,33.3342657 7.24378109,32.9062937 C7.15091211,29.5300699 5.47927032,27.0573427 3.90049751,24.6797203 C1.99668325,21.8265734 0,18.8307692 0,13.6 C0.0464344942,6.13426573 6.31509121,0 14.0232172,0 C21.7313433,0 28,6.13426573 28,13.6 C28,18.8783217 26.0033167,21.8265734 24.0995025,24.6797203 L24.0995025,24.6797203 Z M20.3098592,35 C20.7535211,35.2545455 21,35.6545455 21,36.0545455 C21,36.4181818 20.8028169,36.7454545 20.5070423,37 L7.49295775,37 C7.1971831,36.7454545 7,36.4181818 7,36.0545455 C7,35.6181818 7.29577465,35.2181818 7.73943662,35 L20.3098592,35 Z M20.6056338,38 C20.8521127,38.2307692 21,38.5769231 21,38.9230769 C21,39.3846154 20.7535211,39.7692308 20.3591549,40 L7.64084507,40 C7.24647887,39.7307692 7,39.3461538 7,38.9230769 C7,38.5769231 7.14788732,38.2692308 7.44366197,38 L20.6056338,38 Z M18,41 C17.5,42.1525424 15.9,43 14,43 C12.1,43 10.5,42.1525424 10,41 L18,41 Z" id="Shape"></path>
                    </g>
                    <g id="Group-11" transform="translate(0.000000, 221.000000)">
                        <path d="M59.2918255,63.0894569 L132.572187,63.0894569 L190.780361,-2.27373675e-13" id="Path-7" stroke="#BFCAFF" stroke-width="6" stroke-linecap="square" stroke-dasharray="2,11" transform="translate(125.036093, 31.544728) rotate(-180.000000) translate(-125.036093, -31.544728) "></path>
                        <circle id="Oval" fill="#BFCAFF" transform="translate(41.000000, 87.000000) rotate(-180.000000) translate(-41.000000, -87.000000) " cx="41" cy="87" r="41"></circle>
                    </g>
                    <g id="Group-6" transform="translate(24.000000, 281.000000)" fill="#FFFFFF">
                        <g id="Group">
                            <path d="M7.55779093,45.5261162 L0,51.5859064 C0.154240631,39.0001883 0.771203156,38.844809 5.39842209,33.561915 C5.70690335,38.0679129 6.47810651,42.4185315 7.55779093,45.5261162 Z" id="Path"></path>
                            <path d="M26.3751479,45.5261162 L33.7786982,51.5859064 C33.6244576,39.0001883 33.0074951,38.844809 28.5345168,33.561915 C28.0717949,38.0679129 27.3005917,42.4185315 26.3751479,45.5261162 Z" id="Path"></path>
                            <path d="M25.912426,13.828752 C28.2260355,20.8208176 27.3005917,39.9324637 23.7530572,47.5460463 L10.025641,47.5460463 C6.47810651,40.0878429 5.70690335,20.8208176 8.02051282,13.828752 C14.1901381,-4.50599785 19.5885602,-4.66137708 25.912426,13.828752 Z M16.9664694,13.828752 C20.3597633,13.828752 22.981854,16.6255783 22.981854,20.0439215 C22.981854,23.4622647 20.3597633,26.2590909 16.9664694,26.2590909 C13.5731755,26.2590909 10.7968442,23.4622647 10.7968442,20.0439215 C10.7968442,16.6255783 13.5731755,13.828752 16.9664694,13.828752 Z" id="Shape"></path>
                            <ellipse id="Oval" cx="16.9664694" cy="20.0439215" rx="3.54753452" ry="3.57372243"></ellipse>
                            <polygon id="Path" points="23.4445759 49.2552179 23.4445759 52.5181818 10.3341223 52.5181818 10.3341223 49.2552179"></polygon>
                        </g>
                    </g>
                    <g id="Group-11" transform="translate(577.500000, 285.500000) scale(-1, 1) translate(-577.500000, -285.500000) translate(482.000000, 221.000000)">
                        <path d="M59.2918255,63.0894569 L132.572187,63.0894569 L190.780361,-4.54747351e-13" id="Path-7" stroke="#BFCAFF" stroke-width="6" stroke-linecap="square" stroke-dasharray="3,11" transform="translate(125.036093, 31.544728) rotate(-180.000000) translate(-125.036093, -31.544728) "></path>
                        <circle id="Oval" fill="#BFCAFF" transform="translate(41.000000, 87.089457) rotate(-180.000000) translate(-41.000000, -87.089457) " cx="41" cy="87.0894569" r="41"></circle>
                        <path d="M22.5221239,70.3738198 L59.3362832,70.3738198 C62.4513274,70.3738198 65,72.8801489 65,75.8041996 L65,97.8041996 C65,100.867491 62.4513274,103.37382 59.3362832,103.37382 L22.5221239,103.37382 C19.5486726,103.37382 17,100.867491 17,97.8041996 L17,75.8041996 C17,72.8801489 19.5486726,70.3738198 22.5221239,70.3738198 Z M46.3828571,86.3388966 L36.7828571,80.6017341 C35.96,80.0280179 35,80.6017341 35,81.6057376 L35,93.2234916 C35,94.084066 35.96,94.6577822 36.7828571,94.2274951 L46.3828571,88.4903326 C47.2057143,87.9166163 47.2057143,86.7691838 46.3828571,86.3388966 Z" id="Shape" fill="#FFFFFF" transform="translate(41.000000, 86.873820) scale(-1, 1) translate(-41.000000, -86.873820) "></path>
                    </g>
                    <path d="M482,169.5 L591,169.5" id="Path-8" stroke="#BFCAFF" stroke-width="6" stroke-linecap="square" stroke-dasharray="3,11"></path>
                    <circle id="Oval" fill="#BFCAFF" cx="49.5" cy="169.5" r="32.5"></circle>
                    <path d="M60.6395633,168.159452 C55.9109907,176.441918 51.1824181,184.632357 46.5447796,192.914823 C46.5447796,192.914823 46.5447796,193.00685 46.4538455,193.00685 C46.0901092,193.651042 45.7263728,194.203206 44.9989001,193.927124 C44.1804933,193.651042 44.3623615,192.914823 44.4532956,192.270631 C44.8170319,190.154001 45.1807683,188.129398 45.6354387,186.012768 C46.2719774,182.331672 46.9994501,178.742603 47.6359887,175.061507 C47.7269228,174.785425 47.7269228,174.417315 47.7269228,173.957178 C47.2722523,173.957178 46.908516,173.865151 46.5447796,173.865151 C43.9076911,173.865151 41.1796684,173.865151 38.5425798,173.865151 C36.9967003,173.865151 36.632964,173.220959 37.3604367,171.840548 C42.0890093,163.558082 46.8175819,155.367643 51.4552204,147.085177 C51.4552204,147.085177 51.4552204,146.99315 51.5461545,146.99315 C51.9098908,146.348958 52.2736272,145.796794 53.0010999,146.072876 C53.8195067,146.348958 53.6376385,147.085177 53.5467044,147.729369 C53.1829681,149.845999 52.8192317,151.870602 52.3645613,153.987232 C51.7280226,157.668328 51.0005499,161.257397 50.3640113,164.938493 C50.2730772,165.214575 50.2730772,165.582685 50.2730772,166.042822 C50.7277477,166.042822 51.091484,166.134849 51.4552204,166.134849 C54.0923089,166.134849 56.8203316,166.134849 59.4574202,166.134849 C61.0032997,166.134849 61.367036,166.779041 60.6395633,168.159452 Z" id="Path" fill="#FFFFFF"></path>
                    <path d="M82,169.5 L191,169.5" id="Path-8" stroke="#BFCAFF" stroke-width="6" stroke-linecap="square" stroke-linejoin="round" stroke-dasharray="3,11"></path>
                </g>
            </g>
        </g>
    </g>
</svg>