<?xml version="1.0" encoding="UTF-8"?>
<svg width="570px" height="411px" viewBox="0 0 570 411" version="1.1" xmlns="http://www.w3.org/2000/svg" xmlns:xlink="http://www.w3.org/1999/xlink">
    <!-- Generator: sketchtool 53 (72520) - https://sketchapp.com -->
    <title>9F8E63B8-9A8D-4DB2-9FFE-EF8D0CB308E9</title>
    <desc>Created with sketchtool.</desc>
    <defs>
        <linearGradient x1="36.9234236%" y1="69.4039021%" x2="53.0718357%" y2="-57.7660044%" id="linearGradient-1">
            <stop stop-color="#0CD2C2" offset="0%"></stop>
            <stop stop-color="#3455B5" offset="100%"></stop>
        </linearGradient>
        <linearGradient x1="45.6054353%" y1="69.4039021%" x2="51.0323329%" y2="-57.7660044%" id="linearGradient-2">
            <stop stop-color="#0CD2C2" offset="0%"></stop>
            <stop stop-color="#3455B5" offset="100%"></stop>
        </linearGradient>
        <linearGradient x1="128.501045%" y1="-25.3003888%" x2="29.3159089%" y2="135.034199%" id="linearGradient-3">
            <stop stop-color="#FFFFFF" offset="0%"></stop>
            <stop stop-color="#00BFD6" offset="58.129223%"></stop>
            <stop stop-color="#2A3B93" offset="100%"></stop>
        </linearGradient>
        <linearGradient x1="54.6306792%" y1="98.9085704%" x2="53.0457973%" y2="-5.7720886%" id="linearGradient-4">
            <stop stop-color="#0CD2C2" offset="0%"></stop>
            <stop stop-color="#3455B5" offset="100%"></stop>
        </linearGradient>
        <linearGradient x1="51.9387965%" y1="98.9085704%" x2="51.27523%" y2="-5.7720886%" id="linearGradient-5">
            <stop stop-color="#0CD2C2" offset="0%"></stop>
            <stop stop-color="#3455B5" offset="100%"></stop>
        </linearGradient>
        <linearGradient x1="57.755186%" y1="98.9085704%" x2="55.10092%" y2="-5.7720886%" id="linearGradient-6">
            <stop stop-color="#0CD2C2" offset="0%"></stop>
            <stop stop-color="#3455B5" offset="100%"></stop>
        </linearGradient>
        <linearGradient x1="23.553719%" y1="19.6353312%" x2="97.459771%" y2="84.245169%" id="linearGradient-7">
            <stop stop-color="#FFFFFF" offset="0%"></stop>
            <stop stop-color="#797979" offset="100%"></stop>
        </linearGradient>
    </defs>
    <g id="HD_Desktop" stroke="none" stroke-width="1" fill="none" fill-rule="evenodd">
        <g id="VW_Active_learning" transform="translate(-1067.000000, -81.000000)">
            <g id="Why_VW_Contextual_Bandits_Module">
                <g id="Active_learning_img" transform="translate(1067.000000, 81.000000)">
                    <g id="Input_Icon">
                        <g id="Group-43">
                            <g id="Input_Icon">
                                <g id="Contextual_Bandit_PC">
                                    <g>
                                        <path d="M543.281333,0 C558.035381,0 570,7.71114684 570,17.2200689 L570,287 L0,287 L0,17.2200689 C0,7.71114684 11.9646189,0 26.7240102,0 L543.281333,0" id="Fill-153" fill="#00BFD6"></path>
                                        <polygon id="Fill-154" fill="#142F42" points="195 411 375 411 375 349 195 349"></polygon>
                                        <path d="M543.281333,349 L26.7240102,349 C11.9646189,349 0,337.101654 0,322.429331 L0,287 L570,287 L570,322.429331 C570,337.101654 558.035381,349 543.281333,349" id="Fill-155" fill="#235677"></path>
                                        <polygon id="Fill-156" fill="#235677" points="124 411 446 411 446 393 124 393"></polygon>
                                        <path d="M295,318.00264 C295,324.084713 290.520883,329 284.995199,329 C279.474316,329 275,324.084713 275,318.00264 C275,311.931126 279.474316,307 284.995199,307 C290.520883,307 295,311.931126 295,318.00264" id="Fill-157" fill="#FFFFFE"></path>
                                    </g>
                                </g>
                            </g>
                            <g id="Group" transform="translate(387.000000, 96.000000)">
                                <g id="Group-22">
                                    <path d="M67.6922219,76.4 C35.065014,76.4 8.61538462,101.778352 8.61538462,133.083871 L126.769231,133.083871 C126.769231,101.778352 100.31943,76.4 67.6922219,76.4" id="Fill-6" fill="#FEFEFE"></path>
                                    <path d="M13.4421111,103.509677 L13.4406672,103.509677 L13.2755265,103.509677 L13.2755265,103.515672 C7.96773934,103.774753 3.69230769,116.360743 3.69230769,131.851613 C3.69230769,147.342223 7.96773934,159.928213 13.2755265,160.187293 L13.2755265,160.193548 L118.250197,160.193548 C123.634869,160.193548 128,147.504343 128,131.851613 C128,116.198622 123.634869,103.509677 118.250197,103.509677 L13.4421111,103.509677 Z" id="Fill-8" fill="#FFFFFF"></path>
                                    <path d="M37.3292994,92.5548002 C37.3292994,92.5548002 37.7837464,52.7334308 14.1383248,37.0260586 C-9.50709681,21.3186864 3.65016751,14.3071796 3.65016751,14.3071796 C3.65016751,14.3071796 12.3533392,5.99940886 34.8277911,23.3792841 C57.302243,40.7591594 58.6402988,78.3147256 60.233255,88.9988351 C61.8260403,99.6829446 37.3292994,92.5548002 37.3292994,92.5548002" id="Fill-9" fill="#FFFFFF"></path>
                                    <path d="M73.4433656,84.2197897 C73.4433656,84.2197897 84.4467521,46.4911063 65.9984545,25.0650297 C47.550157,3.63895318 61.9960187,0.587780112 61.9960187,0.587780112 C61.9960187,0.587780112 72.5255533,-4.91859341 89.4099695,17.7757335 C106.294216,40.4698882 97.6069295,76.5370826 96.29492,87.1307541 C94.9827406,97.7244256 73.4433656,84.2197897 73.4433656,84.2197897" id="Fill-10" fill="#FFFFFF"></path>
                                    <path d="M48.5096054,58.351324 C48.5096054,58.351324 46.8943387,50.0603844 41.4637314,40.6866173 C39.8671383,37.9306156 37.9394478,35.0818252 35.6269733,32.3217968 C28.6177283,24.4123416 20.8593844,21.5309875 18.5869505,20.8194902 C14.6168345,19.6342449 10.4111439,19.0087085 8.99123175,21.0220498 C8.10764708,22.2748734 8.86931466,24.0476642 10.3657167,25.9146444 C10.3658963,25.9148194 19.0324237,33.2003139 21.5440234,34.4578644 C21.5440234,34.4578644 32.1777432,43.6330986 39.3505618,64.9144666 C39.3505618,64.9144666 41.0435753,69.0064516 44.2328114,69.0064516 C46.0922715,69.0064516 47.478607,67.4577544 47.4892007,67.4460245 C48.9522058,65.7886069 49.9948752,62.9855106 48.5096054,58.351324" id="Fill-21" fill="url(#linearGradient-1)"></path>
                                    <path d="M93.7209843,57.2896823 C93.7209843,57.2896823 94.5056461,48.8430928 92.0738485,38.308794 C91.3587354,35.2114648 90.3643943,31.9342487 88.9914943,28.6376709 C84.7047753,19.0857097 78.350529,14.1842307 76.4530865,12.8764421 C73.1221469,10.647569 69.4210839,8.89463941 67.5618587,10.4507846 C66.4050075,11.419041 66.6205399,13.3388325 67.4869733,15.5502801 C67.4871454,15.5504561 73.4705795,24.9526289 75.4386037,26.8530587 C75.4386037,26.8530587 82.7159208,38.6169956 83.4890486,61.1246887 C83.4890486,61.1246887 83.9266551,65.5382553 86.8633701,66.4095276 C88.5754066,66.9175058 90.2764254,65.800693 90.2893367,65.7922443 C92.0907193,64.5916486 93.8187657,62.1700395 93.7209843,57.2896823" id="Fill-22" fill="url(#linearGradient-2)"></path>
                                    <path d="M128,191 L3.69230769,191 C5.09145708,180.985196 8.99544746,169.362909 15.4042788,156.133137 L33.7919107,152.8 L48.1979662,156.966422 L65.5618951,156.966422 L119.665886,154.049926 C124.977881,168.146159 127.755919,180.46285 128,191 Z" id="Combined-Shape" fill="#FFFFFF"></path>
                                    <ellipse id="Oval" fill="#D8D8D8" cx="63.3846154" cy="128.154839" rx="31.3846154" ry="32.0387097"></ellipse>
                                    <ellipse id="Oval" fill="#FDFDFD" cx="62.7692308" cy="128.154839" rx="28.3076923" ry="28.3419355"></ellipse>
                                </g>
                                <path d="M73.3138483,122.00542 C69.0368824,122.00542 65.5741127,118.541639 65.5741127,114.273493 C65.5741127,112.308504 66.3298539,110.538343 67.5295755,109.175932 C65.4947808,108.430015 63.2985386,108 61.0006959,108 C50.5107864,108 42,116.507068 42,126.997217 C42,137.49154 50.5107864,146 61.0006959,146 C71.4947808,146 80,137.49154 80,126.997217 C80,124.478356 79.4989562,122.083352 78.6068198,119.880393 C77.2261656,121.18853 75.3667363,122.00542 73.3138483,122.00542" id="Fill-46" fill="url(#linearGradient-3)"></path>
                            </g>
                            <g id="Group-2" transform="translate(214.000000, 190.000000)" fill="#CDFFFB">
                                <rect id="Rectangle" transform="translate(73.500000, 36.000000) scale(-1, 1) translate(-73.500000, -36.000000) " x="0" y="0" width="147" height="72" rx="9"></rect>
                                <polygon id="Triangle" transform="translate(155.000000, 37.500000) rotate(-270.000000) translate(-155.000000, -37.500000) " points="155 27.5 170.5 47.5 139.5 47.5"></polygon>
                            </g>
                            <g id="Group-2" transform="translate(214.000000, 24.000000)">
                                <rect id="Rectangle" fill="#CDFFFB" transform="translate(73.500000, 36.000000) scale(-1, 1) translate(-73.500000, -36.000000) " x="0" y="0" width="147" height="72" rx="9"></rect>
                                <g id="Group-7" transform="translate(22.000000, 20.000000)" fill="#2A3B93">
                                    <polygon id="Fill-4" points="0 5 103 5 103 0 0 0"></polygon>
                                    <polygon id="Fill-5" points="0 19 103 19 103 14 0 14"></polygon>
                                    <polygon id="Fill-6" points="0 32 103 32 103 27 0 27"></polygon>
                                </g>
                            </g>
                            <g id="Group-2" transform="translate(214.000000, 107.000000)">
                                <rect id="Rectangle" fill="#FFFFFF" transform="translate(73.500000, 36.000000) scale(-1, 1) translate(-73.500000, -36.000000) " x="0" y="0" width="147" height="72" rx="9"></rect>
                                <g id="Group-7" transform="translate(22.000000, 20.000000)">
                                    <polygon id="Fill-4" fill="#0CD2C2" points="0 5 103 5 103 0 0 0"></polygon>
                                    <polygon id="Fill-5" fill="#00BFD6" points="0 19 103 19 103 14 0 14"></polygon>
                                    <polygon id="Fill-6" fill="#0CD2C2" points="0 32 103 32 103 27 0 27"></polygon>
                                </g>
                            </g>
                        </g>
                    </g>
                    <g id="Group-4" transform="translate(32.000000, 37.000000)">
                        <rect id="Rectangle" fill="#FFFFFF" x="84" y="0" width="82" height="59" rx="9"></rect>
                        <g id="Group-3" transform="translate(104.000000, 25.000000)" fill="#0CD2C2">
                            <path d="M5.17088608,10 C2.31508455,10 0,7.76142375 0,5 C0,2.23857625 2.31508455,0 5.17088608,0 C8.0266876,0 10.3417722,2.23857625 10.3417722,5 C10.3417722,7.76142375 8.0266876,10 5.17088608,10 Z M37.8291139,10 C34.9733124,10 32.6582278,7.76142375 32.6582278,5 C32.6582278,2.23857625 34.9733124,0 37.8291139,0 C40.6849154,0 43,2.23857625 43,5 C43,7.76142375 40.6849154,10 37.8291139,10 Z" id="Combined-Shape"></path>
                        </g>
                        <ellipse id="Oval" fill="#00BFD6" cx="126.044304" cy="30" rx="5.17088608" ry="5"></ellipse>
                        <g id="Group-2" transform="translate(0.000000, 4.000000)">
                            <path d="M33.499963,31 C19.4167345,31 8,41.7452163 8,55 L59,55 C59,41.7452163 47.5831914,31 33.499963,31" id="Fill-6" fill="#FEFEFE" transform="translate(33.500000, 43.000000) scale(-1, 1) translate(-33.500000, -43.000000) "></path>
                            <path d="M51.4745183,38.0408531 C51.4745183,38.0408531 51.6629051,21.6418051 41.8609127,15.1732694 C32.0589203,8.70473371 37.5131434,5.81728817 37.5131434,5.81728817 C37.5131434,5.81728817 41.1209633,2.39602131 50.4375409,9.55331933 C59.7541186,16.7106173 60.3087973,32.1765729 60.9691427,36.5764524 C61.6294172,40.9763318 51.4745183,38.0408531 51.4745183,38.0408531" id="Fill-9" fill="#FFFFFF" transform="translate(48.500000, 22.000000) scale(-1, 1) translate(-48.500000, -22.000000) "></path>
                            <path d="M26.6410425,36.0201379 C26.6410425,36.0201379 30.9834504,19.8838784 23.7029615,10.720115 C16.4224727,1.55635149 22.1234288,0.251388905 22.1234288,0.251388905 C22.1234288,0.251388905 26.2788344,-2.1036435 32.9421487,7.60254062 C39.6053959,17.3086511 36.1770204,32.7343048 35.6592452,37.2651343 C35.141403,41.7959638 26.6410425,36.0201379 26.6410425,36.0201379" id="Fill-10" fill="#FFFFFF" transform="translate(28.500000, 19.500000) scale(-1, 1) translate(-28.500000, -19.500000) "></path>
                            <path d="M56.6981492,25.2442428 C56.6981492,25.2442428 56.0220622,21.5437056 53.749024,17.3598645 C53.080753,16.1297643 52.2738976,14.8582492 51.3059869,13.6263517 C48.3721931,10.0960844 45.124856,8.810035 44.1737047,8.49246879 C42.5119705,7.96345224 40.7516341,7.6842534 40.1573148,8.58287827 C39.7874811,9.14205736 40.1062851,9.93331608 40.7326201,10.7666148 C40.7326952,10.766693 44.3601622,14.0184647 45.4114189,14.5797536 C45.4114189,14.5797536 49.8622751,18.6749825 52.8645344,28.1736036 C52.8645344,28.1736036 53.5731632,30 54.9080518,30 C55.6863485,30 56.2666139,29.3087621 56.271048,29.3035267 C56.8834043,28.563763 57.3198246,27.3126428 56.6981492,25.2442428" id="Fill-21" fill="url(#linearGradient-4)" transform="translate(48.500000, 19.000000) scale(-1, 1) translate(-48.500000, -19.000000) "></path>
                            <path d="M34.9465034,25.082588 C34.9465034,25.082588 35.2942513,21.5062947 34.2165228,17.0460635 C33.8995977,15.7346516 33.4589238,14.3470755 32.8504794,12.9513016 C30.9506835,8.90699296 28.1345971,6.83170249 27.2936851,6.27798367 C25.8174732,5.33427687 24.1772294,4.59208498 23.3532546,5.25095821 C22.8405592,5.66091881 22.9360792,6.47376016 23.3200667,7.41008901 C23.320143,7.41016353 25.9718922,11.3910516 26.8440848,12.1956953 C26.8440848,12.1956953 30.0692594,17.1765563 30.4118955,26.706333 C30.4118955,26.706333 30.6058348,28.5750409 31.9073335,28.9439384 C32.6660769,29.1590168 33.4199375,28.6861573 33.4256596,28.6825801 C34.2239996,28.1742469 34.9898384,27.1489355 34.9465034,25.082588" id="Fill-22" fill="url(#linearGradient-5)" transform="translate(29.000000, 17.000000) scale(-1, 1) translate(-29.000000, -17.000000) "></path>
                            <path d="M33.499963,55 C19.4167345,55 8,63.9543469 8,75 L59,75 C59,63.9543469 47.5831914,55 33.499963,55" id="Fill-6" fill="#FEFEFE" transform="translate(33.500000, 65.000000) scale(-1, 1) rotate(-180.000000) translate(-33.500000, -65.000000) "></path>
                            <circle id="Oval" fill="#EAEAEA" transform="translate(36.500000, 53.500000) scale(-1, 1) translate(-36.500000, -53.500000) " cx="36.5" cy="53.5" r="15.5"></circle>
                            <path d="M26,53.5 C26,47.1486494 31.1486494,42 37.5,42 C43.8513506,42 49,47.1486494 49,53.5 C49,59.8513506 43.8513506,65 37.5,65 C31.1486494,65 26,59.8513506 26,53.5" id="Fill-14" fill="url(#linearGradient-6)" transform="translate(37.500000, 53.500000) scale(-1, 1) translate(-37.500000, -53.500000) "></path>
                            <path d="M40.4727899,64 C40.4727899,64 37.5399298,51.8044558 50,43.1117728 C50,43.1117728 38.6120327,37.9285294 34.5385001,49.9453562 C34.5385001,49.9453562 31.3540793,59.1752879 40.4727899,64" id="Fill-19" fill="url(#linearGradient-7)" opacity="0.263416109" transform="translate(42.000000, 53.000000) scale(-1, 1) translate(-42.000000, -53.000000) "></path>
                            <path d="M68,52 C58.6666667,52.6060606 54,53.7575758 54,55.4545455 C54,57.1515152 58.6666667,58 68,58 L68,52 Z" id="Path-4" fill="#FFFFFF" transform="translate(61.000000, 55.000000) scale(-1, 1) translate(-61.000000, -55.000000) "></path>
                            <path d="M14,52 C4.66666667,52.6060606 4.21106619e-16,53.7575758 0,55.4545455 C0,57.1515152 4.66666667,58 14,58 L14,52 Z" id="Path-4" fill="#FFFFFF"></path>
                        </g>
                        <polygon id="Triangle" fill="#FFFFFF" transform="translate(76.500000, 47.500000) rotate(-90.000000) translate(-76.500000, -47.500000) " points="76.5 39 83 56 70 56"></polygon>
                    </g>
                </g>
            </g>
        </g>
    </g>
</svg>