<?xml version="1.0" encoding="UTF-8"?>
<svg width="570px" height="411px" viewBox="0 0 570 411" version="1.1" xmlns="http://www.w3.org/2000/svg" xmlns:xlink="http://www.w3.org/1999/xlink">
    <!-- Generator: sketchtool 53 (72520) - https://sketchapp.com -->
    <title>3FBAEF14-8538-426B-997C-2F446E7A61D8</title>
    <desc>Created with sketchtool.</desc>
    <defs>
        <polygon id="path-1" points="0 0 49 0 49 50 0 50"></polygon>
        <polygon id="path-3" points="2.9689197 5.85023394 31.6544296 6.06001791 31.8412922 31.2504057 3.15578237 31.0406217"></polygon>
        <polygon id="path-5" points="0 0 38 0 38 50 0 50"></polygon>
        <polygon id="path-7" points="4.18741484 7.49488603 41.4741672 7.59478316 41.5631494 40.6356735 4.27639706 40.5357764"></polygon>
        <linearGradient x1="37.7573109%" y1="69.4039021%" x2="52.8759461%" y2="-57.7660044%" id="linearGradient-9">
            <stop stop-color="#0CD2C2" offset="0%"></stop>
            <stop stop-color="#3455B5" offset="100%"></stop>
        </linearGradient>
        <linearGradient x1="45.4117679%" y1="69.4039021%" x2="51.0778276%" y2="-57.7660044%" id="linearGradient-10">
            <stop stop-color="#0CD2C2" offset="0%"></stop>
            <stop stop-color="#3455B5" offset="100%"></stop>
        </linearGradient>
        <linearGradient x1="128.501045%" y1="-25.3003888%" x2="29.3159089%" y2="135.034199%" id="linearGradient-11">
            <stop stop-color="#FFFFFF" offset="0%"></stop>
            <stop stop-color="#00BFD6" offset="58.129223%"></stop>
            <stop stop-color="#2A3B93" offset="100%"></stop>
        </linearGradient>
    </defs>
    <g id="HD_Desktop" stroke="none" stroke-width="1" fill="none" fill-rule="evenodd">
        <g id="VW_Associative_memory_v1" transform="translate(-1067.000000, -81.000000)">
            <g id="Associative_memory_img" transform="translate(1067.000000, 81.000000)">
                <path d="M570,17.2200689 L570,287 L0,287 L0,17.2200689 C0,7.71114684 11.9646189,0 26.7240102,0 L543.281333,0 C558.035381,0 570,7.71114684 570,17.2200689 Z" id="Fill-153" fill="#00BFD6"></path>
                <path d="M282.987198,88.2576267 C283.007901,88.3135336 283.029315,88.3687956 283.052644,88.4255509 C286.702755,97.2716432 296.69765,101.381404 305.332688,97.5859429 C313.752775,93.8863711 317.817658,84.0141254 314.631251,75.3220046 C314.550194,75.1002738 314.464538,74.8792257 314.372644,74.6572463 C313.453824,72.4314031 310.948028,71.4013978 308.775172,72.3565254 C306.656496,73.2875701 305.63723,75.7624652 306.438808,77.9483932 C306.459351,78.0047032 306.480997,78.0605299 306.503427,78.1166798 C308.331013,82.5177892 306.301133,87.6374047 302.006961,89.5250676 C297.710512,91.412729 292.737857,89.3683086 290.921585,84.9662382 C290.002649,82.7401126 287.496186,81.7100666 285.324389,82.6653965 C283.205322,83.5962796 282.185547,86.0707308 282.987198,88.2576267" id="Fill-9" fill="#3E2F3C" transform="translate(299.214331, 85.500000) rotate(-53.000000) translate(-299.214331, -85.500000) "></path>
                <g id="Group-3" transform="translate(262.000000, 46.000000)">
                    <mask id="mask-2" fill="white">
                        <use xlink:href="#path-1"></use>
                    </mask>
                    <g id="Clip-2"></g>
                    <path d="M36.9365215,31.1085656 C36.9365215,33.8462518 39.0219482,36.0645284 41.5968605,36.0645284 C43.2768713,36.0645284 44.750096,35.1190022 45.5694604,33.6997582 C46.5392717,33.0150185 47.9082251,32.6727759 48.9623569,34.8566883 L49,34.8566883 L49,50 L12.0620983,50 L12.0620983,34.8529973 L12.044406,34.8248695 L12.044406,34.8923253 C10.9866354,32.6676849 9.60889862,33.0112002 8.6328135,33.6997582 C7.8133236,35.1190022 6.34147909,36.0658012 4.66008809,36.0658012 C2.08668152,36.0658012 0,33.8462518 0,31.1085656 C0,28.3707522 2.08668152,26.1512027 4.66008809,26.1512027 C6.34022432,26.1512027 7.8133236,27.0980018 8.6328135,28.5172458 C9.57000077,29.1778032 10.8750864,29.5189003 11.91391,27.5817742 L11.9830478,27.4480081 C12.0029986,27.4074074 12.0243297,27.3678249 12.044406,27.3246786 L12.044406,27.3297696 L12.0620983,27.2954054 L12.0620983,12.2170039 L26.9574659,12.2170039 C28.2235282,11.5971745 28.6463855,10.8691613 28.6463855,10.1743668 C28.6463855,9.66641212 28.420527,9.17525773 28.1331848,8.75652285 C26.7339914,7.92541683 25.800443,6.43108057 25.800443,4.72699504 C25.800443,2.11518391 27.9887609,0 30.6877698,0 C33.3867788,0 35.5750967,2.11518391 35.5750967,4.72699504 C35.5750967,6.43108057 34.6415482,7.92541683 33.2426058,8.75652285 C32.5636501,9.74672267 32.2248624,11.1442026 34.4183248,12.2170039 L49,12.2170039 L49,27.3615884 C48.9873268,27.3615884 48.9747791,27.3603156 48.9623569,27.3603156 C47.9082251,29.5456281 46.5405265,29.2019855 45.5694604,28.5172458 C44.750096,27.0980018 43.2768713,26.1512027 41.5968605,26.1512027 C39.0219482,26.1512027 36.9365215,28.3707522 36.9365215,31.1085656" id="Fill-1" fill="#415EBF" mask="url(#mask-2)"></path>
                </g>
                <g id="Group-16" transform="translate(278.000000, 43.000000)">
                    <path d="M54.4505641,37.5319561 L76.9312544,111.397413 L66.863249,121.415756 L44.1202839,45.382975 L54.4505641,37.5319561 Z" id="Combined-Shape" fill="#D0D0D0" transform="translate(60.525769, 79.473856) rotate(16.000000) translate(-60.525769, -79.473856) "></path>
                    <path d="M56,31.9638206 L56,42.5106997 L31.0476633,43.0116351 L33.3160285,32.5998197 L56,31.9638206 Z" id="Combined-Shape" fill="#D0D0D0"></path>
                    <path d="M62.4800762,30 C67.3640382,31.4867864 70.0959858,36.6304949 68.5827243,41.4894549 C67.0695301,46.3481833 61.8837963,49.0814924 57,47.5950038 L62.4800762,30 Z" id="Fill-2" fill="#A3A3A3"></path>
                    <path d="M57.5198793,48 C52.6360122,46.5127711 49.9040423,41.3691353 51.4172489,36.5104757 C52.9305899,31.6513526 58.1160656,28.9182478 63,30.4052449 L57.5198793,48 Z" id="Fill-4" fill="#BFBFBF"></path>
                    <g id="Group-8" transform="translate(25.214331, 25.500000) rotate(30.000000) translate(-25.214331, -25.500000) translate(7.714331, 7.000000)">
                        <mask id="mask-4" fill="white">
                            <use xlink:href="#path-3"></use>
                        </mask>
                        <g id="Clip-7" transform="translate(17.405106, 18.550320) rotate(67.000000) translate(-17.405106, -18.550320) "></g>
                        <path d="M31.3019923,13.5405923 C29.1406469,10.2947436 25.8424297,8.0569707 22.0145651,7.23715265 C18.1867098,6.41860484 14.2875794,7.11713486 11.0340449,9.20461752 C4.32178116,13.5142444 2.48646181,22.4715248 6.94565803,29.1692259 C8.06806387,30.8553288 10.3477864,31.3434881 12.0381401,30.2589312 C13.7272233,29.1763974 14.1877344,26.9297861 13.0650715,25.2436813 C10.8452216,21.909255 11.7577829,17.4538216 15.0990813,15.3095691 C16.717272,14.2707187 18.6573354,13.9229084 20.5626384,14.330595 C22.4669129,14.7382741 24.107242,15.8520157 25.1823198,17.4658809 C26.3044667,19.1517279 28.5844482,19.6401431 30.2747981,18.5550782 C30.8743296,18.1705367 31.3190331,17.6400635 31.593272,17.0392464 C32.0914078,15.9482569 32.0255632,14.6275607 31.3019923,13.5405923 Z" id="Fill-6" fill="#5B4559" mask="url(#mask-4)" transform="translate(18.212448, 18.869810) rotate(67.000000) translate(-18.212448, -18.869810) "></path>
                    </g>
                    <path d="M38.7143309,36.2671844 C38.0521151,41.1235173 33.5040829,44.5524679 28.5555091,43.9262051 C23.6078773,43.3003137 20.1332981,38.8561943 20.7951827,34 L38.7143309,36.2671844 Z" id="Fill-11" fill="#A3A3A3"></path>
                    <path d="M20.7143309,34.7327737 C21.376821,29.8769996 25.9246787,26.4476613 30.8727435,27.07375 C35.8212794,27.7000245 39.2958318,32.1442259 38.6333417,37 L20.7143309,34.7327737 Z" id="Fill-13" fill="#BFBFBF"></path>
                </g>
                <g id="Group-16" transform="translate(298.000000, 70.000000)">
                    <path d="M34.4505641,10.5319561 L56.9312544,84.3974134 L46.863249,94.4157562 L24.1202839,18.382975 L34.4505641,10.5319561 Z" id="Combined-Shape" fill="#D0D0D0" transform="translate(40.525769, 52.473856) rotate(16.000000) translate(-40.525769, -52.473856) "></path>
                    <path d="M36,4.96382056 L36,15.5106997 L11.0476633,16.0116351 L13.3160285,5.59981975 L36,4.96382056 Z" id="Combined-Shape" fill="#D0D0D0"></path>
                    <path d="M42.4800762,3 C47.3640382,4.48678639 50.0959858,9.63049489 48.5827243,14.4894549 C47.0695301,19.3481833 41.8837963,22.0814924 37,20.5950038 L42.4800762,3 Z" id="Fill-2" fill="#A3A3A3"></path>
                    <path d="M37.5198793,21 C32.6360122,19.5127711 29.9040423,14.3691353 31.4172489,9.51047569 C32.9305899,4.65135256 38.1160656,1.91824777 43,3.4052449 L37.5198793,21 Z" id="Fill-4" fill="#BFBFBF"></path>
                    <path d="M18.7143309,9.26718445 C18.0521151,14.1235173 13.5040829,17.5524679 8.55550909,16.9262051 C3.60787725,16.3003137 0.133298122,11.8561943 0.795182654,7 L18.7143309,9.26718445 Z" id="Fill-11" fill="#A3A3A3"></path>
                    <path d="M0.714330902,7.73277366 C1.37682101,2.87699961 5.92467867,-0.552338657 10.8727435,0.0737500487 C15.8212794,0.700024452 19.2958318,5.14422594 18.6333417,10 L0.714330902,7.73277366 Z" id="Fill-13" fill="#BFBFBF"></path>
                </g>
                <path d="M231.558536,88.2576267 C231.579239,88.3135336 231.600653,88.3687956 231.623982,88.4255509 C235.274093,97.2716432 245.268988,101.381404 253.904026,97.5859429 C262.324114,93.8863711 266.388997,84.0141254 263.202589,75.3220046 C263.121532,75.1002738 263.035876,74.8792257 262.943983,74.6572463 C262.025162,72.4314031 259.519366,71.4013978 257.34651,72.3565254 C255.227835,73.2875701 254.208568,75.7624652 255.010146,77.9483932 C255.03069,78.0047032 255.052336,78.0605299 255.074765,78.1166798 C256.902351,82.5177892 254.872471,87.6374047 250.578299,89.5250676 C246.28185,91.412729 241.309195,89.3683086 239.492924,84.9662382 C238.573987,82.7401126 236.067524,81.7100666 233.895727,82.6653965 C231.77666,83.5962796 230.756885,86.0707308 231.558536,88.2576267" id="Fill-9" fill="#3E2F3C" transform="translate(247.785669, 85.500000) scale(-1, 1) rotate(-53.000000) translate(-247.785669, -85.500000) "></path>
                <g id="Group-3" transform="translate(236.000000, 46.000000)">
                    <mask id="mask-6" fill="white">
                        <use xlink:href="#path-5"></use>
                    </mask>
                    <g id="Clip-2"></g>
                    <path d="M30.4671504,36.0659222 C32.1818788,36.0659222 33.6839942,35.1185037 34.5199819,33.699285 C35.5154614,33.0113756 36.9210626,32.6677392 38,34.8915763 L38,50 L2.7649932,50 C1.23791719,50 0,48.7692723 0,47.2509081 L0,12.2169135 L15.1947263,12.2169135 C17.431579,11.1443859 17.0860989,9.74680354 16.3941146,8.75687591 C14.9666249,7.92540288 14.0144104,6.43172961 14.0144104,4.72691081 C14.0144104,2.11629168 16.2465271,0 19,0 C21.7534729,0 23.9855896,2.11629168 23.9855896,4.72691081 C23.9855896,6.43172961 23.0333751,7.92540288 21.6057574,8.75687591 C20.9139011,9.74680354 20.568293,11.1443859 22.8052737,12.2169135 L38,12.2169135 L38,27.3245736 C36.9210626,29.5493017 35.5154614,29.2056652 34.5199819,28.5176286 C33.6839942,27.0979008 32.1818788,26.1511186 30.4671504,26.1511186 C27.8414245,26.1511186 25.7131183,28.370883 25.7131183,31.1081386 C25.7131183,33.8461578 27.8414245,36.0659222 30.4671504,36.0659222" id="Fill-1" fill="#CDFFFB" mask="url(#mask-6)"></path>
                </g>
                <g id="Group" transform="translate(228.500000, 105.500000) scale(-1, 1) translate(-228.500000, -105.500000) translate(183.000000, 43.000000)">
                    <path d="M57.4505641,37.5319561 L79.9312544,111.397413 L69.863249,121.415756 L47.1202839,45.382975 L57.4505641,37.5319561 Z" id="Combined-Shape" fill="#D0D0D0" transform="translate(63.525769, 79.473856) rotate(16.000000) translate(-63.525769, -79.473856) "></path>
                    <path d="M59,31.9638206 L59,42.5106997 L34.0476633,43.0116351 L36.3160285,32.5998197 L59,31.9638206 Z" id="Combined-Shape" fill="#D0D0D0"></path>
                    <path d="M65.4800762,30 C70.3640382,31.4867864 73.0959858,36.6304949 71.5827243,41.4894549 C70.0695301,46.3481833 64.8837963,49.0814924 60,47.5950038 L65.4800762,30 Z" id="Fill-2" fill="#A3A3A3"></path>
                    <path d="M60.5198793,48 C55.6360122,46.5127711 52.9040423,41.3691353 54.4172489,36.5104757 C55.9305899,31.6513526 61.1160656,28.9182478 66,30.4052449 L60.5198793,48 Z" id="Fill-4" fill="#BFBFBF"></path>
                    <g id="Group-8" transform="translate(0.714331, 0.000000)">
                        <mask id="mask-8" fill="white">
                            <use xlink:href="#path-7"></use>
                        </mask>
                        <g id="Clip-7" transform="translate(22.875282, 24.065280) rotate(67.000000) translate(-22.875282, -24.065280) "></g>
                        <path d="M41.8684537,20.0225773 C39.5215378,16.5133728 35.9261814,14.1031701 31.7443249,13.2334153 C27.5624723,12.365038 23.2948761,13.1422919 19.72615,15.4226037 C12.363609,20.1303044 10.3104988,29.8537481 15.152551,37.0948785 C16.3713227,38.9177872 18.861869,39.435679 20.7159786,38.2509375 C22.5686884,37.0683963 23.0838421,34.6296196 21.8647893,32.8067102 C19.4543495,29.2017388 20.4752098,24.3652105 24.1402045,22.0228884 C25.9151633,20.8880801 28.0385629,20.5010788 30.1200657,20.9335896 C32.2004438,21.3660974 33.9885473,22.5656635 35.1559335,24.3104694 C36.3744232,26.1331018 38.8652514,26.6512699 40.7193595,25.4659773 C41.376971,25.0459132 41.866016,24.4683683 42.1690063,23.8153967 C42.7193651,22.6297019 42.6541478,21.1977393 41.8684537,20.0225773 Z" id="Fill-6" fill="#5B4559" mask="url(#mask-8)" transform="translate(27.529172, 25.887077) rotate(87.000000) translate(-27.529172, -25.887077) "></path>
                    </g>
                    <path d="M41.7143309,36.2671844 C41.0521151,41.1235173 36.5040829,44.5524679 31.5555091,43.9262051 C26.6078773,43.3003137 23.1332981,38.8561943 23.7951827,34 L41.7143309,36.2671844 Z" id="Fill-11" fill="#A3A3A3"></path>
                    <path d="M23.7143309,34.7327737 C24.376821,29.8769996 28.9246787,26.4476613 33.8727435,27.07375 C38.8212794,27.7000245 42.2958318,32.1442259 41.6333417,37 L23.7143309,34.7327737 Z" id="Fill-13" fill="#BFBFBF"></path>
                </g>
                <polygon id="Fill-154" fill="#142F42" points="195 411 375 411 375 349 195 349"></polygon>
                <path d="M543.281333,349 L26.7240102,349 C11.9646189,349 0,337.101654 0,322.429331 L0,287 L570,287 L570,322.429331 C570,337.101654 558.035381,349 543.281333,349" id="Fill-155" fill="#235677"></path>
                <polygon id="Fill-156" fill="#235677" points="124 411 446 411 446 393 124 393"></polygon>
                <path d="M295,318.00264 C295,324.084713 290.520883,329 284.995199,329 C279.474316,329 275,324.084713 275,318.00264 C275,311.931126 279.474316,307 284.995199,307 C290.520883,307 295,311.931126 295,318.00264" id="Fill-157" fill="#FFFFFE"></path>
                <path d="M378.972321,287 L180,287 C181.570202,269.643905 187.986358,249.118109 199.248467,225.422612 L228.598495,220 L251.593197,226.778264 L279.309207,226.778264 L365.669082,222.033479 C374.961322,247.166137 379.395735,268.821644 378.972321,287 Z" id="Combined-Shape" fill="#FFFFFF"></path>
                <g id="Group-10" transform="translate(460.146812, 151.987234) rotate(-229.000000) translate(-460.146812, -151.987234) translate(374.646812, 68.487234)">
                    <path d="M101.181211,112.626154 C62.7975101,112.626154 31.681312,136.802891 31.681312,166.626154 L170.681312,166.626154 C170.681312,136.802891 139.564912,112.626154 101.181211,112.626154" id="Fill-6" fill="#FEFEFE"></path>
                    <path d="M56.6036484,138.96479 C56.6036484,138.96479 57.2893764,79.1564972 21.6101241,55.565367 C-14.0691281,31.9742368 5.78424396,21.443553 5.78424396,21.443553 C5.78424396,21.443553 18.9167083,8.96599157 52.8290509,35.0690784 C86.7413935,61.1721653 88.7604242,117.577415 91.1640813,133.624034 C93.5674805,149.670653 56.6036484,138.96479 56.6036484,138.96479" id="Fill-9" fill="#FFFFFF"></path>
                    <path d="M112.238987,127.775392 C112.238987,127.775392 129.353183,70.6778584 100.659491,38.2522339 C71.9658,5.8266093 94.4342743,1.20904938 94.4342743,1.20904938 C94.4342743,1.20904938 110.811461,-7.12414219 137.072758,27.220817 C163.333792,61.5655155 149.821959,116.148598 147.781315,132.180764 C145.740408,148.21293 112.238987,127.775392 112.238987,127.775392" id="Fill-10" fill="#FFFFFF"></path>
                    <path d="M72.29512,88.5719986 C72.29512,88.5719986 69.9487003,76.1247371 62.0599204,62.0518171 C59.740627,57.9142073 56.9403644,53.6372928 53.5811449,49.4936376 C43.3991545,37.6191021 32.1289846,33.2932996 28.8279299,32.2251224 C23.0607349,30.4457031 16.9513321,29.5065797 14.8886946,32.529227 C13.6051539,34.4101021 14.7115915,37.0716087 16.8853423,39.8745227 C16.8856031,39.8747855 29.4750472,50.8125632 33.1235264,52.700535 C33.1235264,52.700535 48.5706155,66.4753957 58.9902213,98.425303 C58.9902213,98.425303 61.44958,104.568636 66.0824287,104.568636 C68.7835761,104.568636 70.7974386,102.243564 70.8128275,102.225953 C72.938064,99.7376576 74.4526993,95.5293441 72.29512,88.5719986" id="Fill-21" fill="url(#linearGradient-9)"></path>
                    <path d="M142.93602,84.3542514 C142.93602,84.3542514 144.124158,71.837225 140.441919,56.2264157 C139.359092,51.6364741 137.853456,46.7799576 135.774604,41.894749 C129.283635,27.7396688 119.662007,20.4761522 116.78889,18.5381363 C111.745167,15.2351625 106.141,12.6374909 103.325753,14.9435472 C101.574044,16.3784093 101.900404,19.223354 103.212361,22.500505 C103.212622,22.5007658 112.272765,36.4338741 115.252756,39.2501268 C115.252756,39.2501268 126.272103,56.6831405 127.442776,90.0373591 C127.442776,90.0373591 128.105402,96.5778367 132.552189,97.8689778 C135.144563,98.6217522 137.720253,96.966744 137.739803,96.9542239 C140.467465,95.1750575 143.084081,91.5864676 142.93602,84.3542514" id="Fill-22" fill="url(#linearGradient-10)"></path>
                </g>
                <path d="M196.078729,150 L196.076348,150 L195.804009,150 L195.804009,150.00973 C187.050758,150.430227 180,170.85775 180,196 C180,221.141827 187.050758,241.56935 195.804009,241.989847 L195.804009,242 L368.921271,242 C377.801315,242 385,221.404955 385,196 C385,170.594622 377.801315,150 368.921271,150 L196.078729,150 Z" id="Fill-8" fill="#FFFFFF"></path>
                <circle id="Oval" fill="#D8D8D8" cx="255.5" cy="198.5" r="44.5"></circle>
                <circle id="Oval" fill="#FDFDFD" cx="256" cy="199" r="40"></circle>
                <path d="M268.026481,190.796748 C262.286342,190.796748 257.638941,186.147989 257.638941,180.419688 C257.638941,177.782465 258.653225,175.406724 260.263378,173.578225 C257.532469,172.577126 254.584881,172 251.500934,172 C237.422371,172 226,183.417381 226,197.496265 C226,211.580751 237.422371,223 251.500934,223 C265.585101,223 277,211.580751 277,197.496265 C277,194.115689 276.327546,190.90134 275.130205,187.944737 C273.277222,189.700396 270.781672,190.796748 268.026481,190.796748" id="Fill-46" fill="url(#linearGradient-11)"></path>
            </g>
        </g>
    </g>
</svg>