<?xml version="1.0" encoding="UTF-8"?>
<svg width="570px" height="287px" viewBox="0 0 570 287" version="1.1" xmlns="http://www.w3.org/2000/svg" xmlns:xlink="http://www.w3.org/1999/xlink">
    <!-- Generator: sketchtool 53 (72520) - https://sketchapp.com -->
    <title>09A9A908-AB4A-49CC-A838-D9901FE19EB9</title>
    <desc>Created with sketchtool.</desc>
    <defs>
        <polygon id="path-1" points="0 0.524867025 61.6557705 0.524867025 61.6557705 55.1059082 0 55.1059082"></polygon>
        <linearGradient x1="37.4569778%" y1="69.4039021%" x2="52.9464977%" y2="-57.7660044%" id="linearGradient-3">
            <stop stop-color="#0CD2C2" offset="0%"></stop>
            <stop stop-color="#3455B5" offset="100%"></stop>
        </linearGradient>
        <linearGradient x1="45.3322297%" y1="69.4039021%" x2="51.096512%" y2="-57.7660044%" id="linearGradient-4">
            <stop stop-color="#0CD2C2" offset="0%"></stop>
            <stop stop-color="#3455B5" offset="100%"></stop>
        </linearGradient>
        <linearGradient x1="128.501045%" y1="-25.3003888%" x2="29.3159089%" y2="135.034199%" id="linearGradient-5">
            <stop stop-color="#FFFFFF" offset="0%"></stop>
            <stop stop-color="#00BFD6" offset="58.129223%"></stop>
            <stop stop-color="#2A3B93" offset="100%"></stop>
        </linearGradient>
    </defs>
    <g id="HD_Desktop" stroke="none" stroke-width="1" fill="none" fill-rule="evenodd">
        <g id="VW_Contextual_bandits" transform="translate(-1067.000000, -81.000000)">
            <g id="CB_Image" transform="translate(1067.000000, 81.000000)">
                <g id="Active_Learning_img" fill="#00BFD6">
                    <g id="Input_Icon">
                        <g id="Group-43">
                            <g id="Input_Icon">
                                <g id="Contextual_Bandit_PC">
                                    <g>
                                        <rect id="Rectangle" x="0" y="0" width="570" height="287" rx="20"></rect>
                                    </g>
                                </g>
                            </g>
                        </g>
                    </g>
                </g>
                <g id="Contextual_Bandit_PC" transform="translate(94.000000, 41.000000)">
                    <g id="Group-7" transform="translate(0.000000, 46.000000)">
                        <g id="Group-4">
                            <path d="M61.8303272,27.5674547 C60.4780416,15.7774475 70.0860389,2.97159552 70.0860389,2.97159552 C64.3813421,5.69412521 53.2262244,10.5349039 46.3475655,4.23895187 C38.8794487,-2.59105363 26.2548143,0.250699017 20.5517687,2.97159552 C20.5517687,2.97159552 33.5330498,17.3600098 31.5599347,27.5674547 C14.3286132,35.5700914 0,64.5216715 0,81.4284665 C0,102.233689 23.5089646,109 46.0008256,109 C68.4910354,109 92,102.233689 92,81.4284665 C92,64.6653923 78.8585581,35.7497425 61.8303272,27.5674547" id="Fill-166" fill="#FFFFFF"></path>
                            <path d="M46.7229764,31.8133971 C40.416469,31.8133971 34.1311627,30.6778294 30.729204,28.3999345 C29.7833094,27.7662471 29.510957,26.4583164 30.1208959,25.4799031 C30.7308348,24.4981101 31.9947457,24.2175978 32.9406402,24.8495954 C38.8214951,28.7852164 55.4252064,28.2208122 60.6520892,24.8360767 C61.6028764,24.215908 62.8618946,24.5133186 63.4620484,25.5035607 C64.0589405,26.4904232 63.7702796,27.7949743 62.8145999,28.4168328 C59.3213134,30.6828989 53.0099135,31.8133971 46.7229764,31.8133971" id="Fill-167" fill="#2A3B93"></path>
                            <path d="M70.5681818,65.9745217 C70.5681818,79.0784761 60.152989,89.7033493 47.3076392,89.7033493 C34.4606474,89.7033493 24.0454545,79.0784761 24.0454545,65.9745217 C24.0454545,52.8672172 34.4606474,42.2440191 47.3076392,42.2440191 C60.152989,42.2440191 70.5681818,52.8672172 70.5681818,65.9745217" id="Fill-168" fill="#0CD2C2"></path>
                        </g>
                        <path d="M56,72.9238117 C56,67.7310677 52.4624758,64.3785534 46.9875381,64.3785534 C43.7806702,64.3785534 42.153974,62.9308381 42.153974,60.0795867 C42.153974,57.7092078 44.3223484,55.7823192 46.9875381,55.7823192 C49.0096926,55.7823192 50.8357796,56.9190815 51.5319856,58.6080827 C51.97563,59.6921699 53.1968984,60.2053272 54.2503462,59.744845 C55.3087787,59.2894604 55.805594,58.0439495 55.360288,56.9649598 C54.2636389,54.2972216 51.8991969,52.4162113 49.0645251,51.7858094 L49.0645251,50.1239954 C49.0645251,48.9515499 48.1340349,48 46.9875381,48 C45.8410413,48 44.9105511,48.9515499 44.9105511,50.1239954 L44.9105511,51.7892078 C40.9576295,52.6846843 38,56.049093 38,60.0795867 C38,64.2120321 40.3611188,68.6265442 46.9875381,68.6265442 C50.2110219,68.6265442 51.846026,70.0708611 51.846026,72.9238117 C51.846026,75.2941906 49.6776516,77.2210792 47.0124619,77.2210792 C44.9903074,77.2210792 43.1642204,76.0843169 42.469676,74.3885189 C42.02437,73.3112285 40.8130712,72.8014696 39.7479922,73.255155 C38.6912213,73.7122388 38.194406,74.9577497 38.639712,76.0367394 C39.7330379,78.6976808 42.089172,80.5752928 44.9105511,81.2141906 L44.9105511,82.8760046 C44.9105511,84.0501493 45.8410413,85 46.9875381,85 C48.1340349,85 49.0645251,84.0501493 49.0645251,82.8760046 L49.0645251,81.2226866 C53.0307394,80.3340069 56,76.9611022 56,72.9238117" id="Fill-169" fill="#FFFFFF"></path>
                    </g>
                    <g id="Group-16" transform="translate(11.000000, 0.000000)">
                        <polygon id="Fill-1" fill="#D0D0D0" points="51 28.1278448 165.875566 52.8898526 199.293976 165 213 151.314228 178.879518 38.8142961 54.4849157 12"></polygon>
                        <g id="Group-15">
                            <path d="M168.264866,26.9015644 C180.440459,27.1384533 190.117176,37.2044978 189.880398,49.3857867 C189.64362,61.5664978 179.581705,71.24832 167.40669,71.0120089 L168.264866,26.9015644 Z" id="Fill-2" fill="#A3A3A3"></path>
                            <path d="M167.406748,71.0118356 C155.231155,70.7737911 145.554438,60.7077467 145.791216,48.5270356 C146.027994,36.3451689 156.089331,26.6639244 168.264924,26.9013911 L167.406748,71.0118356 Z" id="Fill-4" fill="#BFBFBF"></path>
                            <g id="Group-8">
                                <mask id="mask-2" fill="white">
                                    <use xlink:href="#path-1"></use>
                                </mask>
                                <g id="Clip-7"></g>
                                <path d="M60.3687275,14.7108126 C55.7746995,7.71176855 48.7209075,2.91509771 40.5060361,1.19932733 C32.2911647,-0.513690762 23.8988985,1.06171341 16.8721854,5.63655062 C2.37554859,15.0812693 -1.71226867,34.5195109 7.76591896,48.9618167 C10.1516304,52.5975766 15.0440795,53.6192223 18.694765,51.2423547 C22.3426874,48.8698906 23.368372,43.9945046 20.982108,40.3587448 C16.2637378,33.1686927 18.2963175,23.4999385 25.5125833,18.8006983 C29.0074266,16.5240136 33.1831124,15.7396143 37.2720349,16.5928206 C41.3587469,17.4460269 44.8668534,19.8333532 47.1519858,23.3133341 C49.5371446,26.9485434 54.4301464,27.9707396 58.0808319,25.5927711 C59.3756482,24.7500234 60.3399906,23.593516 60.9390435,22.2872847 C62.0271754,19.9153711 61.9067017,17.0546529 60.3687275,14.7108126 Z" id="Fill-6" fill="#5B4559" mask="url(#mask-2)"></path>
                            </g>
                            <path d="M49.7830604,64.9945816 C49.8789426,64.9980297 49.9743332,65 50.0731657,65 C65.486611,64.9788189 78.0152289,52.4011761 77.9999861,36.9621122 C77.9872018,21.9082491 66.0496121,9.60743857 51.1632735,9.02224864 C50.783678,9.00697853 50.4021157,8.99909718 50.0151447,9.00008235 C46.1365835,9.00599336 42.9960701,12.1595169 43.0000037,16.0445278 C43.0034456,19.8324996 45.9959562,22.9165688 49.7397904,23.0633588 C49.8361644,23.0672995 49.9325384,23.0692698 50.0298958,23.070255 C57.7058869,23.0421777 63.9470858,29.3029218 63.9549531,36.9808304 C63.9613452,44.6621871 57.7285053,50.9199757 50.0584146,50.9303199 C46.1793618,50.9362309 43.0383566,54.0907396 43.0432736,57.9742728 C43.0462239,61.7627372 46.037751,64.8472989 49.7830604,64.9945816" id="Fill-9" fill="#3E2F3C"></path>
                            <path d="M62.4103799,7.83801778 C69.3214134,11.9084622 71.6256687,20.8125956 67.5571277,27.7268622 C63.4897416,34.6399733 54.589772,36.9453067 47.6787386,32.87544 L62.4103799,7.83801778 Z" id="Fill-11" fill="#A3A3A3"></path>
                            <path d="M47.6785653,32.8756711 C40.7686869,28.8052267 38.4638541,19.9010933 42.5318176,12.9874044 C46.6003587,6.07313778 55.5003283,3.76780444 62.4102067,7.83824889 L47.6785653,32.8756711 Z" id="Fill-13" fill="#BFBFBF"></path>
                        </g>
                    </g>
                    <path d="M287.980527,246 L148,246 C149.104665,233.824829 153.618543,219.426136 161.541635,202.803922 L182.189896,199 L198.367073,203.754902 L217.865773,203.754902 L278.621465,200.426471 C285.158719,218.056842 288.278407,233.248019 287.980527,246 Z" id="Combined-Shape" fill="#FFFFFF"></path>
                    <g id="Group-10" transform="translate(324.123538, 93.864892) rotate(-277.000000) translate(-324.123538, -93.864892) translate(257.623538, 29.364892)">
                        <path d="M78.9999216,87 C49.1766143,87 25,105.804128 25,129 L133,129 C133,105.804128 108.823229,87 78.9999216,87" id="Fill-6" fill="#FEFEFE"></path>
                        <path d="M43.9476319,107.29182 C43.9476319,107.29182 44.4826504,60.9886262 16.6449921,42.7245254 C-11.1926663,24.4604246 4.29732731,16.3076372 4.29732731,16.3076372 C4.29732731,16.3076372 14.5435358,6.64758958 41.0026163,26.856431 C67.4616968,47.0652725 69.0369844,90.733853 70.9123652,103.157042 C72.7875449,115.580231 43.9476319,107.29182 43.9476319,107.29182" id="Fill-9" fill="#FFFFFF"></path>
                        <path d="M87.313777,98.8244808 C87.313777,98.8244808 100.596436,54.5532049 78.3267058,29.4115974 C56.0569752,4.26998999 73.4951941,0.689708021 73.4951941,0.689708021 C73.4951941,0.689708021 86.2058465,-5.77153472 106.587749,20.8582525 C126.969446,47.4878376 116.482651,89.809503 114.898868,102.24024 C113.31488,114.670978 87.313777,98.8244808 87.313777,98.8244808" id="Fill-10" fill="#FFFFFF"></path>
                        <path d="M56.1832274,68.6782654 C56.1832274,68.6782654 54.3538154,59.09051 48.2032413,48.2505581 C46.3949786,45.0634802 44.211723,41.7691002 41.5926705,38.5773658 C33.6541695,29.4307641 24.8672574,26.0987271 22.2935538,25.2759419 C17.7970967,23.9053081 13.0338334,23.1819293 11.4256753,25.5101846 C10.4249488,26.9589668 11.287595,29.0090462 12.9823837,31.1680475 C12.9825871,31.16825 22.7980859,39.5932949 25.6426629,41.0475435 C25.6426629,41.0475435 37.6861561,51.6579091 45.8099165,76.2679729 C45.8099165,76.2679729 47.7273827,81 51.3394342,81 C53.4454135,81 55.0155436,79.2090655 55.0275417,79.1955009 C56.6845058,77.2788406 57.8654079,74.0373018 56.1832274,68.6782654" id="Fill-21" fill="url(#linearGradient-3)"></path>
                        <path d="M110.857342,65.3903425 C110.857342,65.3903425 111.78467,55.7045482 108.910727,43.6247553 C108.065594,40.0730148 106.890463,36.3149961 105.267945,32.5347752 C100.201823,21.5814393 92.692259,15.9608609 90.4498269,14.4612058 C86.5132619,11.9053332 82.1392783,9.89523015 79.9420122,11.6796785 C78.5748244,12.7899885 78.8295446,14.9914338 79.8535112,17.5273244 C79.8537147,17.5275262 86.9250459,28.3090981 89.2508927,30.4883413 C89.2508927,30.4883413 97.8513583,43.9781734 98.7650548,69.7879853 C98.7650548,69.7879853 99.2822261,74.8490692 102.752889,75.8481665 C104.776205,76.4306705 106.7865,75.1500094 106.801759,75.1403212 C108.930666,73.7635853 110.972902,70.9867003 110.857342,65.3903425" id="Fill-22" fill="url(#linearGradient-4)"></path>
                    </g>
                    <path d="M159.294327,150 L159.292654,150 L159.101352,150 L159.101352,150.006874 C152.952728,150.303965 148,164.736454 148,182.5 C148,200.263247 152.952728,214.695737 159.101352,214.992827 L159.101352,215 L280.705673,215 C286.943363,215 292,200.449153 292,182.5 C292,164.550548 286.943363,150 280.705673,150 L159.294327,150 Z" id="Fill-8" fill="#FFFFFF"></path>
                    <circle id="Oval" fill="#D8D8D8" cx="201" cy="184" r="31"></circle>
                    <circle id="Oval" fill="#FDFDFD" cx="201" cy="184" r="28"></circle>
                    <path d="M210.4898,175.636856 C206.325385,175.636856 202.953741,172.264228 202.953741,168.108401 C202.953741,166.195122 203.689595,164.471545 204.857745,163.144986 C202.876497,162.418699 200.738051,162 198.500678,162 C188.286818,162 180,170.283198 180,180.49729 C180,190.715447 188.286818,199 198.500678,199 C208.718602,199 217,190.715447 217,180.49729 C217,178.044715 216.512142,175.712737 215.643482,173.567751 C214.299161,174.841463 212.488664,175.636856 210.4898,175.636856" id="Fill-46" fill="url(#linearGradient-5)"></path>
                </g>
            </g>
        </g>
    </g>
</svg>