<?xml version="1.0" encoding="UTF-8"?>
<svg width="570px" height="411px" viewBox="0 0 570 411" version="1.1" xmlns="http://www.w3.org/2000/svg" xmlns:xlink="http://www.w3.org/1999/xlink">
    <!-- Generator: sketchtool 53 (72520) - https://sketchapp.com -->
    <title>96C1CE43-8593-4DDF-A84C-78D1F2C3E813</title>
    <desc>Created with sketchtool.</desc>
    <defs>
        <linearGradient x1="36.8917675%" y1="69.4039021%" x2="53.079272%" y2="-57.7660044%" id="linearGradient-1">
            <stop stop-color="#0CD2C2" offset="0%"></stop>
            <stop stop-color="#3455B5" offset="100%"></stop>
        </linearGradient>
        <linearGradient x1="45.5947969%" y1="69.4039021%" x2="51.034832%" y2="-57.7660044%" id="linearGradient-2">
            <stop stop-color="#0CD2C2" offset="0%"></stop>
            <stop stop-color="#3455B5" offset="100%"></stop>
        </linearGradient>
        <linearGradient x1="128.501045%" y1="-25.3003888%" x2="29.3159089%" y2="135.034199%" id="linearGradient-3">
            <stop stop-color="#FFFFFF" offset="0%"></stop>
            <stop stop-color="#00BFD6" offset="58.129223%"></stop>
            <stop stop-color="#2A3B93" offset="100%"></stop>
        </linearGradient>
    </defs>
    <g id="HD_Desktop" stroke="none" stroke-width="1" fill="none" fill-rule="evenodd">
        <g id="VW_Input" transform="translate(-1067.000000, -81.000000)">
            <g id="Why_VW_Contextual_Bandits_Module">
                <g id="Input_Icon" transform="translate(1067.000000, 81.000000)">
                    <g id="Group-43">
                        <g id="Input_Icon">
                            <g id="Contextual_Bandit_PC">
                                <g>
                                    <path d="M543.281333,0 C558.035381,0 570,7.71114684 570,17.2200689 L570,287 L0,287 L0,17.2200689 C0,7.71114684 11.9646189,0 26.7240102,0 L543.281333,0" id="Fill-153" fill="#00BFD6"></path>
                                    <polygon id="Fill-154" fill="#142F42" points="195 411 375 411 375 349 195 349"></polygon>
                                    <path d="M543.281333,349 L26.7240102,349 C11.9646189,349 0,337.101654 0,322.429331 L0,287 L570,287 L570,322.429331 C570,337.101654 558.035381,349 543.281333,349" id="Fill-155" fill="#235677"></path>
                                    <polygon id="Fill-156" fill="#235677" points="124 411 446 411 446 393 124 393"></polygon>
                                    <path d="M295,318.00264 C295,324.084713 290.520883,329 284.995199,329 C279.474316,329 275,324.084713 275,318.00264 C275,311.931126 279.474316,307 284.995199,307 C290.520883,307 295,311.931126 295,318.00264" id="Fill-157" fill="#FFFFFE"></path>
                                </g>
                            </g>
                            <g id="Group-41" transform="translate(198.000000, 24.000000)">
                                <rect id="Rectangle" fill="#FFFFFF" x="0" y="0" width="123" height="93" rx="7"></rect>
                                <g id="Group-9" transform="translate(10.000000, 14.000000)">
                                    <g id="Group-8">
                                        <path d="M99.7427438,9.13938026 L4.33411875,9.13938026 C2.09270208,9.13938026 0.259160417,7.68370274 0.259160417,5.90468465 L0.259160417,3.32999938 C0.259160417,1.55098129 2.09270208,0.0953037726 4.33411875,0.0953037726 L99.7427438,0.0953037726 C101.98389,0.0953037726 103.817702,1.55098129 103.817702,3.32999938 L103.817702,5.90468465 C103.817702,7.68370274 101.98389,9.13938026 99.7427438,9.13938026" id="Fill-2" fill="#0CD2C2"></path>
                                        <path d="M99.7427437,44.7650067 L4.33411875,44.7650067 C2.09270208,44.7650067 0.259160417,43.3093292 0.259160417,41.5303111 L0.259160417,38.9556258 C0.259160417,37.1766078 2.09270208,35.7209302 4.33411875,35.7209302 L99.7427437,35.7209302 C101.98389,35.7209302 103.817702,37.1766078 103.817702,38.9556258 L103.817702,41.5303111 C103.817702,43.3093292 101.98389,44.7650067 99.7427437,44.7650067" id="Fill-2" fill="#00BFD6"></path>
                                        <path d="M46.6447116,19.1470933 L2.96128426,19.1470933 C1.47509747,19.1470933 0.258997917,18.2228639 0.258997917,17.0931068 C0.258997917,15.9633497 1.47509747,15.0391202 2.96128426,15.0391202 L46.6447116,15.0391202 C48.1308984,15.0391202 49.3469979,15.9633497 49.3469979,17.0931068 C49.3469979,18.2228639 48.1308984,19.1470933 46.6447116,19.1470933" id="Fill-4" fill="#00BFD6"></path>
                                        <path d="M100.724979,19.1470933 L57.041017,19.1470933 C55.5548217,19.1470933 54.3389979,18.2228639 54.3389979,17.0931068 C54.3389979,15.9633497 55.5548217,15.0391202 57.041017,15.0391202 L100.724979,15.0391202 C102.211174,15.0391202 103.426998,15.9633497 103.426998,17.0931068 C103.426998,18.2228639 102.211174,19.1470933 100.724979,19.1470933" id="Fill-6" fill="#00BFD6"></path>
                                        <path d="M46.6447116,29.4102987 L2.96128426,29.4102987 C1.47509747,29.4102987 0.258997917,28.4860693 0.258997917,27.3563121 C0.258997917,26.226555 1.47509747,25.3023256 2.96128426,25.3023256 L46.6447116,25.3023256 C48.1308984,25.3023256 49.3469979,26.226555 49.3469979,27.3563121 C49.3469979,28.4860693 48.1308984,29.4102987 46.6447116,29.4102987" id="Fill-4" fill="#0CD2C2"></path>
                                        <path d="M100.724979,29.4102987 L57.041017,29.4102987 C55.5548217,29.4102987 54.3389979,28.4860693 54.3389979,27.3563121 C54.3389979,26.226555 55.5548217,25.3023256 57.041017,25.3023256 L100.724979,25.3023256 C102.211174,25.3023256 103.426998,26.226555 103.426998,27.3563121 C103.426998,28.4860693 102.211174,29.4102987 100.724979,29.4102987" id="Fill-6" fill="#0CD2C2"></path>
                                        <path d="M46.6447116,63.6428568 L2.96128426,63.6428568 C1.47509747,63.6428568 0.258997917,62.7186274 0.258997917,61.5888703 C0.258997917,60.4591132 1.47509747,59.5348837 2.96128426,59.5348837 L46.6447116,59.5348837 C48.1308984,59.5348837 49.3469979,60.4591132 49.3469979,61.5888703 C49.3469979,62.7186274 48.1308984,63.6428568 46.6447116,63.6428568" id="Fill-4" fill="#00BFD6"></path>
                                        <path d="M100.724979,63.6428568 L57.041017,63.6428568 C55.5548217,63.6428568 54.3389979,62.7186274 54.3389979,61.5888703 C54.3389979,60.4591132 55.5548217,59.5348837 57.041017,59.5348837 L100.724979,59.5348837 C102.211174,59.5348837 103.426998,60.4591132 103.426998,61.5888703 C103.426998,62.7186274 102.211174,63.6428568 100.724979,63.6428568" id="Fill-6" fill="#00BFD6"></path>
                                        <path d="M5.93781771,54.7126243 C2.8142885,54.7126243 0.258997917,53.7883948 0.258997917,52.6586377 C0.258997917,51.5288806 2.8142885,50.6046512 5.93781771,50.6046512 L97.7481781,50.6046512 C100.871707,50.6046512 103.426998,51.5288806 103.426998,52.6586377 C103.426998,53.7883948 100.871707,54.7126243 97.7481781,54.7126243 L5.93781771,54.7126243 Z" id="Fill-6" fill="#00BFD6"></path>
                                    </g>
                                </g>
                                <rect id="Rectangle" fill="#0CD2C2" x="10" y="65" width="104" height="4" rx="2"></rect>
                                <rect id="Rectangle" fill="#0CD2C2" x="11" y="40" width="49" height="4" rx="2"></rect>
                                <rect id="Rectangle" fill="#0CD2C2" x="64" y="40" width="50" height="4" rx="2"></rect>
                                <rect id="Rectangle" fill="#00BFD6" x="11" y="74" width="49" height="4" rx="2"></rect>
                                <rect id="Rectangle" fill="#00BFD6" x="64" y="74" width="50" height="4" rx="2"></rect>
                                <polygon id="Triangle" fill="#FFFFFF" transform="translate(64.500000, 98.500000) rotate(-180.000000) translate(-64.500000, -98.500000) " points="64.5 91 76 106 53 106"></polygon>
                            </g>
                        </g>
                        <g id="Group-22" transform="translate(230.000000, 132.000000)">
                            <path d="M54.9999303,62 C28.4903238,62 7,82.5949979 7,108 L103,108 C103,82.5949979 81.5095368,62 54.9999303,62" id="Fill-6" fill="#FEFEFE"></path>
                            <path d="M10.9217153,84 L10.9205421,84 L10.7863653,84 L10.7863653,84.0048649 C6.47378821,84.2151134 3,94.4288749 3,107 C3,119.570914 6.47378821,129.784675 10.7863653,129.994924 L10.7863653,130 L96.0782847,130 C100.453331,130 104,119.702478 104,107 C104,94.297311 100.453331,84 96.0782847,84 L10.9217153,84 Z" id="Fill-8" fill="#FFFFFF"></path>
                            <path d="M30.3300558,75.1099164 C30.3300558,75.1099164 30.6992939,42.7941454 11.4873889,30.047325 C-7.72451616,17.3005047 2.9657611,11.6105384 2.9657611,11.6105384 C2.9657611,11.6105384 10.0370881,4.86863023 28.2975802,18.9727175 C46.5580724,33.0768048 47.6452428,63.5538349 48.9395197,72.2241855 C50.2336577,80.8945362 30.3300558,75.1099164 30.3300558,75.1099164" id="Fill-9" fill="#FFFFFF"></path>
                            <path d="M59.6727345,68.3459026 C59.6727345,68.3459026 68.6129861,37.7283847 53.6237443,20.3407309 C38.6345025,2.95307719 50.3717652,0.476994332 50.3717652,0.476994332 C50.3717652,0.476994332 58.9270121,-3.99152868 72.6456002,14.4253335 C86.3640504,32.8420559 79.3056302,62.1112451 78.2396225,70.7082036 C77.1734767,79.3051622 59.6727345,68.3459026 59.6727345,68.3459026" id="Fill-10" fill="#FFFFFF"></path>
                            <path d="M39.4140544,47.3531687 C39.4140544,47.3531687 38.1016502,40.6249193 33.6892818,33.0179355 C32.3920499,30.7813896 30.8258013,28.469544 28.9469158,26.2297304 C23.2519042,19.8110625 16.9482499,17.4727909 15.1018973,16.8953978 C11.876178,15.9335495 8.45905439,15.4259153 7.30537579,17.0597787 C6.58746325,18.0764679 7.20631816,19.5151202 8.42214485,21.0302088 C8.42229074,21.0303509 15.4638442,26.9426631 17.504519,27.9631884 C17.504519,27.9631884 26.1444163,35.409059 31.9723314,52.6792792 C31.9723314,52.6792792 33.347905,56 35.9391593,56 C37.4499706,56 38.5763682,54.7432039 38.5849756,54.7336848 C39.7736672,53.3886601 40.6208361,51.113896 39.4140544,47.3531687" id="Fill-21" fill="url(#linearGradient-1)"></path>
                            <path d="M76.9019229,46.491627 C76.9019229,46.491627 77.5394607,39.6370649 75.5636251,31.0882884 C74.9825957,28.5747489 74.1746936,25.915228 73.0592123,23.2399947 C69.5762531,15.4884032 64.413428,11.5107631 62.871756,10.4494687 C60.1653676,8.64069734 57.1582538,7.21816287 55.6476334,8.48100324 C54.7076918,9.26676106 54.8828119,10.824707 55.586789,12.6193373 C55.5869288,12.6194801 60.448469,20.2495156 62.0474887,21.7917492 C62.0474887,21.7917492 67.9603088,31.3383996 68.5884752,49.603805 C68.5884752,49.603805 68.9440305,53.1854951 71.3301114,53.8925486 C72.721141,54.3047822 74.1032188,53.3984682 74.1137093,53.3916119 C75.5773326,52.4173065 76.9813704,50.4521263 76.9019229,46.491627" id="Fill-22" fill="url(#linearGradient-2)"></path>
                            <path d="M104,155 L3,155 C4.13680888,146.872803 7.30880106,137.441104 12.5159766,126.704902 L27.4559274,124 L39.1608475,127.381127 L53.2690398,127.381127 L97.2285322,125.014338 C101.544528,136.453689 103.801684,146.44891 104,155 Z" id="Combined-Shape" fill="#FFFFFF"></path>
                            <ellipse id="Oval" fill="#D8D8D8" cx="51.5" cy="104" rx="25.5" ry="26"></ellipse>
                            <circle id="Oval" fill="#FDFDFD" cx="51" cy="104" r="23"></circle>
                        </g>
                        <rect id="Rectangle" fill="#FFFFFF" x="355.857143" y="124" width="139" height="100" rx="9"></rect>
                        <polyline id="Fill-27" fill="#0CD2C2" points="391.89577 153 373 174 391.89577 195 397 190.075613 382.536851 174 397 157.926194 391.89577 153"></polyline>
                        <polyline id="Fill-28" fill="#0CD2C2" points="454 157.926194 468.463149 174 454 190.075613 459.10423 195 478 174 459.10423 153 454 157.926194"></polyline>
                        <polyline id="Fill-29" fill="#00BFD6" points="436.05525 150 409 194.289497 414.801545 197.909974 414.94475 198 414.998889 197.909974 442 153.710503 436.05525 150"></polyline>
                        <polygon id="Triangle" fill="#FFFFFF" transform="translate(343.000000, 204.500000) rotate(-90.000000) translate(-343.000000, -204.500000) " points="343 190.5 354.5 218.5 331.5 218.5"></polygon>
                        <rect id="Rectangle" fill="#FFFFFF" transform="translate(157.500000, 238.000000) scale(-1, 1) translate(-157.500000, -238.000000) " x="102" y="211" width="111" height="54" rx="9"></rect>
                        <rect id="Rectangle" fill="#FFFFFF" transform="translate(143.500000, 119.500000) scale(-1, 1) translate(-143.500000, -119.500000) " x="102" y="50" width="83" height="139" rx="9"></rect>
                        <g id="Group-10" transform="translate(115.000000, 65.000000)">
                            <path d="M21.237,30.234 L35.252,30.234 L35.252,0 L21.237,0 L21.237,30.234 Z M25.238,26.234 L31.252,26.234 L31.252,4 L25.238,4 L25.238,26.234 Z" id="Fill-1" fill="#00BFD6"></path>
                            <path d="M42.475,70.161 L56.49,70.161 L56.49,39.927 L42.475,39.927 L42.475,70.161 Z M46.475,66.161 L52.489,66.161 L52.489,43.927 L46.475,43.927 L46.475,66.161 Z" id="Fill-2" fill="#00BFD6"></path>
                            <path d="M42.475,110.089 L56.49,110.089 L56.49,79.855 L42.475,79.855 L42.475,110.089 Z M46.475,106.089 L52.489,106.089 L52.489,83.855 L46.475,83.855 L46.475,106.089 Z" id="Fill-3" fill="#0CD2C2"></path>
                            <polygon id="Fill-4" fill="#0CD2C2" points="42.4746 0.0001 42.4746 2.0001 42.4746 4.0001 42.9836 4.0001 47.4816 4.0001 47.4816 21.6341 47.4816 26.4781 42.4746 26.4781 42.4746 30.4791 56.4896 30.4791 56.4896 26.4781 51.4816 26.4781 51.4816 0.0001"></polygon>
                            <polygon id="Fill-5" fill="#00BFD6" points="21.2373 79.2334 21.2373 83.2334 21.7463 83.2334 26.2453 83.2334 26.2453 100.8694 26.2453 105.7114 21.2373 105.7114 21.2373 109.7114 35.2523 109.7114 35.2523 105.7114 30.2453 105.7114 30.2453 79.2334"></polygon>
                            <polygon id="Fill-6" fill="#0CD2C2" points="26.2452 61.3204 26.2452 66.1614 21.2372 66.1614 21.2372 70.1614 35.2522 70.1614 35.2522 66.1614 30.2452 66.1614 30.2452 39.6834 21.2372 39.6834 21.2372 43.6834 21.7472 43.6834 26.2452 43.6834"></polygon>
                            <path d="M0,70.161 L14.016,70.161 L14.016,39.927 L0,39.927 L0,70.161 Z M4.001,66.161 L10.017,66.161 L10.017,43.927 L4.001,43.927 L4.001,66.161 Z" id="Fill-7" fill="#00BFD6"></path>
                            <path d="M0,110.089 L14.016,110.089 L14.016,79.855 L0,79.855 L0,110.089 Z M4.001,106.089 L10.017,106.089 L10.017,83.855 L4.001,83.855 L4.001,106.089 Z" id="Fill-8" fill="#0CD2C2"></path>
                            <polygon id="Fill-9" fill="#0CD2C2" points="0 0.0001 0 4.0001 0.511 4.0001 5.008 4.0001 5.008 21.6351 5.008 26.4781 0 26.4781 0 30.4791 14.016 30.4791 14.016 26.4781 9.008 26.4781 9.008 0.0001"></polygon>
                        </g>
                        <path d="M182.5,182 L230.333333,161.5 L230.333333,182 L182.5,182 Z" id="Combined-Shape" fill="#FFFFFF" transform="translate(206.416667, 171.750000) scale(-1, 1) translate(-206.416667, -171.750000) "></path>
                        <polygon id="Triangle" fill="#FFFFFF" transform="translate(219.384457, 240.500000) rotate(-270.000000) translate(-219.384457, -240.500000) " points="219.384457 233 230.884457 248 207.884457 248"></polygon>
                        <g id="Group-7" transform="translate(111.000000, 221.000000)">
                            <polygon id="Fill-1" fill="#00BFD6" points="0 4.001 4 4.001 4 -1.26121336e-13 0 -1.26121336e-13"></polygon>
                            <polygon id="Fill-2" fill="#0CD2C2" points="0 14.001 4 14.001 4 10 0 10"></polygon>
                            <polygon id="Fill-3" fill="#00BFD6" points="0 24.001 4 24.001 4 20.001 0 20.001"></polygon>
                            <polygon id="Fill-4" fill="#0CD2C2" points="15.001 4.001 93.001 4.001 93.001 -2.27373675e-13 15.001 -2.27373675e-13"></polygon>
                            <polygon id="Fill-1" fill="#0CD2C2" points="0 34.002 4 34.002 4 30.001 0 30.001"></polygon>
                            <polygon id="Fill-4" fill="#00BFD6" points="19 34.002 81 34.002 81 30.001 19 30.001"></polygon>
                            <polygon id="Fill-5" fill="#00BFD6" points="11 14.001 73 14.001 73 10 11 10"></polygon>
                            <polygon id="Fill-6" fill="#0CD2C2" points="11 24.001 51 24.001 51 20.001 11 20.001"></polygon>
                        </g>
                    </g>
                    <path d="M279.500188,220 C288.047483,220 295,226.953559 295,235.5 C295,244.046441 288.047108,251 279.500188,251 C270.953643,251 264,244.046441 264,235.5 C264,226.953559 270.953643,220 279.500188,220 Z" id="Combined-Shape" fill="url(#linearGradient-3)" fill-rule="nonzero"></path>
                    <g id="noun_Gear_2618970" transform="translate(269.000000, 226.000000)" fill="#FFFFFF">
                        <path d="M11.7283951,1.99382716 C12.2561728,2.16975309 12.7839506,2.34567901 13.2530864,2.63888889 L15.2469136,1.75925926 L17.2407407,3.8117284 L16.3611111,5.74691358 C16.654321,6.21604938 16.8888889,6.74382716 17.0061728,7.33024691 L19,8.09259259 L19,10.9074074 L17.0061728,11.7283951 C16.8888889,12.2561728 16.654321,12.7839506 16.3611111,13.2530864 L17.2407407,15.2469136 L15.2469136,17.2407407 L13.2530864,16.3611111 C12.7839506,16.654321 12.2561728,16.8888889 11.7283951,17.0061728 L10.9074074,19 L8.09259259,19 L7.33024691,17.0061728 C6.74382716,16.8888889 6.21604938,16.654321 5.74691358,16.3611111 L3.8117284,17.2407407 L1.75925926,15.2469136 L2.63888889,13.2530864 C2.34567901,12.7839506 2.16975309,12.2561728 1.99382716,11.7283951 L0,10.9074074 L0,8.09259259 L1.99382716,7.33024691 C2.16975309,6.74382716 2.34567901,6.21604938 2.63888889,5.74691358 L1.75925926,3.8117284 L3.8117284,1.75925926 L5.74691358,2.63888889 C6.21604938,2.34567901 6.74382716,2.16975309 7.33024691,1.99382716 L8.09259259,0 L10.9074074,0 L11.7283951,1.99382716 Z M9.5,5.39506173 C11.787037,5.39506173 13.6049383,7.27160494 13.6049383,9.5 C13.6049383,11.787037 11.787037,13.6049383 9.5,13.6049383 C7.27160494,13.6049383 5.39506173,11.787037 5.39506173,9.5 C5.39506173,7.27160494 7.27160494,5.39506173 9.5,5.39506173 Z" id="Shape"></path>
                    </g>
                </g>
            </g>
        </g>
    </g>
</svg>