<?xml version="1.0" encoding="UTF-8"?>
<svg width="570px" height="287px" viewBox="0 0 570 287" version="1.1" xmlns="http://www.w3.org/2000/svg" xmlns:xlink="http://www.w3.org/1999/xlink">
    <!-- Generator: sketchtool 53 (72520) - https://sketchapp.com -->
    <title>6EB42BF5-318C-45A4-90FE-3200EE039669</title>
    <desc>Created with sketchtool.</desc>
    <defs>
        <linearGradient x1="36.9559645%" y1="69.4039021%" x2="53.0641914%" y2="-57.7660044%" id="linearGradient-1">
            <stop stop-color="#0CD2C2" offset="0%"></stop>
            <stop stop-color="#3455B5" offset="100%"></stop>
        </linearGradient>
        <linearGradient x1="45.6163712%" y1="69.4039021%" x2="51.029764%" y2="-57.7660044%" id="linearGradient-2">
            <stop stop-color="#0CD2C2" offset="0%"></stop>
            <stop stop-color="#3455B5" offset="100%"></stop>
        </linearGradient>
        <linearGradient x1="128.501045%" y1="-25.3003888%" x2="29.3159089%" y2="135.034199%" id="linearGradient-3">
            <stop stop-color="#FFFFFF" offset="0%"></stop>
            <stop stop-color="#00BFD6" offset="58.129223%"></stop>
            <stop stop-color="#2A3B93" offset="100%"></stop>
        </linearGradient>
        <polygon id="path-4" points="0 0 151 0 151 108 0 108"></polygon>
        <polygon id="path-6" points="0 0 20 0 20 34 0 34"></polygon>
        <polygon id="path-8" points="0 0 20 0 20 34 0 34"></polygon>
        <polygon id="path-10" points="0 0 20 0 20 34 0 34"></polygon>
        <polygon id="path-12" points="0 0 128 0 128 91 0 91"></polygon>
        <polygon id="path-14" points="0 0 20 0 20 34 0 34"></polygon>
        <polygon id="path-16" points="0 0 20 0 20 34 0 34"></polygon>
        <polygon id="path-18" points="0 0 20 0 20 34 0 34"></polygon>
    </defs>
    <g id="HD_Desktop" stroke="none" stroke-width="1" fill="none" fill-rule="evenodd">
        <g id="VW_Online" transform="translate(-1067.000000, -81.000000)">
            <g id="Online_img" transform="translate(1067.000000, 81.000000)">
                <g id="Input_Icon" fill="#00BFD6">
                    <g id="Contextual_Bandit_PC">
                        <g>
                            <rect id="Rectangle" x="0" y="0" width="570" height="287" rx="20"></rect>
                        </g>
                    </g>
                </g>
                <g transform="translate(28.000000, 13.000000)" id="frankenrabbit">
                    <g transform="translate(0.746075, 0.000000)">
                        <polyline id="Path-12" stroke="#415EBF" stroke-width="23" stroke-linejoin="round" points="70.2539253 77 70.2539253 199.636364 207.830848 199.636364"></polyline>
                        <rect id="Rectangle" fill="#2A3B93" transform="translate(176.253925, 197.000000) rotate(-270.000000) translate(-176.253925, -197.000000) " x="151.253925" y="189" width="50" height="16" rx="3"></rect>
                        <polyline id="Path-19" stroke="#415EBF" stroke-width="23" stroke-linejoin="round" points="338.638541 197 419.253925 197 419.253925 93.4419355"></polyline>
                        <circle id="Oval" fill="#FFFFFF" cx="419.253925" cy="167" r="3"></circle>
                        <circle id="Oval" fill="#FFFFFF" cx="419.253925" cy="197" r="3"></circle>
                        <circle id="Oval" fill="#FFFFFF" cx="384.253925" cy="197" r="3"></circle>
                        <circle id="Oval" fill="#FFFFFF" cx="418.753925" cy="182.5" r="4.5"></circle>
                        <circle id="Oval" fill="#FFFFFF" cx="402.753925" cy="197.5" r="4.5"></circle>
                        <circle id="Oval" fill="#FFFFFF" cx="363.753925" cy="197.5" r="4.5"></circle>
                        <rect id="Rectangle" fill="#2A3B93" transform="translate(341.253925, 197.000000) rotate(-270.000000) translate(-341.253925, -197.000000) " x="316.253925" y="189" width="50" height="16" rx="3"></rect>
                        <g id="Group" transform="translate(172.253925, 23.000000)">
                            <g id="Group-22">
                                <path d="M88.8460413,100.4 C46.0228308,100.4 11.3076923,133.750609 11.3076923,174.890323 L166.384615,174.890323 C166.384615,133.750609 131.669252,100.4 88.8460413,100.4" id="Fill-6" fill="#FEFEFE"></path>
                                <path d="M17.6427708,136.025806 L17.6408758,136.025806 L17.4241285,136.025806 L17.4241285,136.033684 C10.4576579,136.374151 4.84615385,152.913855 4.84615385,173.270968 C4.84615385,193.627737 10.4576579,210.167442 17.4241285,210.507909 L17.4241285,210.516129 L155.203383,210.516129 C162.270765,210.516129 168,193.840786 168,173.270968 C168,152.700807 162.270765,136.025806 155.203383,136.025806 L17.6427708,136.025806 Z" id="Fill-8" fill="#FFFFFF"></path>
                                <path d="M48.9947055,121.629607 C48.9947055,121.629607 49.5911671,69.2989064 18.5565513,48.6572812 C-12.4780646,28.015656 4.79084486,18.8015816 4.79084486,18.8015816 C4.79084486,18.8015816 16.2137577,7.88403992 45.7114758,30.7235619 C75.2091939,53.5630838 76.9653922,102.91621 79.0561471,116.956584 C81.1466779,130.996959 48.9947055,121.629607 48.9947055,121.629607" id="Fill-9" fill="#FFFFFF"></path>
                                <path d="M96.3944173,110.676268 C96.3944173,110.676268 110.836362,61.0956423 86.6229716,32.9388611 C62.409581,4.78207983 81.3697746,0.77242308 81.3697746,0.77242308 C81.3697746,0.77242308 95.1897887,-6.46370129 117.350585,23.3597336 C139.511158,53.1829421 128.109095,100.580145 126.387082,114.501672 C124.664847,128.423198 96.3944173,110.676268 96.3944173,110.676268" id="Fill-10" fill="#FFFFFF"></path>
                                <path d="M63.6688571,76.6815829 C63.6688571,76.6815829 61.5488195,65.7861596 54.4211475,53.4677536 C52.325619,49.8459922 49.7955252,46.1022938 46.7604024,42.4752408 C37.5607684,32.08114 27.3779421,28.2946485 24.3953725,27.3596442 C19.1845953,25.8020705 13.6646263,24.9800305 11.8009917,27.6258351 C10.6412868,29.2722158 11.6409755,31.6019042 13.6050032,34.0553703 C13.6052389,34.0556004 24.9800561,43.6297319 28.2765307,45.2823244 C28.2765307,45.2823244 42.2332879,57.3398311 51.6476123,85.3064457 C51.6476123,85.3064457 53.8696926,90.683871 58.055565,90.683871 C60.4961063,90.683871 62.3156717,88.6486721 62.3295759,88.6332574 C64.2497701,86.455185 65.6182737,82.7715348 63.6688571,76.6815829" id="Fill-21" fill="url(#linearGradient-1)"></path>
                                <path d="M123.008792,75.2864411 C123.008792,75.2864411 124.038661,64.1864728 120.846926,50.3429702 C119.90834,46.272658 118.603268,41.9659498 116.801336,37.6337979 C111.175018,25.0812206 102.835069,18.6400099 100.344676,16.9213977 C95.9728179,13.992355 91.1151726,11.688767 88.6749396,13.7337536 C87.1565724,15.0061744 87.4394587,17.5290416 88.5766524,20.4351849 C88.5768784,20.4354162 96.4301356,32.7911511 99.0131674,35.2885746 C99.0131674,35.2885746 108.564646,50.747989 109.579376,80.3261616 C109.579376,80.3261616 110.153735,86.1261888 114.008173,87.2711593 C116.255221,87.9387118 118.487808,86.4710678 118.504754,86.4599651 C120.869069,84.8822189 123.13713,81.6998949 123.008792,75.2864411" id="Fill-22" fill="url(#linearGradient-2)"></path>
                                <path d="M168,251 L4.84615385,251 C6.68253741,237.839185 11.8065248,222.565917 20.218116,205.180196 L44.3518828,200.8 L63.2598306,206.275245 L86.0499873,206.275245 L157.061475,202.442574 C164.033469,220.966942 167.679644,237.152751 168,251 Z" id="Combined-Shape" fill="#FFFFFF"></path>
                                <ellipse id="Oval" fill="#D8D8D8" cx="83.1923077" cy="168.412903" rx="41.1923077" ry="42.1032258"></ellipse>
                                <ellipse id="Oval" fill="#FDFDFD" cx="82.3846154" cy="168.412903" rx="37.1538462" ry="37.2451613"></ellipse>
                            </g>
                        </g>
                        <path d="M252.254228,165 C266.040189,165 277.253925,176.215417 277.253925,190 C277.253925,203.784583 266.039583,215 252.254228,215 C238.469479,215 227.253925,203.784583 227.253925,190 C227.253925,176.215417 238.469479,165 252.254228,165 Z" id="Combined-Shape" fill="url(#linearGradient-3)" fill-rule="nonzero"></path>
                        <g id="Group-31" transform="translate(239.253925, 172.000000)" fill="#FFFFFF" fill-rule="nonzero">
                            <g id="Group-34">
                                <g id="Group-40">
                                    <path d="M11.9997954,0 C18.6272016,0 24,4.94947015 24,11.0546962 C24,19.0477324 18.0003069,19.8981517 18.0003069,26.1628314 C18.0003069,26.899786 17.2003205,27.6363636 16.399925,27.6363636 L7.60007502,27.6363636 C6.80008866,27.6363636 6.0001023,26.899786 6.0001023,26.1628314 C6.0001023,19.8981517 0,19.0477324 0,11.0546962 C0,4.94947015 5.37279842,0 11.9997954,0 Z" id="Combined-Shape"></path>
                                    <path d="M16.2301853,34.5454545 L7.7698147,34.5454545 C7.26556163,34.5454545 6.85714286,34.0296816 6.85714286,33.3939394 C6.85714286,32.7581972 7.26593599,32.2424242 7.7698147,32.2424242 L16.2301853,32.2424242 C16.7344384,32.2424242 17.1428571,32.7586696 17.1428571,33.3939394 C17.1428571,34.0296816 16.734064,34.5454545 16.2301853,34.5454545 Z" id="Path"></path>
                                    <path d="M16.2301853,31.0909091 L7.7698147,31.0909091 C7.26556163,31.0909091 6.85714286,30.5751361 6.85714286,29.9393939 C6.85714286,29.3036518 7.26593599,28.7878788 7.7698147,28.7878788 L16.2301853,28.7878788 C16.7344384,28.7878788 17.1428571,29.3041241 17.1428571,29.9393939 C17.1428571,30.5751361 16.734064,31.0909091 16.2301853,31.0909091 Z" id="Path"></path>
                                    <path d="M15.8998163,35.9362674 C15.7705055,35.7880373 15.5361812,35.6969697 15.2829134,35.6969697 L8.71730347,35.6969697 C8.46403558,35.6969697 8.22929948,35.7877571 8.10040053,35.9359872 C7.97150158,36.0842173 7.96614795,36.2677536 8.08763418,36.4190659 C8.86967603,37.3939099 10.3686925,38 11.9999025,38 C13.6302888,38 15.1293053,37.3944703 15.9121708,36.4190659 C16.0336571,36.2677536 16.0287152,36.0842173 15.8998163,35.9362674 Z" id="Path"></path>
                                </g>
                            </g>
                        </g>
                        <rect id="Rectangle" fill="#2A3B93" x="45.2539253" y="127" width="50" height="16" rx="3"></rect>
                        <rect id="Rectangle" fill="#2A3B93" x="394.253925" y="142" width="50" height="16" rx="3"></rect>
                        <g id="Group-3" transform="translate(346.253925, 39.000000)">
                            <mask id="mask-5" fill="white">
                                <use xlink:href="#path-4"></use>
                            </mask>
                            <g id="Clip-2"></g>
                            <path d="M117.650521,22.7368421 C114.26629,22.7368421 110.879143,23.4055728 107.493453,24.4086687 C100.552935,9.3622291 85.6570684,0 68.8963017,0 C49.7690518,0 32.8406045,12.7058824 27.7620703,30.5944272 C12.1881904,32.0990712 0,45.3065015 0,60.8544892 C0,75.9009288 11.341039,88.7739938 26.2383642,90.9473684 C31.4860371,101.312693 42.1505214,108 54.0004345,108 C59.5863847,108 65.0046543,106.662539 69.7449112,103.820433 C75.3308613,106.495356 81.4242275,108 87.6881904,108 C102.076642,108 115.111983,100.307926 121.881904,88.2724458 C138.641213,86.0973994 151,72.3900929 151,55.6718266 C151,37.4489164 135.933536,22.7368421 117.650521,22.7368421" id="Fill-1" fill="#FFFFFF" mask="url(#mask-5)"></path>
                        </g>
                        <g id="Group-3" transform="translate(368.345808, 35.677753) rotate(-225.000000) translate(-368.345808, -35.677753) translate(358.345808, 18.677753)">
                            <mask id="mask-7" fill="white">
                                <use xlink:href="#path-6"></use>
                            </mask>
                            <g id="Clip-2"></g>
                            <path d="M6.1041117,32.8083301 L8.08324237,20.2860667 L1.41669694,20.2860667 C0.513935585,20.2860667 -0.14577464,19.4273972 0.0278333137,18.5329498 L3.36110603,1.18067055 C3.49999239,0.500890535 4.09025943,0 4.74996966,0 L15.51401,0 C16.5556577,0 17.2500896,1.10911476 16.7983617,2.07511793 L12.527606,11.6635939 L18.5691628,11.6635939 C19.6806009,11.6635939 20.3750327,12.9158202 19.7844185,13.9176013 L7.87491283,33.523888 C7.31936738,34.4541132 5.93050375,33.9174448 6.1041117,32.8083301" id="Fill-1" fill="#FFFFFF" mask="url(#mask-7)"></path>
                        </g>
                        <g id="Group-3" transform="translate(416.253925, 17.000000) rotate(-180.000000) translate(-416.253925, -17.000000) translate(406.253925, 0.000000)">
                            <mask id="mask-9" fill="white">
                                <use xlink:href="#path-8"></use>
                            </mask>
                            <g id="Clip-2"></g>
                            <path d="M6.1041117,32.8083301 L8.08324237,20.2860667 L1.41669694,20.2860667 C0.513935585,20.2860667 -0.14577464,19.4273972 0.0278333137,18.5329498 L3.36110603,1.18067055 C3.49999239,0.500890535 4.09025943,0 4.74996966,0 L15.51401,0 C16.5556577,0 17.2500896,1.10911476 16.7983617,2.07511793 L12.527606,11.6635939 L18.5691628,11.6635939 C19.6806009,11.6635939 20.3750327,12.9158202 19.7844185,13.9176013 L7.87491283,33.523888 C7.31936738,34.4541132 5.93050375,33.9174448 6.1041117,32.8083301" id="Fill-1" fill="#FFFFFF" mask="url(#mask-9)"></path>
                        </g>
                        <g id="Group-3" transform="translate(460.345808, 33.677753) scale(-1, 1) rotate(-225.000000) translate(-460.345808, -33.677753) translate(450.345808, 16.677753)">
                            <mask id="mask-11" fill="white">
                                <use xlink:href="#path-10"></use>
                            </mask>
                            <g id="Clip-2"></g>
                            <path d="M6.1041117,32.8083301 L8.08324237,20.2860667 L1.41669694,20.2860667 C0.513935585,20.2860667 -0.14577464,19.4273972 0.0278333137,18.5329498 L3.36110603,1.18067055 C3.49999239,0.500890535 4.09025943,0 4.74996966,0 L15.51401,0 C16.5556577,0 17.2500896,1.10911476 16.7983617,2.07511793 L12.527606,11.6635939 L18.5691628,11.6635939 C19.6806009,11.6635939 20.3750327,12.9158202 19.7844185,13.9176013 L7.87491283,33.523888 C7.31936738,34.4541132 5.93050375,33.9174448 6.1041117,32.8083301" id="Fill-1" fill="#FFFFFF" mask="url(#mask-11)"></path>
                        </g>
                        <g id="Group-2" transform="translate(388.253925, 88.000000)">
                            <g id="Group-3" fill="#0CD2C2">
                                <path d="M7.33544304,14 C3.28418972,14 0,10.8659932 0,7 C0,3.13400675 3.28418972,0 7.33544304,0 C11.3866964,0 14.6708861,3.13400675 14.6708861,7 C14.6708861,10.8659932 11.3866964,14 7.33544304,14 Z M53.664557,14 C49.6133036,14 46.3291139,10.8659932 46.3291139,7 C46.3291139,3.13400675 49.6133036,0 53.664557,0 C57.7158103,0 61,3.13400675 61,7 C61,10.8659932 57.7158103,14 53.664557,14 Z" id="Combined-Shape"></path>
                            </g>
                            <ellipse id="Oval" fill="#00BFD6" cx="31.5" cy="7" rx="7.5" ry="7"></ellipse>
                        </g>
                        <g id="Group-3" transform="translate(10.253925, 40.000000)">
                            <mask id="mask-13" fill="white">
                                <use xlink:href="#path-12"></use>
                            </mask>
                            <g id="Clip-2"></g>
                            <path d="M99.7302433,19.1578947 C96.8614909,19.1578947 93.9902665,19.7213622 91.1202781,20.5665635 C85.2369255,7.88854489 72.6099652,0 58.402163,0 C42.1883353,0 27.8383932,10.7058824 23.5334106,25.7786378 C10.3317111,27.0464396 0,38.1749226 0,51.2755418 C0,63.9535604 9.61359598,74.8003096 22.2417922,76.6315789 C26.6901506,85.3653251 35.7302433,91 45.7752028,91 C50.5103129,91 55.1032831,89.873065 59.1215141,87.4783282 C63.8566242,89.7321981 69.0218617,91 74.3317111,91 C86.5285438,91 97.57837,84.5187152 103.317111,74.377709 C117.523677,72.545031 128,60.995356 128,46.9086687 C128,31.5541796 115.228428,19.1578947 99.7302433,19.1578947" id="Fill-1" fill="#FFFFFF" mask="url(#mask-13)"></path>
                        </g>
                        <g id="Group-3" transform="translate(20.000000, 35.695127) rotate(-225.000000) translate(-20.000000, -35.695127) translate(10.000000, 18.695127)">
                            <mask id="mask-15" fill="white">
                                <use xlink:href="#path-14"></use>
                            </mask>
                            <g id="Clip-2"></g>
                            <path d="M6.1041117,32.8083301 L8.08324237,20.2860667 L1.41669694,20.2860667 C0.513935585,20.2860667 -0.14577464,19.4273972 0.0278333137,18.5329498 L3.36110603,1.18067055 C3.49999239,0.500890535 4.09025943,0 4.74996966,0 L15.51401,0 C16.5556577,0 17.2500896,1.10911476 16.7983617,2.07511793 L12.527606,11.6635939 L18.5691628,11.6635939 C19.6806009,11.6635939 20.3750327,12.9158202 19.7844185,13.9176013 L7.87491283,33.523888 C7.31936738,34.4541132 5.93050375,33.9174448 6.1041117,32.8083301" id="Fill-1" fill="#FFFFFF" mask="url(#mask-15)"></path>
                        </g>
                        <g id="Group-3" transform="translate(68.125313, 18.017374) rotate(-180.000000) translate(-68.125313, -18.017374) translate(58.125313, 1.017374)">
                            <mask id="mask-17" fill="white">
                                <use xlink:href="#path-16"></use>
                            </mask>
                            <g id="Clip-2"></g>
                            <path d="M6.1041117,32.8083301 L8.08324237,20.2860667 L1.41669694,20.2860667 C0.513935585,20.2860667 -0.14577464,19.4273972 0.0278333137,18.5329498 L3.36110603,1.18067055 C3.49999239,0.500890535 4.09025943,0 4.74996966,0 L15.51401,0 C16.5556577,0 17.2500896,1.10911476 16.7983617,2.07511793 L12.527606,11.6635939 L18.5691628,11.6635939 C19.6806009,11.6635939 20.3750327,12.9158202 19.7844185,13.9176013 L7.87491283,33.523888 C7.31936738,34.4541132 5.93050375,33.9174448 6.1041117,32.8083301" id="Fill-1" fill="#FFFFFF" mask="url(#mask-17)"></path>
                        </g>
                        <g id="Group-3" transform="translate(114.345808, 33.695127) scale(-1, 1) rotate(-225.000000) translate(-114.345808, -33.695127) translate(104.345808, 16.695127)">
                            <mask id="mask-19" fill="white">
                                <use xlink:href="#path-18"></use>
                            </mask>
                            <g id="Clip-2"></g>
                            <path d="M6.1041117,32.8083301 L8.08324237,20.2860667 L1.41669694,20.2860667 C0.513935585,20.2860667 -0.14577464,19.4273972 0.0278333137,18.5329498 L3.36110603,1.18067055 C3.49999239,0.500890535 4.09025943,0 4.74996966,0 L15.51401,0 C16.5556577,0 17.2500896,1.10911476 16.7983617,2.07511793 L12.527606,11.6635939 L18.5691628,11.6635939 C19.6806009,11.6635939 20.3750327,12.9158202 19.7844185,13.9176013 L7.87491283,33.523888 C7.31936738,34.4541132 5.93050375,33.9174448 6.1041117,32.8083301" id="Fill-1" fill="#FFFFFF" mask="url(#mask-19)"></path>
                        </g>
                        <g id="Group-2" transform="translate(39.253925, 82.000000)">
                            <g id="Group-3" fill="#0CD2C2">
                                <path d="M7.33544304,14 C3.28418972,14 0,10.8659932 0,7 C0,3.13400675 3.28418972,0 7.33544304,0 C11.3866964,0 14.6708861,3.13400675 14.6708861,7 C14.6708861,10.8659932 11.3866964,14 7.33544304,14 Z M53.664557,14 C49.6133036,14 46.3291139,10.8659932 46.3291139,7 C46.3291139,3.13400675 49.6133036,0 53.664557,0 C57.7158103,0 61,3.13400675 61,7 C61,10.8659932 57.7158103,14 53.664557,14 Z" id="Combined-Shape"></path>
                            </g>
                            <ellipse id="Oval" fill="#00BFD6" cx="31.5" cy="7" rx="7.5" ry="7"></ellipse>
                        </g>
                        <circle id="Oval" fill="#FFFFFF" cx="70.2539253" cy="157" r="3"></circle>
                        <circle id="Oval" fill="#FFFFFF" cx="70.2539253" cy="194" r="3"></circle>
                        <circle id="Oval" fill="#FFFFFF" cx="105.253925" cy="200" r="3"></circle>
                        <circle id="Oval" fill="#FFFFFF" cx="69.7539253" cy="176.5" r="4.5"></circle>
                        <circle id="Oval" fill="#FFFFFF" cx="86.7539253" cy="199.5" r="4.5"></circle>
                        <circle id="Oval" fill="#FFFFFF" cx="140.253925" cy="200" r="3"></circle>
                        <circle id="Oval" fill="#FFFFFF" cx="121.753925" cy="199.5" r="4.5"></circle>
                        <circle id="Oval" fill="#FFFFFF" cx="156.753925" cy="199.5" r="4.5"></circle>
                    </g>
                </g>
            </g>
        </g>
    </g>
</svg>