<?xml version="1.0" encoding="UTF-8"?>
<svg width="570px" height="287px" viewBox="0 0 570 287" version="1.1" xmlns="http://www.w3.org/2000/svg" xmlns:xlink="http://www.w3.org/1999/xlink">
    <!-- Generator: sketchtool 53 (72520) - https://sketchapp.com -->
    <title>9D4F3DD6-F748-4C15-B388-74B8F8357394</title>
    <desc>Created with sketchtool.</desc>
    <defs>
        <linearGradient x1="37.1696557%" y1="69.4039021%" x2="53.0139929%" y2="-57.7660044%" id="linearGradient-1">
            <stop stop-color="#0CD2C2" offset="0%"></stop>
            <stop stop-color="#3455B5" offset="100%"></stop>
        </linearGradient>
        <linearGradient x1="45.4273285%" y1="69.4039021%" x2="51.0741722%" y2="-57.7660044%" id="linearGradient-2">
            <stop stop-color="#0CD2C2" offset="0%"></stop>
            <stop stop-color="#3455B5" offset="100%"></stop>
        </linearGradient>
        <linearGradient x1="128.501045%" y1="-25.3003888%" x2="29.3159089%" y2="135.034199%" id="linearGradient-3">
            <stop stop-color="#FFFFFF" offset="0%"></stop>
            <stop stop-color="#00BFD6" offset="58.129223%"></stop>
            <stop stop-color="#2A3B93" offset="100%"></stop>
        </linearGradient>
        <polygon id="path-4" points="0 0 20 0 20 34 0 34"></polygon>
    </defs>
    <g id="HD_Desktop" stroke="none" stroke-width="1" fill="none" fill-rule="evenodd">
        <g id="VW_Speed" transform="translate(-1067.000000, -81.000000)">
            <g id="Speed_img" transform="translate(1067.000000, 81.000000)">
                <g id="Input_Icon" fill="#00BFD6">
                    <g id="Contextual_Bandit_PC">
                        <g>
                            <rect id="Rectangle" x="0" y="0" width="570" height="287" rx="20"></rect>
                        </g>
                    </g>
                </g>
                <g id="Speed_Computer_Icon">
                    <g id="Group-20">
                        <g id="Wabbit" transform="translate(185.000000, 0.000000)">
                            <path d="M101.499867,98 C50.9659298,98 10,138.294561 10,188 L193,188 C193,138.294561 152.033804,98 101.499867,98" id="Fill-6" fill="#FEFEFE"></path>
                            <path d="M18.9806695,142 L18.978451,142 L18.7247105,142 L18.7247105,142.009095 C10.5692431,142.402169 4,161.497462 4,185 C4,208.502143 10.5692431,227.597436 18.7247105,227.990509 L18.7247105,228 L180.019331,228 C188.292933,228 195,208.74811 195,185 C195,161.251494 188.292933,142 180.019331,142 L18.9806695,142 Z" id="Fill-8" fill="#FFFFFF"></path>
                            <path d="M138.026601,136.589737 C138.026601,136.589737 138.768054,75.2087339 101.968636,51.0177873 C65.1692179,26.8268407 85.6593201,16.0079734 85.6593201,16.0079734 C85.6593201,16.0079734 99.2160919,3.19488501 134.191039,29.964835 C169.165986,56.7347851 171.217155,114.621737 173.688072,131.088837 C176.158723,147.555938 138.026601,136.589737 138.026601,136.589737" id="Fill-9" fill="#FFFFFF" transform="translate(126.887226, 76.555122) scale(-1, 1) rotate(-22.000000) translate(-126.887226, -76.555122) "></path>
                            <path d="M192.829002,160.411446 C192.829002,160.411446 210.044411,101.812637 181.278156,68.5628922 C152.5119,35.3131476 175.059939,30.55856 175.059939,30.55856 C175.059939,30.55856 191.498885,21.9959817 217.823057,57.2169019 C244.146965,92.4375549 230.54802,148.45369 228.488317,164.905345 C226.428349,181.357 192.829002,160.411446 192.829002,160.411446" id="Fill-10" fill="#FFFFFF" transform="translate(200.241013, 100.426008) scale(-1, 1) rotate(-56.000000) translate(-200.241013, -100.426008) "></path>
                            <path d="M160.610733,84.7349232 C160.610733,84.7349232 158.176244,72.0873313 149.975761,57.7909326 C147.564828,53.5876173 144.653517,49.2430172 141.160529,45.0341576 C130.572693,32.9730845 118.848349,28.5836828 115.414154,27.5000993 C109.414304,25.6951701 103.057909,24.7443491 100.910007,27.8171601 C99.5734074,29.7292502 100.723176,32.4332437 102.98342,35.280321 C102.983692,35.280588 116.077045,46.3883383 119.872279,48.3047993 C119.872279,48.3047993 135.937459,62.2939557 146.761257,94.7555434 C146.761257,94.7555434 149.316804,100.997 154.13735,100.994332 C156.947933,100.992776 159.044692,98.6288702 159.060715,98.6109658 C161.273452,96.0811282 162.851817,91.8037553 160.610733,84.7349232" id="Fill-21" fill="url(#linearGradient-1)" transform="translate(131.019081, 63.408098) scale(-1, 1) rotate(-22.000000) translate(-131.019081, -63.408098) "></path>
                            <path d="M231.984181,120.069345 C231.984181,120.069345 233.208629,107.257852 229.45499,91.2836919 C228.351165,86.586917 226.815181,81.6176341 224.69305,76.619419 C218.066117,62.1372506 208.232576,54.7106414 205.296006,52.7293409 C200.140815,49.3527078 194.411985,46.6983418 191.531383,49.0606088 C189.739009,50.5304459 190.070592,53.4418686 191.409716,56.7948903 C191.409982,56.795157 200.664309,71.0482079 203.709505,73.9282624 C203.709505,73.9282624 214.964657,91.7618253 216.136568,125.897438 C216.136568,125.897438 216.809221,132.590813 221.355509,133.908879 C224.005888,134.677352 226.641028,132.981584 226.66103,132.968755 C229.451669,131.145802 232.13012,127.471071 231.984181,120.069345" id="Fill-22" fill="url(#linearGradient-2)" transform="translate(211.234988, 91.134095) scale(-1, 1) rotate(-56.000000) translate(-211.234988, -91.134095) "></path>
                            <path d="M193.8783,287 L0.173115211,287 C1.26996415,269.518835 7.57899631,248.616875 19.1002117,224.294118 L47.6580407,219 L70.0320839,225.617647 L97,225.617647 L181.028902,220.985294 C190.513913,246.726223 194.797045,268.731125 193.8783,287 Z" id="Combined-Shape" fill="#FFFFFF"></path>
                            <ellipse id="Oval" fill="#D8D8D8" cx="94.5" cy="181" rx="48.5" ry="49"></ellipse>
                            <ellipse id="Oval" fill="#FDFDFD" cx="93.5" cy="180" rx="44.5" ry="44"></ellipse>
                        </g>
                        <path d="M275.500345,151 C291.216341,151 304,163.785576 304,179.5 C304,195.214424 291.21565,208 275.500345,208 C259.785731,208 247,195.214424 247,179.5 C247,163.785576 259.785731,151 275.500345,151 Z" id="Combined-Shape" fill="url(#linearGradient-3)" fill-rule="nonzero"></path>
                        <g id="Group-3" transform="translate(264.000000, 163.000000)">
                            <mask id="mask-5" fill="white">
                                <use xlink:href="#path-4"></use>
                            </mask>
                            <g id="Clip-2"></g>
                            <path d="M6.1041117,32.8083301 L8.08324237,20.2860667 L1.41669694,20.2860667 C0.513935585,20.2860667 -0.14577464,19.4273972 0.0278333137,18.5329498 L3.36110603,1.18067055 C3.49999239,0.500890535 4.09025943,0 4.74996966,0 L15.51401,0 C16.5556577,0 17.2500896,1.10911476 16.7983617,2.07511793 L12.527606,11.6635939 L18.5691628,11.6635939 C19.6806009,11.6635939 20.3750327,12.9158202 19.7844185,13.9176013 L7.87491283,33.523888 C7.31936738,34.4541132 5.93050375,33.9174448 6.1041117,32.8083301" id="Fill-1" fill="#FFFFFF" mask="url(#mask-5)"></path>
                        </g>
                        <path d="M0,174 L155,174 C158.313708,174 161,176.686292 161,180 C161,183.313708 158.313708,186 155,186 L0,186 L0,174 Z" id="Combined-Shape" fill="#FFFFFF" opacity="0.877464658"></path>
                        <path d="M0,235 L93,235 C94.6568542,235 96,236.343146 96,238 C96,239.656854 94.6568542,241 93,241 L0,241 L0,235 Z" id="Combined-Shape" fill="#FFFFFF" opacity="0.863490513"></path>
                        <rect id="Rectangle" fill="#FFFFFF" opacity="0.863490513" x="61" y="267" width="118" height="6" rx="3"></rect>
                        <rect id="Rectangle" fill="#FFFFFF" opacity="0.775367374" x="72" y="67" width="57" height="4" rx="2"></rect>
                        <rect id="Rectangle" fill="#FFFFFF" opacity="0.896391369" x="21" y="113" width="181" height="9" rx="4.5"></rect>
                        <path d="M0,19 L109,19 C110.656854,19 112,20.3431458 112,22 C112,23.6568542 110.656854,25 109,25 L0,25 L0,19 Z" id="Combined-Shape" fill="#FFFFFF" opacity="0.947893415"></path>
                        <rect id="Rectangle" fill="#FFFFFF" opacity="0.953497024" x="274" y="13" width="48" height="6" rx="3"></rect>
                        <rect id="Rectangle" fill="#FFFFFF" opacity="0.815243676" x="407" y="27" width="23" height="3" rx="1.5"></rect>
                        <rect id="Rectangle" fill="#FFFFFF" opacity="0.861351376" x="488" y="74" width="48" height="3" rx="1.5"></rect>
                        <rect id="Rectangle" fill="#FFFFFF" opacity="0.865211124" x="158" y="31" width="72" height="6" rx="3"></rect>
                        <path d="M570,36 L570,39 L464.5,39 C463.671573,39 463,38.3284271 463,37.5 C463,36.6715729 463.671573,36 464.5,36 L570,36 Z" id="Combined-Shape" fill="#FFFFFF" opacity="0.786109561"></path>
                        <rect id="Rectangle" fill="#FFFFFF" opacity="0.554710751" x="383" y="153" width="51" height="2" rx="1"></rect>
                        <rect id="Rectangle" fill="#FFFFFF" opacity="0.531901042" x="455" y="177" width="97" height="6" rx="3"></rect>
                        <rect id="Rectangle" fill="#FFFFFF" opacity="0.870884487" x="425" y="208" width="106" height="5" rx="2.5"></rect>
                        <rect id="Rectangle" fill="#FFFFFF" opacity="0.913853237" x="382" y="238" width="39" height="4" rx="2"></rect>
                        <rect id="Rectangle" fill="#FFFFFF" opacity="0.885323661" x="543" y="232" width="18" height="6" rx="3"></rect>
                        <rect id="Rectangle" fill="#FFFFFF" opacity="0.90515718" x="443" y="252" width="88" height="4" rx="2"></rect>
                        <rect id="Rectangle" fill="#FFFFFF" opacity="0.615164621" x="387" y="272" width="57" height="4" rx="2"></rect>
                        <path d="M570,270 L570,276 L496,276 C494.343146,276 493,274.656854 493,273 C493,271.343146 494.343146,270 496,270 L570,270 Z" id="Combined-Shape" fill="#FFFFFF" opacity="0.886625744"></path>
                        <path d="M570,145 L570,151 L547,151 C545.343146,151 544,149.656854 544,148 C544,146.343146 545.343146,145 547,145 L570,145 Z" id="Combined-Shape" fill="#FFFFFF" opacity="0.885323661"></path>
                        <rect id="Rectangle" fill="#FFFFFF" opacity="0.348981585" x="184" y="55" width="75" height="9" rx="4"></rect>
                        <rect id="Rectangle" fill="#FFFFFF" opacity="0.851748512" x="463" y="118" width="99" height="5" rx="2.5"></rect>
                    </g>
                </g>
            </g>
        </g>
    </g>
</svg>