<?xml version="1.0" encoding="UTF-8"?>
<svg width="570px" height="287px" viewBox="0 0 570 287" version="1.1" xmlns="http://www.w3.org/2000/svg" xmlns:xlink="http://www.w3.org/1999/xlink">
    <!-- Generator: sketchtool 53 (72520) - https://sketchapp.com -->
    <title>9786B28E-5DC6-4D2A-AC30-672EEA29033D</title>
    <desc>Created with sketchtool.</desc>
    <defs>
        <linearGradient x1="36.9559645%" y1="69.4039021%" x2="53.0641914%" y2="-57.7660044%" id="linearGradient-1">
            <stop stop-color="#0CD2C2" offset="0%"></stop>
            <stop stop-color="#3455B5" offset="100%"></stop>
        </linearGradient>
        <linearGradient x1="45.6163712%" y1="69.4039021%" x2="51.029764%" y2="-57.7660044%" id="linearGradient-2">
            <stop stop-color="#0CD2C2" offset="0%"></stop>
            <stop stop-color="#3455B5" offset="100%"></stop>
        </linearGradient>
        <linearGradient x1="128.501045%" y1="-25.3003888%" x2="29.3159089%" y2="135.034199%" id="linearGradient-3">
            <stop stop-color="#FFFFFF" offset="0%"></stop>
            <stop stop-color="#00BFD6" offset="58.129223%"></stop>
            <stop stop-color="#2A3B93" offset="100%"></stop>
        </linearGradient>
    </defs>
    <g id="HD_Desktop" stroke="none" stroke-width="1" fill="none" fill-rule="evenodd">
        <g id="VW_Versatility" transform="translate(-1067.000000, -81.000000)">
            <g id="Versatility_img" transform="translate(1067.000000, 81.000000)">
                <g id="Speed_img" fill="#00BFD6">
                    <g id="Input_Icon">
                        <g id="Contextual_Bandit_PC">
                            <g>
                                <rect id="Rectangle" x="0" y="0" width="570" height="287" rx="20"></rect>
                            </g>
                        </g>
                    </g>
                </g>
                <g id="Group-2" transform="translate(200.000000, 36.000000)">
                    <g id="Online_img">
                        <g id="frankenrabbit" transform="translate(0.746075, 0.000000)">
                            <g id="Group" transform="translate(0.253925, 0.000000)">
                                <g id="Group-22">
                                    <path d="M88.8460413,100.4 C46.0228308,100.4 11.3076923,133.750609 11.3076923,174.890323 L166.384615,174.890323 C166.384615,133.750609 131.669252,100.4 88.8460413,100.4" id="Fill-6" fill="#FEFEFE"></path>
                                    <path d="M19.796617,136.025806 L19.7947219,136.025806 L19.5779746,136.025806 L19.5779746,136.033684 C12.611504,136.374151 7,152.913855 7,173.270968 C7,193.627737 12.611504,210.167442 19.5779746,210.507909 L19.5779746,210.516129 L157.357229,210.516129 C164.424612,210.516129 170.153846,193.840786 170.153846,173.270968 C170.153846,152.700807 164.424612,136.025806 157.357229,136.025806 L19.796617,136.025806 Z" id="Fill-8" fill="#FFFFFF"></path>
                                    <path d="M48.9947055,121.629607 C48.9947055,121.629607 49.5911671,69.2989064 18.5565513,48.6572812 C-12.4780646,28.015656 4.79084486,18.8015816 4.79084486,18.8015816 C4.79084486,18.8015816 16.2137577,7.88403992 45.7114758,30.7235619 C75.2091939,53.5630838 76.9653922,102.91621 79.0561471,116.956584 C81.1466779,130.996959 48.9947055,121.629607 48.9947055,121.629607" id="Fill-9" fill="#FFFFFF"></path>
                                    <path d="M96.3944173,110.676268 C96.3944173,110.676268 110.836362,61.0956423 86.6229716,32.9388611 C62.409581,4.78207983 81.3697746,0.77242308 81.3697746,0.77242308 C81.3697746,0.77242308 95.1897887,-6.46370129 117.350585,23.3597336 C139.511158,53.1829421 128.109095,100.580145 126.387082,114.501672 C124.664847,128.423198 96.3944173,110.676268 96.3944173,110.676268" id="Fill-10" fill="#FFFFFF"></path>
                                    <path d="M63.6688571,76.6815829 C63.6688571,76.6815829 61.5488195,65.7861596 54.4211475,53.4677536 C52.325619,49.8459922 49.7955252,46.1022938 46.7604024,42.4752408 C37.5607684,32.08114 27.3779421,28.2946485 24.3953725,27.3596442 C19.1845953,25.8020705 13.6646263,24.9800305 11.8009917,27.6258351 C10.6412868,29.2722158 11.6409755,31.6019042 13.6050032,34.0553703 C13.6052389,34.0556004 24.9800561,43.6297319 28.2765307,45.2823244 C28.2765307,45.2823244 42.2332879,57.3398311 51.6476123,85.3064457 C51.6476123,85.3064457 53.8696926,90.683871 58.055565,90.683871 C60.4961063,90.683871 62.3156717,88.6486721 62.3295759,88.6332574 C64.2497701,86.455185 65.6182737,82.7715348 63.6688571,76.6815829" id="Fill-21" fill="url(#linearGradient-1)"></path>
                                    <path d="M123.008792,75.2864411 C123.008792,75.2864411 124.038661,64.1864728 120.846926,50.3429702 C119.90834,46.272658 118.603268,41.9659498 116.801336,37.6337979 C111.175018,25.0812206 102.835069,18.6400099 100.344676,16.9213977 C95.9728179,13.992355 91.1151726,11.688767 88.6749396,13.7337536 C87.1565724,15.0061744 87.4394587,17.5290416 88.5766524,20.4351849 C88.5768784,20.4354162 96.4301356,32.7911511 99.0131674,35.2885746 C99.0131674,35.2885746 108.564646,50.747989 109.579376,80.3261616 C109.579376,80.3261616 110.153735,86.1261888 114.008173,87.2711593 C116.255221,87.9387118 118.487808,86.4710678 118.504754,86.4599651 C120.869069,84.8822189 123.13713,81.6998949 123.008792,75.2864411" id="Fill-22" fill="url(#linearGradient-2)"></path>
                                    <path d="M168,251 L4.84615385,251 C6.68253741,237.839185 11.8065248,222.565917 20.218116,205.180196 L44.3518828,200.8 L63.2598306,206.275245 L86.0499873,206.275245 L157.061475,202.442574 C164.033469,220.966942 167.679644,237.152751 168,251 Z" id="Combined-Shape" fill="#FFFFFF"></path>
                                    <ellipse id="Oval" fill="#D8D8D8" cx="83.1923077" cy="168.412903" rx="41.1923077" ry="42.1032258"></ellipse>
                                    <ellipse id="Oval" fill="#FDFDFD" cx="82.3846154" cy="168.412903" rx="37.1538462" ry="37.2451613"></ellipse>
                                </g>
                            </g>
                        </g>
                    </g>
                    <path d="M81.0003028,142 C94.7862637,142 106,153.215417 106,167 C106,180.784583 94.785658,192 81.0003028,192 C67.2155533,192 56,180.784583 56,167 C56,153.215417 67.2155533,142 81.0003028,142 Z" id="Combined-Shape" fill="url(#linearGradient-3)" fill-rule="nonzero"></path>
                    <g id="Group-31" transform="translate(68.000000, 149.000000)" fill="#FFFFFF" fill-rule="nonzero">
                        <g id="Group-34">
                            <g id="Group-40">
                                <path d="M11.9997954,0 C18.6272016,0 24,4.94947015 24,11.0546962 C24,19.0477324 18.0003069,19.8981517 18.0003069,26.1628314 C18.0003069,26.899786 17.2003205,27.6363636 16.399925,27.6363636 L7.60007502,27.6363636 C6.80008866,27.6363636 6.0001023,26.899786 6.0001023,26.1628314 C6.0001023,19.8981517 0,19.0477324 0,11.0546962 C0,4.94947015 5.37279842,0 11.9997954,0 Z" id="Combined-Shape"></path>
                                <path d="M16.2301853,34.5454545 L7.7698147,34.5454545 C7.26556163,34.5454545 6.85714286,34.0296816 6.85714286,33.3939394 C6.85714286,32.7581972 7.26593599,32.2424242 7.7698147,32.2424242 L16.2301853,32.2424242 C16.7344384,32.2424242 17.1428571,32.7586696 17.1428571,33.3939394 C17.1428571,34.0296816 16.734064,34.5454545 16.2301853,34.5454545 Z" id="Path"></path>
                                <path d="M16.2301853,31.0909091 L7.7698147,31.0909091 C7.26556163,31.0909091 6.85714286,30.5751361 6.85714286,29.9393939 C6.85714286,29.3036518 7.26593599,28.7878788 7.7698147,28.7878788 L16.2301853,28.7878788 C16.7344384,28.7878788 17.1428571,29.3041241 17.1428571,29.9393939 C17.1428571,30.5751361 16.734064,31.0909091 16.2301853,31.0909091 Z" id="Path"></path>
                                <path d="M15.8998163,35.9362674 C15.7705055,35.7880373 15.5361812,35.6969697 15.2829134,35.6969697 L8.71730347,35.6969697 C8.46403558,35.6969697 8.22929948,35.7877571 8.10040053,35.9359872 C7.97150158,36.0842173 7.96614795,36.2677536 8.08763418,36.4190659 C8.86967603,37.3939099 10.3686925,38 11.9999025,38 C13.6302888,38 15.1293053,37.3944703 15.9121708,36.4190659 C16.0336571,36.2677536 16.0287152,36.0842173 15.8998163,35.9362674 Z" id="Path"></path>
                            </g>
                        </g>
                    </g>
                </g>
                <g id="Group-4" transform="translate(31.000000, 27.000000)">
                    <circle id="Oval" fill="#FFFFFF" transform="translate(82.422209, 188.189317) rotate(-9.000000) translate(-82.422209, -188.189317) " cx="82.4222086" cy="188.189317" r="8"></circle>
                    <circle id="Oval" fill="#FFFFFF" cx="106.5" cy="228.5" r="14.5"></circle>
                    <polyline id="Path-13" stroke="#FFFFFF" stroke-width="2" transform="translate(124.436213, 210.542078) rotate(-9.000000) translate(-124.436213, -210.542078) " points="161.936213 197.392078 86.9362129 183.392078 105.304201 237.692078"></polyline>
                    <circle id="Oval" fill="#FFFFFF" transform="translate(160.977162, 191.946876) rotate(-9.000000) translate(-160.977162, -191.946876) " cx="160.977162" cy="191.946876" r="8"></circle>
                    <circle id="Oval" fill="#FFFFFF" transform="translate(152.152982, 162.152982) rotate(-9.000000) translate(-152.152982, -162.152982) " cx="152.152982" cy="162.152982" r="8"></circle>
                    <circle id="Oval" fill="#FFFFFF" cx="165" cy="134" r="8"></circle>
                    <circle id="Oval" fill="#FFFFFF" cx="76" cy="94" r="8"></circle>
                    <circle id="Oval" fill="#FFFFFF" cx="88" cy="145" r="8"></circle>
                    <path d="M106.731707,222 C108.650416,222 110.174791,222.328944 111.304878,222.986842 C112.434965,223.64474 113,224.638882 113,225.969298 C113,228.425451 111.4553,229.807016 108.365854,230.114035 L108.121951,232 L104.560976,232 L104.341463,228.666667 C105.837406,228.564327 106.910566,228.334066 107.560976,227.975877 C108.211385,227.617688 108.536585,227.138892 108.536585,226.539474 C108.536585,226.057015 108.36179,225.684212 108.012195,225.421053 C107.6626,225.157893 107.138215,225.026316 106.439024,225.026316 C105.723574,225.026316 105.154474,225.212717 104.731707,225.585526 C104.308941,225.958335 104.065041,226.51023 104,227.241228 L100,225.859649 C100.195123,224.690053 100.841458,223.754389 101.939024,223.052632 C103.036591,222.350874 104.634136,222 106.731707,222 Z M106.512953,233 C107.290159,233 107.898962,233.173568 108.339378,233.52071 C108.779795,233.867852 109,234.356999 109,234.988166 C109,235.619333 108.779795,236.112424 108.339378,236.467456 C107.898962,236.822487 107.290159,237 106.512953,237 C105.718476,237 105.101038,236.822487 104.660622,236.467456 C104.220205,236.112424 104,235.619333 104,234.988166 C104,234.356999 104.220205,233.867852 104.660622,233.52071 C105.101038,233.173568 105.718476,233 106.512953,233 Z" id="?" fill="#00BFD6" fill-rule="nonzero"></path>
                    <polyline id="Path-14" stroke="#FFFFFF" stroke-width="2" points="165 134 76.5 94 76.5 34.9096774"></polyline>
                    <circle id="Oval" fill="#FFFFFF" cx="76" cy="28" r="28"></circle>
                    <path d="M76.4277674,15 C79.9699989,15 82.7842297,15.6578882 84.8705441,16.9736842 C86.9568585,18.2894803 88,20.2777645 88,22.9385965 C88,27.8509018 85.1482462,30.614032 79.4446529,31.2280702 L78.9943715,35 L72.4202627,35 L72.0150094,28.3333333 C74.7767493,28.1286539 76.7579677,27.6681322 77.9587242,26.9517544 C79.1594807,26.2353765 79.7598499,25.2777838 79.7598499,24.0789474 C79.7598499,23.1140303 79.4371514,22.3684237 78.7917448,21.8421053 C78.1463382,21.3157868 77.1782429,21.0526316 75.8874296,21.0526316 C74.5665975,21.0526316 73.5159514,21.4254349 72.7354597,22.1710526 C71.954968,22.9166704 71.504691,24.0204605 71.3846154,25.4824561 L64,22.7192982 C64.3602269,20.3801053 65.5534608,18.5087789 67.5797373,17.1052632 C69.6060139,15.7017474 72.5553277,15 76.4277674,15 Z M75.5233161,37 C76.9222868,37 78.0181308,37.3037445 78.8108808,37.9112426 C79.6036309,38.5187407 80,39.3747479 80,40.4792899 C80,41.583832 79.6036309,42.4467425 78.8108808,43.0680473 C78.0181308,43.6893522 76.9222868,44 75.5233161,44 C74.0932571,44 72.9818692,43.6893522 72.1891192,43.0680473 C71.3963691,42.4467425 71,41.583832 71,40.4792899 C71,39.3747479 71.3963691,38.5187407 72.1891192,37.9112426 C72.9818692,37.3037445 74.0932571,37 75.5233161,37 Z" id="?" fill="#00BFD6" fill-rule="nonzero"></path>
                    <polyline id="Path-15" stroke="#FFFFFF" stroke-width="2" points="152.152982 162.152982 88 145.025806 28 145.025806"></polyline>
                    <circle id="Oval" fill="#FFFFFF" cx="28" cy="142" r="28"></circle>
                    <path d="M28.4277674,129 C31.9699989,129 34.7842297,129.657888 36.8705441,130.973684 C38.9568585,132.28948 40,134.277764 40,136.938596 C40,141.850902 37.1482462,144.614032 31.4446529,145.22807 L30.9943715,149 L24.4202627,149 L24.0150094,142.333333 C26.7767493,142.128654 28.7579677,141.668132 29.9587242,140.951754 C31.1594807,140.235377 31.7598499,139.277784 31.7598499,138.078947 C31.7598499,137.11403 31.4371514,136.368424 30.7917448,135.842105 C30.1463382,135.315787 29.1782429,135.052632 27.8874296,135.052632 C26.5665975,135.052632 25.5159514,135.425435 24.7354597,136.171053 C23.954968,136.91667 23.504691,138.020461 23.3846154,139.482456 L16,136.719298 C16.3602269,134.380105 17.5534608,132.508779 19.5797373,131.105263 C21.6060139,129.701747 24.5553277,129 28.4277674,129 Z M27.5233161,151 C28.9222868,151 30.0181308,151.303744 30.8108808,151.911243 C31.6036309,152.518741 32,153.374748 32,154.47929 C32,155.583832 31.6036309,156.446742 30.8108808,157.068047 C30.0181308,157.689352 28.9222868,158 27.5233161,158 C26.0932571,158 24.9818692,157.689352 24.1891192,157.068047 C23.3963691,156.446742 23,155.583832 23,154.47929 C23,153.374748 23.3963691,152.518741 24.1891192,151.911243 C24.9818692,151.303744 26.0932571,151 27.5233161,151 Z" id="?" fill="#00BFD6" fill-rule="nonzero"></path>
                </g>
                <g id="Group-3" transform="translate(457.000000, 150.500000) scale(-1, 1) translate(-457.000000, -150.500000) translate(368.000000, 30.000000)">
                    <circle id="Oval" fill="#FFFFFF" transform="translate(82.422209, 185.189317) rotate(-9.000000) translate(-82.422209, -185.189317) " cx="82.4222086" cy="185.189317" r="8"></circle>
                    <circle id="Oval" fill="#FFFFFF" cx="106.5" cy="225.5" r="14.5"></circle>
                    <polyline id="Path-13" stroke="#FFFFFF" stroke-width="2" transform="translate(124.436213, 207.542078) rotate(-9.000000) translate(-124.436213, -207.542078) " points="161.936213 194.392078 86.9362129 180.392078 105.304201 234.692078"></polyline>
                    <circle id="Oval" fill="#FFFFFF" transform="translate(160.977162, 188.946876) rotate(-9.000000) translate(-160.977162, -188.946876) " cx="160.977162" cy="188.946876" r="8"></circle>
                    <circle id="Oval" fill="#FFFFFF" transform="translate(152.152982, 159.152982) rotate(-9.000000) translate(-152.152982, -159.152982) " cx="152.152982" cy="159.152982" r="8"></circle>
                    <circle id="Oval" fill="#FFFFFF" cx="170" cy="134" r="8"></circle>
                    <circle id="Oval" fill="#FFFFFF" cx="81" cy="94" r="8"></circle>
                    <circle id="Oval" fill="#FFFFFF" cx="88" cy="142" r="8"></circle>
                    <path d="M106.731707,219 C108.650416,219 110.174791,219.328944 111.304878,219.986842 C112.434965,220.64474 113,221.638882 113,222.969298 C113,225.425451 111.4553,226.807016 108.365854,227.114035 L108.121951,229 L104.560976,229 L104.341463,225.666667 C105.837406,225.564327 106.910566,225.334066 107.560976,224.975877 C108.211385,224.617688 108.536585,224.138892 108.536585,223.539474 C108.536585,223.057015 108.36179,222.684212 108.012195,222.421053 C107.6626,222.157893 107.138215,222.026316 106.439024,222.026316 C105.723574,222.026316 105.154474,222.212717 104.731707,222.585526 C104.308941,222.958335 104.065041,223.51023 104,224.241228 L100,222.859649 C100.195123,221.690053 100.841458,220.754389 101.939024,220.052632 C103.036591,219.350874 104.634136,219 106.731707,219 Z M106.512953,230 C107.290159,230 107.898962,230.173568 108.339378,230.52071 C108.779795,230.867852 109,231.356999 109,231.988166 C109,232.619333 108.779795,233.112424 108.339378,233.467456 C107.898962,233.822487 107.290159,234 106.512953,234 C105.718476,234 105.101038,233.822487 104.660622,233.467456 C104.220205,233.112424 104,232.619333 104,231.988166 C104,231.356999 104.220205,230.867852 104.660622,230.52071 C105.101038,230.173568 105.718476,230 106.512953,230 Z" id="?" fill="#00BFD6" fill-rule="nonzero" transform="translate(106.500000, 226.500000) scale(-1, 1) translate(-106.500000, -226.500000) "></path>
                    <polyline id="Path-14" stroke="#FFFFFF" stroke-width="2" points="170 134 81.5 94 81.5 34.9096774"></polyline>
                    <circle id="Oval" fill="#FFFFFF" cx="81" cy="28" r="28"></circle>
                    <path d="M81.4277674,15 C84.9699989,15 87.7842297,15.6578882 89.8705441,16.9736842 C91.9568585,18.2894803 93,20.2777645 93,22.9385965 C93,27.8509018 90.1482462,30.614032 84.4446529,31.2280702 L83.9943715,35 L77.4202627,35 L77.0150094,28.3333333 C79.7767493,28.1286539 81.7579677,27.6681322 82.9587242,26.9517544 C84.1594807,26.2353765 84.7598499,25.2777838 84.7598499,24.0789474 C84.7598499,23.1140303 84.4371514,22.3684237 83.7917448,21.8421053 C83.1463382,21.3157868 82.1782429,21.0526316 80.8874296,21.0526316 C79.5665975,21.0526316 78.5159514,21.4254349 77.7354597,22.1710526 C76.954968,22.9166704 76.504691,24.0204605 76.3846154,25.4824561 L69,22.7192982 C69.3602269,20.3801053 70.5534608,18.5087789 72.5797373,17.1052632 C74.6060139,15.7017474 77.5553277,15 81.4277674,15 Z M80.5233161,37 C81.9222868,37 83.0181308,37.3037445 83.8108808,37.9112426 C84.6036309,38.5187407 85,39.3747479 85,40.4792899 C85,41.583832 84.6036309,42.4467425 83.8108808,43.0680473 C83.0181308,43.6893522 81.9222868,44 80.5233161,44 C79.0932571,44 77.9818692,43.6893522 77.1891192,43.0680473 C76.3963691,42.4467425 76,41.583832 76,40.4792899 C76,39.3747479 76.3963691,38.5187407 77.1891192,37.9112426 C77.9818692,37.3037445 79.0932571,37 80.5233161,37 Z" id="?" fill="#00BFD6" fill-rule="nonzero" transform="translate(81.000000, 29.500000) scale(-1, 1) translate(-81.000000, -29.500000) "></path>
                    <polyline id="Path-15" stroke="#FFFFFF" stroke-width="2" points="152.152982 159.152982 88 142.025806 28 142.025806"></polyline>
                    <circle id="Oval" fill="#FFFFFF" cx="28" cy="139" r="28"></circle>
                    <path d="M28.4277674,126 C31.9699989,126 34.7842297,126.657888 36.8705441,127.973684 C38.9568585,129.28948 40,131.277764 40,133.938596 C40,138.850902 37.1482462,141.614032 31.4446529,142.22807 L30.9943715,146 L24.4202627,146 L24.0150094,139.333333 C26.7767493,139.128654 28.7579677,138.668132 29.9587242,137.951754 C31.1594807,137.235377 31.7598499,136.277784 31.7598499,135.078947 C31.7598499,134.11403 31.4371514,133.368424 30.7917448,132.842105 C30.1463382,132.315787 29.1782429,132.052632 27.8874296,132.052632 C26.5665975,132.052632 25.5159514,132.425435 24.7354597,133.171053 C23.954968,133.91667 23.504691,135.020461 23.3846154,136.482456 L16,133.719298 C16.3602269,131.380105 17.5534608,129.508779 19.5797373,128.105263 C21.6060139,126.701747 24.5553277,126 28.4277674,126 Z M27.5233161,148 C28.9222868,148 30.0181308,148.303744 30.8108808,148.911243 C31.6036309,149.518741 32,150.374748 32,151.47929 C32,152.583832 31.6036309,153.446742 30.8108808,154.068047 C30.0181308,154.689352 28.9222868,155 27.5233161,155 C26.0932571,155 24.9818692,154.689352 24.1891192,154.068047 C23.3963691,153.446742 23,152.583832 23,151.47929 C23,150.374748 23.3963691,149.518741 24.1891192,148.911243 C24.9818692,148.303744 26.0932571,148 27.5233161,148 Z" id="?" fill="#00BFD6" fill-rule="nonzero" transform="translate(28.000000, 140.500000) scale(-1, 1) translate(-28.000000, -140.500000) "></path>
                </g>
            </g>
        </g>
    </g>
</svg>