<?xml version="1.0" encoding="UTF-8"?>
<svg width="488px" height="229px" viewBox="0 0 488 229" version="1.1" xmlns="http://www.w3.org/2000/svg" xmlns:xlink="http://www.w3.org/1999/xlink">
    <!-- Generator: Sketch 53 (72520) - https://sketchapp.com -->
    <title>Surface_relevant_content_image</title>
    <desc>Created with Sketch.</desc>
    <defs>
        <polygon id="path-1" points="0 124 61 124 61 0 0 0"></polygon>
    </defs>
    <g id="HD_Desktop" stroke="none" stroke-width="1" fill="none" fill-rule="evenodd">
        <g id="VW_HD_Desktop_Learn" transform="translate(-967.000000, -1922.000000)">
            <g id="Use_cases" transform="translate(375.000000, 1529.000000)">
                <g id="Surface_relevant_content_image" transform="translate(592.000000, 393.000000)">
                    <path d="M279.4888,124 L208.5112,124 C193.870933,124 182,112.129067 182,97.4860444 L182,26.5112 C182,11.8681778 193.870933,0 208.5112,0 L279.4888,0 C294.129067,0 306,11.8681778 306,26.5112 L306,97.4860444 C306,112.129067 294.129067,124 279.4888,124" id="Fill-41" fill="#2A3B93"></path>
                    <g id="Group-5" transform="translate(345.000000, 29.000000)">
                        <path d="M51.8892,66 L14.1108,66 C6.3184,66 0,59.6816 0,51.8877333 L0,14.1108 C0,6.31693333 6.3184,0 14.1108,0 L51.8892,0 C59.6816,0 66,6.31693333 66,14.1108 L66,51.8877333 C66,59.6816 59.6816,66 51.8892,66" id="Fill-41" fill="#687FF9"></path>
                        <rect id="Rectangle" fill="#2A3B93" x="9.77777778" y="14.6666667" width="45.6296296" height="4.88888889"></rect>
                        <rect id="Rectangle" fill="#2A3B93" x="9.77777778" y="25.2592593" width="45.6296296" height="4.88888889"></rect>
                        <rect id="Rectangle" fill="#2A3B93" x="9.77777778" y="35.8518519" width="45.6296296" height="4.88888889"></rect>
                        <rect id="Rectangle" fill="#2A3B93" x="9.77777778" y="46.4444444" width="45.6296296" height="4.88888889"></rect>
                    </g>
                    <polyline id="Fill-72" fill="#0CD2C2" points="233.839768 95 203 64.1556811 212.830593 54.3255313 233.839768 75.3452605 276.174966 33 286 42.8273697 233.839768 95"></polyline>
                    <g id="Group-7" transform="translate(215.000000, 105.000000)">
                        <path d="M61,31.165459 L61,64.4470397 C61,66.9108865 60.4991108,69.2008708 59.504471,71.3134199 C58.5062619,73.42716 57.129709,75.2479535 55.3700532,76.7722279 L55.3700532,86.8098136 C55.2522669,87.7470042 54.8703537,88.5698743 54.2266933,89.2736604 C53.5806533,89.9786374 52.7311643,90.3311258 51.6758467,90.3311258 L28.2780161,90.3311258 C27.2215088,90.3311258 26.3696403,89.9786374 25.7271696,89.2736604 C25.0811296,88.5698743 24.7598943,87.7470042 24.7598943,86.8098136 L24.7598943,79.0610214 C22.7634761,78.1202582 21.1227963,76.7722279 19.8330959,75.0121673 C19.7153096,74.895465 19.539225,74.6013276 19.306032,74.1309461 L19.1299474,73.9547018 C18.0746298,71.6075573 16.1662539,67.7909169 13.4119583,62.509544 C10.6552832,57.2257894 6.81473618,52.3564469 1.88912758,47.8943715 C0.833809994,46.8380969 0.217514039,45.6651201 0.0414294806,44.3718684 C-0.133465317,43.0821893 0.244878531,41.9080216 1.18597911,40.8505562 C2.12232065,39.7942816 3.82367821,39.2655489 6.28767226,39.2655489 C8.75047656,39.2655489 12.2079207,41.3221286 16.6671431,45.4293339 C17.4856984,46.2510131 18.2197806,46.8976389 18.8658206,47.3656388 C19.509481,47.8372112 20.1245872,48.4231042 20.7123289,49.1280812 L20.7123289,5.10631952 C20.7123289,3.69755647 21.1799048,2.49480863 22.1198156,1.49569434 C23.0573469,0.500152565 24.2590051,0 25.7271696,0 C27.1917648,0 28.3934229,0.500152565 29.3333337,1.49569434 C30.270865,2.49480863 30.7991187,3.69755647 30.916905,5.10631952 L30.916905,28.1728795 C31.2678844,28.0573681 31.6200535,27.7632307 31.9722226,27.2928492 L32.1483071,27.2928492 C33.0858384,26.4723608 34.2589423,26.0591395 35.666429,26.0591395 C37.0739157,26.0591395 38.2755739,26.5307119 39.2725932,27.4690934 C40.2684228,28.4098566 41.2356981,28.3491237 42.1756089,27.2928492 L42.527778,27.2928492 C43.347523,26.4723608 44.4635184,26.0591395 45.8710051,26.0591395 C47.277302,26.0591395 48.4480264,26.4723608 49.3879372,27.2928492 C50.4444446,28.3491237 51.4390844,28.3491237 52.380185,27.2928492 L52.7311643,27.2928492 C53.6686956,26.4723608 54.7823115,26.0591395 56.0732016,26.0591395 C57.4818781,26.0591395 58.6526025,26.5307119 59.5925133,27.4690934 C60.5300446,28.4098566 61,29.6423754 61,31.165459 Z" id="Fill-1" fill="#687FF9"></path>
                        <path d="M55.2297297,79.9069563 C55.1123719,80.7899478 54.7911196,81.5178711 54.2659729,82.0881632 C53.7396407,82.6558921 53.126772,82.9403974 52.4249958,82.9403974 L27.3590196,82.9403974 C26.6584289,82.9403974 26.0443747,82.6558921 25.519228,82.0881632 C24.9928958,81.5178711 24.7297297,80.7899478 24.7297297,79.9069563 L24.7297297,78.2012065 C26.1320967,78.9598871 27.7099077,79.3392274 29.4631628,79.3392274 L44.8880142,79.3392274 L45.0622728,79.3392274 C48.919671,79.3392274 52.3076379,78.0743325 55.2297297,75.5496689 L55.2297297,79.9069563 Z" id="Fill-3" fill="#2A3B93"></path>
                        <mask id="mask-2" fill="white">
                            <use xlink:href="#path-1"></use>
                        </mask>
                        <g id="Clip-6"></g>
                        <polygon id="Fill-5" fill="#687FF9" mask="url(#mask-2)" points="24.7297297 124 55.2297297 124 55.2297297 82.9403974 24.7297297 82.9403974"></polygon>
                    </g>
                    <g id="Group-5" transform="translate(422.000000, 29.000000)">
                        <path d="M51.8892,66 L14.1108,66 C6.3184,66 0,59.6816 0,51.8877333 L0,14.1108 C0,6.31693333 6.3184,0 14.1108,0 L51.8892,0 C59.6816,0 66,6.31693333 66,14.1108 L66,51.8877333 C66,59.6816 59.6816,66 51.8892,66" id="Fill-41" fill="#687FF9"></path>
                        <rect id="Rectangle" fill="#2A3B93" x="9.77777778" y="14.6666667" width="45.6296296" height="4.88888889"></rect>
                        <rect id="Rectangle" fill="#2A3B93" x="9.77777778" y="25.2592593" width="45.6296296" height="4.88888889"></rect>
                        <rect id="Rectangle" fill="#2A3B93" x="9.77777778" y="35.8518519" width="45.6296296" height="4.88888889"></rect>
                        <rect id="Rectangle" fill="#2A3B93" x="9.77777778" y="46.4444444" width="45.6296296" height="4.88888889"></rect>
                    </g>
                    <rect id="Rectangle" fill="#0CD2C2" x="159" y="60" width="20" height="7" rx="2.7"></rect>
                    <path d="M162.055623,81.2629456 L176.309836,81.2542574 C177.801005,81.2533486 179.010573,82.4614427 179.011481,83.9526113 C179.011482,83.9537072 179.011482,83.9548032 179.011482,83.9558992 L179.010773,85.1211344 C179.009867,86.6110191 177.802304,87.8185836 176.312419,87.8194917 L162.058205,87.8281798 C160.567037,87.8290887 159.357469,86.6209946 159.35656,85.129826 C159.356559,85.1287301 159.356559,85.1276341 159.35656,85.1265381 L159.357269,83.9613028 C159.358175,82.4714181 160.565738,81.2638537 162.055623,81.2629456 Z" id="Rectangle" fill="#0CD2C2" transform="translate(169.184021, 84.541219) rotate(-15.000000) translate(-169.184021, -84.541219) "></path>
                    <path d="M161.239413,39.3940424 L175.493627,39.4027305 C176.983512,39.4036386 178.191075,40.6112031 178.191981,42.1010878 L178.19269,43.2663231 C178.193597,44.7574916 176.985501,45.9670578 175.494332,45.9679648 C175.493236,45.9679655 175.49214,45.9679655 175.491044,45.9679648 L161.236831,45.9592767 C159.746946,45.9583685 158.539383,44.7508041 158.538477,43.2609194 L158.537768,42.0956841 C158.536861,40.6045156 159.744957,39.3949494 161.236125,39.3940424 C161.237221,39.3940417 161.238317,39.3940417 161.239413,39.3940424 Z" id="Rectangle" fill="#0CD2C2" transform="translate(168.365229, 42.681004) rotate(-345.000000) translate(-168.365229, -42.681004) "></path>
                    <rect id="Rectangle" fill="#0CD2C2" transform="translate(320.000000, 63.500000) scale(-1, 1) translate(-320.000000, -63.500000) " x="310" y="60" width="20" height="7" rx="2.7"></rect>
                    <path d="M313.532133,81.2629456 L327.786346,81.2542574 C329.277515,81.2533486 330.487083,82.4614427 330.487992,83.9526113 C330.487992,83.9537072 330.487992,83.9548032 330.487992,83.9558992 L330.487283,85.1211344 C330.486377,86.6110191 329.278814,87.8185836 327.788929,87.8194917 L313.534715,87.8281798 C312.043547,87.8290887 310.833979,86.6209946 310.83307,85.129826 C310.83307,85.1287301 310.83307,85.1276341 310.83307,85.1265381 L310.833779,83.9613028 C310.834685,82.4714181 312.042248,81.2638537 313.532133,81.2629456 Z" id="Rectangle" fill="#0CD2C2" transform="translate(320.660531, 84.541219) scale(-1, 1) rotate(-15.000000) translate(-320.660531, -84.541219) "></path>
                    <path d="M312.715923,39.3940424 L326.970137,39.4027305 C328.460022,39.4036386 329.667585,40.6112031 329.668491,42.1010878 L329.6692,43.2663231 C329.670107,44.7574916 328.462011,45.9670578 326.970842,45.9679648 C326.969746,45.9679655 326.96865,45.9679655 326.967554,45.9679648 L312.713341,45.9592767 C311.223456,45.9583685 310.015893,44.7508041 310.014987,43.2609194 L310.014278,42.0956841 C310.013371,40.6045156 311.221467,39.3949494 312.712636,39.3940424 C312.713732,39.3940417 312.714827,39.3940417 312.715923,39.3940424 Z" id="Rectangle" fill="#0CD2C2" transform="translate(319.841739, 42.681004) scale(-1, 1) rotate(-345.000000) translate(-319.841739, -42.681004) "></path>
                    <g id="Group-5" transform="translate(0.000000, 29.000000)">
                        <path d="M51.8892,66 L14.1108,66 C6.3184,66 0,59.6816 0,51.8877333 L0,14.1108 C0,6.31693333 6.3184,0 14.1108,0 L51.8892,0 C59.6816,0 66,6.31693333 66,14.1108 L66,51.8877333 C66,59.6816 59.6816,66 51.8892,66" id="Fill-41" fill="#687FF9"></path>
                        <rect id="Rectangle" fill="#2A3B93" x="9.77777778" y="14.6666667" width="45.6296296" height="4.88888889"></rect>
                        <rect id="Rectangle" fill="#2A3B93" x="9.77777778" y="25.2592593" width="45.6296296" height="4.88888889"></rect>
                        <rect id="Rectangle" fill="#2A3B93" x="9.77777778" y="35.8518519" width="45.6296296" height="4.88888889"></rect>
                        <rect id="Rectangle" fill="#2A3B93" x="9.77777778" y="46.4444444" width="45.6296296" height="4.88888889"></rect>
                    </g>
                    <g id="Group-5" transform="translate(77.000000, 29.000000)">
                        <path d="M51.8892,66 L14.1108,66 C6.3184,66 0,59.6816 0,51.8877333 L0,14.1108 C0,6.31693333 6.3184,0 14.1108,0 L51.8892,0 C59.6816,0 66,6.31693333 66,14.1108 L66,51.8877333 C66,59.6816 59.6816,66 51.8892,66" id="Fill-41" fill="#687FF9"></path>
                        <rect id="Rectangle" fill="#2A3B93" x="9.77777778" y="14.6666667" width="45.6296296" height="4.88888889"></rect>
                        <rect id="Rectangle" fill="#2A3B93" x="9.77777778" y="25.2592593" width="45.6296296" height="4.88888889"></rect>
                        <rect id="Rectangle" fill="#2A3B93" x="9.77777778" y="35.8518519" width="45.6296296" height="4.88888889"></rect>
                        <rect id="Rectangle" fill="#2A3B93" x="9.77777778" y="46.4444444" width="45.6296296" height="4.88888889"></rect>
                    </g>
                </g>
            </g>
        </g>
    </g>
</svg>