<?xml version="1.0" encoding="UTF-8"?>
<svg width="5143px" height="798px" viewBox="0 0 5143 798" version="1.1" xmlns="http://www.w3.org/2000/svg" xmlns:xlink="http://www.w3.org/1999/xlink">
    <!-- Generator: Sketch 53 (72520) - https://sketchapp.com -->
    <title>Community_module_HD_size</title>
    <desc>Created with Sketch.</desc>
    <defs>
        <polygon id="path-1" points="0.332638889 163.340087 10.9080736 164.155172 30.5527999 89.7764208 65.6319444 3.23742434 27.9773562 0.331896552"></polygon>
        <path d="M13.3610814,82.199215 C15.3251685,88.9786008 20.6213889,115.623187 38.3052928,167.467653 L38.3052928,167.467653 L49.3076389,172.146552 C39.9815308,116.387271 36.5120844,87.0182126 36.4500391,82.5271055 L36.4500391,82.5271055 C36.3869768,78.0340112 36.2110125,52.5400231 42.0992053,3.59689168 L42.0992053,3.59689168 L2.8489943,0.553471084 L0,0.331896552 C6.94703001,48.1293982 11.40208,75.4168483 13.3610814,82.199215 L13.3610814,82.199215 Z" id="path-3"></path>
        <path d="M3.77433707,78.391066 L40.1902375,81.2456897 C45.1649998,49.2336181 46.5134775,23.3050251 44.2386716,3.46879726 L44.2386716,3.46879726 L9.16524681,0.717852437 L0,0 L3.77433707,78.391066 Z" id="path-5"></path>
        <path d="M4.29659469,5.74432162 C-0.733463789,13.5043387 -1.85860845,34.1046646 3.69058847,36.0002804 L3.69058847,36.0002804 C5.90364874,36.7566794 10.8261566,35.718042 15.9565267,33.1768699 L15.9565267,33.1768699 L11.1581157,54.5120419 L29.3031416,55.9396552 L25.3672036,26.5529907 C29.1759423,22.7689432 31.929858,17.9821796 31.9825991,12.3764114 L31.9825991,12.3764114 C32.0653304,3.45767725 25.1427951,0.00102632153 18.0837533,0 L18.0837533,0 C12.3608208,0 6.54688401,2.27124955 4.29659469,5.74432162 L4.29659469,5.74432162 Z" id="path-7"></path>
        <path d="M36.1439369,1.5348101 C32.3020243,2.82712267 29.137919,5.31142224 26.8514489,8.6211728 L26.8514489,8.6211728 C25.6313956,10.3873002 24.7065651,12.296466 24.0347827,14.3288039 L24.0347827,14.3288039 C23.7988053,15.0400228 23.5628279,15.7572016 23.3810751,16.4863003 L23.3810751,16.4863003 C23.2214138,17.1150735 23.2806592,18.0517766 22.8769873,18.5722776 L22.8769873,18.5722776 C22.3869576,19.2070107 21.6037136,18.9775532 20.8666608,18.9209338 L20.8666608,18.9209338 C19.7118779,18.8265681 13.4388962,18.5971106 11.0871557,18.7908085 L11.0871557,18.7908085 C7.83568861,19.0599989 1.66914778,21.2721281 0.544489624,23.3283057 L0.544489624,23.3283057 C-0.580168531,25.3815033 -0.180513222,28.0346677 3.82909393,28.1131402 L3.82909393,28.1131402 C7.49327037,33.228751 13.1045112,36.9765568 13.7793061,37.0808557 L13.7793061,37.0808557 C13.797381,37.087809 14.2723482,36.564328 14.9802804,36.0398537 L14.9802804,36.0398537 C16.0477015,35.2541356 17.6513435,34.4684175 19.0672078,35.4657133 L19.0672078,35.4657133 C21.795508,37.3967322 21.0152764,40.5018584 19.2670354,42.832193 L19.2670354,42.832193 C18.3562631,44.0450397 16.9514446,45.8866596 18.8924841,47.5236551 L18.8924841,47.5236551 C21.9551692,50.1082803 30.7335278,45.5856829 32.4797604,41.2627434 L32.4797604,41.2627434 C35.7171693,33.2535841 33.0240146,21.7846825 24.0136953,19.4305082 L24.0136953,19.4305082 C24.6814611,17.9256246 26.9267608,17.4736629 28.4550909,17.2898982 L28.4550909,17.2898982 C32.1162548,16.8528363 35.8396767,17.8968183 39.3160753,18.9268937 L39.3160753,18.9268937 C43.5767223,20.1903999 47.8654856,21.9098412 52.3259602,22.294257 L52.3259602,22.294257 C54.6194595,22.4919282 56.9380628,22.2376376 59.1522336,21.6267443 L59.1522336,21.6267443 C61.4638077,20.9959845 63.321502,19.8606169 65.3900697,18.7192893 L65.3900697,18.7192893 C67.3421549,17.6385544 69.3384231,18.0587299 71.3427246,18.7947818 L71.3427246,18.7947818 C73.4062715,19.5477203 75.3553443,20.5251496 77.2210718,21.6734304 L77.2210718,21.6734304 C81.205575,24.1249504 84.8305892,27.0443252 89.1414441,28.9356112 L89.1414441,28.9356112 C92.3788529,30.3540757 95.7899813,31.2619725 99.3105629,31.6136087 L99.3105629,31.6136087 C105.392754,32.2235087 112.820519,31.4844767 117.175557,26.7065955 L117.175557,26.7065955 C120.181005,23.4147248 120.532461,19.0560256 119.193917,14.9536037 L119.193917,14.9536037 C117.951772,11.1452053 115.437358,8.30926953 112.309402,5.86768283 L112.309402,5.86768283 C108.963544,3.2612046 105.167823,1.208007 100.925251,0.547447534 L100.925251,0.547447534 C96.3814309,-0.163771375 91.8345987,1.01430911 87.7818127,3.04565362 L87.7818127,3.04565362 C83.8183969,5.03130529 80.239574,7.16694866 75.7037874,7.49375176 L75.7037874,7.49375176 C71.2041507,7.82055487 66.7948882,6.92656462 62.6497196,5.21010334 L62.6497196,5.21010334 C58.3067316,3.40920965 54.1515214,1.52785684 49.4550694,0.776905031 L49.4550694,0.776905031 C47.6837329,0.494801441 45.8662049,0.331896552 44.048677,0.331896552 L44.048677,0.331896552 C41.3625515,0.331896552 38.676426,0.686512684 36.1439369,1.5348101 L36.1439369,1.5348101 Z" id="path-9"></path>
        <polygon id="path-11" points="0.347473251 79.1153698 35.5617155 81.9683247 53.2492886 3.75123791 11.7568364 0.391740013"></polygon>
        <path d="M0.0924597553,11.945063 C9.19974565,20.2683919 21.7024685,26.7926359 32.2477987,25.8172779 L32.2477987,25.8172779 C40.5583569,25.0509251 44.2046156,14.3127653 37.8042365,8.46164125 L37.8042365,8.46164125 C29.0431829,8.91653515 17.2584986,7.73012268 4.3249526,0.295066313 L4.3249526,0.295066313 L0.0924597553,11.945063 Z" id="path-13"></path>
        <path d="M82.7560891,0.0749808429 L62.6271937,1.2875 C62.3794596,15.5338602 57.7389034,31.4988602 54.0902748,47.2142529 L54.0902748,47.2142529 C44.8676278,50.1000287 29.0007508,48.3083812 6.48865292,41.8422701 L6.48865292,41.8422701 C1.70540191,53.4110249 -0.333945637,61.5760441 0.368628419,66.3373276 L0.368628419,66.3373276 C19.8712518,75.014387 36.3406183,78.4141762 49.7083532,77.8981897 L49.7083532,77.8981897 C49.7628547,85.7958429 51.1818759,93.2288123 54.837441,99.8784291 L54.837441,99.8784291 C59.5612359,108.473602 76.4140948,105.584866 91.574434,102.69613 L91.574434,102.69613 C100.526555,100.990316 108.89006,99.2845019 113.815015,99.9435441 L113.815015,99.9435441 C120.413662,72.9504406 103.886821,63.1388027 102.843365,46.1842529 L102.843365,46.1842529 C101.702797,27.6639847 85.0441617,0.076954023 82.7719441,0.0749808429 L82.7719441,0.0749808429 C82.7669894,0.0749808429 82.7610438,0.0749808429 82.7560891,0.0749808429 L82.7560891,0.0749808429 Z" id="path-15"></path>
        <path d="M20.5714817,0.938247126 C11.9156512,0.938247126 4.90212765,7.91639847 4.90212765,16.5273563 L4.90212765,16.5273563 L4.90212765,16.5875383 C2.10643721,27.2703352 -1.32693643,49.5860153 2.34643618,53.1545115 L2.34643618,53.1545115 L26.1231933,53.1545115 C26.1231933,53.1515517 26.1231933,53.1446456 26.1231933,53.1377395 L26.1231933,53.1377395 L26.1271602,53.1377395 C34.781999,53.1377395 41.7955225,46.1595881 41.7955225,37.5525766 L41.7955225,37.5525766 L41.7955225,16.5273563 C41.7955225,7.91639847 34.781999,0.938247126 26.1271602,0.938247126 L26.1271602,0.938247126 L20.5714817,0.938247126 Z" id="path-17"></path>
        <path d="M3.97496566,7.8422069 C-0.633299614,16.8113293 -0.0875839892,39.5625678 5.87101466,41.1635512 L5.87101466,41.1635512 C8.24636944,41.8023375 13.3108414,40.2375119 18.461935,36.9963744 L18.461935,36.9963744 L15.2271021,60.8725196 L34.3261865,60.8725196 L27.7487252,28.8980503 C31.4185906,24.4084672 33.8988537,18.9014462 33.4849953,12.7345468 L33.4849953,12.7345468 C32.8757572,3.68708267 26.4291906,0.261139062 19.6409502,0.260134681 L19.6409502,0.260134681 C13.0990999,0.260134681 6.23867492,3.44201371 3.97496566,7.8422069 L3.97496566,7.8422069 Z" id="path-19"></path>
        <path d="M3.97496566,7.8422069 C-0.633299614,16.8113293 -0.0875839892,39.5625678 5.87101466,41.1635512 L5.87101466,41.1635512 C8.24636944,41.8023375 13.3108414,40.2375119 18.461935,36.9963744 L18.461935,36.9963744 L15.2271021,60.8725196 L34.327149,60.8725196 L27.7487252,28.8980503 C31.4185906,24.4084672 33.8988537,18.9014462 33.4849953,12.7355512 L33.4849953,12.7355512 C32.8747947,3.68808705 26.4291906,0.261139062 19.6409502,0.260134681 L19.6409502,0.260134681 C13.0981375,0.260134681 6.23867492,3.44201371 3.97496566,7.8422069 L3.97496566,7.8422069 Z" id="path-21"></path>
        <path d="M0.775190248,8.83537451 C2.67031863,15.3028883 10.0242835,16.2633616 16.5597185,20.2973495 L16.5597185,20.2973495 C17.3280138,19.6730419 18.3110377,19.3025736 19.3827112,19.3025736 L19.3827112,19.3025736 C21.853076,19.3025736 23.8604937,21.2960458 23.8604937,23.7570137 L23.8604937,23.7570137 C23.8604937,26.2189616 21.853076,28.2134139 19.3827112,28.2134139 L19.3827112,28.2134139 C19.3147466,28.2134139 19.243827,28.2134139 19.1758624,28.2104736 L19.1758624,28.2104736 C18.274593,37.8338283 18.6380557,48.8243874 21.3231493,51.4304063 L21.3231493,51.4304063 L44.9373945,51.4304063 C46.2513764,28.6848299 33.5360894,37.4937424 33.5360894,16.0791075 L33.5360894,16.0791075 C32.7421843,15.3068086 31.9945739,14.5452904 31.2538584,13.8857001 L31.2538584,13.8857001 L31.2794682,13.256492 C27.1887883,4.92879628 22.0027951,0.763478286 15.7155787,0.763478286 L15.7155787,0.763478286 C6.28623146,0.763478286 3.3105647,5.12677139 0.775190248,8.83537451 L0.775190248,8.83537451 Z" id="path-23"></path>
        <polygon id="path-25" points="23.3678229 0.415515531 0.173909375 181.682431 16.0926141 181.682431 37.9162417 104.768423 67.8276547 0.415515531"></polygon>
        <path d="M0.290989105,0.415515531 C15.0357796,51.8729986 24.827714,81.2050234 28.0004015,88.4234901 L28.0004015,88.4234901 C31.1700682,95.6409651 46.3800385,126.724304 73.6202435,181.682431 L73.6202435,181.682431 L90.2317946,181.682431 C68.8355369,124.393847 57.7698958,93.3085247 57.038899,88.4234901 L57.038899,88.4234901 C56.3028677,83.5354804 53.9266245,54.2024639 53.2318754,0.415515531 L53.2318754,0.415515531 L0.290989105,0.415515531 Z" id="path-27"></path>
        <path d="M32.7859151,0.753923548 C24.586188,6.78741493 13.9037547,11.6789803 0.736616146,15.431774 L0.736616146,15.431774 L0.736616146,19.0079163 L31.9543484,19.0079163 L42.7577188,17.2718943 L42.7577188,19.0079163 L51.0643901,19.0079163 L51.0643901,18.9690109 L50.2348224,0.753923548 L32.7859151,0.753923548 Z" id="path-29"></path>
        <path d="M33.0307875,0.753923548 C24.8310604,6.78846642 14.1476276,11.6800318 0.979489583,15.4328255 L0.979489583,15.4328255 L0.979489583,19.0079163 L32.2002203,19.0079163 L42.9995927,17.2718943 L42.9995927,19.0079163 L51.3072635,19.0079163 L50.4776958,0.753923548 L33.0307875,0.753923548 Z" id="path-31"></path>
        <path d="M2.67560573,3.88321839 C6.25274167,6.90514368 9.87685313,10.2408046 9.20220469,11.8094828 L9.20220469,11.8094828 C8.52655677,13.3771743 5.16131042,12.7319444 4.557625,15.1530364 L4.557625,15.1530364 C4.15583438,16.7661111 9.62998177,17.1222701 20.9810667,16.2205268 L20.9810667,16.2205268 L47.086463,26.8599138 L53.154301,12.7625287 L20.8341432,7.89173372 C14.4164875,4.25614943 8.49757188,1.76796935 3.07639688,0.428180077 L3.07639688,0.428180077 C2.99144115,0.424233716 2.90448646,0.422260536 2.81453333,0.422260536 L2.81453333,0.422260536 C1.29332604,0.422260536 -0.704632812,1.02802682 2.67560573,3.88321839 L2.67560573,3.88321839 Z M40.155075,88.7684387 C33.3436245,91.631523 27.7635323,94.7935441 23.4127995,98.2545019 L23.4127995,98.2545019 C22.4333099,99.4176916 21.3678651,101.645412 25.9714661,100.647969 L25.9714661,100.647969 C30.5740677,99.6495402 35.4605214,98.8040326 36.3250708,100.277998 L36.3250708,100.277998 C37.1896203,101.751964 34.639949,104.013228 36.2371167,105.943985 L36.2371167,105.943985 C37.3035609,107.230498 40.8886927,103.137136 46.9945109,93.6619253 L46.9945109,93.6619253 L71.3378255,79.5152107 L63.5658755,66.2623467 L40.155075,88.7684387 Z" id="path-33"></path>
        <path d="M55.8878766,2.89721163 C45.3913464,31.2303689 27.6885714,54.3015688 0.854554688,79.463817 L0.854554688,79.463817 L13.9217453,90.529155 C45.455313,73.5828058 61.9687078,63.7117838 67.0780453,37.6159786 L67.0780453,37.6159786 C68.3613766,31.0661504 67.0630531,10.9409301 66.8811479,0.282654793 L66.8811479,0.282654793 L55.8878766,2.89721163 Z" id="path-35"></path>
        <path d="M11.251137,4.38027478 C10.5495026,4.28537716 9.22619219,5.95357759 9.3261401,6.78168427 L9.3261401,6.78168427 C11.2921156,23.00818 8.19373021,53.8349256 0.0269859375,99.2639192 L0.0269859375,99.2639192 L63.0311542,90.4134666 C54.5155917,51.2397252 45.2004458,22.4587726 26.8949849,0.591362069 L26.8949849,0.591362069 C21.6027427,3.8148847 16.3884599,5.07852155 11.251137,4.38027478 L11.251137,4.38027478 Z" id="path-37"></path>
        <path d="M93.030129,0.971951509 C90.8666144,1.27762177 87.6203456,1.73313039 83.2923194,2.34347198 L83.2923194,2.34347198 C83.2903254,2.3574569 83.2873344,2.36944397 83.2863374,2.38342888 L83.2863374,2.38342888 C65.2902831,5.06753341 36.5235156,12.4745431 1.29711172,6.39709914 L1.29711172,6.39709914 L0.302094429,23.496653 C28.0768357,36.2968448 55.6561627,45.359069 78.0061654,40.3734472 L78.0061654,40.3734472 C74.0978811,83.8665291 79.3860291,118.274412 101.057067,115.223703 L101.057067,115.223703 C111.407042,113.767274 122.575562,112.192972 134.567614,110.504793 L134.567614,110.504793 C134.8727,73.9831907 113.927486,26.3525722 97.4488831,3.16059052 L97.4488831,3.16059052 C96.8785926,2.35845582 95.7519699,0.924003233 93.6951355,0.924003233 L93.6951355,0.924003233 C93.4827721,0.924003233 93.2614356,0.938987069 93.030129,0.971951509 L93.030129,0.971951509 Z" id="path-39"></path>
        <path d="M1.79499444,13.1108567 C1.35508333,19.5009634 3.99160417,25.2008147 7.89090556,29.8537953 L7.89090556,29.8537953 L0.904370833,62.984056 L21.1991986,62.984056 L17.7604292,38.2477403 C23.2396792,41.6051185 28.6187708,43.2253707 31.1453139,42.565083 L31.1453139,42.565083 C37.4768917,40.9048739 38.0582028,17.3343006 33.1612458,8.04232435 L33.1612458,8.04232435 C30.7545,3.48224353 23.4615986,0.183801724 16.5074681,0.184800647 L16.5074681,0.184800647 C9.29214028,0.184800647 2.44209583,3.73596983 1.79499444,13.1108567 L1.79499444,13.1108567 Z" id="path-41"></path>
        <path d="M0.195022183,16.2584612 C0.195022183,23.9960751 5.03493817,33.4193215 8.72056044,33.8012624 L8.72056044,33.8012624 C9.67587214,33.588394 10.4915994,32.4028494 11.2994071,30.7722163 L11.2994071,30.7722163 C9.78278786,30.0144455 8.72056044,28.2218694 8.72056044,25.9067982 L8.72056044,25.9067982 C8.72056044,23.6833927 10.6311838,21.5221164 12.9853095,21.5221164 L12.9853095,21.5221164 C13.8436051,21.5221164 14.6415131,21.809336 15.3107263,22.2809057 L15.3107263,22.2809057 C16.8560543,19.7193552 18.7983565,17.8045581 21.5108477,18.0143709 L21.5108477,18.0143709 L19.8041562,12.7517343 L9.57192631,11.8717424 L9.57192631,10.9958245 C21.3811629,11.0834163 29.5958537,10.5721247 34.2971752,9.23991481 L34.2971752,9.23991481 C34.0823538,5.12411942 29.9245205,0.468514199 18.9527903,0.468514199 L18.9527903,0.468514199 C6.7455896,0.468514199 0.195022183,7.78955781 0.195022183,16.2584612 L0.195022183,16.2584612 Z" id="path-43"></path>
        <polygon id="path-45" points="0.169113752 0.777161638 31.1796019 110.280036 53.8110011 190.98997 70.3165033 190.98997 46.2685277 0.777161638"></polygon>
        <path d="M39.0840161,0.777161638 C38.3592874,57.216278 35.8821243,87.9990711 35.1221658,93.1255409 L35.1221658,93.1255409 C34.3581809,98.2560065 22.8339876,130.875818 0.549585949,190.98997 L0.549585949,190.98997 L17.8504711,190.98997 C46.2205809,133.319182 62.0589232,100.699371 65.3624783,93.1255409 L65.3624783,93.1255409 C68.6650268,85.554708 78.8615574,54.7719149 94.2197669,0.777161638 L94.2197669,0.777161638 L39.0840161,0.777161638 Z" id="path-47"></path>
        <path d="M0.860985299,0.635104356 L0.0107868318,19.6514326 L8.50198467,19.6514326 L8.50198467,17.8418058 L19.540836,19.6514326 L51.4512263,19.6514326 L51.4512263,15.9270293 C37.9922021,12.0144079 27.0720059,6.91885209 18.6935794,0.635104356 L18.6935794,0.635104356 L0.860985299,0.635104356 Z" id="path-49"></path>
        <path d="M1.60805093,0.635104356 L0.756149177,19.6514326 L9.30379372,19.6514326 L9.30379372,17.8418058 L20.4160278,19.6514326 L52.5365736,19.6514326 L52.5365736,15.9259778 C38.9880782,12.0144079 27.9972623,6.91885209 19.5591903,0.635104356 L19.5591903,0.635104356 L1.60805093,0.635104356 Z" id="path-51"></path>
        <path d="M0.715946917,13.2781979 L24.0562109,30.5109125 C29.2670421,40.9568613 32.4848587,45.5748941 33.7145912,44.3581198 L33.7145912,44.3581198 C35.5567246,42.5359115 33.1978471,39.9251627 34.2421829,38.4947637 L34.2421829,38.4947637 C35.2865187,37.0614114 40.1896703,38.4593237 44.7871146,39.9852138 L44.7871146,39.9852138 C49.3845588,41.5081507 48.5364674,39.092322 47.6637222,37.7830097 L47.6637222,37.7830097 C43.5938697,33.7418619 38.2331432,29.8749608 31.583515,26.1852599 L31.583515,26.1852599 L10.1041214,0.409529235 L0.715946917,13.2781979 Z" id="path-53"></path>
        <path d="M8.42657857,1.53073311 C6.43099221,11.2350034 -1.47121314,37.2893357 0.63122662,46.0713816 L0.63122662,46.0713816 C6.8851192,72.2372573 30.5808521,89.4199108 55.1017307,110.471724 L55.1017307,110.471724 L65.1340785,98.4927661 C38.4929512,67.3353261 25.1738717,33.6860876 18.1700265,0.109551491 L18.1700265,0.109551491 L8.42657857,1.53073311 Z" id="path-55"></path>
        <path d="M1.04212361,1.32574934 C-1.1008203,1.83289456 0.748640183,9.54560013 2.89158409,9.03845491 L2.89158409,9.03845491 C6.64302314,8.15325597 10.9525956,9.17881631 15.9510818,12.3559019 L15.9510818,12.3559019 C17.8077506,13.5361671 20.2750709,12.9993103 21.4623916,11.159244 L21.4623916,11.159244 C22.6497123,9.31610411 22.1059956,6.86131631 20.2493268,5.68002653 L20.2493268,5.68002653 C15.1900844,2.46400862 10.2729497,0.802211538 5.55147074,0.803236074 L5.55147074,0.803236074 C4.02741645,0.803236074 2.52292771,0.97535809 1.04212361,1.32574934 L1.04212361,1.32574934 Z" id="path-57"></path>
        <path d="M0.382885054,92.0849012 C26.6378602,98.8077875 47.6229447,101.781372 63.347089,101.002647 L63.347089,101.002647 C65.2953275,100.90443 66.3594496,92.6681927 65.7915863,90.2959399 L65.7915863,90.2959399 C56.971307,53.3701762 51.5303612,26.4806354 54.9226233,2.18183117 L54.9226233,2.18183117 C52.2235323,3.14797047 47.7959888,2.72102509 41.6389982,0.906006145 L41.6389982,0.906006145 C21.2575793,23.5581642 9.48659878,51.1893472 0.382885054,92.0849012 L0.382885054,92.0849012 Z" id="path-59"></path>
        <path d="M88.0039849,2.23558836 L88.3317892,2.30051832 L73.8207217,28.1376466 L88.3317892,2.30051832 C79.6464709,9.23204095 69.9707653,26.4554612 59.3096542,53.9747748 L59.3096542,53.9747748 L73.8207217,28.1376466 L59.3096542,53.9747748 L59.0575737,54.3613578 C59.0715228,54.3543653 59.0824829,54.3473728 59.096432,54.3393815 L59.096432,54.3393815 C57.5231708,64.5523642 58.9957991,75.382681 55.7914875,85.7684774 L55.7914875,85.7684774 C55.4198432,86.9671843 55.0063515,88.1728836 54.5559943,89.378583 L54.5559943,89.378583 C52.9677876,89.1947812 51.4164465,90.15075 50.9013255,91.7360399 L50.9013255,91.7360399 L49.8431854,94.9885313 C49.8431854,94.9885313 49.8431854,94.9885313 49.8431854,94.991528 L49.8431854,94.991528 C49.4506173,96.2012231 49.7634761,97.4758481 50.5595722,98.3598944 L50.5595722,98.3598944 C36.1670722,126.583448 5.48798131,156.059651 0.231156802,184.1024 L0.231156802,184.1024 C21.0322799,179.004899 40.7403899,183.910607 58.6321256,188.82031 L58.6321256,188.82031 C72.5742684,192.647182 85.4154273,196.470058 96.8078707,195.557043 L96.8078707,195.557043 C120.299181,127.265712 92.5225026,39.5163718 100.645871,2.26156034 L100.645871,2.26156034 L95.5723775,1.5463319 L90.9821215,0.900029095 C89.9847596,1.33755711 88.9903868,1.78107866 88.0039849,2.23558836 L88.0039849,2.23558836 Z" id="path-61"></path>
        <path d="M1.276135,3.13619131 C0.991483333,5.00084648 2.39341944,6.72466067 4.40090667,6.98948138 L4.40090667,6.98948138 C6.40839389,7.25132658 8.26982389,5.95003531 8.55021111,4.08637197 L8.55021111,4.08637197 C8.83166444,2.22270864 7.42972833,0.498894442 5.42224111,0.233081897 L5.42224111,0.233081897 C5.248465,0.210269626 5.07682111,0.199359409 4.90730944,0.199359409 L4.90730944,0.199359409 C3.10664778,0.199359409 1.53306778,1.43023019 1.276135,3.13619131 L1.276135,3.13619131 Z M2.88702889,23.1524711 C2.60557556,25.0161344 4.00431333,26.7399486 6.01499889,27.0017938 L6.01499889,27.0017938 C8.02248611,27.2666145 9.87965167,25.9653233 10.161105,24.1016599 L10.161105,24.1016599 C10.4425583,22.2379966 9.04382056,20.5102151 7.03633333,20.2483699 L7.03633333,20.2483699 C6.86255722,20.2265494 6.69091333,20.2156392 6.52033556,20.2156392 L6.52033556,20.2156392 C4.71647556,20.2156392 3.14396167,21.4455182 2.88702889,23.1524711 L2.88702889,23.1524711 Z M0.864616111,42.6906851 C0.578898333,44.5543484 1.98190056,46.2791544 3.98938778,46.5439751 L3.98938778,46.5439751 C5.99580889,46.8058203 7.85723889,45.5084964 8.13442778,43.6408657 L8.13442778,43.6408657 C8.42014556,41.7772024 7.01714333,40.0523964 5.00965611,39.7875757 L5.00965611,39.7875757 C4.83694611,39.7647634 4.66530222,39.7538532 4.49579056,39.7538532 L4.49579056,39.7538532 C2.69512889,39.7538532 1.12154889,40.9876995 0.864616111,42.6906851 L0.864616111,42.6906851 Z" id="path-63"></path>
        <path d="M1.04416699,10.956181 C0.675336968,16.1256045 2.89444725,20.7436228 6.17713662,24.5085614 L6.17713662,24.5085614 L0.291181597,51.3166422 L17.3789438,51.3166422 L14.4885833,31.299236 C19.0964043,34.0143071 23.6306637,35.3268912 25.7537352,34.7934666 L25.7537352,34.7934666 C31.0879777,33.4459203 31.5763454,14.3744935 27.4517836,6.8546056 L27.4517836,6.8546056 C25.4257727,3.16458621 19.2854169,0.49646444 13.4301126,0.49646444 L13.4301126,0.49646444 C7.35514498,0.49646444 1.58770597,3.3693653 1.04416699,10.956181 L1.04416699,10.956181 Z" id="path-65"></path>
        <path d="M10.152129,1.0904993 C6.67007258,2.01771528 3.72347903,4.02376747 2.42351129,7.77150839 L2.42351129,7.77150839 C-2.28629247,15.4254139 1.28965054,23.3951949 6.10262634,26.1175555 L6.10262634,26.1175555 C7.38608656,24.6878545 8.50447151,23.2999463 9.50317688,21.9722974 L9.50317688,21.9722974 C8.70153011,21.2346067 8.2063043,20.2063106 8.2063043,19.0642993 L8.2063043,19.0642993 C8.2063043,16.8201256 10.1376849,15.0006829 12.5199274,15.0006829 L12.5199274,15.0006829 C12.6922247,15.0006829 12.8624586,15.0113741 13.030629,15.0288687 L13.030629,15.0288687 C13.2916543,22.9208957 13.8632274,28.118748 14.7422532,30.6311729 L14.7422532,30.6311729 C16.1103145,34.5149832 24.0824183,35.4713569 26.8629048,35.4713569 L26.8629048,35.4713569 C29.6114081,35.4713569 29.1089602,32.6673547 29.1089602,31.1754506 L29.1089602,31.1754506 C29.1089602,30.7857089 28.5642118,30.7857089 27.9524016,30.7857089 L27.9524016,30.7857089 C27.1590086,30.7886247 26.2490312,30.7886247 26.2490312,29.9313872 L26.2490312,29.9313872 C26.2490312,28.4112973 29.8693382,27.4665867 30.6142403,26.4829991 L30.6142403,26.4829991 C31.5139005,25.2953073 31.8192898,23.6935757 30.4574188,23.6935757 L30.4574188,23.6935757 C28.5941317,23.6935757 24.9851737,26.2332145 20.7334538,26.2332145 L20.7334538,26.2332145 C17.9003495,26.2332145 16.1515833,21.9023188 15.4912823,13.2337241 L15.4912823,13.2337241 C16.9821183,11.137283 18.4182731,9.54235485 20.2825919,8.61513886 L20.2825919,8.61513886 C27.8667688,8.72691018 28.7571435,7.44494175 28.7571435,3.12765308 L28.7571435,3.12765308 C27.530428,2.30346109 23.2054559,0.912637116 18.3666871,0.519007689 L18.3666871,0.519007689 C17.3752038,0.252700373 16.3104683,0.112743243 15.2085909,0.112743243 L15.2085909,0.112743243 C13.5650602,0.112743243 11.8379602,0.424731011 10.152129,1.0904993 L10.152129,1.0904993 Z" id="path-67"></path>
        <polygon id="path-69" points="0.156102562 0.224274194 25.082125 88.6441258 43.2700495 153.81721 56.5348153 153.81721 37.2067493 0.224274194"></polygon>
        <path d="M31.3946401,0.224274194 C30.8089453,45.7967903 28.8229802,70.6553419 28.2083005,74.7939484 L28.2083005,74.7939484 C27.5976188,78.9365419 18.3364448,105.2763 0.431775,153.81721 L0.431775,153.81721 L14.3315318,153.81721 C37.1266531,107.249913 49.8550203,80.9101548 52.509637,74.7939484 L52.509637,74.7939484 C55.1652531,68.681729 63.3579839,43.8221806 75.6955547,0.224274194 L75.6955547,0.224274194 L31.3946401,0.224274194 Z" id="path-71"></path>
        <path d="M0.878673902,0.213902586 L0.187437209,14.5092371 L7.13649819,14.5092371 L7.13649819,13.1467069 L16.1681948,14.5092371 L42.284446,14.5092371 L42.284446,11.7060388 C31.2702786,8.76902931 22.3327964,4.93636379 15.4729912,0.213902586 L15.4729912,0.213902586 L0.878673902,0.213902586 Z" id="path-73"></path>
        <path d="M1.61315938,0.213902586 L0.910525521,14.4730983 L0.910525521,14.5092371 L7.915875,14.5092371 L7.915875,13.1467069 L17.0181318,14.5092371 L43.3384161,14.5092371 L43.3384161,11.7070155 C32.2401995,8.77000603 23.2318937,4.93734052 16.3174969,0.213902586 L16.3174969,0.213902586 L1.61315938,0.213902586 Z" id="path-75"></path>
        <path d="M39.7474806,0.44434336 C35.4952424,2.49744773 31.0351125,5.58702265 26.3680952,9.71505182 L26.3680952,9.71505182 L0.461981481,19.366626 L8.00834855,30.0001197 L27.7349578,16.6470066 C37.2989788,15.4230787 41.7721647,14.1773303 41.149494,12.9097616 L41.149494,12.9097616 C40.2185009,11.0084084 37.5450341,12.1272015 36.705433,10.9439389 L36.705433,10.9439389 C35.8658319,9.76067636 38.2731571,6.36462353 40.6965513,3.23835061 L40.6965513,3.23835061 C42.5263997,0.878768342 41.7671432,0.30548606 40.7457624,0.30548606 L40.7457624,0.30548606 C40.4143409,0.30548606 40.0547988,0.364996332 39.7474806,0.44434336 L39.7474806,0.44434336 Z M54.4756511,23.6414472 C52.4087862,23.3905122 50.2384775,25.942511 47.9637209,31.2994273 L47.9637209,31.2994273 L36.5819032,35.5554035 L35.6950996,46.0936808 C40.7206547,43.480188 45.2721766,41.9071332 49.3516739,41.3725326 L49.3516739,41.3725326 C57.1531351,40.3509396 60.4151261,39.1954485 64.7396745,35.0961826 L64.7396745,35.0961826 C67.0535991,32.9042209 69.4257736,28.1791054 67.7867436,26.3045318 L67.7867436,26.3045318 C66.6789924,25.0379549 58.5842734,29.3950986 55.4930147,29.5875151 L55.4930147,29.5875151 C53.9835404,29.6817397 54.1100832,28.1424074 54.4364831,26.603075 L54.4364831,26.603075 C54.75284,25.1083754 55.259011,23.6136757 54.6393533,23.6136757 L54.6393533,23.6136757 C54.5921508,23.6136757 54.5379182,23.6226023 54.4756511,23.6414472 L54.4756511,23.6414472 Z" id="path-77"></path>
        <path d="M4.09932724,5.22180997 C-2.33146799,10.3501908 0.324708841,20.9894963 8.07481657,22.3925045 L8.07481657,22.3925045 C17.9077414,24.1697178 30.1169888,18.8797721 39.2644172,11.5832954 L39.2644172,11.5832954 L36.1236148,0.0173373313 C23.4453435,6.15367429 12.2931062,6.35797564 4.09932724,5.22180997 L4.09932724,5.22180997 Z" id="path-79"></path>
        <path d="M15.4737065,43.5600097 C13.2061448,59.7425528 -3.18687028,67.9017511 1.02530642,94.2912834 L1.02530642,94.2912834 C5.82393857,94.0275679 13.8114223,96.3850248 22.3308765,98.7424817 L22.3308765,98.7424817 C36.3533039,102.621297 51.8161134,106.501112 56.8841981,98.6985291 L56.8841981,98.6985291 C60.8477256,92.597111 62.7527152,85.5756853 63.3995993,78.0048524 L63.3995993,78.0048524 C76.0212699,79.5122263 91.8743893,77.4983987 110.998583,70.6557802 L110.998583,70.6557802 C112.023889,66.1416498 110.708327,58.1552651 107.052887,46.6966261 L107.052887,46.6966261 C85.2440745,51.1927759 70.0824178,51.7072209 61.5679167,48.2419591 L61.5679167,48.2419591 C59.297383,32.8915183 56.1085315,17.2284149 56.9485893,3.5431778 L56.9485893,3.5431778 L48.4548915,2.34047522 L37.977944,0.856076509 C37.9660564,0.854078664 37.9541688,0.853079741 37.9402999,0.853079741 L37.9402999,0.853079741 C35.6885883,0.856076509 17.942367,25.9410162 15.4737065,43.5600097 L15.4737065,43.5600097 Z" id="path-81"></path>
        <path d="M15.4236819,0.0936937997 C5.14524861,17.3152187 -0.788174074,41.4398609 0.607215741,78.0963007 L0.607215741,78.0963007 L19.4962498,78.0963007 C36.9939153,42.3828437 49.3031032,16.383318 56.4167764,0.0936937997 L56.4167764,0.0936937997 L15.4236819,0.0936937997 Z" id="path-83"></path>
        <path d="M15.4236819,0.0947012599 C5.14524861,17.3152187 -0.78716875,41.4398609 0.607215741,78.0963007 L0.607215741,78.0963007 L19.4962498,78.0963007 C36.9939153,42.3828437 49.3031032,16.383318 56.4157711,0.0947012599 L56.4157711,0.0947012599 L15.4236819,0.0947012599 Z" id="path-85"></path>
        <path d="M33.9073307,46.2998898 C27.0758906,50.7203966 16.2595271,48.9026087 3.32826562,46.2095525 L3.32826562,46.2095525 L0.739614583,55.186072 C13.6239005,65.7394798 38.8877354,72.6251919 47.7281286,65.4102504 L47.7281286,65.4102504 C61.8617635,53.8761807 60.7523417,19.9595315 57.5430141,1.11616792 L57.5430141,1.11616792 L52.0918547,0.952556972 C42.074075,13.8637691 41.1335651,41.6234273 33.9073307,46.2998898 L33.9073307,46.2998898 Z" id="path-87"></path>
        <path d="M22.8050051,0.0109393103 L9.6156951,4.02467172 C13.2061901,29.616691 1.9997945,50.9563021 0.954221705,69.4367752 L0.954221705,69.4367752 C0.863863562,71.0378924 0.894644907,74.1814524 3.03245899,73.8801241 L3.03245899,73.8801241 C13.0234879,72.4739255 28.6226794,70.2781076 49.8300333,67.2936648 L49.8300333,67.2936648 C43.4642525,37.9504566 36.5007179,16.3900703 22.8179134,0.00895034483 L22.8179134,0.00895034483 L22.8050051,0.0109393103 Z" id="path-89"></path>
        <path d="M4.50888117,1.63494129 C-1.90919314,44.6658398 -1.38098976,72.6688117 6.09449934,85.6478374 L6.09449934,85.6478374 L48.859821,79.7150803 C46.7510395,69.7521879 43.0677281,59.4171299 38.6193283,49.459213 L38.6193283,49.459213 C50.7559098,65.3309802 60.6607313,76.595457 68.3348007,83.2536385 L68.3348007,83.2536385 L78.0188654,79.9489276 C66.0234069,41.6377653 43.3308218,15.2816758 9.93607013,0.881654281 L9.93607013,0.881654281 L4.50888117,1.63494129 Z" id="path-91"></path>
        <path d="M7.91887344,10.479695 C6.63354323,16.299417 8.3236625,21.9153588 11.3440885,26.7381562 L11.3440885,26.7381562 L0.276855729,56.2653039 L19.2939458,59.0812662 L19.4458667,35.8323459 C24.1194312,39.681194 28.9409187,41.9227759 31.3976385,41.663056 L31.3976385,41.663056 C37.5564292,41.0127575 41.3194682,19.3960765 37.9932016,10.1610388 L37.9932016,10.1610388 C36.1221766,4.96364547 27.9974104,0.403564655 20.5932687,0.403564655 L20.5932687,0.403564655 C14.847263,0.403564655 9.53603073,3.15060129 7.91887344,10.479695 L7.91887344,10.479695 Z" id="path-93"></path>
        <polygon id="path-95" points="0.463440091 0.0952530511 29.3160665 102.376977 50.3667885 177.765255 65.7209764 177.765255 43.3515387 0.0952530511"></polygon>
        <path d="M35.5516654,0.0952530511 C34.8825888,52.8143075 32.6045422,81.5666917 31.9026091,86.3574188 L31.9026091,86.3574188 C31.200676,91.1441353 20.5980019,121.615085 0.0836345785,177.765255 L0.0836345785,177.765255 L16.0060653,177.765255 C42.1219581,123.89815 56.6982704,93.4272006 59.7389847,86.3574188 L59.7389847,86.3574188 C62.7826859,79.2806185 72.1666848,50.5272316 86.2999329,0.0952530511 L86.2999329,0.0952530511 L35.5516654,0.0952530511 Z" id="path-97"></path>
        <path d="M1.4387969,0.909537356 L0.644943917,18.3254167 L0.644943917,18.3440632 L8.59234915,18.3440632 L8.59234915,16.6824483 L18.9203272,18.3440632 L48.7830056,18.3440632 L48.7830056,14.9296724 C36.1878623,11.3443549 25.9713196,6.66925 18.1245019,0.909537356 L18.1245019,0.909537356 L1.4387969,0.909537356 Z" id="path-99"></path>
        <path d="M1.26819247,0.909537356 L0.474339486,18.3440632 L8.42075857,18.3440632 L8.42075857,16.6824483 L18.7497228,18.3440632 L48.6124012,18.3440632 L48.6124012,14.9296724 C36.0182441,11.3443549 25.8007151,6.66925 17.9548836,0.909537356 L17.9548836,0.909537356 L1.26819247,0.909537356 Z" id="path-101"></path>
        <path d="M5.14931667,19.3703931 C15.7497927,31.2561491 34.4380542,40.0066207 50.8974771,43.8910526 L50.8974771,43.8910526 L55.6170177,31.2795905 C35.7373771,22.7088362 22.0764958,11.007681 12.9892313,1.37913448 L12.9892313,1.37913448 C11.7968526,1.09783793 10.6804344,0.965980172 9.642975,0.966956897 L9.642975,0.966956897 C0.606683854,0.967933621 -2.34377865,10.9666586 5.14931667,19.3703931 L5.14931667,19.3703931 Z" id="path-103"></path>
        <path d="M21.7690937,47.57368 C17.6118707,65.9009095 -2.07063599,73.670528 0.271166582,104.319466 L0.271166582,104.319466 C14.9819536,104.74201 53.6760292,128.336557 64.2684738,114.749214 L64.2684738,114.749214 C69.4206388,108.138346 72.2888236,100.275828 73.7583072,91.6621196 L73.7583072,91.6621196 C88.1660257,94.604945 106.641243,93.8247866 129.350447,87.8212629 L129.350447,87.8212629 C130.964487,82.7497338 130.207812,73.4717425 127.080424,59.9882877 L127.080424,59.9882877 C101.504032,63.0389968 83.9689253,62.1689353 74.4790919,57.3781034 L74.4790919,57.3781034 C73.325637,39.5703136 71.1393564,21.3100119 73.4123704,5.71183836 L73.4123704,5.71183836 L51.7918202,0.801135776 C51.7688907,0.796141164 51.7439673,0.794143319 51.71705,0.794143319 L51.71705,0.794143319 C48.9724853,0.795142241 26.279232,27.7011175 21.7690937,47.57368 L21.7690937,47.57368 Z" id="path-105"></path>
        <path d="M28.3358105,0.36726968 L8.4183274,7.29155961 C6.87650187,7.39473124 4.93704242,7.49397251 2.60889581,7.59026603 L2.60889581,7.59026603 C0.277766948,7.68557696 -0.49165469,9.51810154 0.302619068,13.0839094 L0.302619068,13.0839094 C26.2482324,15.1178643 39.9864844,16.1977273 41.5163809,16.3146552 L41.5163809,16.3146552 C42.1555775,13.8640834 42.5263711,11.993238 42.6297559,10.6962232 L42.6297559,10.6962232 C42.7162413,9.6035866 42.4209981,7.90567643 41.7390559,5.60838824 L41.7390559,5.60838824 C41.728121,5.57989322 41.7211624,5.5513982 41.7102275,5.52388577 L41.7102275,5.52388577 C41.4627003,4.85867443 40.7151486,4.52262971 40.0431472,4.76729385 L40.0431472,4.76729385 C37.9814154,5.52388577 36.3928678,5.85305238 35.2765106,5.76854991 L35.2765106,5.76854991 C33.9434429,5.66144793 32.2485283,5.03652266 30.1897787,3.88984374 L30.1897787,3.88984374 L29.1648772,0.775043247 C29.1648772,0.768165138 29.161895,0.765217377 29.161895,0.76128703 L29.161895,0.76128703 C29.0674569,0.497953739 28.8169476,0.331896552 28.5485447,0.331896552 L28.5485447,0.331896552 C28.4779646,0.331896552 28.4063905,0.342705008 28.3358105,0.36726968 L28.3358105,0.36726968 Z" id="path-107"></path>
        <path d="M28.6660092,0.368241095 L8.75203187,7.29040322 C7.20718759,7.39354315 5.27066464,7.49275393 2.9394807,7.58901785 L2.9394807,7.58901785 C0.611279079,7.68822863 -0.15716663,9.51626095 0.633149461,13.0809731 L0.633149461,13.0809731 C26.5823582,15.1143029 40.3209348,16.1938341 41.8478851,16.3146552 L41.8478851,16.3146552 C42.4870967,13.8609073 42.856905,11.9906368 42.9612864,10.6950029 L42.9612864,10.6950029 C43.0517502,9.60171974 42.7535177,7.90433133 42.0705653,5.60774908 L42.0705653,5.60774908 C42.0636066,5.57926282 42.0516773,5.55077656 42.0417362,5.52229029 L42.0417362,5.52229029 C41.7932091,4.85924794 41.0496161,4.52134192 40.3775989,4.76593087 L40.3775989,4.76593087 C38.3158183,5.52229029 36.7252451,5.85626718 35.6108497,5.76786153 L35.6108497,5.76786153 C34.2747681,5.66079247 32.5788194,5.03605924 30.5200211,3.8887504 L30.5200211,3.8887504 L29.4960896,0.775889355 C29.4960896,0.7729425 29.4960896,0.766066505 29.4921131,0.762137365 L29.4921131,0.762137365 C29.3996611,0.49790271 29.1481517,0.331896552 28.8797424,0.331896552 L28.8797424,0.331896552 C28.8091607,0.331896552 28.737585,0.343683971 28.6660092,0.368241095 L28.6660092,0.368241095 Z" id="path-109"></path>
        <polygon id="path-111" points="0.332638889 11.6946407 8.63986455 148.172414 197.563194 136.806673 189.256973 0.331896552"></polygon>
        <linearGradient x1="37.0339713%" y1="69.4039021%" x2="53.0458667%" y2="-57.7660044%" id="linearGradient-113">
            <stop stop-color="#0CD2C2" offset="0%"></stop>
            <stop stop-color="#3455B5" offset="100%"></stop>
        </linearGradient>
        <linearGradient x1="45.7110123%" y1="69.4039021%" x2="51.0075317%" y2="-57.7660044%" id="linearGradient-114">
            <stop stop-color="#0CD2C2" offset="0%"></stop>
            <stop stop-color="#3455B5" offset="100%"></stop>
        </linearGradient>
        <linearGradient x1="125.906149%" y1="-25.3003888%" x2="29.9996331%" y2="135.034199%" id="linearGradient-115">
            <stop stop-color="#FFFFFF" offset="0%"></stop>
            <stop stop-color="#00BFD6" offset="58.129223%"></stop>
            <stop stop-color="#2A3B93" offset="100%"></stop>
        </linearGradient>
    </defs>
    <g id="Community_module_HD_size" stroke="none" stroke-width="1" fill="none" fill-rule="evenodd">
        <path d="M2830,201.560078 L2830,508 L2259,508 L2259,201.560078 C2259,190.759003 2270.98561,182 2285.77089,182 L2803.23446,182 C2818.01439,182 2830,190.759003 2830,201.560078 Z" id="Fill-153" fill="#2F3676"></path>
        <polygon id="Fill-154" fill="#2A3B93" points="2454 606 2634 606 2634 515 2454 515"></polygon>
        <polygon id="Triangle" fill="#2A3B93" points="2634 530 2679 602 2589 602"></polygon>
        <polygon id="Triangle" fill="#2A3B93" points="2454 530 2499 602 2409 602"></polygon>
        <path d="M2803.23446,530 L2285.77089,530 C2270.98561,530 2259,525.778006 2259,520.571698 L2259,508 L2830,508 L2830,520.571698 C2830,525.778006 2818.01439,530 2803.23446,530" id="Fill-155" fill="#4D4BA7"></path>
        <polygon id="Fill-156" fill="#4D4BA7" points="2383 630 2706 630 2706 602 2383 602"></polygon>
        <g id="Group-33" transform="translate(2043.000000, 346.000000)">
            <mask id="mask-2" fill="white">
                <use xlink:href="#path-1"></use>
            </mask>
            <g id="Clip-32"></g>
            <polygon id="Fill-31" fill="#BFCAFF" mask="url(#mask-2)" points="-3.66527778 166.280475 54.4678107 170.814655 68.2972222 -0.461509905 10.1651411 -4.99568966"></polygon>
        </g>
        <g id="Group-36" transform="translate(2075.000000, 346.000000)">
            <mask id="mask-4" fill="white">
                <use xlink:href="#path-3"></use>
            </mask>
            <g id="Clip-35"></g>
            <polygon id="Fill-34" fill="#BFCAFF" mask="url(#mask-4)" points="-15.9916667 170.725127 52.704289 176.142241 66.6319444 1.75332148 -2.06300552 -3.6637931"></polygon>
        </g>
        <g id="Group-48" transform="translate(2072.000000, 345.000000)">
            <mask id="mask-6" fill="white">
                <use xlink:href="#path-5"></use>
            </mask>
            <g id="Clip-47"></g>
            <polygon id="Fill-46" fill="#101C5A" mask="url(#mask-6)" points="-9.32847222 83.6344249 46.0419097 87.9051724 53.3055556 -1.05683866 -2.06482634 -5.32758621"></polygon>
        </g>
        <g id="Group-27" transform="translate(2066.000000, 230.000000)">
            <mask id="mask-8" fill="white">
                <use xlink:href="#path-7"></use>
            </mask>
            <g id="Clip-26"></g>
            <polygon id="Fill-25" fill="#BFCAFF" mask="url(#mask-8)" points="-6.66319444 56.9311358 32.3339074 59.9353448 37.3138889 -0.991480585 -1.68321297 -3.99568966"></polygon>
        </g>
        <g id="Group-30" transform="translate(2071.000000, 210.000000)">
            <mask id="mask-10" fill="white">
                <use xlink:href="#path-9"></use>
            </mask>
            <g id="Clip-29"></g>
            <polygon id="Fill-28" fill="#2A3B93" mask="url(#mask-10)" points="-5.33055556 49.0176937 119.140029 58.9353448 123.935417 -1.73651959 -0.535167966 -11.6551724"></polygon>
        </g>
        <g id="Group-24" transform="translate(1475.000000, 186.000000)">
            <path d="M250.3273,78.8016929 L261.5083,82.1466132 C266.4023,79.3512013 269.5623,78.6511017 270.9883,80.0463144 C272.5723,80.6377091 265.7863,83.5617717 268.2533,85.2102968 C270.7203,86.8588219 279.4563,88.2151402 279.5523,89.8347437 C279.6933,92.2282466 275.0983,94.4831257 272.0413,94.8232026 C266.3273,95.46147 263.1623,94.4512124 256.6173,90.7013912 C253.1963,88.7397162 248.8013,87.3026172 243.4313,86.3900942 L250.3273,78.8016929 Z" id="Fill-2" fill="#BFCAFF"></path>
            <path d="M592.3068,114.90878 L566.0568,102.588224 C561.5288,97.8480915 557.1298,94.2189428 552.8618,91.702773 C551.5778,91.2579804 549.3668,91.0754758 551.6358,94.5719845 C553.9048,98.0694905 556.1328,101.850228 555.1568,103.029028 C554.1808,104.207828 551.4828,102.805634 550.3488,104.734399 C549.5938,106.020906 554.1608,107.703339 564.0478,109.785687 L583.5328,125.50003 L592.3068,114.90878 Z" id="Fill-4" fill="#BFCAFF"></path>
            <path d="M567.8712,69.4793983 L568.8682,43.0431594 L522.9662,41.321832 C521.2572,41.2570079 519.9252,39.8219035 519.9882,38.11753 L520.1822,32.9864583 C520.3082,29.6664704 521.4762,26.4920873 523.4332,23.8023885 C526.0882,20.1532939 526.9372,15.4640229 525.6002,10.8345895 C523.8642,4.83786762 518.3132,0.768912788 512.0632,0.533551675 C511.9892,0.531557089 511.9202,0.531557089 511.8512,0.528565211 C508.0982,0.438808854 504.4802,1.79014067 501.6602,4.32625638 C498.8412,6.85938022 497.1292,10.3090162 496.8362,14.0358996 C496.5902,17.1903369 497.3372,20.2649907 498.9912,22.925768 C500.7702,25.7820148 501.6462,29.0192274 501.5232,32.2863587 L501.3302,37.4174305 C501.2662,39.1218039 499.8232,40.4531899 498.1172,40.3893631 L452.2122,38.6670384 L452.2112,38.6899761 L451.2152,65.1032773 L450.7052,78.6155981 C450.6402,80.3459012 452.0172,81.7660462 453.7512,81.8199 C455.8662,81.8837268 457.9452,81.2913348 459.7512,80.1743668 C463.6972,77.7309993 468.5202,76.5851099 473.6072,77.3141309 C483.0372,78.6694519 490.4402,86.5889544 491.1312,96.0642338 C492.0372,108.496486 481.9592,118.61502 469.8172,118.159257 C465.5472,117.998693 461.6262,116.548629 458.4182,114.202996 C456.7842,113.003253 454.8832,112.228356 452.8572,112.152562 L452.5392,112.140595 C450.8302,112.076768 449.3932,113.408154 449.3292,115.112527 L447.8232,155.035157 L547.5412,158.776003 C556.8962,159.12705 564.7652,151.845815 565.1162,142.513148 L567.8712,69.4793983 Z" id="Fill-6" fill="#2A3B93"></path>
            <path d="M567.8712,69.4793983 L567.8712,69.4793983 L568.8682,43.0431594 L522.9662,41.321832 C521.2572,41.2570079 519.9252,39.8219035 519.9882,38.11753 L520.1822,32.9864583 C520.3082,29.6664704 521.4762,26.4920873 523.4332,23.8023885 C526.0882,20.1532939 526.9372,15.4640229 525.6002,10.8345895 C523.8642,4.83786762 518.3132,0.768912788 512.0632,0.533551675 C511.9892,0.531557089 511.9202,0.531557089 511.8512,0.528565211 C508.0982,0.438808854 504.4802,1.79014067 501.6602,4.32625638 C498.8412,6.85938022 497.1292,10.3090162 496.8362,14.0358996 C496.5902,17.1903369 497.3372,20.2649907 498.9912,22.925768 C500.7702,25.7820148 501.6462,29.0192274 501.5232,32.2863587 L501.3302,37.4174305 C501.2662,39.1218039 499.8232,40.4531899 498.1172,40.3893631 L452.2122,38.6670384 L452.2112,38.6899761 L451.2152,65.1032773 L450.7052,78.6155981 C450.6402,80.3459012 452.0172,81.7660462 453.7512,81.8199 C455.8662,81.8837268 457.9452,81.2913348 459.7512,80.1743668 C463.6972,77.7309993 468.5202,76.5851099 473.6072,77.3141309 C483.0372,78.6694519 490.4402,86.5889544 491.1312,96.0642338 C492.0372,108.496486 481.9592,118.61502 469.8172,118.159257 C465.5472,117.998693 461.6262,116.548629 458.4182,114.202996 C456.7842,113.003253 454.8832,112.228356 452.8572,112.152562 L452.5392,112.140595 C450.8302,112.076768 449.3932,113.408154 449.3292,115.112527 L447.8232,155.035157 L547.5412,158.776003 C556.8962,159.12705 564.7652,151.845815 565.1162,142.513148 L567.8712,69.4793983 Z" id="Stroke-8"></path>
            <path d="M335.4289,320.231333 L335.4289,320.231333 L361.9349,321.225634 L363.6609,275.444905 C363.7259,273.743524 365.1679,272.409146 366.8739,272.472973 L372.0209,272.666447 C375.3529,272.791109 378.5329,273.96592 381.2299,275.91463 C384.8889,278.562443 389.5919,279.409144 394.2329,278.074767 C400.2429,276.340474 404.3259,270.808491 404.5619,264.569427 C404.5649,264.500614 404.5679,264.4318 404.5669,264.362987 C404.6569,260.620147 403.3049,257.011942 400.7619,254.197581 C398.2189,251.389204 394.7629,249.680842 391.0199,249.391627 C387.8599,249.144298 384.7799,249.886284 382.1089,251.538798 C379.2459,253.30999 376.0029,254.181624 372.7229,254.05796 L367.5749,253.864485 C365.8689,253.801656 364.5319,252.367549 364.5959,250.661181 L366.3229,204.883444 L366.3019,204.882447 L339.8169,203.889143 L326.2709,203.380524 C324.5329,203.3157 323.1099,204.687975 323.0559,206.418278 C322.9909,208.533536 323.5849,210.599927 324.7049,212.401038 C327.1579,216.339347 328.3049,221.150288 327.5729,226.222519 C326.2169,235.623999 318.2729,243.010947 308.7729,243.696087 C296.3069,244.599635 286.1609,234.545925 286.6169,222.446769 C286.7789,218.181347 288.2319,214.271959 290.5899,211.072644 C291.7869,209.445062 292.5639,207.547213 292.6399,205.526698 L292.6529,205.211554 C292.7159,203.50718 291.3839,202.073073 289.6719,202.008249 L249.6409,200.506326 L245.8899,299.954374 C245.5379,309.286044 252.8389,317.133741 262.1969,317.484788 L335.4289,320.231333 Z" id="Fill-10" fill="#2A3B93"></path>
            <path d="M335.4289,320.231333 L335.4289,320.231333 L361.9349,321.225634 L363.6609,275.444905 C363.7259,273.743524 365.1679,272.409146 366.8739,272.472973 L372.0209,272.666447 C375.3529,272.791109 378.5329,273.96592 381.2299,275.91463 C384.8889,278.562443 389.5919,279.409144 394.2329,278.074767 C400.2429,276.340474 404.3259,270.808491 404.5619,264.569427 C404.5649,264.500614 404.5679,264.4318 404.5669,264.362987 C404.6569,260.620147 403.3049,257.011942 400.7619,254.197581 C398.2189,251.389204 394.7629,249.680842 391.0199,249.391627 C387.8599,249.144298 384.7799,249.886284 382.1089,251.538798 C379.2459,253.30999 376.0029,254.181624 372.7229,254.05796 L367.5749,253.864485 C365.8689,253.801656 364.5319,252.367549 364.5959,250.661181 L366.3229,204.883444 L366.3019,204.882447 L339.8169,203.889143 L326.2709,203.380524 C324.5329,203.3157 323.1099,204.687975 323.0559,206.418278 C322.9909,208.533536 323.5849,210.599927 324.7049,212.401038 C327.1579,216.339347 328.3049,221.150288 327.5729,226.222519 C326.2169,235.623999 318.2729,243.010947 308.7729,243.696087 C296.3069,244.599635 286.1609,234.545925 286.6169,222.446769 C286.7789,218.181347 288.2319,214.271959 290.5899,211.072644 C291.7869,209.445062 292.5639,207.547213 292.6399,205.526698 L292.6529,205.211554 C292.7159,203.50718 291.3839,202.073073 289.6719,202.008249 L249.6409,200.506326 L245.8899,299.954374 C245.5379,309.286044 252.8389,317.133741 262.1969,317.484788 L335.4289,320.231333 Z" id="Stroke-12"></path>
            <path d="M487.1349,235.865643 L487.1349,235.865643 L488.1319,209.428407 L442.2269,207.707079 C440.5149,207.642255 439.1829,206.210143 439.2469,204.503775 L439.4409,199.372703 C439.5659,196.052715 440.7409,192.876338 442.6969,190.185641 C445.3489,186.536547 446.1989,181.84927 444.8639,177.220834 C443.1279,171.224112 437.5769,167.152166 431.3219,166.916805 C431.2529,166.91481 431.1809,166.917802 431.1119,166.91481 C427.3619,166.826051 423.7409,168.176385 420.9219,170.709509 C418.1019,173.245625 416.3899,176.695261 416.0999,180.422144 C415.8519,183.57359 416.5959,186.651236 418.2559,189.309021 C420.0299,192.165268 420.9049,195.404475 420.7809,198.672604 L420.5879,203.803675 C420.5239,205.511041 419.0869,206.839435 417.3749,206.774611 L371.4709,205.053283 L371.4699,205.076221 L370.4739,231.489522 L369.9639,245.001843 C369.8989,246.732146 371.2779,248.151294 373.0099,248.205148 C375.1299,248.269972 377.2089,247.67758 379.0089,246.560612 C382.9579,244.117244 387.7839,242.971355 392.8679,243.700376 C402.2979,245.055697 409.7049,252.975199 410.3919,262.453471 C411.2979,274.882731 401.2169,284.998273 389.0819,284.54251 C384.8049,284.381946 380.8839,282.931882 377.6769,280.586249 C376.0449,279.389498 374.1439,278.611609 372.1159,278.535815 L371.7999,278.523848 C370.0939,278.460021 368.6519,279.794399 368.5869,281.49578 L367.0819,321.41841 L466.7989,325.159256 C476.1569,325.510303 484.0289,318.23206 484.3799,308.899393 L487.1349,235.865643 Z" id="Fill-14" fill="#2A3B93"></path>
            <path d="M487.1349,235.865643 L487.1349,235.865643 L488.1319,209.428407 L442.2269,207.707079 C440.5149,207.642255 439.1829,206.210143 439.2469,204.503775 L439.4409,199.372703 C439.5659,196.052715 440.7409,192.876338 442.6969,190.185641 C445.3489,186.536547 446.1989,181.84927 444.8639,177.220834 C443.1279,171.224112 437.5769,167.152166 431.3219,166.916805 C431.2529,166.91481 431.1809,166.917802 431.1119,166.91481 C427.3619,166.826051 423.7409,168.176385 420.9219,170.709509 C418.1019,173.245625 416.3899,176.695261 416.0999,180.422144 C415.8519,183.57359 416.5959,186.651236 418.2559,189.309021 C420.0299,192.165268 420.9049,195.404475 420.7809,198.672604 L420.5879,203.803675 C420.5239,205.511041 419.0869,206.839435 417.3749,206.774611 L371.4709,205.053283 L371.4699,205.076221 L370.4739,231.489522 L369.9639,245.001843 C369.8989,246.732146 371.2779,248.151294 373.0099,248.205148 C375.1299,248.269972 377.2089,247.67758 379.0089,246.560612 C382.9579,244.117244 387.7839,242.971355 392.8679,243.700376 C402.2979,245.055697 409.7049,252.975199 410.3919,262.453471 C411.2979,274.882731 401.2169,284.998273 389.0819,284.54251 C384.8049,284.381946 380.8839,282.931882 377.6769,280.586249 C376.0449,279.389498 374.1439,278.611609 372.1159,278.535815 L371.7999,278.523848 C370.0939,278.460021 368.6519,279.794399 368.5869,281.49578 L367.0819,321.41841 L466.7989,325.159256 C476.1569,325.510303 484.0289,318.23206 484.3799,308.899393 L487.1349,235.865643 Z" id="Stroke-16"></path>
            <path d="M348.8839,120.285784 C353.1569,120.445351 357.0809,121.895415 360.2879,124.242045 C361.9199,125.438797 363.8219,126.209704 365.8489,126.286496 L366.1649,126.297466 C367.8769,126.36229 369.3139,125.033896 369.3779,123.332514 L370.8839,83.4088867 L271.1649,79.6680412 C261.8079,79.3179915 253.9369,86.5962347 253.5849,95.924912 L250.8309,168.936722 L249.8339,195.37296 L295.7389,197.095285 C297.4509,197.159112 298.7829,198.592222 298.7189,200.29859 L298.5259,205.432653 C298.4009,208.751644 297.2279,211.927024 295.2749,214.615726 C292.6169,218.265818 291.7669,222.955089 293.1089,227.58153 C294.8409,233.578252 300.3889,237.650199 306.6449,237.884563 C306.7129,237.887555 306.7849,237.890547 306.8549,237.887555 C310.6079,237.976314 314.2249,236.631963 317.0469,234.092855 C319.8629,231.55674 321.5759,228.106106 321.8659,224.38022 C322.1139,221.227778 321.3699,218.154121 319.7099,215.492346 C317.9369,212.638094 317.0609,209.399884 317.1849,206.131756 L317.3779,200.999687 C317.4429,199.292321 318.8789,197.96293 320.5909,198.026757 L366.4959,199.749081 L367.4929,173.312843 L368.0009,159.825454 C368.0659,158.121081 366.7339,156.685976 365.0219,156.622149 C362.8789,156.541369 360.7799,157.136753 358.9559,158.264691 C355.0099,160.710053 350.1809,161.85694 345.0999,161.126921 C335.6669,159.772598 328.2599,151.849106 327.5729,142.373826 C326.6699,129.943568 336.7479,119.830022 348.8839,120.285784" id="Fill-18" fill="#2A3B93"></path>
            <path d="M348.8839,120.285784 C353.1569,120.445351 357.0809,121.895415 360.2879,124.242045 C361.9199,125.438797 363.8219,126.209704 365.8489,126.286496 L366.1649,126.297466 C367.8769,126.36229 369.3139,125.033896 369.3779,123.332514 L370.8839,83.4088867 L271.1649,79.6680412 C261.8079,79.3179915 253.9369,86.5962347 253.5849,95.924912 L250.8309,168.936722 L249.8339,195.37296 L295.7389,197.095285 C297.4509,197.159112 298.7829,198.592222 298.7189,200.29859 L298.5259,205.432653 C298.4009,208.751644 297.2279,211.927024 295.2749,214.615726 C292.6169,218.265818 291.7669,222.955089 293.1089,227.58153 C294.8409,233.578252 300.3889,237.650199 306.6449,237.884563 C306.7129,237.887555 306.7849,237.890547 306.8549,237.887555 C310.6079,237.976314 314.2249,236.631963 317.0469,234.092855 C319.8629,231.55674 321.5759,228.106106 321.8659,224.38022 C322.1139,221.227778 321.3699,218.154121 319.7099,215.492346 C317.9369,212.638094 317.0609,209.399884 317.1849,206.131756 L317.3779,200.999687 C317.4429,199.292321 318.8789,197.96293 320.5909,198.026757 L366.4959,199.749081 L367.4929,173.312843 L368.0009,159.825454 C368.0659,158.121081 366.7339,156.685976 365.0219,156.622149 C362.8789,156.541369 360.7799,157.136753 358.9559,158.264691 C355.0099,160.710053 350.1809,161.85694 345.0999,161.126921 C335.6669,159.772598 328.2599,151.849106 327.5729,142.373826 C326.6699,129.943568 336.7479,119.830022 348.8839,120.285784 Z" id="Stroke-20"></path>
            <polygon id="Fill-22" fill="#235677" points="0.853 610.73915 1183.756 610.73915 1183.756 467.71439 0.853 467.71439"></polygon>
        </g>
        <g id="Group-45" transform="translate(2058.000000, 343.000000)">
            <mask id="mask-12" fill="white">
                <use xlink:href="#path-11"></use>
            </mask>
            <g id="Clip-44"></g>
            <polygon id="Fill-43" fill="#2F3676" mask="url(#mask-12)" points="-3.29675118 84.4668003 49.8646819 88.7698981 56.8950924 -1.59918545 3.73267217 -5.90329037"></polygon>
        </g>
        <g id="Group-54" transform="translate(2042.000000, 289.000000)">
            <mask id="mask-14" fill="white">
                <use xlink:href="#path-13"></use>
            </mask>
            <g id="Clip-53"></g>
            <polygon id="Fill-52" fill="#4057CA" mask="url(#mask-14)" points="45.6959717 1.11653912 -1.67588225 -3.66701857 -4.429019 25.9113302 42.942835 30.6948879"></polygon>
        </g>
        <g id="Group-57" transform="translate(2014.000000, 269.000000)">
            <mask id="mask-16" fill="white">
                <use xlink:href="#path-15"></use>
            </mask>
            <g id="Clip-56"></g>
            <polygon id="Fill-55" fill="#2A3B93" mask="url(#mask-16)" points="113.0404 -4.97152586 -6.80545535 2.24834004 -0.0700592183 113.083838 119.776787 105.864959"></polygon>
        </g>
        <g id="Group-77" transform="translate(-311.000000, 487.000000)">
            <path d="M3705.30063,158.151634 C3685.9398,160.741199 3141.10134,231.719835 2644.46766,85.0762084 C2138.77543,-64.240775 1786.85101,28.6673708 1786.85101,28.6673708 L1786.85101,200.39068 L3705.30063,200.39068 L3705.30063,158.151634 Z" id="Fill-58" fill="#235677"></path>
            <path d="M-7.2475359e-13,170.34873 C195.278591,183.502617 577.33471,190.088261 934.561018,85.0762084 C1442.50709,-64.240775 1796,28.6673708 1796,28.6673708 L1796,200.39068 L0,200.39068 L0,170.34873 Z" id="Combined-Shape" fill="#235677"></path>
            <polygon id="Fill-60" fill="#EF5764" points="3702.91921 90.8015823 3704.85419 90.8015823 3704.85419 79.3550242 3702.91921 79.3550242"></polygon>
            <path d="M3707.9999,157.42883 L3707.55174,79.3548247 C3335.25815,-49.7324247 2821.54205,140.399144 2821.53004,140.404132 C2554.50879,207.378716 2211.17775,262.201495 1786.85221,115.7065 L1786.85221,295.096758 L1785.9999,295.096758 L1785.9999,310.829666 L3707.9999,310.829666 L3707.9999,157.42883 Z" id="Fill-62" fill="#000C4C"></path>
        </g>
        <g id="Group-80" transform="translate(2790.000000, 341.000000)">
            <mask id="mask-18" fill="white">
                <use xlink:href="#path-17"></use>
            </mask>
            <g id="Clip-79"></g>
            <polygon id="Fill-78" fill="#2A3B93" mask="url(#mask-18)" points="-2.8958553 56.7822031 45.4391432 56.7822031 45.4391432 -2.68648467 -2.8958553 -2.68648467"></polygon>
        </g>
        <path d="M2821.11428,371.348509 C2824.9548,366.902427 2827.55345,361.455181 2827.119,355.349772 C2825.86806,337.760307 2801.04279,341.629751 2796.21341,350.507002 C2791.38504,359.385247 2791.9586,381.903977 2798.2002,383.490727 C2800.68797,384.124035 2805.9901,382.573076 2811.38699,379.364779 L2807.99906,403 L2828,403 L2821.11428,371.348509 Z" id="Fill-81" fill="#D4A181"></path>
        <g id="Group-85" transform="translate(2794.000000, 343.000000)">
            <mask id="mask-20" fill="white">
                <use xlink:href="#path-19"></use>
            </mask>
            <g id="Clip-84"></g>
            <polygon id="Fill-83" fill="#D4A181" mask="url(#mask-20)" points="-30.920998 61.6117441 77.2914268 61.6117441 77.2914268 -25.4811461 -30.920998 -25.4811461"></polygon>
        </g>
        <g id="Group-88" transform="translate(2794.000000, 343.000000)">
            <mask id="mask-22" fill="white">
                <use xlink:href="#path-21"></use>
            </mask>
            <g id="Clip-87"></g>
            <polygon id="Fill-86" fill="#BFCAFF" mask="url(#mask-22)" points="-2.6294446 64.5636198 37.8613073 64.5636198 37.8613073 -3.43096552 -2.6294446 -3.43096552"></polygon>
        </g>
        <g id="Group-91" transform="translate(2798.000000, 342.000000)">
            <mask id="mask-24" fill="white">
                <use xlink:href="#path-23"></use>
            </mask>
            <g id="Clip-90"></g>
            <polygon id="Fill-89" fill="#2A3B93" mask="url(#mask-24)" points="-2.84367757 55.0331614 48.6498367 55.0331614 48.6498367 -2.83927676 -2.84367757 -2.83927676"></polygon>
        </g>
        <g id="Group-94" transform="translate(2774.000000, 474.000000)">
            <mask id="mask-26" fill="white">
                <use xlink:href="#path-25"></use>
            </mask>
            <g id="Clip-93"></g>
            <polygon id="Fill-92" fill="#4D4BA7" mask="url(#mask-26)" points="-3.49817708 185.326869 71.5007406 185.326869 71.5007406 -3.2289226 -3.49817708 -3.2289226"></polygon>
        </g>
        <g id="Group-97" transform="translate(2798.000000, 474.000000)">
            <mask id="mask-28" fill="white">
                <use xlink:href="#path-27"></use>
            </mask>
            <g id="Clip-96"></g>
            <polygon id="Fill-95" fill="#2F3676" mask="url(#mask-28)" points="-3.41031176 185.326869 93.9330955 185.326869 93.9330955 -3.2289226 -3.41031176 -3.2289226"></polygon>
        </g>
        <g id="Group-100" transform="translate(2836.000000, 652.000000)">
            <mask id="mask-30" fill="white">
                <use xlink:href="#path-29"></use>
            </mask>
            <g id="Clip-99"></g>
            <polygon id="Fill-98" fill="#E1E1E1" mask="url(#mask-30)" points="-3.2862875 22.8732203 54.737476 22.8732203 54.737476 -3.10927745 -3.2862875 -3.10927745"></polygon>
        </g>
        <g id="Group-103" transform="translate(2742.000000, 652.000000)">
            <mask id="mask-32" fill="white">
                <use xlink:href="#path-31"></use>
            </mask>
            <g id="Clip-102"></g>
            <polygon id="Fill-101" fill="#E1E1E1" mask="url(#mask-32)" points="-3.04241458 22.8732203 54.9803495 22.8732203 54.9803495 -3.10927745 -3.04241458 -3.10927745"></polygon>
        </g>
        <g id="Group-106" transform="translate(2707.000000, 383.000000)">
            <mask id="mask-34" fill="white">
                <use xlink:href="#path-33"></use>
            </mask>
            <g id="Clip-105"></g>
            <polygon id="Fill-104" fill="#BFCAFF" mask="url(#mask-34)" points="62.0849472 -11.5115326 -3.43890797 -2.42109195 13.0135186 113.13228 78.5373738 104.042826"></polygon>
        </g>
        <g id="Group-109" transform="translate(2747.000000, 391.000000)">
            <mask id="mask-36" fill="white">
                <use xlink:href="#path-35"></use>
            </mask>
            <g id="Clip-108"></g>
            <polygon id="Fill-107" fill="#FFFFFF" mask="url(#mask-36)" points="68.0926166 -6.23403109 -23.2138032 32.3592961 4.9005463 98.3144035 96.2079656 59.7210763"></polygon>
        </g>
        <g id="Group-112" transform="translate(2794.000000, 386.000000)">
            <mask id="mask-38" fill="white">
                <use xlink:href="#path-37"></use>
            </mask>
            <g id="Clip-111"></g>
            <polygon id="Fill-110" fill="#071769" mask="url(#mask-38)" points="53.0711444 -6.79247263 -17.2052343 3.07887866 -3.09758583 103.408648 67.1797923 93.5372968"></polygon>
        </g>
        <g id="Group-115" transform="translate(2731.000000, 385.000000)">
            <mask id="mask-40" fill="white">
                <use xlink:href="#path-39"></use>
            </mask>
            <g id="Clip-114"></g>
            <polygon id="Fill-113" fill="#FFFFFF" mask="url(#mask-40)" points="121.944155 -14.298076 -6.16880812 3.74246282 11.7534673 131.50464 139.86643 113.4651"></polygon>
        </g>
        <g id="Group-118" transform="translate(2279.000000, 351.000000)">
            <mask id="mask-42" fill="white">
                <use xlink:href="#path-41"></use>
            </mask>
            <g id="Clip-117"></g>
            <polygon id="Fill-116" fill="#BFCAFF" mask="url(#mask-42)" points="-2.85549444 66.8069321 40.1792028 66.8069321 40.1792028 -3.6410722 -2.85549444 -3.6410722"></polygon>
        </g>
        <g id="Group-121" transform="translate(2278.000000, 349.000000)">
            <mask id="mask-44" fill="white">
                <use xlink:href="#path-43"></use>
            </mask>
            <g id="Clip-120"></g>
            <polygon id="Fill-119" fill="#2A3B93" mask="url(#mask-44)" points="-3.59454591 37.7001154 38.0867433 37.7001154 38.0867433 -3.42932023 -3.59454591 -3.42932023"></polygon>
        </g>
        <g id="Group-124" transform="translate(2260.000000, 487.000000)">
            <mask id="mask-46" fill="white">
                <use xlink:href="#path-45"></use>
            </mask>
            <g id="Clip-123"></g>
            <polygon id="Fill-122" fill="#4D4BA7" mask="url(#mask-46)" points="-3.6409196 194.812846 74.1225575 194.812846 74.1225575 -3.04671336 -3.6409196 -3.04671336"></polygon>
        </g>
        <g id="Group-127" transform="translate(2212.000000, 487.000000)">
            <mask id="mask-48" fill="white">
                <use xlink:href="#path-47"></use>
            </mask>
            <g id="Clip-126"></g>
            <polygon id="Fill-125" fill="#2F3676" mask="url(#mask-48)" points="-3.30154196 194.812846 98.0729079 194.812846 98.0729079 -3.04671336 -3.30154196 -3.04671336"></polygon>
        </g>
        <g id="Group-130" transform="translate(2212.000000, 674.000000)">
            <mask id="mask-50" fill="white">
                <use xlink:href="#path-49"></use>
            </mask>
            <g id="Clip-129"></g>
            <polygon id="Fill-128" fill="#E1E1E1" mask="url(#mask-50)" points="-3.74205 23.6755127 55.5629704 23.6755127 55.5629704 -3.39107872 -3.74205 -3.39107872"></polygon>
        </g>
        <g id="Group-133" transform="translate(2311.000000, 674.000000)">
            <mask id="mask-52" fill="white">
                <use xlink:href="#path-51"></use>
            </mask>
            <g id="Clip-132"></g>
            <polygon id="Fill-131" fill="#E1E1E1" mask="url(#mask-52)" points="-3.02360957 23.6755127 56.6766384 23.6755127 56.6766384 -3.39107872 -3.02360957 -3.39107872"></polygon>
        </g>
        <g id="Group-136" transform="translate(2315.000000, 483.000000)">
            <mask id="mask-54" fill="white">
                <use xlink:href="#path-53"></use>
            </mask>
            <g id="Clip-135"></g>
            <polygon id="Fill-134" fill="#BFCAFF" mask="url(#mask-54)" points="0.485483013 -5.29424826 58.7503476 6.01112131 49.8690557 51.6234243 -8.3958089 40.3180548"></polygon>
        </g>
        <g id="Group-139" transform="translate(2275.000000, 402.000000)">
            <mask id="mask-56" fill="white">
                <use xlink:href="#path-55"></use>
            </mask>
            <g id="Clip-138"></g>
            <polygon id="Fill-137" fill="#FFFFFF" mask="url(#mask-56)" points="6.75570785 -6.91797748 91.0630476 15.8219243 64.1666594 116.862261 -20.1406804 94.1223587"></polygon>
        </g>
        <g id="Group-142" transform="translate(2320.000000, 485.000000)">
            <mask id="mask-58" fill="white">
                <use xlink:href="#path-57"></use>
            </mask>
            <g id="Clip-141"></g>
            <polygon id="Fill-140" fill="#FFFFFF" mask="url(#mask-58)" points="-1.83113064 -5.71199204 28.1062386 1.71486804 23.8800772 18.5807765 -6.057292 11.1539164"></polygon>
        </g>
        <g id="Group-145" transform="translate(2246.000000, 397.000000)">
            <mask id="mask-60" fill="white">
                <use xlink:href="#path-59"></use>
            </mask>
            <g id="Clip-144"></g>
            <polygon id="Fill-143" fill="#191847" mask="url(#mask-60)" points="10.4949291 -7.9834776 82.5310225 2.21911372 67.8113299 107.761814 -4.22476363 97.560225"></polygon>
        </g>
        <g id="Group-148" transform="translate(2190.000000, 394.000000)">
            <mask id="mask-62" fill="white">
                <use xlink:href="#path-61"></use>
            </mask>
            <g id="Clip-147"></g>
            <polygon id="Fill-146" fill="#FFFFFF" mask="url(#mask-62)" points="-3.58293043 199.514774 110.283714 199.514774 110.283714 -2.92384591 -3.58293043 -2.92384591"></polygon>
        </g>
        <g id="Group-153" transform="translate(2248.000000, 370.000000)">
            <path d="M32.29677,25.6445201 C32.29677,25.6445201 9.07986844,27.9860649 0.311437708,78.6089777 L16.3041039,110.9619 L24.1839976,51.0213219 L32.29677,25.6445201 Z" id="Fill-149" fill="#FFFFFF"></path>
            <path d="M62.4353646,53.9653319 L51.789912,42.9377942 C86.525811,25.2757144 104.98919,16.0085432 107.182047,15.1333104 C112.113477,13.1660166 114.591186,5.0037774 116.243325,0.947409841 C122.209216,3.328558 114.780088,9.55815641 122.399117,12.4719689 C129.353493,15.1313302 137.020498,14.8857898 138.979477,23.7579181 C139.219352,24.849979 138.346807,27.1301387 135.329379,26.5133174 C127.808298,24.9806698 116.007448,23.6915826 113.351832,24.5291923 C109.731718,25.6717473 92.760562,35.4834639 62.4353646,53.9653319 L116.939062,14.8512359" id="Fill-151" fill="#BFCAFF"></path>
        </g>
        <g id="Group-156" transform="translate(2274.000000, 475.000000)">
            <mask id="mask-64" fill="white">
                <use xlink:href="#path-63"></use>
            </mask>
            <g id="Clip-155"></g>
            <polygon id="Fill-154" fill="#000000" mask="url(#mask-64)" points="-1.68754728 -4.52912839 19.1240077 -1.80851715 11.0993894 51.3063838 -9.7110995 48.5857726"></polygon>
        </g>
        <path d="M2358,398.454524 L2347.60255,385 C2321.54558,401.953862 2299.40047,411.126855 2281.16622,412.517977 L2281.16521,412.517977 C2281.16521,412.517977 2269.72319,424.14972 2259,433.640197 L2259.00201,433.640197 L2259.00201,444 C2288.03284,440.343422 2316.75302,428.413224 2345.16052,408.18036 C2346.8445,408.969564 2348.59987,409.506383 2350.4256,409.784807 C2352.19202,410.053217 2353.2939,404.810219 2352.39812,402.841215 C2354.26709,401.41504 2356.13405,399.952809 2358,398.454524" id="Fill-157" fill="#FFFFFF"></path>
        <g id="Group-161" transform="translate(2968.000000, 260.000000)">
            <mask id="mask-66" fill="white">
                <use xlink:href="#path-65"></use>
            </mask>
            <g id="Clip-160"></g>
            <polygon id="Fill-159" fill="#BFCAFF" mask="url(#mask-66)" points="-2.87197007 54.409306 33.3632809 54.409306 33.3632809 -2.59919612 -2.87197007 -2.59919612"></polygon>
        </g>
        <g id="Group-164" transform="translate(2968.000000, 260.000000)">
            <mask id="mask-68" fill="white">
                <use xlink:href="#path-67"></use>
            </mask>
            <g id="Clip-163"></g>
            <polygon id="Fill-162" fill="#2A3B93" mask="url(#mask-68)" points="-2.98167204 38.4823791 34.5791419 38.4823791 34.5791419 -2.89730697 -2.98167204 -2.89730697"></polygon>
        </g>
        <g id="Group-167" transform="translate(2954.000000, 370.000000)">
            <mask id="mask-70" fill="white">
                <use xlink:href="#path-69"></use>
            </mask>
            <g id="Clip-166"></g>
            <polygon id="Fill-165" fill="#191847" mask="url(#mask-70)" points="-2.90469325 156.906213 59.5946231 156.906213 59.5946231 -2.86472903 -2.90469325 -2.86472903"></polygon>
        </g>
        <g id="Group-170" transform="translate(2915.000000, 370.000000)">
            <mask id="mask-72" fill="white">
                <use xlink:href="#path-71"></use>
            </mask>
            <g id="Clip-169"></g>
            <polygon id="Fill-168" fill="#2F3676" mask="url(#mask-72)" points="-2.66561094 156.906213 78.7919411 156.906213 78.7919411 -2.86472903 -2.66561094 -2.86472903"></polygon>
        </g>
        <g id="Group-173" transform="translate(2914.000000, 522.000000)">
            <mask id="mask-74" fill="white">
                <use xlink:href="#path-73"></use>
            </mask>
            <g id="Clip-172"></g>
            <polygon id="Fill-171" fill="#E1E1E1" mask="url(#mask-74)" points="-2.88593798 17.5341517 45.6483984 17.5341517 45.6483984 -2.81198879 -2.88593798 -2.81198879"></polygon>
        </g>
        <g id="Group-176" transform="translate(2994.000000, 522.000000)">
            <mask id="mask-76" fill="white">
                <use xlink:href="#path-75"></use>
            </mask>
            <g id="Clip-175"></g>
            <polygon id="Fill-174" fill="#E1E1E1" mask="url(#mask-76)" points="-2.18486146 17.5341517 46.729649 17.5341517 46.729649 -2.81198879 -2.18486146 -2.81198879"></polygon>
        </g>
        <g id="Group-179" transform="translate(2995.000000, 310.000000)">
            <mask id="mask-78" fill="white">
                <use xlink:href="#path-77"></use>
            </mask>
            <g id="Clip-178"></g>
            <polygon id="Fill-177" fill="#BFCAFF" mask="url(#mask-78)" points="1.25749351 -8.30079021 75.2227373 1.96572345 67.8661844 53.6613044 -6.09905943 43.3947908"></polygon>
        </g>
        <g id="Group-182" transform="translate(2980.000000, 319.000000)">
            <mask id="mask-80" fill="white">
                <use xlink:href="#path-79"></use>
            </mask>
            <g id="Clip-181"></g>
            <polygon id="Fill-180" fill="#2026A2" mask="url(#mask-80)" points="-2.78713298 -2.48618808 42.0421892 -3.3231982 42.5112131 25.4040732 -2.3181091 26.2410833"></polygon>
        </g>
        <g id="Group-185" transform="translate(2931.000000, 296.000000)">
            <mask id="mask-82" fill="white">
                <use xlink:href="#path-81"></use>
            </mask>
            <g id="Clip-184"></g>
            <polygon id="Fill-183" fill="#1F28CF" mask="url(#mask-82)" points="9.67819912 -6.28032511 122.631303 9.72740657 107.885713 115.526276 -5.06739122 99.5185445"></polygon>
        </g>
        <g id="Group-220" transform="translate(3076.000000, 226.000000)">
            <path d="M76.2543182,310.271862 L76.2543182,310.271862 C75.0313617,310.271862 74.0380825,309.273889 74.0380825,308.042923 L74.0380825,189.929135 L78.4705539,189.929135 L78.4705539,308.042923 C78.4705539,309.273889 77.4782689,310.271862 76.2543182,310.271862" id="Fill-186" fill="#2A3B93"></path>
            <polygon id="Fill-188" fill="#2A3B93" points="74.0385796 205.529411 82.9025283 205.529411 82.9025283 187.700895 74.0385796 187.700895"></polygon>
            <path d="M87.3340055,205.529611 L80.6862925,205.529611 L80.6862925,201.072732 L87.3340055,201.072732 C88.5569619,201.072732 89.5502412,202.069705 89.5502412,203.300671 C89.5502412,204.531638 88.5569619,205.529611 87.3340055,205.529611" id="Fill-190" fill="#2A3B93"></path>
            <path d="M76.2543182,245.64372 L76.2543182,245.64372 C72.5834603,245.64372 69.6066053,242.650801 69.6066053,238.956901 L69.6066053,227.815204 L82.9030254,227.815204 L82.9030254,238.956901 C82.9030254,242.650801 79.9251761,245.64372 76.2543182,245.64372" id="Fill-191" fill="#2A3B93"></path>
            <path d="M5.34730256,310.271862 C4.7557098,310.271862 4.16709986,310.035868 3.73061377,309.567881 C2.89343545,308.669906 2.93817776,307.257944 3.83202967,306.417967 L74.7386476,239.560785 C75.6315053,238.717808 77.0344252,238.763807 77.8706093,239.661782 C78.7087819,240.559758 78.6630453,241.97072 77.7711819,242.811697 L6.86257544,309.668878 C6.43603209,310.072867 5.89017591,310.271862 5.34730256,310.271862" id="Fill-192" fill="#2A3B93"></path>
            <path d="M147.162328,310.271862 C146.619455,310.271862 146.073599,310.072867 145.647055,309.668878 L74.7384488,242.811697 C73.8465854,241.97072 73.8008488,240.559758 74.6390214,239.661782 C75.4742112,238.762807 76.8781254,238.715808 77.7709831,239.560785 L148.677601,306.417967 C149.570459,307.257944 149.616195,308.669906 148.779017,309.567881 C148.342531,310.035868 147.752927,310.271862 147.162328,310.271862" id="Fill-193" fill="#2A3B93"></path>
            <polygon id="Fill-194" fill="#CDFFFB" points="3.1309674 185.472956 153.809146 185.472956 153.809146 0.500986376 3.1309674 0.500986376"></polygon>
            <polygon id="Fill-195" fill="#2A3B93" points="0.915725936 188.681869 156.025382 188.681869 156.025382 182.262043 0.915725936 182.262043"></polygon>
            <path d="M107.276846,18.3296015 L49.6646596,18.3296015 C48.4407089,18.3296015 47.4484239,17.3326286 47.4484239,16.1006621 C47.4484239,14.8706956 48.4407089,13.8727227 49.6646596,13.8727227 L107.276846,13.8727227 C108.499802,13.8727227 109.493082,14.8706956 109.493082,16.1006621 C109.493082,17.3326286 108.499802,18.3296015 107.276846,18.3296015" id="Fill-196" fill="#2A3B93"></path>
            <path d="M67.3912644,94.1009409 L9.77907803,94.1009409 C8.5551273,94.1009409 7.5628423,93.102968 7.5628423,91.8720015 C7.5628423,90.642035 8.5551273,89.6440621 9.77907803,89.6440621 L67.3912644,89.6440621 C68.6142208,89.6440621 69.6075001,90.642035 69.6075001,91.8720015 C69.6075001,93.102968 68.6142208,94.1009409 67.3912644,94.1009409" id="Fill-197" fill="#2A3B93"></path>
            <path d="M96.1970593,94.1009409 L76.2539205,94.1009409 C75.030964,94.1009409 74.038679,93.102968 74.038679,91.8720015 C74.038679,90.642035 75.030964,89.6440621 76.2539205,89.6440621 L96.1970593,89.6440621 C97.42101,89.6440621 98.413295,90.642035 98.413295,91.8720015 C98.413295,93.102968 97.42101,94.1009409 96.1970593,94.1009409" id="Fill-198" fill="#2A3B93"></path>
            <path d="M125.003848,94.1009409 L105.06071,94.1009409 C103.837753,94.1009409 102.845468,93.102968 102.845468,91.8720015 C102.845468,90.642035 103.837753,89.6440621 105.06071,89.6440621 L125.003848,89.6440621 C126.226805,89.6440621 127.220084,90.642035 127.220084,91.8720015 C127.220084,93.102968 126.226805,94.1009409 125.003848,94.1009409" id="Fill-199" fill="#2A3B93"></path>
            <path d="M93.9813207,27.2443591 L62.959986,27.2443591 C61.735041,27.2443591 60.7437503,26.2463862 60.7437503,25.0154197 C60.7437503,23.7844532 61.735041,22.7874803 62.959986,22.7874803 L93.9813207,22.7874803 C95.2052714,22.7874803 96.1975564,23.7844532 96.1975564,25.0154197 C96.1975564,26.2463862 95.2052714,27.2443591 93.9813207,27.2443591" id="Fill-200" fill="#2A3B93"></path>
            <path d="M147.162328,82.9586439 L9.7785809,82.9586439 C8.55562444,82.9586439 7.56333944,81.9606711 7.56333944,80.7297045 C7.56333944,79.498738 8.55562444,78.5007651 9.7785809,78.5007651 L147.162328,78.5007651 C148.385285,78.5007651 149.378564,79.498738 149.378564,80.7297045 C149.378564,81.9606711 148.385285,82.9586439 147.162328,82.9586439" id="Fill-201" fill="#2A3B93"></path>
            <path d="M54.0987219,116.386435 C53.3818507,116.386435 52.6798936,116.038444 52.2523559,115.394462 L48.4790878,109.700617 L31.9373589,109.700617 C30.7134081,109.700617 29.7211231,108.702644 29.7211231,107.472677 C29.7211231,106.241711 30.7134081,105.243738 31.9373589,105.243738 L49.6642619,105.243738 C50.4049957,105.243738 51.0960158,105.615728 51.5086393,106.236711 L55.9401165,112.921529 C56.6182111,113.946501 56.3437916,115.329464 55.3246612,116.012445 C54.9478315,116.266438 54.5202939,116.386435 54.0987219,116.386435" id="Fill-202" fill="#2A3B93"></path>
            <path d="M102.842386,116.386435 C102.420814,116.386435 101.993276,116.266438 101.616447,116.012445 C100.597316,115.329464 100.322897,113.946501 101.000991,112.921529 L105.432469,106.236711 C105.845092,105.615728 106.536112,105.243738 107.276846,105.243738 L125.003749,105.243738 C126.2277,105.243738 127.219985,106.241711 127.219985,107.472677 C127.219985,108.702644 126.2277,109.700617 125.003749,109.700617 L108.46202,109.700617 L104.688752,115.394462 C104.261214,116.038444 103.559257,116.386435 102.842386,116.386435" id="Fill-203" fill="#2A3B93"></path>
            <path d="M131.651064,165.415401 L113.924161,165.415401 C113.183427,165.415401 112.491413,165.043412 112.079784,164.423428 L107.648307,157.73661 C106.971206,156.713638 107.245626,155.328676 108.263762,154.645694 C109.280904,153.962713 110.656978,154.240705 111.336067,155.264678 L115.11033,160.958523 L131.651064,160.958523 C132.874021,160.958523 133.8673,161.955496 133.8673,163.186462 C133.8673,164.417429 132.874021,165.415401 131.651064,165.415401" id="Fill-204" fill="#2A3B93"></path>
            <path d="M25.2900436,163.186962 C25.2900436,164.416929 24.2977586,165.415901 23.0738079,165.415901 C21.8498572,165.415901 20.8585664,164.416929 20.8585664,163.186962 C20.8585664,161.955996 21.8498572,160.958023 23.0738079,160.958023 C24.2977586,160.958023 25.2900436,161.955996 25.2900436,163.186962" id="Fill-205" fill="#2A3B93"></path>
            <path d="M34.152998,163.186962 C34.152998,164.416929 33.1617073,165.415901 31.9367623,165.415901 C30.7138058,165.415901 29.7215208,164.416929 29.7215208,163.186962 C29.7215208,161.955996 30.7138058,160.958023 31.9367623,160.958023 C33.1617073,160.958023 34.152998,161.955996 34.152998,163.186962" id="Fill-206" fill="#2A3B93"></path>
            <path d="M43.0170461,163.186962 C43.0170461,164.416929 42.0247611,165.415901 40.8008104,165.415901 C39.5768596,165.415901 38.5845746,164.416929 38.5845746,163.186962 C38.5845746,161.955996 39.5768596,160.958023 40.8008104,160.958023 C42.0247611,160.958023 43.0170461,161.955996 43.0170461,163.186962" id="Fill-207" fill="#2A3B93"></path>
            <path d="M14.2102569,76.2723257 C13.643521,76.2723257 13.0757908,76.0543317 12.6442761,75.6203435 C11.7782639,74.7503671 11.7782639,73.3384055 12.6442761,72.4684292 L23.722472,61.3257322 C24.5029767,60.5417535 25.7378644,60.452756 26.6187908,61.1187379 L33.9455926,66.6445876 L48.0970879,52.4119746 C48.8437874,51.6599951 50.0130531,51.5439982 50.8939794,52.1319823 L56.0294023,55.5768886 L59.1772723,52.4119746 C59.9239718,51.6599951 61.0912489,51.5439982 61.9721753,52.1319823 L67.1085924,55.5768886 L79.1194169,43.4972171 C79.897933,42.7122384 81.1338151,42.6242408 82.0157357,43.2902227 L89.3415432,48.8160724 L94.6310784,43.4972171 C95.4404171,42.6822392 96.7359555,42.6242408 97.6158876,43.3602208 L109.4726,53.2969506 L123.560462,41.1522808 C124.439399,40.3943015 125.750846,40.4433001 126.570128,41.2682777 L129.55096,44.2661962 L143.5036,32.2375233 C144.431258,31.4365451 145.831195,31.5445421 146.629596,32.4795167 C147.425015,33.4144913 147.317634,34.821453 146.387988,35.6224312 L130.877321,48.9940676 C130.000371,49.750047 128.68793,49.7020483 127.868649,48.8770708 L124.887817,45.8781523 L110.934182,57.9078252 C110.1149,58.6168059 108.904869,58.6248057 108.073657,57.9278246 L96.334269,48.0870923 L91.1173157,53.3349495 C90.336811,54.1179282 89.1029175,54.2069258 88.2209969,53.5419439 L80.8941951,48.0150942 L68.9579412,60.0197677 C68.2102475,60.7707473 67.0439646,60.8877441 66.162044,60.2977602 L61.0256269,56.8548538 L57.8787511,60.0197677 C57.1320517,60.7707473 55.962786,60.8877441 55.0818596,60.2977602 L49.9464367,56.8548538 L35.7203708,71.1634647 C34.9408604,71.9464434 33.7049784,72.035441 32.824052,71.3704591 L25.4982445,65.8436094 L15.7772321,75.6203435 C15.3447231,76.0543317 14.7769929,76.2723257 14.2102569,76.2723257" id="Fill-208" fill="#2A3B93"></path>
            <path d="M78.866076,167.644241 C94.9941871,167.644241 108.06789,154.672594 108.06789,138.672029 C108.06789,122.672464 94.9941871,109.700817 78.866076,109.700817 C62.7379648,109.700817 49.6642619,122.672464 49.6642619,138.672029 C49.6642619,154.672594 62.7379648,167.644241 78.866076,167.644241 Z" id="Fill-209" fill="#0CD2C2"></path>
            <path d="M104.321169,124.45649 C99.2338749,115.635212 89.5670946,109.672617 78.4700568,109.672617 L78.4700568,138.671829 L104.321169,124.45649 Z" id="Fill-211" fill="#2A3B93"></path>
            <path d="M78.4700568,138.672029 L78.4700568,109.700817 C62.5616801,109.700817 49.6639636,122.672464 49.6639636,138.672029 C49.6639636,154.672594 62.5616801,167.644241 78.4700568,167.644241 C85.4866452,167.644241 91.9136294,165.11831 96.909854,160.927424 L78.4700568,138.672029 Z" id="Fill-213" fill="#00BFD6"></path>
            <path d="M78.4700568,138.672029 L78.4700568,109.700817 C62.5616801,109.700817 49.6639636,122.672464 49.6639636,138.672029 C49.6639636,154.672594 62.5616801,167.644241 78.4700568,167.644241 C85.4866452,167.644241 91.9136294,165.11831 96.909854,160.927424 L78.4700568,138.672029 Z" id="Stroke-214"></path>
            <path d="M208.78345,90.6069359 C211.633038,87.2430274 213.562923,83.1201395 213.239784,78.5002652 C212.311132,65.1876272 193.887243,68.1165475 190.302887,74.8353648 C186.719526,81.5531821 187.14408,98.5957187 191.777395,99.795686 C193.623761,100.275673 197.559096,99.1017049 201.56403,96.6737709 L199.050506,114.561284 L213.894016,114.561284 L208.78345,90.6069359 Z" id="Fill-215" fill="#BFCAFF"></path>
            <path d="M205.854022,69.020623 C198.397964,66.4226936 188.721694,69.458611 190.015244,75.5474455 C190.847451,79.4583391 195.350516,81.412286 199.780999,83.5012292 C200.433242,82.3632601 201.676084,81.593281 203.102867,81.593281 C205.20675,81.593281 206.910934,83.2642356 206.910934,85.3261795 C206.910934,86.0691593 206.690206,86.7601405 206.308405,87.3411247 C207.798821,88.6450893 208.850762,90.2140466 209.105296,92.2499912 C211.507461,92.2499912 215.389105,85.1571841 214.107486,78.4273671 C214.443551,78.4643661 214.784587,78.4843656 215.130594,78.4843656 C220.254085,78.4843656 224.40816,74.3064792 224.40816,69.1536193 C224.40816,63.9997595 220.254085,59.8228731 215.130594,59.8228731 C210.051845,59.8228731 205.924615,63.9287614 205.854022,69.020623" id="Fill-216" fill="#2A3B93"></path>
            <polygon id="Fill-217" fill="#BFCAFF" points="228.184884 167.087256 205.563172 245.64112 194.922457 304.618516 184.243959 304.618516 194.903566 167.087256"></polygon>
            <path d="M238.351033,177.740266 C236.773121,218.548157 237.395536,240.804551 237.749497,244.51245 C238.10147,248.22035 240.107914,273.050674 253.774204,316.515492 L242.667174,316.515492 C224.567419,274.818626 218.24881,249.988301 216.172767,244.51245 C214.096724,239.037599 207.966033,216.780205 199.014588,177.740266 L238.351033,177.740266 Z" id="Fill-218" fill="#BFCAFF"></path>
            <path d="M237.749,167.087256 C230.711532,183.255816 218.539635,209.064114 201.232316,244.51315 L182.55091,244.51315 C181.171852,208.12814 187.041049,184.180791 197.206502,167.087256 L237.749,167.087256 Z" id="Fill-219" fill="#272361"></path>
        </g>
        <g id="Group-223" transform="translate(3258.000000, 393.000000)">
            <mask id="mask-84" fill="white">
                <use xlink:href="#path-83"></use>
            </mask>
            <g id="Clip-222"></g>
            <polygon id="Fill-221" fill="#272361" mask="url(#mask-84)" points="-72.6215951 90.0568684 151.420907 90.0568684 151.420907 0.0926863395 -72.6215951 0.0926863395"></polygon>
        </g>
        <g id="Group-226" transform="translate(3258.000000, 393.000000)">
            <mask id="mask-86" fill="white">
                <use xlink:href="#path-85"></use>
            </mask>
            <g id="Clip-225"></g>
            <polygon id="Fill-224" fill="#272361" mask="url(#mask-86)" points="-2.92046644 79.7636474 59.7403778 79.7636474 59.7403778 -1.57264539 -2.92046644 -1.57264539"></polygon>
        </g>
        <g id="Group-233" transform="translate(3208.000000, 366.000000)">
            <path d="M124.514157,182.748283 L123.894719,172.842639 C120.269862,173.893721 115.729314,173.481649 110.274073,171.604434 C104.373954,175.752024 96.9377089,178.576805 87.9653385,180.077781 C87.364853,180.17831 86.9598744,180.745655 87.0606203,181.345847 C87.0676027,181.38566 87.0765801,181.425474 87.0875524,181.465288 L87.9852882,184.605592 L110.274073,184.605592 L123.276279,184.605592 L124.514157,182.748283 Z" id="Fill-227" fill="#E5E5E5"></path>
            <path d="M66.2763413,172.145601 L65.6569036,162.239957 C62.0320461,163.291039 57.4905005,162.878967 52.0362569,161.001752 C46.1361379,165.149342 38.6998932,167.974123 29.7275228,169.474103 C29.1270373,169.575628 28.7220587,170.142973 28.8218072,170.742169 C28.8287896,170.782978 28.8377669,170.822792 28.8497367,170.862605 L29.746475,174.00291 L52.0362569,174.00291 L65.037466,174.00291 L66.2763413,172.145601 Z" id="Fill-229" fill="#E5E5E5"></path>
            <path d="M38.4159094,14.5762866 L14.7815188,7.96024802 C10.3357318,4.63580558 6.15427801,2.22210112 2.23915253,0.717143945 C1.10501299,0.526038272 -0.765269877,0.681311631 1.61971484,3.28413108 C4.00569704,5.88695054 6.39666667,8.7316381 5.74730445,9.85139791 C5.09893972,10.9721531 2.6511135,10.1788654 1.97681418,11.9475883 C1.52794629,13.1260732 5.5737422,13.893482 14.1171944,14.2498144 L32.5846168,24.6451667 L38.4159094,14.5762866 Z M116.563809,8.88989749 C132.536523,30.6192097 141.081971,42.1253638 142.199153,43.406369 C144.712813,46.2898749 143.603611,52.3763915 143.32232,55.5375979 C147.938677,55.9476788 145.231505,49.4938809 151.08574,50.0990489 C156.429262,50.6524591 161.268058,53.3159944 165.459487,48.2208385 C165.975186,47.5947683 166.168698,45.8350036 164.029095,45.2457611 C158.694549,43.7816129 150.694726,40.7587591 149.267326,39.3503501 C147.322232,37.4283447 140.501435,25.856498 128.803938,4.63680092 L116.563809,8.88989749 Z" id="Fill-231" fill="#BFCAFF"></path>
        </g>
        <g id="Group-236" transform="translate(3226.000000, 330.000000)">
            <mask id="mask-88" fill="white">
                <use xlink:href="#path-87"></use>
            </mask>
            <g id="Clip-235"></g>
            <polygon id="Fill-234" fill="#2A3B93" mask="url(#mask-88)" points="59.3031968 -3.56802346 -11.8117448 12.9195433 3.53525776 79.6798349 74.6491999 63.1912644"></polygon>
        </g>
        <g id="Group-239" transform="translate(3266.000000, 328.000000)">
            <mask id="mask-90" fill="white">
                <use xlink:href="#path-89"></use>
            </mask>
            <g id="Clip-238"></g>
            <polygon id="Fill-237" fill="#EAEAEA" mask="url(#mask-90)" points="42.3846217 -5.52206441 -11.5244364 2.06583903 -0.978350308 77.2218846 52.9307078 69.6329866"></polygon>
        </g>
        <g id="Group-242" transform="translate(3279.000000, 326.000000)">
            <mask id="mask-92" fill="white">
                <use xlink:href="#path-91"></use>
            </mask>
            <g id="Clip-241"></g>
            <polygon id="Fill-240" fill="#2A3B93" mask="url(#mask-92)" points="68.0337046 -9.9577179 -11.3762308 1.05898023 2.02945014 95.2298074 81.4414015 84.2121141"></polygon>
        </g>
        <path d="M3259,470 L3319.81784,470 C3319.81784,470 3320.68443,413.8817 3318.6373,407 L3285.18887,411.731355 L3271.19764,427.448706 L3259,470 Z" id="Fill-243" fill="#272361"></path>
        <g id="Group-247" transform="translate(1664.000000, 181.000000)">
            <mask id="mask-94" fill="white">
                <use xlink:href="#path-93"></use>
            </mask>
            <g id="Clip-246"></g>
            <polygon id="Fill-245" fill="#2A3B93" mask="url(#mask-94)" points="5.84375479 -5.58577435 46.1667423 0.384784914 36.5547511 65.2338291 -3.76723687 59.2632698"></polygon>
        </g>
        <g id="Group-250" transform="translate(1632.000000, 309.000000)">
            <mask id="mask-96" fill="white">
                <use xlink:href="#path-95"></use>
            </mask>
            <g id="Clip-249"></g>
            <polygon id="Fill-248" fill="#191847" mask="url(#mask-96)" points="-3.07899254 181.333735 69.2644035 181.333735 69.2644035 -3.47623503 -3.07899254 -3.47623503"></polygon>
        </g>
        <g id="Group-253" transform="translate(1588.000000, 309.000000)">
            <mask id="mask-98" fill="white">
                <use xlink:href="#path-97"></use>
            </mask>
            <g id="Clip-252"></g>
            <polygon id="Fill-251" fill="#2F3676" mask="url(#mask-98)" points="-3.46386546 181.333735 89.8494242 181.333735 89.8494242 -3.47623503 -3.46386546 -3.47623503"></polygon>
        </g>
        <g id="Group-256" transform="translate(1587.000000, 482.000000)">
            <mask id="mask-100" fill="white">
                <use xlink:href="#path-99"></use>
            </mask>
            <g id="Clip-255"></g>
            <polygon id="Fill-254" fill="#191847" mask="url(#mask-100)" points="-2.86773228 22.0340086 52.6299876 22.0340086 52.6299876 -2.78040805 -2.86773228 -2.78040805"></polygon>
        </g>
        <g id="Group-259" transform="translate(1680.000000, 482.000000)">
            <mask id="mask-102" fill="white">
                <use xlink:href="#path-101"></use>
            </mask>
            <g id="Clip-258"></g>
            <polygon id="Fill-257" fill="#191847" mask="url(#mask-102)" points="-3.03833671 22.0340086 52.4593832 22.0340086 52.4593832 -2.78040805 -3.03833671 -2.78040805"></polygon>
        </g>
        <path d="M1733.02524,294.013026 L1746.4238,290.211335 C1749.53616,284.290214 1752.25848,281.571038 1754.59275,282.0548 C1756.56798,281.633491 1751.63841,288.889913 1755.18282,288.960296 C1758.72724,289.031671 1768.38436,284.803715 1769.5265,286.359087 C1771.21669,288.659928 1768.05432,293.848468 1765.20299,296.141378 C1759.87337,300.429804 1756.03992,301.443919 1747.03887,301.879106 C1742.33232,302.106117 1736.9857,303.480079 1731,306 L1733.02524,294.013026 Z" id="Fill-260" fill="#BFCAFF"></path>
        <g id="Group-264" transform="translate(1674.000000, 232.000000)">
            <mask id="mask-104" fill="white">
                <use xlink:href="#path-103"></use>
            </mask>
            <g id="Clip-263"></g>
            <polygon id="Fill-262" fill="#FFFFFF" mask="url(#mask-104)" points="10.3287177 -12.1231977 65.2480989 34.9002092 44.6438359 58.4207032 -10.2755454 11.3972963"></polygon>
        </g>
        <g id="Group-267" transform="translate(1616.000000, 222.000000)">
            <mask id="mask-106" fill="white">
                <use xlink:href="#path-105"></use>
            </mask>
            <g id="Clip-266"></g>
            <polygon id="Fill-265" fill="#FFFFFF" mask="url(#mask-106)" points="19.8356361 -10.0985063 148.571971 19.1219722 121.483227 138.942716 -7.2531079 109.722237"></polygon>
        </g>
        <g id="Group-39" transform="translate(2082.000000, 508.000000)">
            <mask id="mask-108" fill="white">
                <use xlink:href="#path-107"></use>
            </mask>
            <g id="Clip-38"></g>
            <polygon id="Fill-37" fill="#E4E4E4" mask="url(#mask-108)" points="-2.66527778 16.2430949 46.2651151 20.3103448 47.975 -2.25929317 -0.954397024 -6.32758621"></polygon>
        </g>
        <g id="Group-42" transform="translate(2013.000000, 503.000000)">
            <mask id="mask-110" fill="white">
                <use xlink:href="#path-109"></use>
            </mask>
            <g id="Clip-41"></g>
            <polygon id="Fill-40" fill="#E4E4E4" mask="url(#mask-110)" points="-3.66527778 15.3180667 45.2651151 18.9784483 46.975 -1.3343693 -1.95539288 -4.99568966"></polygon>
        </g>
        <g id="Group-51" transform="translate(1992.000000, 263.000000)">
            <mask id="mask-112" fill="white">
                <use xlink:href="#path-111"></use>
            </mask>
            <g id="Clip-50"></g>
            <path d="M34.9393282,51.7292315 L23.1490907,46.2940608 C21.1787683,40.4485566 19.0796132,37.5742259 16.8506029,37.6690718 C15.0919342,36.9931698 18.5356529,44.3222639 15.2524638,43.8630099 C11.9692748,43.403756 3.6973971,38.1333177 2.40702508,39.3792936 C0.494984125,41.2222997 2.62276873,46.4078759 4.90597057,48.9158018 C9.17278709,53.6021889 12.5561793,55.0907708 20.8014725,56.8149699 C25.1122557,57.7165053 29.8391891,59.7551935 34.98125,62.9310345 L34.9393282,51.7292315 Z" id="Fill-49" fill="#BFCAFF" mask="url(#mask-112)"></path>
        </g>
        <path d="" id="Path-2" stroke="#979797"></path>
        <g id="Group-22" transform="translate(2439.000000, 205.000000)">
            <path d="M107.499864,122 C55.86136,122 14,162.294561 14,212 L201,212 C201,162.294561 159.138369,122 107.499864,122" id="Fill-6" fill="#FEFEFE"></path>
            <path d="M21.4512664,164 L21.4489782,164 L21.1872669,164 L21.1872669,164.009413 C12.7756067,164.416198 6,184.177606 6,208.5 C6,232.821985 12.7756067,252.583393 21.1872669,252.990178 L21.1872669,253 L187.548734,253 C196.08224,253 203,233.076533 203,208.5 C203,183.923058 196.08224,164 187.548734,164 L21.4512664,164 Z" id="Fill-8" fill="#FFFFFF"></path>
            <path d="M59.4221501,146.332674 C59.4221501,146.332674 60.1455555,83.6304313 22.5059048,58.8977948 C-15.1337459,34.1651583 5.81047073,23.1249253 5.81047073,23.1249253 C5.81047073,23.1249253 19.6644991,10.0436109 55.4401572,37.4097504 C91.2158153,64.7758898 93.3457818,123.910426 95.8815079,140.733494 C98.4169621,157.556563 59.4221501,146.332674 59.4221501,146.332674" id="Fill-9" fill="#FFFFFF"></path>
            <path d="M116.56417,132.997432 C116.56417,132.997432 133.933802,73.4173972 104.811846,39.5819629 C75.6898906,5.74652858 98.4937153,0.928205187 98.4937153,0.928205187 C98.4937153,0.928205187 115.115338,-7.76729906 141.768595,28.0709192 C168.421584,63.9088655 154.708082,120.865126 152.636981,137.594342 C150.565612,154.323559 116.56417,132.997432 116.56417,132.997432" id="Fill-10" fill="#FFFFFF"></path>
            <path d="M76.8636207,92.138679 C76.8636207,92.138679 74.3183519,79.0185926 65.7610313,64.1849742 C63.2451876,59.8237098 60.2076147,55.3156107 56.5637155,50.9479742 C45.5188445,38.4315719 33.2935755,33.8719423 29.7127704,32.7460257 C23.4568302,30.8704216 16.8296812,29.8805348 14.592244,33.0665684 C13.1999287,35.0491124 14.4001322,37.8544843 16.7580991,40.8089071 C16.758382,40.8091842 30.4147282,52.3381931 34.3724005,54.3282174 C34.3724005,54.3282174 51.128565,68.8476651 62.4311882,102.524594 C62.4311882,102.524594 65.0989672,109 70.1244302,109 C73.0544884,109 75.2390171,106.549248 75.2557102,106.530685 C77.5610515,103.907887 79.2040457,99.4720972 76.8636207,92.138679" id="Fill-21" fill="url(#linearGradient-113)"></path>
            <path d="M148.812762,90.4729304 C148.812762,90.4729304 150.029879,77.2108429 146.25783,60.6708188 C145.148592,55.8076664 143.606233,50.6620715 141.476678,45.4860768 C134.827392,30.4884322 124.97109,22.7925634 122.027898,20.7391894 C116.861156,17.2396101 111.120303,14.4873151 108.236391,16.9306367 C106.441957,18.4509073 106.776277,21.4651939 108.120233,24.9374134 C108.120501,24.9376898 117.401623,39.7001498 120.454297,42.6840366 C120.454297,42.6840366 131.742408,61.1547297 132.941634,96.4943184 C132.941634,96.4943184 133.620422,103.42411 138.175667,104.792105 C140.831269,105.589687 143.469781,103.836167 143.489809,103.822901 C146.283999,101.937832 148.964434,98.1356357 148.812762,90.4729304" id="Fill-22" fill="url(#linearGradient-114)"></path>
            <path d="M203,303 L5,303 C7.22859562,287.007774 13.4469565,268.448624 23.6550828,247.322549 L52.9433033,242 L75.8895822,248.653186 L103.547226,248.653186 L189.725241,243.995956 C198.186303,266.505647 202.611222,286.173661 203,303 Z" id="Combined-Shape" fill="#FFFFFF"></path>
            <ellipse id="Oval" fill="#D8D8D8" cx="100.5" cy="203.5" rx="49.5" ry="50.5"></ellipse>
            <circle id="Oval" fill="#FDFDFD" cx="99" cy="203" r="45"></circle>
            <path d="M114.61887,194.113821 C107.978317,194.113821 102.601912,188.644693 102.601912,181.905515 C102.601912,178.8029 103.775299,176.00791 105.638025,173.856735 C102.478739,172.678972 99.0687837,172 95.5010805,172 C79.2141157,172 66,185.432213 66,201.995605 C66,218.56559 79.2141157,232 95.5010805,232 C111.794528,232 125,218.56559 125,201.995605 C125,198.018457 124.222064,194.236871 122.836904,190.758515 C120.693257,192.823995 117.806248,194.113821 114.61887,194.113821" id="Fill-46" fill="url(#linearGradient-115)"></path>
        </g>
        <g id="Group-77" transform="translate(3395.000000, 469.000000)" fill="#000C4C">
            <path d="M1922.9999,146.792377 L1922.5515,54.1437281 C1550.06421,-99.0411796 1036.08083,126.583636 1036.06882,126.589555 C768.908643,206.066773 425.398968,271.12372 0.852653969,97.2814352 L0.852653969,310.159782 L-9.9895944e-05,310.159782 L-9.9895944e-05,328.829666 L1922.9999,328.829666 L1922.9999,146.792377 Z" id="Fill-62"></path>
        </g>
        <path d="M479.591437,608.146529 C158.804223,673.982965 -104.791743,667.175691 -311.196461,587.724706 C-517.60118,508.273722 -517.60118,578.054826 -311.196461,797.06802 L533,799 L479.591437,608.146529 Z" id="Path-20" fill="#235677"></path>
        <g id="Group-77" transform="translate(-446.000000, 565.000000)">
            <polygon id="Fill-60" fill="#EF5764" points="1919 76.6637931 1921 76.6637931 1921 68.6637931 1919 68.6637931"></polygon>
            <path d="M1924,103.905711 L1923.55137,38.3737396 C1550.87038,-69.9765609 1036.61972,89.6117233 1036.6077,89.6159097 C769.308591,145.831503 425.620284,191.847392 0.853197314,68.8857764 L0.853197314,219.458265 L0,219.458265 L0,232.663793 L1924,232.663793 L1924,103.905711 Z" id="Fill-62" fill="#000C4C"></path>
        </g>
    </g>
</svg>