<?xml version="1.0" encoding="UTF-8"?>
<svg width="60px" height="60px" viewBox="0 0 60 60" version="1.1" xmlns="http://www.w3.org/2000/svg" xmlns:xlink="http://www.w3.org/1999/xlink">
    <!-- Generator: Sketch 53 (72520) - https://sketchapp.com -->
    <title>Gitter_Logo</title>
    <desc>Created with Sketch.</desc>
    <g id="HD_Desktop" stroke="none" stroke-width="1" fill="none" fill-rule="evenodd">
        <g id="VW_HD_Desktop_Home" transform="translate(-1280.000000, -3650.000000)" fill="#2A3B93">
            <g id="Join_Our_Community" transform="translate(0.000000, 3347.000000)">
                <g id="Community_Modules" transform="translate(465.000000, 270.000000)">
                    <g id="Gitter" transform="translate(682.000000, 0.000000)">
                        <g id="Gitter_Logo" transform="translate(133.000000, 33.000000)">
                            <path d="M0,60 L0,0 L60,0 L60,60 L0,60 Z M31.7583332,45.4545455 L34.6689151,45.4545455 L34.6689151,19.8045266 L31.7583332,19.8045266 L31.7583332,45.4545455 Z M25.9373597,45.4545455 L28.8477274,45.4545455 L28.8477274,19.8045266 L25.9373597,19.8045266 L25.9373597,45.4545455 Z M37.6956928,34.3452438 L40.6060606,34.3452438 L40.6060606,19.8045266 L37.6956928,19.8045266 L37.6956928,34.3452438 Z M20,34.3452438 L22.9105819,34.3452438 L22.9105819,15.1515152 L20,15.1515152 L20,34.3452438 Z" id="Combined-Shape"></path>
                        </g>
                    </g>
                </g>
            </g>
        </g>
    </g>
</svg>