<?xml version="1.0" encoding="UTF-8"?>
<svg width="59px" height="56px" viewBox="0 0 59 56" version="1.1" xmlns="http://www.w3.org/2000/svg" xmlns:xlink="http://www.w3.org/1999/xlink">
    <!-- Generator: Sketch 53 (72520) - https://sketchapp.com -->
    <title>Easy_to_Use_Icon</title>
    <desc>Created with Sketch.</desc>
    <g id="HD_Desktop" stroke="none" stroke-width="1" fill="none" fill-rule="evenodd">
        <g id="VW_HD_Desktop_About" transform="translate(-751.000000, -1132.000000)" fill="#415EBF" fill-rule="nonzero">
            <g id="Group-6" transform="translate(0.000000, 830.000000)">
                <g id="Easy_to_Use_Icon" transform="translate(751.000000, 302.000000)">
                    <path d="M9.62559379,23 L1.37519806,23 C0.604770097,23 0,23.7574535 0,24.7223877 L0,52.2776123 C0,53.2425465 0.604770097,54 1.37519806,54 L9.62559379,54 C10.3960217,54 10.9999992,53.2425465 10.9999992,52.2776123 L10.9999992,24.7223877 C11.0007918,23.7574535 10.3960217,23 9.62559379,23 Z" id="Path"></path>
                    <path d="M58.9989947,25.9787406 C58.9989947,23.1317061 57.047644,20.2504306 53.320876,20.2504306 L36.4242504,20.2504306 C38.838054,15.9249925 39.5478189,9.84118074 37.8699187,5.38985681 C36.6373809,2.11581742 34.2818865,0.205373644 31.233718,0.0110058798 L31.1844567,0.00697753236 C29.2009354,-0.114879978 27.4838273,1.3735944 27.3189527,3.35755552 C26.884649,7.77262433 24.953405,15.5815759 22.1857243,18.354086 C19.8553632,20.6885133 17.8607833,21.6663947 14.5542443,23.2857904 C14.0757059,23.5204416 13.5529329,23.7762417 13,24.0521835 C13.0100533,24.1720268 13.0160853,24.2918701 13.0160853,24.4147347 L13.0160853,52.0834392 C13.4152024,52.220403 13.8092928,52.3563597 14.1963458,52.4892952 C19.6532914,54.3735547 24.3693068,56 31.5775417,56 L45.2380016,56 C48.965775,56 50.9161203,53.1177174 50.9161203,50.2716899 C50.9161203,49.426744 50.7452137,48.579784 50.4064166,47.8043271 C51.6480024,47.5807538 52.734767,46.9825442 53.5400385,46.0671023 C54.4538858,45.0267815 54.9575575,43.6440513 54.9575575,42.1737045 C54.9575575,41.3317798 54.7866509,40.4848198 54.4488592,39.7113771 C57.4417344,39.1937344 59,36.6206275 59,34.0767261 C59,32.6013438 58.4752164,31.1158907 57.4517877,30.0282369 C58.4732057,28.939576 58.9989947,27.4541229 58.9989947,25.9787406 Z" id="Path"></path>
                </g>
            </g>
        </g>
    </g>
</svg>