<?xml version="1.0" encoding="UTF-8"?>
<svg width="47px" height="56px" viewBox="0 0 47 56" version="1.1" xmlns="http://www.w3.org/2000/svg" xmlns:xlink="http://www.w3.org/1999/xlink">
    <!-- Generator: Sketch 53 (72520) - https://sketchapp.com -->
    <title>Real_world_focus_Icon</title>
    <desc>Created with Sketch.</desc>
    <g id="HD_Desktop" stroke="none" stroke-width="1" fill="none" fill-rule="evenodd">
        <g id="VW_HD_Desktop_About" transform="translate(-1477.000000, -1132.000000)" fill="#415EBF">
            <g id="Group-6" transform="translate(0.000000, 830.000000)">
                <path d="M1496.05549,353.644573 L1494.78512,358 L1512.57025,358 L1511.29988,353.644573 L1496.05549,353.644573 Z M1515.72647,333.111843 C1513.07331,333.111843 1511.81819,333.959285 1511.45868,334.687263 C1511.09917,335.41462 1511.27193,336.487922 1512.74874,337.778372 C1512.76207,337.791439 1512.77541,337.803883 1512.78875,337.817571 C1513.9486,338.94936 1515.67248,339.61263 1516.48044,339.878311 C1518.48888,338.286713 1520.11749,336.357259 1521.34403,334.239899 C1520.87971,334.040794 1520.09971,333.785068 1519.23967,333.597784 C1518.08999,333.348281 1516.78088,333.177797 1515.72647,333.111843 L1515.72647,333.111843 Z M1493.51476,307.154118 C1483.79455,312.651911 1480.45921,324.834664 1486.07105,334.356251 C1491.68289,343.877838 1504.12041,347.14503 1513.84061,341.647859 C1513.8819,341.624215 1513.91811,341.593727 1513.95939,341.570083 C1513.02695,341.130185 1511.96428,340.514203 1511.042,339.625696 C1511.02739,339.612007 1511.01596,339.600186 1511.00135,339.587119 C1509.03355,337.843082 1508.20718,335.51915 1509.15551,333.598407 C1510.11209,331.663352 1512.51181,330.62365 1515.72647,330.62365 C1515.75315,330.623027 1515.77919,330.623027 1515.80587,330.62365 C1517.0305,330.695825 1518.45204,330.88062 1519.77577,331.168078 C1520.76729,331.383361 1521.67623,331.619176 1522.45497,331.98441 C1524.77275,326.469194 1524.56187,320.008228 1521.28432,314.446348 C1519.46516,311.360838 1516.92443,308.937354 1513.99878,307.251804 C1514.64476,309.427651 1514.67016,311.599765 1514.47516,313.338202 C1514.2141,315.673956 1513.342,317.280486 1512.37144,318.821063 C1511.55014,320.125203 1510.41698,321.035487 1509.53344,321.79582 C1508.64863,322.556154 1508.14556,323.184579 1508.10428,323.390529 C1507.80129,324.871374 1507.57644,326.796473 1506.89298,328.504423 C1506.55125,329.358087 1506.09202,330.176907 1505.34441,330.817777 C1504.59743,331.458647 1503.55573,331.870546 1502.40669,331.867435 C1501.34466,331.867435 1500.3849,331.44247 1499.68747,330.837688 C1498.99004,330.232283 1498.50666,329.483772 1498.09951,328.698551 C1497.07877,326.728653 1496.89965,324.909951 1496.88885,323.332042 C1496.87805,321.754133 1496.9854,320.408928 1496.71036,319.035102 C1496.46264,317.798782 1495.81158,317.028494 1494.9833,316.060345 C1494.15502,315.091573 1493.13365,313.902541 1492.89927,312.113083 C1492.89927,310.525218 1493.05743,308.09489 1493.51476,307.15474 L1493.51476,307.154118 Z M1503.14159,304.490463 C1501.34402,304.536506 1499.52804,304.818364 1497.76286,305.345993 C1497.19628,305.894155 1496.56935,306.747196 1496.1152,307.737745 C1495.53972,308.990241 1495.22404,310.438732 1495.40062,311.78207 C1495.53528,312.813062 1496.10059,313.496864 1496.92887,314.465014 C1497.75715,315.433785 1498.83442,316.663882 1499.21171,318.548538 C1499.56996,320.339241 1499.42005,321.895373 1499.42958,323.312131 C1499.43911,324.72889 1499.55916,326.019341 1500.36267,327.570495 C1500.69233,328.20701 1501.0493,328.687973 1501.37515,328.970454 C1501.701,329.252934 1501.94872,329.377997 1502.40732,329.37862 C1503.02091,329.37862 1503.3404,329.223069 1503.658,328.950543 C1503.97559,328.67864 1504.28111,328.214476 1504.53137,327.589783 C1505.03126,326.34102 1505.27073,324.533518 1505.60293,322.903966 C1505.88939,321.499651 1506.94634,320.719408 1507.86608,319.928586 C1508.78519,319.138387 1509.70049,318.355033 1510.22769,317.517546 C1511.14236,316.066567 1511.72164,314.970865 1511.93507,313.065055 C1512.17707,310.902896 1512.03733,308.051336 1510.60499,305.695672 C1508.22242,304.851341 1505.69376,304.425753 1503.14159,304.490463 L1503.14159,304.490463 Z M1477,324.400988 C1477,338.401199 1488.27831,349.862195 1502.40732,350.514265 L1502.40732,353.022369 L1504.94805,353.022369 L1504.94805,350.514265 C1508.27705,350.356847 1511.45677,349.57847 1514.35638,348.336551 C1514.96489,348.072114 1515.27168,347.289382 1515.00173,346.69331 C1514.73114,346.097861 1513.93272,345.797337 1513.32421,346.061151 C1510.36553,347.328581 1507.11403,348.044737 1503.67769,348.044737 C1490.33186,348.044737 1479.54073,337.474115 1479.54073,324.400988 C1479.54073,315.907282 1484.10262,308.46759 1490.95434,304.295713 C1491.45867,304.011988 1491.71147,303.36054 1491.526,302.819845 C1491.07375,301.988581 1490.35853,301.819963 1489.60457,302.176486 C1482.03128,306.787639 1477,315.03433 1477,324.400988 Z" id="Real_world_focus_Icon"></path>
            </g>
        </g>
    </g>
</svg>