<?xml version="1.0" encoding="UTF-8"?>
<svg width="274px" height="616px" viewBox="0 0 274 616" version="1.1" xmlns="http://www.w3.org/2000/svg" xmlns:xlink="http://www.w3.org/1999/xlink">
    <!-- Generator: Sketch 53 (72520) - https://sketchapp.com -->
    <title>Wabbit</title>
    <desc>Created with Sketch.</desc>
    <defs>
        <linearGradient x1="37.1350705%" y1="69.4039021%" x2="53.0221174%" y2="-57.7660044%" id="linearGradient-1">
            <stop stop-color="#0CD2C2" offset="0%"></stop>
            <stop stop-color="#3455B5" offset="100%"></stop>
        </linearGradient>
        <linearGradient x1="45.4249241%" y1="69.4039021%" x2="51.0747371%" y2="-57.7660044%" id="linearGradient-2">
            <stop stop-color="#0CD2C2" offset="0%"></stop>
            <stop stop-color="#3455B5" offset="100%"></stop>
        </linearGradient>
        <polygon id="path-3" points="0 0 93 0 93 24 0 24"></polygon>
        <linearGradient x1="126.574712%" y1="-25.3003888%" x2="29.8234747%" y2="135.034199%" id="linearGradient-5">
            <stop stop-color="#FFFFFF" offset="0%"></stop>
            <stop stop-color="#00BFD6" offset="58.129223%"></stop>
            <stop stop-color="#2A3B93" offset="100%"></stop>
        </linearGradient>
    </defs>
    <g id="HD_Desktop" stroke="none" stroke-width="1" fill="none" fill-rule="evenodd">
        <g id="VW_HD_Desktop_Home" transform="translate(-1184.000000, -211.000000)">
            <g id="Hero_Module" transform="translate(-0.000000, 0.000000)">
                <g id="Wabbit" transform="translate(1184.000000, 211.000000)">
                    <g id="Group-21" transform="translate(70.000000, 544.000000)" fill="#FFFFFF">
                        <path d="M70.4575163,13.5 C47.211021,13.5 28.3660131,10.4779221 28.3660131,6.75 C28.3660131,3.02207794 47.211021,0 70.4575163,0 C93.7040117,0 112.54902,3.02207794 112.54902,6.75 C112.54902,10.4779221 93.7040117,13.5 70.4575163,13.5 Z M70.9150327,9 C88.8552628,9 103.398693,7.79116882 103.398693,6.3 C103.398693,4.80883118 88.8552628,3.6 70.9150327,3.6 C52.9748026,3.6 38.4313725,4.80883118 38.4313725,6.3 C38.4313725,7.79116882 52.9748026,9 70.9150327,9 Z" id="Combined-Shape" opacity="0.365908668"></path>
                        <path d="M70.4575163,40.5 C41.1467179,40.5 17.3856209,36.6720346 17.3856209,31.95 C17.3856209,27.2279654 41.1467179,23.4 70.4575163,23.4 C99.7683148,23.4 123.529412,27.2279654 123.529412,31.95 C123.529412,36.6720346 99.7683148,40.5 70.4575163,40.5 Z M71.8300654,35.1 C94.3185228,35.1 112.54902,33.4882251 112.54902,31.5 C112.54902,29.5117749 94.3185228,27.9 71.8300654,27.9 C49.3416079,27.9 31.1111111,29.5117749 31.1111111,31.5 C31.1111111,33.4882251 49.3416079,35.1 71.8300654,35.1 Z" id="Combined-Shape" opacity="0.774158296"></path>
                        <path d="M70,72 C31.3400675,72 0,67.1646753 0,61.2 C0,55.2353247 31.3400675,50.4 70,50.4 C108.659932,50.4 140,55.2353247 140,61.2 C140,67.1646753 108.659932,72 70,72 Z M70.9150327,64.8 C100.47851,64.8 124.444444,62.9867532 124.444444,60.75 C124.444444,58.5132468 100.47851,56.7 70.9150327,56.7 C41.3515549,56.7 17.3856209,58.5132468 17.3856209,60.75 C17.3856209,62.9867532 41.3515549,64.8 70.9150327,64.8 Z" id="Combined-Shape" opacity="0.899274554"></path>
                    </g>
                    <path d="M143.999816,160 C73.8598152,160 17,215.516951 17,284 L271,284 C271,215.516951 214.139816,160 143.999816,160" id="Fill-6" fill="#FEFEFE"></path>
                    <path d="M30.7062657,221 L30.7031993,221 L30.3524795,221 L30.3524795,221.012585 C19.0800009,221.556489 10,247.979046 10,280.5 C10,313.020407 19.0800009,339.442964 30.3524795,339.986868 L30.3524795,340 L253.293734,340 C264.729499,340 274,313.360757 274,280.5 C274,247.638696 264.729499,221 253.293734,221 L30.7062657,221 Z" id="Fill-8" fill="#FFFFFF"></path>
                    <path d="M80.467495,197.035004 C80.467495,197.035004 81.4471064,112.145815 30.476746,78.6616299 C-20.4936143,45.1774451 7.86834578,30.2306681 7.86834578,30.2306681 C7.86834578,30.2306681 26.6290092,12.5205809 75.0752129,49.5701236 C123.521417,86.6196662 126.405746,166.678731 129.839542,189.454577 C133.272969,212.230423 80.467495,197.035004 80.467495,197.035004" id="Fill-9" fill="#FFFFFF"></path>
                    <path d="M159.330409,181.024283 C159.330409,181.024283 183.085934,99.9292351 143.257378,53.8754495 C103.428821,7.8216639 134.616405,1.26339039 134.616405,1.26339039 C134.616405,1.26339039 157.348918,-10.5721571 193.801166,38.2076401 C230.253048,86.9870669 211.497817,164.510865 208.665283,187.281188 C205.832381,210.051511 159.330409,181.024283 159.330409,181.024283" id="Fill-10" fill="#FFFFFF"></path>
                    <path d="M104.490746,124.518239 C104.490746,124.518239 101.110311,107.02479 89.7451198,87.2466323 C86.4037648,81.431613 82.3694882,75.4208143 77.5299346,69.597299 C62.8609654,52.9087626 46.62428,46.8292564 41.8685233,45.3280343 C33.5598526,42.8272288 24.7581704,41.5073797 21.786574,45.7554245 C19.9374053,48.3988166 21.5314256,52.1393124 24.6631004,56.0785428 C24.6634761,56.0789122 42.8008109,71.4509241 48.0570945,74.1042898 C48.0570945,74.1042898 70.3113753,93.4635535 85.3226719,138.366126 C85.3226719,138.366126 88.8658158,147 95.5402588,147 C99.4317424,147 102.33307,143.73233 102.35524,143.707581 C105.417022,140.210516 107.599123,134.29613 104.490746,124.518239" id="Fill-21" fill="url(#linearGradient-1)"></path>
                    <path d="M201.741433,119.576165 C201.741433,119.576165 203.422215,101.843711 198.213193,79.7283982 C196.681389,73.225981 194.551465,66.3459159 191.610651,59.4252038 C182.428304,39.3721734 168.817219,29.0821915 164.752811,26.336669 C157.617787,21.6574562 149.689942,17.9774213 145.707397,21.2443345 C143.229369,23.2770558 143.69105,27.3073941 145.546989,31.9500247 C145.547358,31.9503942 158.364146,51.6889643 162.579743,55.6786556 C162.579743,55.6786556 178.168087,80.3754251 179.824162,127.627235 C179.824162,127.627235 180.761535,136.892911 187.052112,138.722028 C190.719372,139.788458 194.363031,137.443863 194.390688,137.426126 C198.249331,134.905641 201.950885,129.821805 201.741433,119.576165" id="Fill-22" fill="url(#linearGradient-2)"></path>
                    <g id="Group-3" transform="translate(93.000000, 509.000000)">
                        <mask id="mask-4" fill="white">
                            <use xlink:href="#path-3"></use>
                        </mask>
                        <g id="Clip-2"></g>
                        <path d="M46.5001015,0 L46.5001015,0 L0,0 C0,0 5.45639188,19.5543778 13.2135129,19.5543778 C13.2135129,19.5543778 23.7528215,22.2086639 35.7805506,23.4110048 L35.7803476,23.4112234 C35.8107939,23.4145019 35.8404284,23.4171247 35.8708747,23.4201847 C36.0093041,23.4339544 36.1479365,23.4475056 36.2867719,23.4610568 C47.7356144,24.5873362 55.188069,23.5987545 55.188069,23.5987545 L55.1882719,23.5987545 C68.0350078,22.5142215 79.78669,19.5543778 79.78669,19.5543778 C87.5436081,19.5543778 93,0 93,0 L46.5001015,0 Z" id="Fill-1" fill="#EAEAEA" mask="url(#mask-4)"></path>
                    </g>
                    <path d="M30.4843141,335.294118 C-26.3099477,454.431373 8.24009043,514 134.134429,514 C260.028767,514 300.322058,452.911765 255.014302,330.735294 L138.5,337.117647 L101.106343,337.117647 L70.082541,328 L30.4843141,335.294118 Z" id="Path-11" fill="#FFFFFF"></path>
                    <circle id="Oval" fill="#D8D8D8" cx="134.5" cy="274.5" r="67.5"></circle>
                    <ellipse id="Oval" fill="#FDFDFD" cx="133.5" cy="273" rx="61.5" ry="61"></ellipse>
                    <path d="M153.923891,262.853659 C144.919752,262.853659 137.629711,255.470336 137.629711,246.372446 C137.629711,242.183916 139.220745,238.410679 141.746475,235.506592 C137.462696,233.916612 132.839029,233 128.001465,233 C105.917445,233 88,251.133487 88,273.494067 C88,295.863546 105.917445,314 128.001465,314 C150.094275,314 168,295.863546 168,273.494067 C168,268.124918 166.945171,263.019776 165.066989,258.323995 C162.160349,261.112393 158.245761,262.853659 153.923891,262.853659" id="Fill-46" fill="url(#linearGradient-5)"></path>
                </g>
            </g>
        </g>
    </g>
</svg>