<?xml version="1.0" encoding="UTF-8"?>
<svg width="369px" height="345px" viewBox="0 0 369 345" version="1.1" xmlns="http://www.w3.org/2000/svg" xmlns:xlink="http://www.w3.org/1999/xlink">
    <!-- Generator: sketchtool 60 (101010) - https://sketch.com -->
    <title>345647D9-5E29-424C-A66C-21D2C7917607</title>
    <desc>Created with sketchtool.</desc>
    <g id="Pages" stroke="none" stroke-width="1" fill="none" fill-rule="evenodd">
        <g id="Home" transform="translate(-909.000000, -141.000000)">
            <g id="illustration_hero" transform="translate(909.000000, 141.000000)">
                <path d="M309,149 L309,279 L193,279" id="Rectangle" stroke="#E8A900" stroke-width="4" stroke-linecap="round" stroke-dasharray="0,10"></path>
                <path d="M149,63 L149,224 L92,224" id="Rectangle" stroke="#E8A900" stroke-width="4" stroke-linecap="round" stroke-dasharray="0,10" transform="translate(120.500000, 143.500000) rotate(-180.000000) translate(-120.500000, -143.500000) "></path>
                <g id="clouds" transform="translate(121.000000, 0.000000)">
                    <g id="Group-8" transform="translate(165.000000, 82.500000) scale(-1, 1) translate(-165.000000, -82.500000) translate(82.000000, 27.000000)" fill="#2A3B93">
                        <path d="M105.79363,1.14090838 L106.756635,1.14090838 C129.312645,1.14090838 147.597905,19.4261677 147.597905,41.9821782 C147.597905,64.5381887 129.312645,82.8234481 106.756635,82.8234481 L105.79363,82.8234481 C83.2376193,82.8234481 64.95236,64.5381887 64.95236,41.9821782 C64.95236,19.4261677 83.2376193,1.14090838 105.79363,1.14090838 Z" id="Rectangle" transform="translate(106.275132, 41.982178) rotate(-270.000000) translate(-106.275132, -41.982178) "></path>
                        <path d="M54.8612918,19.5952643 L54.9270679,19.5952643 C72.6323235,19.5952643 86.985269,33.9482098 86.985269,51.6534653 C86.985269,69.3587209 72.6323235,83.7116664 54.9270679,83.7116664 L54.8612918,83.7116664 C37.1560363,83.7116664 22.8030908,69.3587209 22.8030908,51.6534653 C22.8030908,33.9482098 37.1560363,19.5952643 54.8612918,19.5952643 Z" id="Rectangle" transform="translate(54.894180, 51.653465) rotate(-270.000000) translate(-54.894180, -51.653465) "></path>
                        <path d="M83.0002814,2.06319725 C97.3246887,2.06319725 108.936915,13.6754237 108.936915,27.9998309 L108.936915,141.247694 C108.936915,155.572101 97.3246887,167.184328 83.0002814,167.184328 C68.6758742,167.184328 57.0636478,155.572101 57.0636478,141.247694 L57.0636478,27.9998309 C57.0636478,13.6754237 68.6758742,2.06319725 83.0002814,2.06319725 Z" id="Rectangle" transform="translate(83.000281, 84.623762) rotate(-270.000000) translate(-83.000281, -84.623762) "></path>
                        <path d="M141.821782,59.1515113 L141.87134,59.1515113 C155.210916,59.1515113 166.024779,69.9653744 166.024779,83.3049505 C166.024779,96.6445266 155.210916,107.45839 141.87134,107.45839 L141.821782,107.45839 C128.482206,107.45839 117.668343,96.6445266 117.668343,83.3049505 C117.668343,69.9653744 128.482206,59.1515113 141.821782,59.1515113 Z" id="Rectangle" transform="translate(141.846561, 83.304950) rotate(-270.000000) translate(-141.846561, -83.304950) "></path>
                    </g>
                    <g id="Group-8" fill="#415EBF">
                        <path d="M135,-0.153760238 C163.666375,-0.153760238 186.905063,23.0849282 186.905063,51.7513031 L186.905063,52.0588235 C186.905063,80.7251984 163.666375,103.963887 135,103.963887 C106.333625,103.963887 83.0949367,80.7251984 83.0949367,52.0588235 L83.0949367,51.7513031 C83.0949367,23.0849282 106.333625,-0.153760238 135,-0.153760238 Z" id="Rectangle" transform="translate(135.000000, 51.905063) rotate(-270.000000) translate(-135.000000, -51.905063) "></path>
                        <path d="M70.1470588,25.3940804 C92.2541784,25.3940804 110.17554,43.3154418 110.17554,65.4225614 L110.17554,65.6597171 C110.17554,87.7668367 92.2541784,105.688198 70.1470588,105.688198 C48.0399392,105.688198 30.1185778,87.7668367 30.1185778,65.6597171 L30.1185778,65.4225614 C30.1185778,43.3154418 48.0399392,25.3940804 70.1470588,25.3940804 Z" id="Rectangle" transform="translate(70.147059, 65.541139) rotate(-270.000000) translate(-70.147059, -65.541139) "></path>
                        <path d="M104.99927,1.44994006 C122.976488,1.44994006 137.549903,16.0233548 137.549903,34.000573 L137.549903,178.018414 C137.549903,195.995633 122.976488,210.569047 104.99927,210.569047 C87.0220518,210.569047 72.448637,195.995633 72.448637,178.018414 L72.448637,34.000573 C72.448637,16.0233548 87.0220518,1.44994006 104.99927,1.44994006 Z" id="Rectangle" transform="translate(104.999270, 106.009494) rotate(-270.000000) translate(-104.999270, -106.009494) "></path>
                        <path d="M179.558824,73.8088235 C196.321365,73.8088235 209.910089,87.3975481 209.910089,104.160089 L209.910089,104.339911 C209.910089,121.102452 196.321365,134.691176 179.558824,134.691176 C162.796282,134.691176 149.207558,121.102452 149.207558,104.339911 L149.207558,104.160089 C149.207558,87.3975481 162.796282,73.8088235 179.558824,73.8088235 Z" id="Rectangle" transform="translate(179.558824, 104.250000) rotate(-270.000000) translate(-179.558824, -104.250000) "></path>
                    </g>
                </g>
                <g id="Group-3" transform="translate(0.000000, 232.000000)">
                    <g id="Group-7" opacity="0.403878348">
                        <path d="M102.551246,62.0170858 C102.551246,34.4193827 80.4897007,34.9453429 80.4897007,34.9453429 C78.3169373,22.980047 74.5155516,13.4262964 70.8705956,7.35270863 C66.6113244,1.62976096 63.4786387,0 63.4786387,0 C59.6848552,2.61608538 57.8082847,14.7072062 57.8082847,14.7072062 C51.9312097,4.4122215 45.1787137,3.93098583 45.1787137,3.93098583 C36.4154393,31.2654107 62.4476653,41.515969 62.4476653,41.515969 C36.5516939,41.515969 23.2054706,56.1495289 16.8289904,67.1541425 C14.6723086,71.1292565 13.2027474,74.7796706 12.2767426,77.4187145 L10.9852481,81.6126805 C6.96018271,79.1871215 0.0416081487,79.1012504 0.0416081487,79.1012504 C-1.02123601,109.064283 18.6307086,104.596007 18.6307086,104.596007 C18.6307086,108.801303 24.0434655,112 24.0434655,112 L66.3136695,112 C66.3136695,112 65.6797641,106.578794 61.2588002,103.643673 C60.5310371,102.552396 60.2877671,101.594098 61.154124,100.584219 C63.5906248,97.7448094 65.3309407,101.471553 65.3309407,101.471553 L67.1651144,103.993419 C72.3819687,110.611155 76.0096737,111.819611 77.5508708,112 L78.3830179,112 C75.3953585,102.67017 75.5020815,94.5243469 75.5020815,94.5243469 C75.0506286,82.6431331 83.5826211,71.7419822 83.5826211,71.7419822 C104.45998,71.7419822 102.551246,62.0170858 102.551246,62.0170858" id="Fill-1" fill="#2A3B93"></path>
                        <path d="M141.954387,62.0170858 C141.954387,34.4193827 119.892842,34.9453429 119.892842,34.9453429 C117.720079,22.980047 113.918693,13.4262964 110.273737,7.35270863 C106.014466,1.62976096 102.88178,0 102.88178,0 C99.0879966,2.61608538 97.2114261,14.7072062 97.2114261,14.7072062 C91.3343511,4.4122215 84.5818551,3.93098583 84.5818551,3.93098583 C75.8185807,31.2654107 101.850807,41.515969 101.850807,41.515969 C75.9548353,41.515969 62.608612,56.1495289 56.2321318,67.1541425 C54.0754499,71.1292565 52.6058888,74.7796706 51.679884,77.4187145 L50.3883895,81.6126805 C46.3633241,79.1871215 39.4447495,79.1012504 39.4447495,79.1012504 C38.3819053,109.064283 58.03385,104.596007 58.03385,104.596007 C58.03385,108.801303 63.4466068,112 63.4466068,112 L105.716811,112 C105.716811,112 105.082905,106.578794 100.661942,103.643673 C99.9341784,102.552396 99.6909085,101.594098 100.557265,100.584219 C102.993766,97.7448094 104.734082,101.471553 104.734082,101.471553 L106.568256,103.993419 C111.78511,110.611155 115.412815,111.819611 116.954012,112 L117.786159,112 C114.7985,102.67017 114.905223,94.5243469 114.905223,94.5243469 C114.45377,82.6431331 122.985762,71.7419822 122.985762,71.7419822 C143.863121,71.7419822 141.954387,62.0170858 141.954387,62.0170858" id="Fill-1" fill="#415EBF"></path>
                    </g>
                    <path d="M184.954208,62.0170858 C184.954208,34.4193827 162.805975,34.9453429 162.805975,34.9453429 C160.624674,22.980047 156.808351,13.4262964 153.149073,7.35270863 C148.873065,1.62976096 145.72807,0 145.72807,0 C141.919379,2.61608538 140.035435,14.7072062 140.035435,14.7072062 C134.135267,4.4122215 127.356238,3.93098583 127.356238,3.93098583 C118.558529,31.2654107 144.693045,41.515969 144.693045,41.515969 C118.695319,41.515969 105.296654,56.1495289 98.8951178,67.1541425 C96.7299616,71.1292565 95.254626,74.7796706 94.3249825,77.4187145 L93.0284132,81.6126805 C88.9875319,79.1871215 82.0417716,79.1012504 82.0417716,79.1012504 C80.9747512,109.064283 100.703916,104.596007 100.703916,104.596007 C100.703916,108.801303 106.137941,112 106.137941,112 L148.574241,112 C148.574241,112 147.937844,106.578794 143.499509,103.643673 C142.768886,102.552396 142.52466,101.594098 143.394421,100.584219 C145.840496,97.7448094 147.58765,101.471553 147.58765,101.471553 L149.429031,103.993419 C154.666385,110.611155 158.308344,111.819611 159.855597,112 L160.691014,112 C157.691615,102.67017 157.798757,94.5243469 157.798757,94.5243469 C157.345531,82.6431331 165.911048,71.7419822 165.911048,71.7419822 C186.870442,71.7419822 184.954208,62.0170858 184.954208,62.0170858" id="Fill-1" stroke="#FF3AB0" fill="#FF3AB0"></path>
                </g>
                <path d="M231,192.167912 L231,188.864474 C231,186.419283 229.024415,184.443697 226.579223,184.443697 L225.996263,184.443697 C224.198804,184.443697 222.595665,183.358744 221.915546,181.707025 L221.284006,180.184853 C220.603886,178.533134 220.976333,176.622322 222.239412,175.359243 L222.660438,174.938216 C224.393124,173.205531 224.393124,170.404086 222.660438,168.687593 L220.312407,166.339562 C218.579721,164.606876 215.778276,164.606876 214.061784,166.339562 L213.640757,166.760588 C212.377678,168.023667 210.466866,168.412307 208.815147,167.715994 L207.309168,167.084454 C205.657449,166.404335 204.572496,164.785002 204.572496,163.003737 L204.572496,162.420777 C204.572496,159.975585 202.596911,158 200.151719,158 L196.848281,158 C194.403089,158 192.427504,159.975585 192.427504,162.420777 L192.427504,162.712257 C192.427504,164.558296 191.293971,166.193822 189.561286,166.841555 C189.075486,167.035874 188.589686,167.230194 188.103886,167.440708 C186.419781,168.201794 184.444195,167.845541 183.148729,166.550075 L182.938216,166.339562 C181.205531,164.606876 178.404086,164.606876 176.687593,166.339562 L174.339562,168.687593 C172.606876,170.420279 172.606876,173.221724 174.339562,174.938216 L174.760588,175.359243 C176.023667,176.622322 176.396114,178.533134 175.715994,180.184853 L175.084454,181.690832 C174.404335,183.342551 172.785002,184.427504 171.003737,184.427504 L170.420777,184.427504 C167.975585,184.427504 166,186.403089 166,188.848281 L166,192.151719 C166,194.596911 167.975585,196.572496 170.420777,196.572496 L171.003737,196.572496 C172.801196,196.572496 174.404335,197.657449 175.084454,199.309168 L175.715994,200.815147 C176.396114,202.466866 176.023667,204.377678 174.760588,205.640757 L174.355755,206.04559 C172.623069,207.778276 172.623069,210.579721 174.355755,212.296213 L176.703787,214.644245 C178.436472,216.376931 181.237917,216.376931 182.95441,214.644245 L183.359243,214.239412 C184.622322,212.976333 186.533134,212.587693 188.184853,213.284006 L189.690832,213.915546 C191.342551,214.595665 192.427504,216.214998 192.427504,217.996263 L192.427504,218.579223 C192.427504,221.024415 194.403089,223 196.848281,223 L200.151719,223 C202.596911,223 204.572496,221.024415 204.572496,218.579223 L204.572496,217.996263 C204.572496,216.214998 205.657449,214.595665 207.309168,213.915546 L208.815147,213.284006 C210.466866,212.603886 212.377678,212.976333 213.640757,214.239412 L214.04559,214.644245 C215.778276,216.376931 218.579721,216.376931 220.296213,214.644245 L222.644245,212.296213 C224.376931,210.563528 224.376931,207.762083 222.644245,206.04559 L222.239412,205.640757 C220.976333,204.377678 220.603886,202.466866 221.284006,200.815147 L221.915546,199.292975 C222.595665,197.641256 224.214998,196.556303 225.996263,196.556303 L226.579223,196.556303 C229.008221,196.58869 231,194.613104 231,192.167912 Z M198.190978,208.868746 C187.661447,208.965942 179.092029,200.396524 179.189225,189.866993 C179.270221,179.645248 187.629049,171.28642 197.866993,171.189225 C208.396524,171.092029 216.965942,179.661447 216.868746,190.190978 C216.771551,200.428922 208.412723,208.78775 198.190978,208.868746 Z" id="Shape" fill="#415EBF" fill-rule="nonzero"></path>
                <path d="M275,233.923767 L275,232.09417 C275,230.73991 273.90583,229.64574 272.55157,229.64574 L272.2287,229.64574 C271.233184,229.64574 270.345291,229.044843 269.96861,228.130045 L269.618834,227.286996 C269.242152,226.372197 269.44843,225.313901 270.147982,224.61435 L270.381166,224.381166 C271.340807,223.421525 271.340807,221.869955 270.381166,220.919283 L269.080717,219.618834 C268.121076,218.659193 266.569507,218.659193 265.618834,219.618834 L265.38565,219.852018 C264.686099,220.55157 263.627803,220.766816 262.713004,220.381166 L261.878924,220.03139 C260.964126,219.654709 260.363229,218.757848 260.363229,217.7713 L260.363229,217.44843 C260.363229,216.09417 259.269058,215 257.914798,215 L256.085202,215 C254.730942,215 253.636771,216.09417 253.636771,217.44843 L253.636771,217.609865 C253.636771,218.632287 253.008969,219.538117 252.049327,219.896861 C251.780269,220.004484 251.511211,220.112108 251.242152,220.2287 C250.309417,220.650224 249.215247,220.452915 248.497758,219.735426 L248.381166,219.618834 C247.421525,218.659193 245.869955,218.659193 244.919283,219.618834 L243.618834,220.919283 C242.659193,221.878924 242.659193,223.430493 243.618834,224.381166 L243.852018,224.61435 C244.55157,225.313901 244.757848,226.372197 244.381166,227.286996 L244.03139,228.121076 C243.654709,229.035874 242.757848,229.636771 241.7713,229.636771 L241.44843,229.636771 C240.09417,229.636771 239,230.730942 239,232.085202 L239,233.914798 C239,235.269058 240.09417,236.363229 241.44843,236.363229 L241.7713,236.363229 C242.766816,236.363229 243.654709,236.964126 244.03139,237.878924 L244.381166,238.713004 C244.757848,239.627803 244.55157,240.686099 243.852018,241.38565 L243.627803,241.609865 C242.668161,242.569507 242.668161,244.121076 243.627803,245.071749 L244.928251,246.372197 C245.887892,247.331839 247.439462,247.331839 248.390135,246.372197 L248.61435,246.147982 C249.313901,245.44843 250.372197,245.233184 251.286996,245.618834 L252.121076,245.96861 C253.035874,246.345291 253.636771,247.242152 253.636771,248.2287 L253.636771,248.55157 C253.636771,249.90583 254.730942,251 256.085202,251 L257.914798,251 C259.269058,251 260.363229,249.90583 260.363229,248.55157 L260.363229,248.2287 C260.363229,247.242152 260.964126,246.345291 261.878924,245.96861 L262.713004,245.618834 C263.627803,245.242152 264.686099,245.44843 265.38565,246.147982 L265.609865,246.372197 C266.569507,247.331839 268.121076,247.331839 269.071749,246.372197 L270.372197,245.071749 C271.331839,244.112108 271.331839,242.560538 270.372197,241.609865 L270.147982,241.38565 C269.44843,240.686099 269.242152,239.627803 269.618834,238.713004 L269.96861,237.869955 C270.345291,236.955157 271.242152,236.35426 272.2287,236.35426 L272.55157,236.35426 C273.896861,236.372197 275,235.278027 275,233.923767 Z M257.068785,240.999652 C252.597784,241.040923 248.959077,237.402216 249.000348,232.931215 C249.03474,228.590905 252.584027,225.041618 256.931215,225.000348 C261.402216,224.959077 265.040923,228.597784 264.999652,233.068785 C264.958382,237.415973 261.409095,240.96526 257.068785,240.999652 Z" id="Shape" fill="#2A3B93" fill-rule="nonzero"></path>
            </g>
        </g>
    </g>
</svg>