<?xml version="1.0" encoding="UTF-8"?>
<svg width="420px" height="452px" viewBox="0 0 420 452" version="1.1" xmlns="http://www.w3.org/2000/svg" xmlns:xlink="http://www.w3.org/1999/xlink">
    <!-- Generator: Sketch 57.1 (83088) - https://sketch.com -->
    <title>vw_icon_large</title>
    <desc>Created with Sketch.</desc>
    <g id="Pages" stroke="none" stroke-width="1" fill="none" fill-rule="evenodd">
        <g id="404" transform="translate(-820.000000, -156.000000)" fill="#EBEBEB">
            <g id="content" transform="translate(230.000000, 114.000000)">
                <g id="vw_icon_large" transform="translate(590.000000, 42.000000)">
                    <path d="M419.813276,250.283239 C419.813276,138.906795 329.500091,141.02942 329.500091,141.02942 C320.605466,92.740904 305.043762,54.1846962 290.122432,29.6734312 C272.686285,6.5772496 259.862033,0 259.862033,0 C244.33145,10.5577731 236.649347,59.3540823 236.649347,59.3540823 C212.590408,17.8064654 184.947765,15.8643357 184.947765,15.8643357 C149.073614,126.178264 255.641545,167.546589 255.641545,167.546589 C149.631398,167.546589 94.9960631,226.603456 68.8927134,271.014932 C60.0639209,287.057357 54.0479894,301.789385 50.2572104,312.439812 L44.9702287,329.36546 C28.4928484,319.576597 0.17033097,319.230046 0.17033097,319.230046 C-4.18062629,440.152287 76.2683939,422.119601 76.2683939,422.119601 C76.2683939,439.090974 98.4265565,452 98.4265565,452 L271.467778,452 C271.467778,452 268.872764,430.12156 250.774697,418.276254 C247.795458,413.872168 246.799585,410.004755 250.346184,405.92917 C260.320469,394.470124 267.444788,409.510197 267.444788,409.510197 L274.953331,419.687727 C296.309529,446.395019 311.160238,451.272002 317.469425,452 L320.875979,452 C308.645421,414.347472 309.082312,381.473257 309.082312,381.473257 C307.234202,333.524073 342.161557,289.530142 342.161557,289.530142 C427.627045,289.530142 419.813276,250.283239 419.813276,250.283239"></path>
                </g>
            </g>
        </g>
    </g>
</svg>