<?xml version="1.0" encoding="UTF-8"?>
<svg width="560px" height="487px" viewBox="0 0 560 487" version="1.1" xmlns="http://www.w3.org/2000/svg" xmlns:xlink="http://www.w3.org/1999/xlink">
    <!-- Generator: sketchtool 53 (72520) - https://sketchapp.com -->
    <title>F674DDCC-0C8A-4605-98B5-2877338EFAF6</title>
    <desc>Created with sketchtool.</desc>
    <g id="HD_Desktop" stroke="none" stroke-width="1" fill="none" fill-rule="evenodd">
        <g id="VW_HD_Desktop_404" transform="translate(-255.000000, -313.000000)" fill="#CDFFFB" fill-rule="nonzero">
            <path d="M813.837223,786.954944 L678.193719,552.143943 L542.550214,317.332943 C540.997657,314.65086 538.137542,313 535.043392,313 C531.949242,313 529.089127,314.65086 527.53657,317.332943 L391.806281,552.143943 L256.162777,786.954944 C254.617118,789.637619 254.612108,792.941687 256.149625,795.629056 C257.687142,798.316425 260.535057,799.981367 263.626207,800 L806.373793,800 C809.464943,799.981367 812.312858,798.316425 813.850375,795.629056 C815.387892,792.941687 815.382882,789.637619 813.837223,786.954944 L813.837223,786.954944 Z M560,729 L509,729 L509,678 L560,678 L560,729 Z M560,643 L509,643 L509,511 L560,511 L560,643 Z" id="Shape"></path>
        </g>
    </g>
</svg>