<svg id="MS-symbol" xmlns="http://www.w3.org/2000/svg" viewBox="0 0 482 216"><defs><style>.cls-1{fill:#fff;}</style></defs><title>Microsoft-logo_rgb_wht</title><path class="cls-1" d="M212.35,86.39v43.2h-7.5V95.73h-.12l-13.41,33.86h-5L172.61,95.73h-.09v33.86h-6.93V86.39h10.76l12.41,32h.18l13.1-32Zm6.27,3.29a4,4,0,0,1,1.31-3,4.44,4.44,0,0,1,3.12-1.22,4.37,4.37,0,0,1,3.19,1.25,4,4,0,0,1,1.27,3,3.89,3.89,0,0,1-1.3,3,4.48,4.48,0,0,1-3.16,1.2,4.35,4.35,0,0,1-3.15-1.22A3.94,3.94,0,0,1,218.62,89.68Zm8,8.94v31h-7.29v-31Zm22.12,25.67a10.08,10.08,0,0,0,3.58-.75,15.17,15.17,0,0,0,3.62-2v6.78a14.74,14.74,0,0,1-4,1.5,21,21,0,0,1-4.86.52A14.73,14.73,0,0,1,231.76,115a17.64,17.64,0,0,1,4.36-12.3c2.92-3.23,7-4.84,12.39-4.84a17,17,0,0,1,4.14.53A14.07,14.07,0,0,1,256,99.59v7a15.21,15.21,0,0,0-3.45-1.92,10,10,0,0,0-3.6-.67,9.14,9.14,0,0,0-7,2.8,10.54,10.54,0,0,0-2.65,7.56c0,3.13.84,5.57,2.54,7.32A9.19,9.19,0,0,0,248.78,124.29Zm28-26.18a9.28,9.28,0,0,1,1.57.12,6.59,6.59,0,0,1,1.17.3v7.38a6.22,6.22,0,0,0-1.67-.79,8.27,8.27,0,0,0-2.66-.38A5.66,5.66,0,0,0,270.6,107q-1.85,2.27-1.85,7v15.63h-7.29v-31h7.29v4.88h.12a8.62,8.62,0,0,1,3-4A8.2,8.2,0,0,1,276.73,98.11Zm3.14,16.45q0-7.68,4.34-12.17t12.05-4.49q7.26,0,11.34,4.32t4.08,11.68q0,7.53-4.34,12t-11.81,4.46q-7.2,0-11.43-4.24T279.87,114.56Zm7.59-.24q0,4.84,2.2,7.41a7.84,7.84,0,0,0,6.3,2.56,7.32,7.32,0,0,0,6.05-2.56q2.08-2.57,2.08-7.59t-2.15-7.55a7.5,7.5,0,0,0-6-2.54,7.67,7.67,0,0,0-6.23,2.66Q287.46,109.38,287.46,114.32Zm35.07-7.56a3.12,3.12,0,0,0,1,2.45,16.89,16.89,0,0,0,4.4,2.25,14.86,14.86,0,0,1,6.13,3.93,8.19,8.19,0,0,1,1.76,5.29,8.51,8.51,0,0,1-3.36,7c-2.24,1.76-5.26,2.65-9.08,2.65a21.89,21.89,0,0,1-4.26-.47,18.89,18.89,0,0,1-4-1.19v-7.17a18,18,0,0,0,4.27,2.2,12.6,12.6,0,0,0,4.16.81,7.46,7.46,0,0,0,3.65-.69,2.48,2.48,0,0,0,1.17-2.32,3.26,3.26,0,0,0-1.22-2.55,18,18,0,0,0-4.62-2.39,14.3,14.3,0,0,1-5.73-3.8,8.32,8.32,0,0,1-1.68-5.36,8.45,8.45,0,0,1,3.32-6.88,13.29,13.29,0,0,1,8.64-2.7,21,21,0,0,1,3.64.36,15.89,15.89,0,0,1,3.37.94v6.93a14.91,14.91,0,0,0-3.37-1.66,11.32,11.32,0,0,0-3.83-.69,5.57,5.57,0,0,0-3.23.81A2.56,2.56,0,0,0,322.53,106.76Zm16.41,7.8q0-7.68,4.34-12.17t12.05-4.49q7.26,0,11.34,4.32t4.09,11.68q0,7.53-4.34,12t-11.81,4.46q-7.2,0-11.43-4.24T338.94,114.56Zm7.6-.24q0,4.84,2.19,7.41a7.85,7.85,0,0,0,6.3,2.56,7.35,7.35,0,0,0,6.06-2.56q2.07-2.57,2.07-7.59c0-3.33-.71-5.85-2.15-7.55a7.5,7.5,0,0,0-6-2.54,7.66,7.66,0,0,0-6.22,2.66C347.27,108.49,346.54,111,346.54,114.32Zm48.4-9.73H384.08v25H376.7v-25h-5.18v-6h5.18v-4.3a10.71,10.71,0,0,1,3.18-8A11.15,11.15,0,0,1,388,83.2a18.11,18.11,0,0,1,2.35.14,9.35,9.35,0,0,1,1.81.4V90a7.31,7.31,0,0,0-1.27-.51,6.56,6.56,0,0,0-2.08-.3,4.38,4.38,0,0,0-3.52,1.43,6.32,6.32,0,0,0-1.24,4.23v3.73h10.86v-7l7.32-2.22v9.18h7.38v6h-7.38v14.49a6.15,6.15,0,0,0,1,4,4.17,4.17,0,0,0,3.27,1.17,4.88,4.88,0,0,0,1.52-.3,7.18,7.18,0,0,0,1.55-.72v6a8.55,8.55,0,0,1-2.3.72,15.16,15.16,0,0,1-3.18.34c-3.07,0-5.38-.82-6.91-2.46s-2.31-4.1-2.31-7.39Z"/><rect class="cls-1" x="72" y="72" width="34.22" height="34.22"/><rect class="cls-1" x="109.77" y="72" width="34.22" height="34.22"/><rect class="cls-1" x="72" y="109.77" width="34.22" height="34.22"/><rect class="cls-1" x="109.77" y="109.77" width="34.22" height="34.22"/></svg>