<?xml version="1.0" encoding="UTF-8"?>
<svg width="338px" height="72px" viewBox="0 0 338 72" version="1.1" xmlns="http://www.w3.org/2000/svg" xmlns:xlink="http://www.w3.org/1999/xlink">
    <!-- Generator: Sketch 53 (72520) - https://sketchapp.com -->
    <title>Artboard</title>
    <desc>Created with Sketch.</desc>
    <g id="Artboard" stroke="none" stroke-width="1" fill="none" fill-rule="evenodd">
        <g id="Microsoft-logo_rgb_wht_wht" fill="#FFFFFF" fill-rule="nonzero">
            <path d="M140.35,14.39 L140.35,57.59 L132.85,57.59 L132.85,23.73 L132.73,23.73 L119.32,57.59 L114.32,57.59 L100.61,23.73 L100.52,23.73 L100.52,57.59 L93.59,57.59 L93.59,14.39 L104.35,14.39 L116.76,46.39 L116.94,46.39 L130.04,14.39 L140.35,14.39 Z M146.62,17.68 C146.60875,16.5389191 147.085398,15.4473587 147.93,14.68 C148.770799,13.8815351 149.890594,13.4436664 151.05,13.46 C152.239152,13.4250829 153.391141,13.8764893 154.24,14.71 C155.069821,15.4845048 155.531507,16.5750997 155.51,17.71 C155.538354,18.8524056 155.06295,19.9494927 154.21,20.71 C153.353764,21.5072712 152.219615,21.9379608 151.05,21.91 C149.878526,21.9442736 148.742782,21.5043984 147.9,20.69 C147.057348,19.9195317 146.590371,18.8214051 146.62,17.68 L146.62,17.68 Z M154.62,26.62 L154.62,57.62 L147.33,57.62 L147.33,26.62 L154.62,26.62 Z M176.74,52.29 C177.969086,52.2604155 179.182391,52.0062315 180.32,51.54 C181.61231,51.0417154 182.830293,50.3687967 183.94,49.54 L183.94,56.32 C182.686581,57.0115881 181.339099,57.5168938 179.94,57.82 C178.345763,58.1819122 176.714718,58.3564273 175.08,58.34 C170.963974,58.5086815 166.965384,56.9460527 164.054372,54.0312403 C161.14336,51.1164278 159.585949,47.1158024 159.76,43 C159.58757,38.4933992 161.147773,34.0919094 164.12,30.7 C167.04,27.47 171.12,25.86 176.51,25.86 C177.906531,25.8659463 179.297008,26.0439542 180.65,26.39 C181.812952,26.646611 182.938619,27.049835 184,27.59 L184,34.59 C182.938304,33.8028233 181.778535,33.1573867 180.55,32.67 C179.401468,32.2269886 178.18101,31.9998478 176.95,32 C174.322485,31.8826979 171.771785,32.9029777 169.95,34.8 C168.106098,36.8730087 167.153909,39.5894409 167.3,42.36 C167.3,45.49 168.14,47.93 169.84,49.68 C171.684146,51.486012 174.202784,52.4332234 176.78,52.29 L176.74,52.29 Z M204.74,26.11 C205.265788,26.1054494 205.791011,26.1455939 206.31,26.23 C206.708361,26.2939732 207.100006,26.3943949 207.48,26.53 L207.48,33.91 C206.965762,33.5650049 206.402888,33.2987352 205.81,33.12 C204.949977,32.8491737 204.051453,32.7208131 203.15,32.74 C201.361441,32.7321121 199.674392,33.5700749 198.6,35 C197.366667,36.5133333 196.75,38.8466667 196.75,42 L196.75,57.63 L189.46,57.63 L189.46,26.63 L196.75,26.63 L196.75,31.51 L196.87,31.51 C197.452848,29.9095568 198.496772,28.5176577 199.87,27.51 C201.302023,26.5429159 203.002955,26.0529354 204.73,26.11 L204.74,26.11 Z M207.88,42.56 C207.88,37.44 209.326667,33.3833333 212.22,30.39 C215.113333,27.3966667 219.13,25.9 224.27,25.9 C229.11,25.9 232.89,27.34 235.61,30.22 C238.33,33.1 239.69,36.9933333 239.69,41.9 C239.69,46.92 238.243333,50.92 235.35,53.9 C232.456667,56.88 228.52,58.3666667 223.54,58.36 C218.74,58.36 214.93,56.9466667 212.11,54.12 C209.29,51.2933333 207.876667,47.44 207.87,42.56 L207.88,42.56 Z M215.47,42.32 C215.47,45.5466667 216.203333,48.0166667 217.67,49.73 C219.271366,51.4970712 221.589949,52.4392256 223.97,52.29 C226.277843,52.4403217 228.520982,51.4911586 230.02,49.73 C231.406667,48.0166667 232.1,45.4866667 232.1,42.14 C232.1,38.7933333 231.383333,36.2766667 229.95,34.59 C228.441417,32.8734491 226.232522,31.9383503 223.95,32.05 C221.573079,31.9218946 219.271395,32.9046365 217.72,34.71 C216.213333,36.49 215.46,39.0266667 215.46,42.32 L215.47,42.32 Z M250.54,34.76 C250.493347,35.6845814 250.859696,36.5821358 251.54,37.21 C252.888418,38.1716729 254.37095,38.929786 255.94,39.46 C258.277638,40.2413493 260.384214,41.5918942 262.07,43.39 C263.25725,44.8932517 263.880021,46.765104 263.83,48.68 C263.901776,51.4180915 262.651247,54.0233595 260.47,55.68 C258.23,57.44 255.21,58.33 251.39,58.33 C249.958045,58.3130562 248.531208,58.1556352 247.13,57.86 C245.756808,57.6122857 244.41529,57.2131841 243.13,56.67 L243.13,49.5 C244.448654,50.4208061 245.884772,51.1607261 247.4,51.7 C248.730986,52.2029451 250.137546,52.4768184 251.56,52.51 C252.815384,52.5914394 254.070975,52.354081 255.21,51.82 C256.006325,51.3292072 256.458746,50.4320999 256.38,49.5 C256.382177,48.508723 255.93321,47.5703074 255.16,46.95 C253.743839,45.9338494 252.187594,45.1287788 250.54,44.56 C248.349382,43.7781866 246.382534,42.4738197 244.81,40.76 C243.645576,39.2221097 243.051711,37.3273972 243.13,35.4 C243.077694,32.7087769 244.310695,30.1536435 246.45,28.52 C248.925324,26.6367014 251.982785,25.6812448 255.09,25.82 C256.311495,25.8339019 257.529447,25.9543587 258.73,26.18 C259.884509,26.368334 261.014691,26.6835777 262.1,27.12 L262.1,34.05 C261.051146,33.3567985 259.918827,32.7990392 258.73,32.39 C257.502738,31.940629 256.206926,31.70718 254.9,31.7 C253.765926,31.6343113 252.638879,31.9169454 251.67,32.51 C250.921249,33.0077681 250.488516,33.8618465 250.53,34.76 L250.54,34.76 Z M266.95,42.56 C266.95,37.44 268.396667,33.3833333 271.29,30.39 C274.183333,27.3966667 278.2,25.9 283.34,25.9 C288.18,25.9 291.96,27.34 294.68,30.22 C297.4,33.1 298.763333,36.9933333 298.77,41.9 C298.77,46.92 297.323333,50.92 294.43,53.9 C291.536667,56.88 287.6,58.3666667 282.62,58.36 C277.82,58.36 274.01,56.9466667 271.19,54.12 C268.37,51.2933333 266.953333,47.44 266.94,42.56 L266.95,42.56 Z M274.55,42.32 C274.55,45.5466667 275.28,48.0166667 276.74,49.73 C278.342225,51.4958424 280.66019,52.4377458 283.04,52.29 C285.350455,52.4387389 287.595941,51.4901506 289.1,49.73 C290.48,48.0166667 291.17,45.4866667 291.17,42.14 C291.17,38.81 290.46,36.29 289.02,34.59 C287.511417,32.8734491 285.302522,31.9383503 283.02,32.05 C280.646243,31.9235099 278.34828,32.9062403 276.8,34.71 C275.27,36.49 274.54,39 274.54,42.32 L274.55,42.32 Z M322.95,32.59 L312.08,32.59 L312.08,57.59 L304.7,57.59 L304.7,32.59 L299.52,32.59 L299.52,26.59 L304.7,26.59 L304.7,22.29 C304.594417,19.2959347 305.74773,16.3945186 307.88,14.29 C310.05754,12.2044759 312.986873,11.0897422 316,11.2 C316.785541,11.1956496 317.570532,11.2424151 318.35,11.34 C318.965093,11.41305 319.571406,11.5470416 320.16,11.74 L320.16,18 C319.753547,17.7906587 319.328351,17.6199106 318.89,17.49 C318.217294,17.2788721 317.51495,17.1775725 316.81,17.19 C315.48024,17.1064694 314.184759,17.6327583 313.29,18.62 C312.382411,19.8354922 311.942288,21.3368783 312.05,22.85 L312.05,26.58 L322.91,26.58 L322.91,19.58 L330.23,17.36 L330.23,26.54 L337.61,26.54 L337.61,32.54 L330.23,32.54 L330.23,47.03 C330.093139,48.4386788 330.446333,49.8514532 331.23,51.03 C332.098008,51.8769471 333.291725,52.3040566 334.5,52.2 C335.019409,52.1815805 335.532542,52.0803044 336.02,51.9 C336.56349,51.7225667 337.083842,51.4808547 337.57,51.18 L337.57,57.18 C336.841174,57.5273916 336.066816,57.7697993 335.27,57.9 C334.224953,58.1251368 333.159023,58.2391042 332.09,58.24 C329.02,58.24 326.71,57.42 325.18,55.78 C323.65,54.14 322.87,51.68 322.87,48.39 L322.95,32.59 Z" id="Shape"></path>
            <rect id="Rectangle" x="0" y="0" width="34.22" height="34.22"></rect>
            <rect id="Rectangle" x="37.77" y="0" width="34.22" height="34.22"></rect>
            <rect id="Rectangle" x="0" y="37.77" width="34.22" height="34.22"></rect>
            <rect id="Rectangle" x="37.77" y="37.77" width="34.22" height="34.22"></rect>
        </g>
    </g>
</svg>