<?xml version="1.0" encoding="UTF-8"?>
<svg width="22px" height="30px" viewBox="0 0 22 30" version="1.1" xmlns="http://www.w3.org/2000/svg" xmlns:xlink="http://www.w3.org/1999/xlink">
    <!-- Generator: Sketch 53 (72520) - https://sketchapp.com -->
    <title>noun_Document_1743070</title>
    <desc>Created with Sketch.</desc>
    <g id="Page-1" stroke="none" stroke-width="1" fill="none" fill-rule="evenodd">
        <g id="Artboard" fill="#FFFFFF" fill-rule="nonzero">
            <g id="noun_Document_1743070">
                <g id="Group">
                    <path d="M1.03125,0.0158587653 C0.451034375,0.0199131328 0.003540625,0.591827667 0,1.03796823 L0,28.9756438 C6.875e-05,29.5107863 0.491321875,29.9976852 1.03125,29.9977533 L20.96875,29.9977533 C21.5086781,29.9976852 21.9999312,29.5107863 22,28.9756438 L22,7.17062498 C22,6.90279483 21.8899656,6.63635134 21.6992187,6.44663078 L15.5117187,0.313974024 C15.3202844,0.124924659 15.0514719,0.0152148363 14.78125,0.0158587653 L1.03125,0.0158587653 Z M2.0625,2.06007769 L13.75,2.06007769 L13.75,7.17062498 C13.7500687,7.70578787 14.2413219,8.19268334 14.78125,8.19273444 L19.9375,8.19273444 L19.9375,27.9535344 L2.0625,27.9535344 L2.0625,2.06007769 Z M15.8125,3.49741911 L18.4872875,6.14851552 L15.8125,6.14851552 L15.8125,3.49741911 Z M4.8125,5.80781237 C4.242975,5.80781237 3.78125,6.26541078 3.78125,6.82992183 C3.78125,7.39439882 4.242975,7.85203129 4.8125,7.85203129 L9.625,7.85203129 C10.1945594,7.85203129 10.65625,7.39439882 10.65625,6.82992183 C10.65625,6.26541078 10.1945594,5.80781237 9.625,5.80781237 L4.8125,5.80781237 Z M4.8125,11.2590628 C4.242975,11.2590628 3.78125,11.7166612 3.78125,12.2811723 C3.78125,12.8456493 4.242975,13.3032817 4.8125,13.3032817 L17.1875,13.3032817 C17.7570594,13.3032817 18.21875,12.8456493 18.21875,12.2811723 C18.21875,11.7166612 17.7570594,11.2590628 17.1875,11.2590628 L4.8125,11.2590628 Z M4.8125,16.7103303 C4.242975,16.7103303 3.78125,17.1679287 3.78125,17.7324398 C3.78125,18.2969168 4.242975,18.7545492 4.8125,18.7545492 L17.1875,18.7545492 C17.7570594,18.7545492 18.21875,18.2969168 18.21875,17.7324398 C18.21875,17.1679287 17.7570594,16.7103303 17.1875,16.7103303 L4.8125,16.7103303 Z M4.8125,22.1615808 C4.242975,22.1615808 3.78125,22.6191792 3.78125,23.1836902 C3.78125,23.7481672 4.242975,24.2057997 4.8125,24.2057997 L17.1875,24.2057997 C17.7570594,24.2057997 18.21875,23.7481672 18.21875,23.1836902 C18.21875,22.6191792 17.7570594,22.1615808 17.1875,22.1615808 L4.8125,22.1615808 Z" id="Shape"></path>
                </g>
            </g>
        </g>
    </g>
</svg>