<?xml version="1.0" encoding="UTF-8"?>
<svg width="260px" height="45px" viewBox="0 0 260 45" version="1.1" xmlns="http://www.w3.org/2000/svg" xmlns:xlink="http://www.w3.org/1999/xlink">
    <!-- Generator: Sketch 53 (72520) - https://sketchapp.com -->
    <title>VW_Logo_Lock_up</title>
    <desc>Created with Sketch.</desc>
    <defs>
        <polygon id="path-1" points="0 0 42 0 42 45 0 45"></polygon>
    </defs>
    <g id="Symbols" stroke="none" stroke-width="1" fill="none" fill-rule="evenodd">
        <g id="HD_Desktop_header_Home" transform="translate(-258.000000, -44.000000)">
            <g id="Header">
                <g id="VW_Logo" transform="translate(258.000000, 28.000000)">
                    <g transform="translate(27.000000, 0.000000)" fill="#FFFFFF" id="Logo">
                        <g transform="translate(30.000000, 31.000000)">
                            <path d="M10.632,22 L5.784,22 L0.144,6.16 L4.488,6.16 L7.392,15.736 L8.256,18.856 L9.096,15.784 L12.048,6.16 L16.248,6.16 L10.632,22 Z M24.816,5.92 C26.416008,5.92 27.7959942,6.24399676 28.956,6.892 C30.1160058,7.54000324 31.0079969,8.47599388 31.632,9.7 C32.2560031,10.9240061 32.568,12.3839915 32.568,14.08 C32.568,15.7760085 32.2560031,17.2359939 31.632,18.46 C31.0079969,19.6840061 30.1160058,20.6199968 28.956,21.268 C27.7959942,21.9160032 26.416008,22.24 24.816,22.24 C23.215992,22.24 21.8320058,21.9160032 20.664,21.268 C19.4959942,20.6199968 18.6000031,19.6840061 17.976,18.46 C17.3519969,17.2359939 17.04,15.7760085 17.04,14.08 C17.04,12.3839915 17.3519969,10.9240061 17.976,9.7 C18.6000031,8.47599388 19.4959942,7.54000324 20.664,6.892 C21.8320058,6.24399676 23.215992,5.92 24.816,5.92 Z M24.816,9.16 C23.6639942,9.16 22.784003,9.57599584 22.176,10.408 C21.567997,11.2400042 21.264,12.4639919 21.264,14.08 C21.264,15.6960081 21.567997,16.9199958 22.176,17.752 C22.784003,18.5840042 23.6639942,19 24.816,19 C25.9680058,19 26.843997,18.5840042 27.444,17.752 C28.044003,16.9199958 28.344,15.6960081 28.344,14.08 C28.344,12.4639919 28.044003,11.2400042 27.444,10.408 C26.843997,9.57599584 25.9680058,9.16 24.816,9.16 Z M42.72,22 L38.088,22 L33.528,6.16 L37.968,6.16 L40.584,18.76 L43.44,6.16 L47.184,6.16 L50.088,18.736 L52.704,6.16 L56.976,6.16 L52.392,22 L47.904,22 L46.032,14.32 L45.312,10.456 L45.264,10.456 L44.568,14.32 L42.72,22 Z M66.24,6.16 C68.2080098,6.16 69.7199947,6.61199548 70.776,7.516 C71.8320053,8.42000452 72.36,9.71999152 72.36,11.416 C72.36,13.0320081 71.8320053,14.2839956 70.776,15.172 C69.7199947,16.0600044 68.2080098,16.504 66.24,16.504 L63.096,16.504 L63.096,22 L58.968,22 L58.968,6.16 L66.24,6.16 Z M65.592,13.48 C66.4880045,13.48 67.1479979,13.3080017 67.572,12.964 C67.9960021,12.6199983 68.208,12.0880036 68.208,11.368 C68.208,10.6639965 67.9960021,10.1400017 67.572,9.796 C67.1479979,9.45199828 66.4880045,9.28 65.592,9.28 L63.096,9.28 L63.096,13.48 L65.592,13.48 Z M82.464,18.424 L76.992,18.424 L75.888,22 L71.736,22 L77.304,6.16 L82.248,6.16 L87.792,22 L83.544,22 L82.464,18.424 Z M81.6,15.616 L80.448,11.824 L79.752,9.328 L79.704,9.328 L79.056,11.8 L77.856,15.616 L81.6,15.616 Z M101.712,18.808 L101.712,22 L89.64,22 L89.64,6.16 L93.768,6.16 L93.768,18.808 L101.712,18.808 Z M117.648,22 L113.016,22 L108.456,6.16 L112.896,6.16 L115.512,18.76 L118.368,6.16 L122.112,6.16 L125.016,18.736 L127.632,6.16 L131.904,6.16 L127.32,22 L122.832,22 L120.96,14.32 L120.24,10.456 L120.192,10.456 L119.496,14.32 L117.648,22 Z M141.624,18.424 L136.152,18.424 L135.048,22 L130.896,22 L136.464,6.16 L141.408,6.16 L146.952,22 L142.704,22 L141.624,18.424 Z M140.76,15.616 L139.608,11.824 L138.912,9.328 L138.864,9.328 L138.216,11.8 L137.016,15.616 L140.76,15.616 Z M148.8,6.16 L156.504,6.16 C160.312019,6.17600008 162.216,7.59998584 162.216,10.432 C162.216,11.3600046 161.944003,12.1439968 161.4,12.784 C160.855997,13.4240032 160.056005,13.8239992 159,13.984 L159,14.008 C160.184006,14.1680008 161.083997,14.5799967 161.7,15.244 C162.316003,15.9080033 162.624,16.735995 162.624,17.728 C162.624,19.1040069 162.136005,20.1599963 161.16,20.896 C160.183995,21.6320037 158.752009,22 156.864,22 L148.8,22 L148.8,6.16 Z M155.76,12.64 C157.248007,12.64 157.992,12.0640058 157.992,10.912 C157.992,9.75999424 157.248007,9.184 155.76,9.184 L152.784,9.184 L152.784,12.64 L155.76,12.64 Z M156.168,19.096 C156.904004,19.096 157.459998,18.9440015 157.836,18.64 C158.212002,18.3359985 158.4,17.8960029 158.4,17.32 C158.4,16.7599972 158.212002,16.3320015 157.836,16.036 C157.459998,15.7399985 156.904004,15.592 156.168,15.592 L152.784,15.592 L152.784,19.096 L156.168,19.096 Z M165.216,6.16 L172.92,6.16 C176.728019,6.17600008 178.632,7.59998584 178.632,10.432 C178.632,11.3600046 178.360003,12.1439968 177.816,12.784 C177.271997,13.4240032 176.472005,13.8239992 175.416,13.984 L175.416,14.008 C176.600006,14.1680008 177.499997,14.5799967 178.116,15.244 C178.732003,15.9080033 179.04,16.735995 179.04,17.728 C179.04,19.1040069 178.552005,20.1599963 177.576,20.896 C176.599995,21.6320037 175.168009,22 173.28,22 L165.216,22 L165.216,6.16 Z M172.176,12.64 C173.664007,12.64 174.408,12.0640058 174.408,10.912 C174.408,9.75999424 173.664007,9.184 172.176,9.184 L169.2,9.184 L169.2,12.64 L172.176,12.64 Z M172.584,19.096 C173.320004,19.096 173.875998,18.9440015 174.252,18.64 C174.628002,18.3359985 174.816,17.8960029 174.816,17.32 C174.816,16.7599972 174.628002,16.3320015 174.252,16.036 C173.875998,15.7399985 173.320004,15.592 172.584,15.592 L169.2,15.592 L169.2,19.096 L172.584,19.096 Z M185.76,22 L181.632,22 L181.632,6.16 L185.76,6.16 L185.76,22 Z M202.584,9.352 L197.424,9.352 L197.424,22 L193.296,22 L193.296,9.352 L188.112,9.352 L188.112,6.16 L202.584,6.16 L202.584,9.352 Z" id="VOWPALWABBIT" fill-rule="nonzero"></path>
                        </g>
                    </g>
                    <g id="Group-3" transform="translate(0.000000, 16.000000)">
                        <mask id="mask-2" fill="white">
                            <use xlink:href="#path-1"></use>
                        </mask>
                        <g id="Clip-2"></g>
                        <path d="M41.9813276,24.9175791 C41.9813276,13.8292163 32.9500091,14.0405396 32.9500091,14.0405396 C32.0605466,9.2330546 30.5043762,5.39449409 29.0122432,2.95421329 C27.2686285,0.654814673 25.9862033,0 25.9862033,0 C24.433145,1.05110573 23.6649347,5.90914536 23.6649347,5.90914536 C21.2590408,1.77276757 18.4947765,1.57941395 18.4947765,1.57941395 C14.9073614,12.5619954 25.5641545,16.6805233 25.5641545,16.6805233 C14.9631398,16.6805233 9.49960631,22.5600786 6.88927134,26.9815751 C6.00639209,28.5787191 5.40479894,30.0454034 5.02572104,31.1057335 L4.49702287,32.7908091 C2.84928484,31.8162542 0.017033097,31.7817524 0.017033097,31.7817524 C-0.418062629,43.820471 7.62683939,42.0251815 7.62683939,42.0251815 C7.62683939,43.7148094 9.84265565,45 9.84265565,45 L27.1467778,45 C27.1467778,45 26.8872764,42.8218367 25.0774697,41.6425474 C24.7795458,41.2040875 24.6799585,40.8190574 25.0346184,40.4133023 C26.0320469,39.2724681 26.7444788,40.7698205 26.7444788,40.7698205 L27.4953331,41.7830702 C29.6309529,44.4419819 31.1160238,44.9275223 31.7469425,45 L32.0875979,45 C30.8645421,41.2514076 30.9082312,37.9785322 30.9082312,37.9785322 C30.7234202,33.2048302 34.2161557,28.8249036 34.2161557,28.8249036 C42.7627045,28.8249036 41.9813276,24.9175791 41.9813276,24.9175791" id="Fill-1" fill="#FEFEFE" mask="url(#mask-2)"></path>
                    </g>
                </g>
            </g>
        </g>
    </g>
</svg>