<?xml version="1.0" encoding="UTF-8"?>
<svg width="203px" height="18px" viewBox="0 0 203 18" version="1.1" xmlns="http://www.w3.org/2000/svg" xmlns:xlink="http://www.w3.org/1999/xlink">
    <!-- Generator: Sketch 53 (72520) - https://sketchapp.com -->
    <title>Logo</title>
    <desc>Created with Sketch.</desc>
    <g id="Symbols" stroke="none" stroke-width="1" fill="none" fill-rule="evenodd">
        <g id="VW_Logo" transform="translate(0.000000, 1.000000)" fill="#FFFFFF" fill-rule="nonzero">
            <g id="Logo" transform="translate(0.000000, -1.000000)">
                <path d="M10.632,17 L5.784,17 L0.144,1.16 L4.488,1.16 L7.392,10.736 L8.256,13.856 L9.096,10.784 L12.048,1.16 L16.248,1.16 L10.632,17 Z M24.816,0.92 C26.416008,0.92 27.7959942,1.24399676 28.956,1.892 C30.1160058,2.54000324 31.0079969,3.47599388 31.632,4.7 C32.2560031,5.92400612 32.568,7.38399152 32.568,9.08 C32.568,10.7760085 32.2560031,12.2359939 31.632,13.46 C31.0079969,14.6840061 30.1160058,15.6199968 28.956,16.268 C27.7959942,16.9160032 26.416008,17.24 24.816,17.24 C23.215992,17.24 21.8320058,16.9160032 20.664,16.268 C19.4959942,15.6199968 18.6000031,14.6840061 17.976,13.46 C17.3519969,12.2359939 17.04,10.7760085 17.04,9.08 C17.04,7.38399152 17.3519969,5.92400612 17.976,4.7 C18.6000031,3.47599388 19.4959942,2.54000324 20.664,1.892 C21.8320058,1.24399676 23.215992,0.92 24.816,0.92 Z M24.816,4.16 C23.6639942,4.16 22.784003,4.57599584 22.176,5.408 C21.567997,6.24000416 21.264,7.46399192 21.264,9.08 C21.264,10.6960081 21.567997,11.9199958 22.176,12.752 C22.784003,13.5840042 23.6639942,14 24.816,14 C25.9680058,14 26.843997,13.5840042 27.444,12.752 C28.044003,11.9199958 28.344,10.6960081 28.344,9.08 C28.344,7.46399192 28.044003,6.24000416 27.444,5.408 C26.843997,4.57599584 25.9680058,4.16 24.816,4.16 Z M42.72,17 L38.088,17 L33.528,1.16 L37.968,1.16 L40.584,13.76 L43.44,1.16 L47.184,1.16 L50.088,13.736 L52.704,1.16 L56.976,1.16 L52.392,17 L47.904,17 L46.032,9.32 L45.312,5.456 L45.264,5.456 L44.568,9.32 L42.72,17 Z M66.24,1.16 C68.2080098,1.16 69.7199947,1.61199548 70.776,2.516 C71.8320053,3.42000452 72.36,4.71999152 72.36,6.416 C72.36,8.03200808 71.8320053,9.28399556 70.776,10.172 C69.7199947,11.0600044 68.2080098,11.504 66.24,11.504 L63.096,11.504 L63.096,17 L58.968,17 L58.968,1.16 L66.24,1.16 Z M65.592,8.48 C66.4880045,8.48 67.1479979,8.30800172 67.572,7.964 C67.9960021,7.61999828 68.208,7.0880036 68.208,6.368 C68.208,5.66399648 67.9960021,5.14000172 67.572,4.796 C67.1479979,4.45199828 66.4880045,4.28 65.592,4.28 L63.096,4.28 L63.096,8.48 L65.592,8.48 Z M82.464,13.424 L76.992,13.424 L75.888,17 L71.736,17 L77.304,1.16 L82.248,1.16 L87.792,17 L83.544,17 L82.464,13.424 Z M81.6,10.616 L80.448,6.824 L79.752,4.328 L79.704,4.328 L79.056,6.8 L77.856,10.616 L81.6,10.616 Z M101.712,13.808 L101.712,17 L89.64,17 L89.64,1.16 L93.768,1.16 L93.768,13.808 L101.712,13.808 Z M117.648,17 L113.016,17 L108.456,1.16 L112.896,1.16 L115.512,13.76 L118.368,1.16 L122.112,1.16 L125.016,13.736 L127.632,1.16 L131.904,1.16 L127.32,17 L122.832,17 L120.96,9.32 L120.24,5.456 L120.192,5.456 L119.496,9.32 L117.648,17 Z M141.624,13.424 L136.152,13.424 L135.048,17 L130.896,17 L136.464,1.16 L141.408,1.16 L146.952,17 L142.704,17 L141.624,13.424 Z M140.76,10.616 L139.608,6.824 L138.912,4.328 L138.864,4.328 L138.216,6.8 L137.016,10.616 L140.76,10.616 Z M148.8,1.16 L156.504,1.16 C160.312019,1.17600008 162.216,2.59998584 162.216,5.432 C162.216,6.36000464 161.944003,7.1439968 161.4,7.784 C160.855997,8.4240032 160.056005,8.8239992 159,8.984 L159,9.008 C160.184006,9.1680008 161.083997,9.57999668 161.7,10.244 C162.316003,10.9080033 162.624,11.735995 162.624,12.728 C162.624,14.1040069 162.136005,15.1599963 161.16,15.896 C160.183995,16.6320037 158.752009,17 156.864,17 L148.8,17 L148.8,1.16 Z M155.76,7.64 C157.248007,7.64 157.992,7.06400576 157.992,5.912 C157.992,4.75999424 157.248007,4.184 155.76,4.184 L152.784,4.184 L152.784,7.64 L155.76,7.64 Z M156.168,14.096 C156.904004,14.096 157.459998,13.9440015 157.836,13.64 C158.212002,13.3359985 158.4,12.8960029 158.4,12.32 C158.4,11.7599972 158.212002,11.3320015 157.836,11.036 C157.459998,10.7399985 156.904004,10.592 156.168,10.592 L152.784,10.592 L152.784,14.096 L156.168,14.096 Z M165.216,1.16 L172.92,1.16 C176.728019,1.17600008 178.632,2.59998584 178.632,5.432 C178.632,6.36000464 178.360003,7.1439968 177.816,7.784 C177.271997,8.4240032 176.472005,8.8239992 175.416,8.984 L175.416,9.008 C176.600006,9.1680008 177.499997,9.57999668 178.116,10.244 C178.732003,10.9080033 179.04,11.735995 179.04,12.728 C179.04,14.1040069 178.552005,15.1599963 177.576,15.896 C176.599995,16.6320037 175.168009,17 173.28,17 L165.216,17 L165.216,1.16 Z M172.176,7.64 C173.664007,7.64 174.408,7.06400576 174.408,5.912 C174.408,4.75999424 173.664007,4.184 172.176,4.184 L169.2,4.184 L169.2,7.64 L172.176,7.64 Z M172.584,14.096 C173.320004,14.096 173.875998,13.9440015 174.252,13.64 C174.628002,13.3359985 174.816,12.8960029 174.816,12.32 C174.816,11.7599972 174.628002,11.3320015 174.252,11.036 C173.875998,10.7399985 173.320004,10.592 172.584,10.592 L169.2,10.592 L169.2,14.096 L172.584,14.096 Z M185.76,17 L181.632,17 L181.632,1.16 L185.76,1.16 L185.76,17 Z M202.584,4.352 L197.424,4.352 L197.424,17 L193.296,17 L193.296,4.352 L188.112,4.352 L188.112,1.16 L202.584,1.16 L202.584,4.352 Z" id="VOWPALWABBIT"></path>
            </g>
        </g>
    </g>
</svg>