<?xml version="1.0" encoding="UTF-8"?>
<svg width="215px" height="30px" viewBox="0 0 215 30" version="1.1" xmlns="http://www.w3.org/2000/svg" xmlns:xlink="http://www.w3.org/1999/xlink">
    <!-- Generator: Sketch 53 (72520) - https://sketchapp.com -->
    <title>VW_Logo</title>
    <desc>Created with Sketch.</desc>
    <g id="VW_Logo" stroke="none" stroke-width="1" fill="none" fill-rule="evenodd">
        <path d="M16.4652045,22.7647059 L11.6277416,22.7647059 L6,7.23529412 L10.3345584,7.23529412 L13.2322466,16.6235294 L14.0943687,19.6823529 L14.932543,16.6705882 L17.8781269,7.23529412 L22.0689982,7.23529412 L16.4652045,22.7647059 Z M30.6183758,7 C32.2149062,7 33.591893,7.31764388 34.7493776,7.95294118 C35.9068621,8.58823847 36.7969145,9.50587635 37.4195614,10.7058824 C38.0422082,11.9058884 38.353527,13.3372466 38.353527,15 C38.353527,16.6627534 38.0422082,18.0941116 37.4195614,19.2941176 C36.7969145,20.4941236 35.9068621,21.4117615 34.7493776,22.0470588 C33.591893,22.6823561 32.2149062,23 30.6183758,23 C29.0218454,23 27.6408673,22.6823561 26.4754001,22.0470588 C25.3099329,21.4117615 24.4158893,20.4941236 23.7932424,19.2941176 C23.1705956,18.0941116 22.8592768,16.6627534 22.8592768,15 C22.8592768,13.3372466 23.1705956,11.9058884 23.7932424,10.7058824 C24.4158893,9.50587635 25.3099329,8.58823847 26.4754001,7.95294118 C27.6408673,7.31764388 29.0218454,7 30.6183758,7 Z M30.6183758,10.1764706 C29.4688739,10.1764706 28.5907954,10.5843096 27.9841138,11.4 C27.3774323,12.2156904 27.074096,13.4156784 27.074096,15 C27.074096,16.5843216 27.3774323,17.7843096 27.9841138,18.6 C28.5907954,19.4156904 29.4688739,19.8235294 30.6183758,19.8235294 C31.7678777,19.8235294 32.641965,19.4156904 33.2406639,18.6 C33.8393628,17.7843096 34.1387078,16.5843216 34.1387078,15 C34.1387078,13.4156784 33.8393628,12.2156904 33.2406639,11.4 C32.641965,10.5843096 31.7678777,10.1764706 30.6183758,10.1764706 Z M48.4834618,22.7647059 L43.8615293,22.7647059 L39.3114404,7.23529412 L43.7417902,7.23529412 L46.3521043,19.5882353 L49.2018969,7.23529412 L52.9377593,7.23529412 L55.8354475,19.5647059 L58.4457617,7.23529412 L62.7084766,7.23529412 L58.1344398,22.7647059 L53.6561944,22.7647059 L51.7882632,15.2352941 L51.0698281,11.4470588 L51.0219324,11.4470588 L50.3274452,15.2352941 L48.4834618,22.7647059 Z M71.9523414,7.23529412 C73.9160738,7.23529412 75.4247724,7.67842694 76.4784825,8.56470588 C77.5321926,9.45098482 78.0590397,10.7254819 78.0590397,12.3882353 C78.0590397,13.9725569 77.5321926,15.1999956 76.4784825,16.0705882 C75.4247724,16.9411808 73.9160738,17.3764706 71.9523414,17.3764706 L68.8151749,17.3764706 L68.8151749,22.7647059 L64.696147,22.7647059 L64.696147,7.23529412 L71.9523414,7.23529412 Z M71.3057499,14.4117647 C72.1998069,14.4117647 72.8583658,14.2431389 73.2814464,13.9058824 C73.7045269,13.5686258 73.916064,13.0470624 73.916064,12.3411765 C73.916064,11.6509769 73.7045269,11.1372566 73.2814464,10.8 C72.8583658,10.4627434 72.1998069,10.2941176 71.3057499,10.2941176 L68.8151749,10.2941176 L68.8151749,14.4117647 L71.3057499,14.4117647 Z M88.1410788,19.2588235 L82.6809721,19.2588235 L81.5793717,22.7647059 L77.436396,22.7647059 L82.992294,7.23529412 L87.9255483,7.23529412 L93.4574985,22.7647059 L89.2187315,22.7647059 L88.1410788,19.2588235 Z M87.2789567,16.5058824 L86.1294606,12.7882353 L85.4349733,10.3411765 L85.3870777,10.3411765 L84.7404861,12.7647059 L83.5430943,16.5058824 L87.2789567,16.5058824 Z M107.347244,19.6352941 L107.347244,22.7647059 L95.3014819,22.7647059 L95.3014819,7.23529412 L99.4205098,7.23529412 L99.4205098,19.6352941 L107.347244,19.6352941 Z M123.248607,22.7647059 L118.626675,22.7647059 L114.076586,7.23529412 L118.506935,7.23529412 L121.11725,19.5882353 L123.967042,7.23529412 L127.702905,7.23529412 L130.600593,19.5647059 L133.210907,7.23529412 L137.473622,7.23529412 L132.899585,22.7647059 L128.42134,22.7647059 L126.553408,15.2352941 L125.834973,11.4470588 L125.787078,11.4470588 L125.09259,15.2352941 L123.248607,22.7647059 Z M147.172496,19.2588235 L141.712389,19.2588235 L140.610788,22.7647059 L136.467813,22.7647059 L142.023711,7.23529412 L146.956965,7.23529412 L152.488915,22.7647059 L148.250148,22.7647059 L147.172496,19.2588235 Z M146.310373,16.5058824 L145.160877,12.7882353 L144.46639,10.3411765 L144.418494,10.3411765 L143.771903,12.7647059 L142.574511,16.5058824 L146.310373,16.5058824 Z M154.332899,7.23529412 L162.020154,7.23529412 C165.819896,7.25098047 167.719739,8.64704494 167.719739,11.4235294 C167.719739,12.3333379 167.448333,13.1019576 166.905513,13.7294118 C166.362692,14.3568659 165.564439,14.7490188 164.510729,14.9058824 L164.510729,14.9294118 C165.692162,15.0862753 166.590196,15.4901928 167.204861,16.1411765 C167.819525,16.7921601 168.126852,17.6039167 168.126852,18.5764706 C168.126852,19.9254969 167.639918,20.9607807 166.666034,21.6823529 C165.692151,22.4039252 164.263278,22.7647059 162.379372,22.7647059 L154.332899,22.7647059 L154.332899,7.23529412 Z M161.277771,13.5882353 C162.762544,13.5882353 163.50492,13.0235351 163.50492,11.8941176 C163.50492,10.7647002 162.762544,10.2 161.277771,10.2 L158.308239,10.2 L158.308239,13.5882353 L161.277771,13.5882353 Z M161.684884,19.9176471 C162.419288,19.9176471 162.974074,19.7686289 163.349259,19.4705882 C163.724444,19.1725475 163.912033,18.7411793 163.912033,18.1764706 C163.912033,17.6274482 163.724444,17.2078446 163.349259,16.9176471 C162.974074,16.6274495 162.419288,16.4823529 161.684884,16.4823529 L158.308239,16.4823529 L158.308239,19.9176471 L161.684884,19.9176471 Z M170.713219,7.23529412 L178.400474,7.23529412 C182.200217,7.25098047 184.100059,8.64704494 184.100059,11.4235294 C184.100059,12.3333379 183.828653,13.1019576 183.285833,13.7294118 C182.743013,14.3568659 181.944759,14.7490188 180.891049,14.9058824 L180.891049,14.9294118 C182.072482,15.0862753 182.970517,15.4901928 183.585181,16.1411765 C184.199845,16.7921601 184.507172,17.6039167 184.507172,18.5764706 C184.507172,19.9254969 184.020238,20.9607807 183.046354,21.6823529 C182.072471,22.4039252 180.643598,22.7647059 178.759692,22.7647059 L170.713219,22.7647059 L170.713219,7.23529412 Z M177.658091,13.5882353 C179.142865,13.5882353 179.88524,13.0235351 179.88524,11.8941176 C179.88524,10.7647002 179.142865,10.2 177.658091,10.2 L174.68856,10.2 L174.68856,13.5882353 L177.658091,13.5882353 Z M178.065205,19.9176471 C178.799608,19.9176471 179.354394,19.7686289 179.729579,19.4705882 C180.104764,19.1725475 180.292353,18.7411793 180.292353,18.1764706 C180.292353,17.6274482 180.104764,17.2078446 179.729579,16.9176471 C179.354394,16.6274495 178.799608,16.4823529 178.065205,16.4823529 L174.68856,16.4823529 L174.68856,19.9176471 L178.065205,19.9176471 Z M191.212567,22.7647059 L187.093539,22.7647059 L187.093539,7.23529412 L191.212567,7.23529412 L191.212567,22.7647059 Z M208,10.3647059 L202.851215,10.3647059 L202.851215,22.7647059 L198.732187,22.7647059 L198.732187,10.3647059 L193.559455,10.3647059 L193.559455,7.23529412 L208,7.23529412 L208,10.3647059 Z" id="VOWPALWABBIT" fill="#FFFFFF" fill-rule="nonzero"></path>
    </g>
</svg>