<?xml version="1.0" encoding="UTF-8"?>
<svg width="26px" height="30px" viewBox="0 0 26 30" version="1.1" xmlns="http://www.w3.org/2000/svg" xmlns:xlink="http://www.w3.org/1999/xlink">
    <!-- Generator: Sketch 58 (84663) - https://sketch.com -->
    <title>icon_stack-overflow_30x30</title>
    <desc>Created with Sketch.</desc>
    <g id="Pages" stroke="none" stroke-width="1" fill="none" fill-rule="evenodd">
        <g id="Tutorial_landing" transform="translate(-639.000000, -1522.000000)" fill="#666666">
            <g id="Group-2" transform="translate(0.000000, 1302.000000)">
                <g id="Group-14" transform="translate(639.000000, 220.000000)">
                    <g id="icon_stack-overflow_30x30">
                        <polygon id="Fill-1" points="21.8263441 19.0909091 21.8263441 27.2812883 2.71911041 27.2812883 2.71911041 19.0909091 7.94031507e-12 19.0909091 7.94031507e-12 30 24.5454545 30 24.5454545 19.0909091"></polygon>
                        <polygon id="Path" points="17.6645134 6.39488462e-14 15.4829053 1.60763756 23.5756158 12.4417167 25.7575758 10.8340792"></polygon>
                        <polygon id="Path" points="10.9082139 6.39560159 21.3591723 15.0275668 23.0829946 12.9659464 12.6327399 4.33328219"></polygon>
                        <polygon id="Path" points="7.49505278 12.4067681 19.8105824 18.1033968 20.9369256 15.6569919 8.62139594 9.92541448"></polygon>
                        <polygon id="Path" points="5.73604328 18.6978732 19.0368153 21.4584665 19.5998109 18.8023697 6.29903892 16.0414269"></polygon>
                        <polygon id="Path" points="5.45454545 24.8484848 19.0368153 24.8484848 19.0368153 22.1574394 5.45454545 22.1574394"></polygon>
                    </g>
                </g>
            </g>
        </g>
    </g>
</svg>