<?xml version="1.0" encoding="UTF-8"?>
<svg width="52px" height="60px" viewBox="0 0 52 60" version="1.1" xmlns="http://www.w3.org/2000/svg" xmlns:xlink="http://www.w3.org/1999/xlink">
    <!-- Generator: Sketch 53 (72520) - https://sketchapp.com -->
    <title>Stack_Overflow_Logo</title>
    <desc>Created with Sketch.</desc>
    <g id="HD_Desktop" stroke="none" stroke-width="1" fill="none" fill-rule="evenodd">
        <g id="VW_HD_Desktop_Home" transform="translate(-943.000000, -3650.000000)" fill="#2A3B93">
            <g id="Join_Our_Community" transform="translate(0.000000, 3347.000000)">
                <g id="Community_Modules" transform="translate(465.000000, 270.000000)">
                    <g id="Stack_Overflow" transform="translate(341.000000, 0.000000)">
                        <g id="Stack_Overflow_Logo" transform="translate(137.000000, 33.000000)">
                            <polygon id="Fill-1" points="43.6526883 38.1818182 43.6526883 54.5625767 5.43822082 54.5625767 5.43822082 38.1818182 0 38.1818182 0 60 49.0909091 60 49.0909091 38.1818182"></polygon>
                            <path d="M35.3290268,0 L30.9658106,3.21527511 L47.1512316,24.8834335 L51.5151515,21.6681584 L35.3290268,0 Z M21.8164277,12.7912032 L42.7183446,30.0551336 L46.1659892,25.9318928 L25.2654798,8.66656438 L21.8164277,12.7912032 Z M14.9901056,24.8135362 L39.6211649,36.2067937 L41.8738512,31.3139837 L17.2427919,19.850829 L14.9901056,24.8135362 Z M11.4720866,37.3957465 L38.0736306,42.916933 L39.1996219,37.6047394 L12.5980778,32.0828539 L11.4720866,37.3957465 Z M10.9090909,49.6969697 L38.0736306,49.6969697 L38.0736306,44.3148787 L10.9090909,44.3148787 L10.9090909,49.6969697 Z" id="Fill-2"></path>
                        </g>
                    </g>
                </g>
            </g>
        </g>
    </g>
</svg>