<?xml version="1.0" encoding="UTF-8"?>
<svg width="26px" height="30px" viewBox="0 0 26 30" version="1.1" xmlns="http://www.w3.org/2000/svg" xmlns:xlink="http://www.w3.org/1999/xlink">
    <!-- Generator: Sketch 57.1 (83088) - https://sketch.com -->
    <title>icon_stack-overflow_30x30</title>
    <desc>Created with Sketch.</desc>
    <g id="Pages" stroke="none" stroke-width="1" fill="none" fill-rule="evenodd">
        <g id="Home" transform="translate(-558.000000, -2953.000000)" fill="#666666">
            <g id="community" transform="translate(129.000000, 2704.000000)">
                <g id="Stack-overflow" transform="translate(400.000000, 225.000000)">
                    <g id="icon_stack-overflow_30x30" transform="translate(29.000000, 24.000000)">
                        <polygon id="Fill-1" points="21.8263441 19.0909091 21.8263441 27.2812883 2.71911041 27.2812883 2.71911041 19.0909091 7.94031507e-12 19.0909091 7.94031507e-12 30 24.5454545 30 24.5454545 19.0909091"></polygon>
                        <path d="M17.6645134,6.39488462e-14 L15.4829053,1.60763756 L23.5756158,12.4417167 L25.7575758,10.8340792 L17.6645134,6.39488462e-14 Z M10.9082139,6.39560159 L21.3591723,15.0275668 L23.0829946,12.9659464 L12.6327399,4.33328219 L10.9082139,6.39560159 Z M7.49505278,12.4067681 L19.8105824,18.1033968 L20.9369256,15.6569919 L8.62139594,9.92541448 L7.49505278,12.4067681 Z M5.73604328,18.6978732 L19.0368153,21.4584665 L19.5998109,18.8023697 L6.29903892,16.0414269 L5.73604328,18.6978732 Z M5.45454545,24.8484848 L19.0368153,24.8484848 L19.0368153,22.1574394 L5.45454545,22.1574394 L5.45454545,24.8484848 Z" id="Fill-2"></path>
                    </g>
                </g>
            </g>
        </g>
    </g>
</svg>