<?xml version="1.0" encoding="UTF-8"?>
<svg width="74px" height="93px" viewBox="0 0 74 93" version="1.1" xmlns="http://www.w3.org/2000/svg" xmlns:xlink="http://www.w3.org/1999/xlink">
    <!-- Generator: sketchtool 53 (72520) - https://sketchapp.com -->
    <title>CFED2294-615F-46CE-8D51-6859055D5B47</title>
    <desc>Created with sketchtool.</desc>
    <g id="For-Build-MVP" stroke="none" stroke-width="1" fill="none" fill-rule="evenodd">
        <g id="VW-Bluesky-MidFidelity---Home" transform="translate(-1359.000000, -1344.000000)" fill="#FFFFFF" fill-rule="nonzero">
            <g id="Solving_Problem_Facing" transform="translate(0.000000, 893.000000)">
                <g id="Group-7" transform="translate(1220.000000, 367.000000)">
                    <g id="Case_Study_Block">
                        <g id="Input_Format_Icon">
                            <g transform="translate(139.000000, 84.000000)">
                                <rect id="Rectangle" x="12" y="12" width="19" height="4"></rect>
                                <rect id="Rectangle" x="12" y="19" width="4" height="4"></rect>
                                <rect id="Rectangle" x="19" y="19" width="4" height="4"></rect>
                                <path d="M73.4294211,16.0676875 L57.8504737,0.5676875 C57.4853563,0.204310586 56.9901162,0.000109734973 56.4736842,0 L5.84210526,0 C2.61559962,1.85404021e-17 0,2.60234489 0,5.8125 L0,87.1875 C0,90.3976551 2.61559962,93 5.84210526,93 L68.1578947,93 C71.3844004,93 74,90.3976551 74,87.1875 L74,17.4375 C73.9998897,16.923685 73.7946488,16.4309547 73.4294211,16.0676875 Z M70.1052632,87.1875 C70.1052632,88.2575517 69.2333966,89.125 68.1578947,89.125 L5.84210526,89.125 C4.76660338,89.125 3.89473684,88.2575517 3.89473684,87.1875 L3.89473684,5.8125 C3.89473684,4.7424483 4.76660338,3.875 5.84210526,3.875 L54.5263158,3.875 L54.5263158,13.5625 C54.5263158,16.7726551 57.1419154,19.375 60.3684211,19.375 L64.2631579,19.375 L64.2631579,15.5 L60.3684211,15.5 C59.2929192,15.5 58.4210526,14.6325517 58.4210526,13.5625 L58.4210526,6.614625 L70.1052632,18.239625 L70.1052632,87.1875 Z" id="Shape"></path>
                                <path d="M58.0769231,33 L14.9230769,33 C12.7564214,33 11,34.7162418 11,36.8333333 L11,56 L14.9230769,56 L14.9230769,36.8333333 L58.0769231,36.8333333 L58.0769231,56 L62,56 L62,36.8333333 C62,34.7162418 60.2435786,33 58.0769231,33 Z" id="Path"></path>
                                <path d="M60.0384615,60 L12.9615385,60 C11.8782107,60 11,60.850659 11,61.9 L11,67.6 C11,69.698682 12.7564214,71.4 14.9230769,71.4 L28.6538462,71.4 L28.6538462,75.2 L26.6923077,75.2 C25.6089799,75.2 24.7307692,76.050659 24.7307692,77.1 L24.7307692,79 L48.2692308,79 L48.2692308,77.1 C48.2692308,76.050659 47.3910201,75.2 46.3076923,75.2 L44.3461538,75.2 L44.3461538,71.4 L58.0769231,71.4 C60.2435786,71.4 62,69.698682 62,67.6 L62,61.9 C62,60.850659 61.1217893,60 60.0384615,60 Z M40.4230769,75.2 L32.5769231,75.2 L32.5769231,71.4 L40.4230769,71.4 L40.4230769,75.2 Z M58.0769231,67.6 L14.9230769,67.6 L14.9230769,63.8 L58.0769231,63.8 L58.0769231,67.6 Z" id="Shape"></path>
                                <path d="M27,45 L27,41 L21,41 C19.8954305,41 19,41.8954305 19,43 L19,49 L23,49 L23,45 L27,45 Z" id="Path"></path>
                            </g>
                        </g>
                    </g>
                </g>
            </g>
        </g>
    </g>
</svg>