<?xml version="1.0" encoding="UTF-8"?>
<svg width="81px" height="81px" viewBox="0 0 81 81" version="1.1" xmlns="http://www.w3.org/2000/svg" xmlns:xlink="http://www.w3.org/1999/xlink">
    <!-- Generator: sketchtool 53 (72520) - https://sketchapp.com -->
    <title>BD9531D1-1DD2-4936-ADEF-0839606E31F4</title>
    <desc>Created with sketchtool.</desc>
    <defs>
        <polygon id="path-1" points="0 0 80.9998773 0 80.9998773 80.9995091 0 80.9995091"></polygon>
    </defs>
    <g id="For-Build-MVP" stroke="none" stroke-width="1" fill="none" fill-rule="evenodd">
        <g id="VW-Bluesky-MidFidelity---Home" transform="translate(-468.000000, -1354.000000)">
            <g id="Solving_Problem_Facing" transform="translate(0.000000, 893.000000)">
                <g id="Online_Learning" transform="translate(332.000000, 367.000000)">
                    <g id="online_learning_icon" transform="translate(136.000000, 94.000000)">
                        <g id="Group-3">
                            <mask id="mask-2" fill="white">
                                <use xlink:href="#path-1"></use>
                            </mask>
                            <g id="Clip-2"></g>
                            <path d="M77.5279227,59.2890545 C77.5279227,60.7703727 76.2773318,62.0221909 74.7972409,62.0221909 L6.20251364,62.0221909 C4.72242273,62.0221909 3.47183182,60.7703727 3.47183182,59.2890545 L3.47183182,6.2046 C3.47183182,4.72328182 4.72242273,3.47269091 6.20251364,3.47269091 L74.7972409,3.47269091 C76.2773318,3.47269091 77.5279227,4.72328182 77.5279227,6.2046 L77.5279227,59.2890545 Z M51.0433773,77.1250091 C50.8887409,77.3741455 50.6162864,77.5275545 50.3229682,77.5275545 L30.6780136,77.5275545 C30.3834682,77.5275545 30.1110136,77.3741455 29.9563773,77.1250091 C29.8017409,76.8746455 29.7882409,76.5616909 29.9195591,76.2990545 C31.2327409,73.6776 31.89915,70.3259182 31.89915,66.3421909 C31.89915,65.8733727 32.2783773,65.4941455 32.7471955,65.4941455 L48.2525591,65.4941455 C48.7213773,65.4941455 49.1006045,65.8733727 49.1006045,66.3421909 C49.1006045,70.3259182 49.7670136,73.6776 51.0801955,76.2990545 C51.2127409,76.5616909 51.1980136,76.8746455 51.0433773,77.1250091 L51.0433773,77.1250091 Z M74.7972409,-0.000490909091 L6.20251364,-0.000490909091 C2.78210455,-0.000490909091 -0.000122727273,2.78419091 -0.000122727273,6.2046 L-0.000122727273,59.2890545 C-0.000122727273,62.7106909 2.78210455,65.4941455 6.20251364,65.4941455 L27.57915,65.4941455 C28.0467409,65.4941455 28.4271955,65.8733727 28.4271955,66.3421909 C28.4271955,73.7046 25.8842864,76.4917364 24.7907864,77.3471455 C24.6410591,77.4649636 24.4569682,77.5275545 24.2679682,77.5275545 L17.2418318,77.5275545 C16.2845591,77.5275545 15.5052409,78.3068727 15.5052409,79.2629182 C15.5052409,80.2214182 16.2845591,80.9995091 17.2418318,80.9995091 L63.7579227,80.9995091 C64.7151955,80.9995091 65.4945136,80.2214182 65.4945136,79.2629182 C65.4945136,78.3068727 64.7151955,77.5275545 63.7579227,77.5275545 L56.7060136,77.5275545 C56.5157864,77.5275545 56.3316955,77.4649636 56.1819682,77.3471455 C55.0970591,76.4966455 52.5737864,73.7205545 52.5737864,66.3421909 C52.5737864,65.8733727 52.9530136,65.4941455 53.4206045,65.4941455 L74.7972409,65.4941455 C78.21765,65.4941455 80.9998773,62.7106909 80.9998773,59.2890545 L80.9998773,6.2046 C80.9998773,2.78419091 78.21765,-0.000490909091 74.7972409,-0.000490909091 L74.7972409,-0.000490909091 Z" id="Fill-1" fill="#FFFFFF" mask="url(#mask-2)"></path>
                        </g>
                        <path d="M60.6316668,40.3885397 C60.5089152,40.7224295 60.1909888,40.9421585 59.8362368,40.9421585 C59.8288717,40.9421585 56.9012476,40.8709614 56.9012476,40.8709614 C56.2285692,40.8869194 55.6234041,41.2122164 55.3226629,41.7216439 C54.7395931,42.7061279 54.055867,43.6341451 53.2886699,44.481145 C52.855357,44.9611117 52.7227854,45.6362565 52.9437381,46.2438869 L53.9171578,48.9039576 C54.0435919,49.2488952 53.9331155,49.6355691 53.6446494,49.8626633 C53.2015164,50.210056 52.7240129,50.551311 52.2244141,50.8802907 C52.0832499,50.9735834 51.9212178,51.0202298 51.7579583,51.0202298 C51.5787411,51.0202298 51.3995238,50.9625356 51.2485394,50.8508298 L48.8990751,49.0856329 C48.5983338,48.8597663 48.2386718,48.7419228 47.858142,48.7419228 C47.617549,48.7419228 47.3843211,48.7897967 47.1658234,48.8806344 C46.0782448,49.3495532 44.9636608,49.7079937 43.8527595,49.9485908 C43.2328642,50.0811647 42.7357205,50.5414907 42.5552757,51.1515762 L41.7377505,53.9000295 C41.6346392,54.2449671 41.3240778,54.4892468 40.9619608,54.5052048 C40.6747222,54.5187077 40.3862561,54.5260729 40.0965625,54.5260729 C40.0155465,54.5322105 39.9283929,54.5346656 39.8363292,54.5346656 C39.659567,54.5346656 39.459482,54.5248453 39.2716722,54.5137975 L39.1501481,54.5076598 C38.7929412,54.4880192 38.4872899,54.2486497 38.3829511,53.9061671 L37.5519232,51.1613964 C37.3702509,50.5562212 36.8694246,50.0983502 36.2470743,49.9670038 C35.1263528,49.7313169 34.0093139,49.379014 32.9241903,48.9162329 C32.7069201,48.8241677 32.4786022,48.7762938 32.2441468,48.7762938 C31.8685271,48.7762938 31.4978175,48.90273 31.1970762,49.1335068 L28.8574319,50.9109791 C28.7064476,51.0251399 28.5247753,51.0840617 28.3443305,51.0840617 C28.183526,51.0840617 28.0227215,51.0374153 27.8815572,50.9465776 C27.3893236,50.6261907 26.9105926,50.2861632 26.4576394,49.937543 C26.1654908,49.7129039 26.0525594,49.3250025 26.1777659,48.9788373 L27.1364554,46.3114014 C27.3549532,45.7025435 27.2186989,45.0273986 26.780476,44.5511146 C26.0071413,43.7028872 25.3160502,42.777325 24.7292978,41.8014338 C24.3475405,41.1692527 23.6699521,40.993715 23.1543956,40.9617991 C23.1543956,40.9617991 20.2194064,41.0489541 20.2108138,41.0489541 C19.8597444,41.0489541 19.5430455,40.8316803 19.4178389,40.5039281 C19.2238915,39.9932731 19.0459017,39.46175 18.8887798,38.9277718 C18.7856685,38.5730138 18.9219227,38.1924777 19.2288015,37.9862516 L21.6200014,36.3695866 C22.1527431,36.008691 22.4412092,35.3863302 22.3736959,34.7455563 C22.3160026,34.1980752 22.2853148,33.6260434 22.2828597,33.0466464 C22.2804047,32.4660218 22.3086375,31.89399 22.3651033,31.348964 C22.4301616,30.7069626 22.1380129,30.0846018 21.6028162,29.7261612 L19.2030237,28.1242267 C18.8961449,27.9192281 18.7562081,27.5399195 18.8580919,27.183934 C19.0090763,26.6585486 19.1833835,26.128253 19.3785584,25.6065501 C19.5025375,25.2738879 19.8192364,25.0553864 20.1739884,25.0553864 C20.1801259,25.0553864 23.10775,25.1290386 23.10775,25.1290386 C23.7877935,25.1143082 24.3770009,24.7951488 24.6838797,24.2734459 C25.2620395,23.3024649 25.946993,22.370765 26.7215552,21.5090347 C27.1536406,21.0290681 27.2837573,20.3563783 27.0628045,19.751203 L26.0881573,17.0923598 C25.9617232,16.7461946 26.0734271,16.3582932 26.3643483,16.1311991 C26.8185289,15.7788962 27.2935774,15.4376412 27.7772184,15.1172542 C27.9196102,15.022734 28.0816422,14.9760876 28.2449018,14.9760876 C28.4253465,14.9760876 28.6045638,15.0325543 28.7543206,15.1467151 L31.1025575,16.9082294 C31.4082088,17.1365511 31.7690983,17.2568497 32.1484006,17.2568497 C32.3865386,17.2568497 32.618539,17.2089757 32.8382642,17.1144555 C33.9147952,16.6529019 35.0318341,16.2932338 36.1562382,16.0489541 C36.7749059,15.9139252 37.2720497,15.4523716 37.4537219,14.8459688 L38.2687921,12.0999705 C38.3719034,11.7538054 38.6824648,11.5107532 39.0433543,11.4935677 C39.3416405,11.4800648 39.6423818,11.4714721 39.9443506,11.4714721 C39.9713559,11.4714721 39.9971337,11.4739271 40.021684,11.4763822 C40.1174302,11.484975 40.2156315,11.484975 40.3138327,11.484975 L40.6072089,11.484975 C40.6845423,11.484975 40.7618758,11.484975 40.8379818,11.4886576 C41.2000988,11.5009329 41.5155702,11.74153 41.619909,12.0889227 L42.4521644,14.8349209 C42.6375193,15.4413238 43.137118,15.8991947 43.7545582,16.028086 C44.8863274,16.2686831 46.0033663,16.620986 47.0774423,17.0788569 C47.293485,17.1696946 47.5218028,17.216341 47.7574858,17.216341 C48.134333,17.216341 48.5074977,17.0911323 48.8070114,16.8628106 L51.1466557,15.0865658 C51.29764,14.9711775 51.4780848,14.9122557 51.6597571,14.9122557 C51.8205616,14.9122557 51.9813661,14.9589021 52.1225304,15.0497398 C52.6159915,15.3713542 53.09595,15.7101542 53.5489032,16.062457 C53.8398243,16.2870961 53.9539833,16.6749975 53.8287767,17.0199352 L52.8725422,19.682461 C52.6564995,20.2864087 52.7890712,20.957871 53.2199291,21.434155 C54.0092215,22.3106157 54.7003126,23.2423156 55.2747898,24.1985662 C55.5976263,24.7374546 56.1119552,25.0124227 56.8435544,25.0394285 C56.8435544,25.0394285 59.7871362,24.9498183 59.7945013,24.9498183 C60.1467982,24.9498183 60.4634972,25.1670922 60.5887037,25.4972994 C60.7949263,26.0410979 60.9667785,26.5578906 61.1165353,27.0746833 C61.2171916,27.4282137 61.0797099,27.8062948 60.7765136,28.0125209 L58.3877687,29.6291859 C57.8599371,29.988854 57.5702435,30.6038496 57.6340743,31.2372582 C57.6942225,31.8448885 57.7236829,32.4058725 57.7236829,32.9521261 C57.7261379,33.494697 57.6991326,34.0544535 57.6414394,34.6645389 C57.5825186,35.2991751 57.8746673,35.9141707 58.4037264,36.2713837 L60.8047464,37.8757733 C61.1103978,38.0807719 61.2503345,38.4600805 61.1484507,38.8148385 C60.9999214,39.3328587 60.8256142,39.8619267 60.6316668,40.3885397 M64.2307418,35.9890504 L61.568261,34.206668 C61.3252129,34.0458607 61.1840487,33.7696651 61.1914138,33.4787391 C61.1963238,33.3032014 61.1963238,33.1239811 61.1963238,32.9472159 C61.1963238,32.7655406 61.1938688,32.5850928 61.1889587,32.4021899 C61.1803661,32.1124914 61.3215304,31.8387509 61.5608959,31.6754886 L64.212329,29.8808308 C64.7929438,29.4892468 65.0789549,28.7907787 64.9402456,28.1033585 C64.5474407,26.1442109 63.9091328,24.2304822 63.0425069,22.4137288 C62.7564958,21.8134636 62.1415106,21.4267897 61.4761973,21.4267897 L61.4246417,21.4267897 C61.4246417,21.4267897 58.1434932,21.5249926 58.1349005,21.5249926 C57.8574821,21.5249926 57.5972488,21.3887361 57.4388993,21.161642 C57.2375868,20.873171 57.0215441,20.5797898 56.7760411,20.2679957 C56.5955963,20.039674 56.5452682,19.7327899 56.6434694,19.4590494 L57.7064977,16.4957773 C57.9446357,15.8292252 57.7605084,15.0939311 57.2363593,14.6213297 C55.7473832,13.2698124 54.091465,12.0938329 52.3127952,11.1216243 C52.0611546,10.9829127 51.773916,10.9092605 51.4854499,10.9092605 C51.1086027,10.9092605 50.737893,11.0356967 50.4359243,11.2677011 L47.853232,13.2256211 C47.7047026,13.3410095 47.5242579,13.3987037 47.3413581,13.3987037 C47.2480669,13.3987037 47.1547757,13.3839733 47.0651671,13.3532849 C46.6637696,13.2145733 46.2906049,13.0967298 45.9284879,12.9936168 C45.652297,12.9125994 45.4337992,12.6990082 45.3503282,12.4240401 L44.4321467,9.39693607 C44.2296067,8.73406658 43.656357,8.25532751 42.9714034,8.1767652 C41.974661,8.05892173 40.974236,8 40.0094089,8 C39.1108677,8.01473043 38.0380192,8.04787391 36.8939749,8.19149563 C36.2090214,8.27496808 35.6382267,8.75738977 35.4405968,9.41903172 L34.5420555,12.4510459 C34.459812,12.7272415 34.2425418,12.9432878 33.9663508,13.0243052 C33.5735459,13.1396936 33.1917886,13.2612197 32.8333542,13.390111 C32.7412905,13.4232544 32.6455443,13.4392124 32.5497981,13.4392124 C32.3681258,13.4392124 32.1889086,13.3815182 32.0403792,13.2698124 L29.4466393,11.3229402 C29.1483531,11.0983011 28.7764159,10.9743199 28.4020237,10.9743199 C28.1098751,10.9743199 27.8226365,11.0479721 27.5660858,11.1903663 C25.8181039,12.1552097 24.1683233,13.3385545 22.667072,14.7109398 C22.145378,15.1884513 21.9649332,15.9262005 22.2067538,16.5902976 L23.2869673,19.5449769 C23.3876235,19.8174899 23.3397504,20.1256015 23.1605332,20.3563783 C22.9383529,20.6411667 22.7149451,20.9443681 22.4964474,21.2573898 C22.3380979,21.4857115 22.0778647,21.6207404 21.8016737,21.6207404 C21.7943086,21.6207404 18.5377104,21.5409506 18.5377104,21.5409506 C17.8183864,21.5409506 17.1911261,21.9239419 16.9014324,22.5389374 C16.0458542,24.3741039 15.4173664,26.2890602 15.0331541,28.2322498 C14.8968999,28.9208976 15.187821,29.6218207 15.7733458,30.0121772 L18.4382817,31.790877 C18.6813297,31.9529117 18.822494,32.2303349 18.8151289,32.5212609 C18.8102188,32.7004812 18.8102188,32.880929 18.8102188,33.0626043 C18.8102188,33.2295492 18.8151289,33.3977217 18.8200389,33.5978101 C18.827404,33.8875086 18.6874673,34.1612491 18.4468743,34.3232839 L15.7893035,36.1191692 C15.2074612,36.5156634 14.9214502,37.2153589 15.0626144,37.9040067 C15.4603294,39.8606992 16.0998649,41.7719729 16.9628082,43.5825886 C17.2475918,44.1767161 17.8490743,44.5768929 18.4616044,44.5768929 C18.4922923,44.5768929 21.8630495,44.4750074 21.8716421,44.4750074 C22.1490606,44.4750074 22.4080663,44.6088088 22.5676433,44.8371305 C22.7677283,45.124374 22.986226,45.4165275 23.2317291,45.7320043 C23.4109463,45.960326 23.4600469,46.2659825 23.3618457,46.5421781 L22.2975899,49.5042227 C22.0582244,50.1695473 22.2435792,50.9048414 22.7652733,51.3798979 C24.2689796,52.7363252 25.9248978,53.9123048 27.6900648,54.8734656 C27.940478,55.0109496 28.226489,55.0833743 28.5149552,55.0833743 C28.8942574,55.0833743 29.2661946,54.9581656 29.5681633,54.7286163 L32.1496281,52.7694687 C32.299385,52.6553079 32.4798297,52.5976137 32.6627295,52.5976137 C32.7560207,52.5976137 32.8505394,52.6123441 32.9413755,52.64426 C33.29981,52.7694687 33.6827948,52.8909948 34.0768272,53.0039281 C34.3530182,53.083718 34.5702884,53.2985368 34.6537594,53.5735049 L35.5719409,56.6030639 C35.7732534,57.2659334 36.3465031,57.7446725 37.0388217,57.8232348 C38.0527494,57.9410783 39.0175765,57.9987725 39.9860861,58 C40.2364992,57.9864971 40.500415,57.9742217 40.7716959,57.9631739 C41.533983,57.9324855 42.3208203,57.9005696 43.1015201,57.8085044 C43.7926112,57.7250319 44.3646334,57.2426102 44.5622633,56.5785132 L45.4657146,53.544044 C45.5479581,53.2666208 45.7652284,53.0505745 46.0438744,52.9720122 C46.3912612,52.8713542 46.7607433,52.7522832 47.174416,52.607434 C47.2652521,52.575518 47.3597708,52.5595601 47.4542895,52.5595601 C47.6359618,52.5595601 47.815179,52.6172542 47.9637084,52.7301876 L50.5549933,54.6746047 C50.8557345,54.9004714 51.216624,55.0207699 51.5959263,55.0207699 C51.8868474,55.0207699 52.1753135,54.9458902 52.4330917,54.8047236 C54.1933488,53.8386527 55.8455844,52.6528528 57.3419256,51.2829225 C57.8623921,50.8066385 58.0416094,50.0701169 57.7997889,49.4060198 L56.7195753,46.452568 C56.6189191,46.1788275 56.6667922,45.8719434 56.8460094,45.6399391 C57.09274,45.3244623 57.3075552,45.0298537 57.5039577,44.7450653 C57.6635347,44.5142885 57.9237679,44.378032 58.2024139,44.378032 C58.209779,44.378032 61.5400281,44.4590494 61.5400281,44.4590494 C62.1844737,44.4590494 62.8276917,44.0490523 63.1038827,43.4610626 C63.9606884,41.6357164 64.5879487,39.718305 64.967251,37.7640676 C65.1022777,37.0766474 64.812584,36.3781793 64.2307418,35.9890504" id="Fill-4" fill="#FFFFFF"></path>
                        <path d="M40,41.5489478 C35.2863678,41.5489478 31.4510522,37.7136322 31.4510522,33 C31.4510522,28.2863678 35.2863678,24.4498323 40,24.4498323 C44.7136322,24.4498323 48.5489478,28.2863678 48.5489478,33 C48.5489478,37.7136322 44.7136322,41.5489478 40,41.5489478 M40,21 C33.3833486,21 28,26.3833486 28,33 C28,39.6178713 33.3833486,45 40,45 C46.6166514,45 52,39.6178713 52,33 C52,26.3833486 46.6166514,21 40,21" id="Fill-6" fill="#FFFFFF"></path>
                    </g>
                </g>
            </g>
        </g>
    </g>
</svg>