<?xml version="1.0" encoding="UTF-8"?>
<svg width="227px" height="226px" viewBox="0 0 227 226" version="1.1" xmlns="http://www.w3.org/2000/svg" xmlns:xlink="http://www.w3.org/1999/xlink">
    <!-- Generator: Sketch 53 (72520) - https://sketchapp.com -->
    <title>how_it_works_title_1</title>
    <desc>Created with Sketch.</desc>
    <defs>
        <radialGradient cx="45.6609446%" cy="61.3606524%" fx="45.6609446%" fy="61.3606524%" r="73.3217441%" id="radialGradient-1">
            <stop stop-color="#D1F9F6" offset="0%"></stop>
            <stop stop-color="#A4F1EA" offset="100%"></stop>
        </radialGradient>
        <radialGradient cx="50%" cy="50%" fx="50%" fy="50%" r="124.726615%" gradientTransform="translate(0.500000,0.500000),scale(1.000000,0.990566),rotate(-90.000000),translate(-0.500000,-0.500000)" id="radialGradient-2">
            <stop stop-color="#0CD2C2" offset="0%"></stop>
            <stop stop-color="#CDFFFB" offset="100%"></stop>
        </radialGradient>
    </defs>
    <g id="HD_Desktop" stroke="none" stroke-width="1" fill="none" fill-rule="evenodd">
        <g id="VW_HD_Desktop_Learn" transform="translate(-281.000000, -2910.000000)">
            <g id="How_it_works_module" transform="translate(0.000000, 1693.000000)">
                <g id="how_it_works_title_1" transform="translate(394.702456, 1329.886911) rotate(-336.000000) translate(-394.702456, -1329.886911) translate(244.202456, 1179.386911)">
                    <circle id="Oval" fill="url(#radialGradient-1)" transform="translate(150.500000, 150.500000) rotate(-25.000000) translate(-150.500000, -150.500000) " cx="150.5" cy="150.5" r="112.875"></circle>
                    <ellipse id="Oval" fill="url(#radialGradient-2)" transform="translate(151.440625, 150.500000) rotate(-25.000000) translate(-151.440625, -150.500000) " cx="151.440625" cy="150.5" rx="98.765625" ry="99.70625"></ellipse>
                    <path d="M119.668268,91.248976 C121.10456,89.2097755 123.516147,88.0852341 126.001495,88.2957435 C138.276799,89.3765605 175.253699,92.619189 187.54027,93.6947485 C190.031027,93.9168566 192.210173,95.4419468 193.264637,97.7032524 C198.47748,108.88223 214.170085,142.535129 219.382928,153.714107 C220.437393,155.975416 220.204952,158.625047 218.774067,160.675843 C211.70034,170.779262 190.427311,201.184275 183.353583,211.287693 C181.917291,213.326894 179.505705,214.451435 177.020356,214.240926 C164.733784,213.165363 127.768153,209.917483 115.481581,208.841921 C112.990825,208.619816 110.81168,207.094725 109.757214,204.833417 C104.544371,193.654439 88.8517666,160.00154 83.6389237,148.822562 C82.5844596,146.561256 82.8169006,143.911625 84.2477839,141.860826 C91.3102443,131.762665 112.605809,101.34714 119.668268,91.248976 Z M176.090587,136.192438 L173.32194,130.255056 L167.552166,132.945546 L170.320813,138.882928 L164.551038,141.573418 L167.319685,147.510801 L173.089459,144.820311 L175.858106,150.757693 L181.627881,148.067203 L178.859234,142.129821 L184.629008,139.439331 L181.860361,133.501948 L176.090587,136.192438 Z M196.284797,126.775724 L193.51615,120.838341 L187.746376,123.528831 L190.515023,129.466213 L184.745248,132.156703 L187.513895,138.094086 L193.28367,135.403596 L196.052317,141.340978 L201.822091,138.650488 L199.053444,132.713106 L204.823218,130.022616 L202.054572,124.085234 L196.284797,126.775724 Z M176.427587,114.304398 C163.64001,105.277212 146.823496,103.059268 132.011539,109.966198 C109.690079,120.374865 100.316941,147.591183 111.09415,170.702982 C121.87136,193.814785 148.745205,204.128853 171.066665,193.720186 C186.118423,186.701435 195.28252,172.040175 196.350707,156.14839 L173.921209,154.315444 C173.287262,162.137805 168.727735,169.319423 161.302883,172.781689 C150.142153,177.986022 136.70523,172.828987 131.316626,161.273087 C125.928021,149.717187 130.61459,136.109028 141.77532,130.904695 C149.077223,127.499761 157.353434,128.529935 163.712608,132.88553 L176.427587,114.304398 Z" id="Combined-Shape" fill="#CDFFFB"></path>
                </g>
            </g>
        </g>
    </g>
</svg>