<?xml version="1.0" encoding="UTF-8"?>
<svg width="89px" height="89px" viewBox="0 0 89 89" version="1.1" xmlns="http://www.w3.org/2000/svg" xmlns:xlink="http://www.w3.org/1999/xlink">
    <!-- Generator: sketchtool 53 (72520) - https://sketchapp.com -->
    <title>27EFFC6D-528F-42C5-B426-2ECE8F75040B</title>
    <desc>Created with sketchtool.</desc>
    <g id="For-Build-MVP" stroke="none" stroke-width="1" fill="none" fill-rule="evenodd">
        <g id="VW-Bluesky-MidFidelity---Home" transform="translate(-737.000000, -6899.000000)" fill="#939393" fill-rule="nonzero">
            <g id="Resources" transform="translate(0.000000, 6641.000000)">
                <g id="Group-5" transform="translate(617.000000, 203.000000)">
                    <g id="Data_Sets_icon" transform="translate(120.000000, 55.000000)">
                        <g id="Group">
                            <path d="M2.47222222,89 L86.5277778,89 C87.8931484,89 89,87.8931484 89,86.5277778 L89,17.3055556 L49.4444444,17.3055556 C48.7873204,17.3093548 48.1557216,17.0513778 47.6891667,16.5886111 L36.045,4.94444444 L31.1005556,0 L2.47222222,0 C1.10685159,0 0,1.10685159 0,2.47222222 L0,86.5277778 C0,87.8931484 1.10685159,89 2.47222222,89 Z M57.5780556,41.3108333 C56.6086424,40.3414202 56.6086424,38.7696909 57.5780556,37.8002778 C58.5474687,36.8308646 60.119198,36.8308646 61.0886111,37.8002778 L70.9775,47.6891667 C71.4455229,48.1533674 71.7087792,48.7852572 71.7087792,49.4444444 C71.7087792,50.1036317 71.4455229,50.7355215 70.9775,51.1997222 L61.0886111,61.0886111 C60.6244104,61.5566341 59.9925206,61.8198903 59.3333333,61.8198903 C58.6741461,61.8198903 58.0422563,61.5566341 57.5780556,61.0886111 C57.1100326,60.6244104 56.8467764,59.9925206 56.8467764,59.3333333 C56.8467764,58.6741461 57.1100326,58.0422563 57.5780556,57.5780556 L65.7363889,49.4444444 L57.5780556,41.3108333 Z M37.3552778,58.2208333 L47.2441667,38.4430556 C47.6004075,37.5875712 48.4051596,37.0031535 49.3288906,36.929112 C50.2526216,36.8550704 51.1401888,37.3038404 51.6281483,38.091658 C52.1161078,38.8794756 52.1225057,39.8740253 51.6447222,40.6680556 L41.7558333,60.4458333 C41.3369147,61.2771914 40.4864911,61.802734 39.5555556,61.8055556 C39.1677204,61.8101963 38.7850144,61.716646 38.4430556,61.5336111 C37.2308929,60.9166047 36.744826,59.4363102 37.3552778,58.2208333 Z M32.1388889,9.88888889 C33.5042595,9.88888889 34.6111111,10.9957405 34.6111111,12.3611111 C34.6111111,13.7264817 33.5042595,14.8333333 32.1388889,14.8333333 C30.7735183,14.8333333 29.6666667,13.7264817 29.6666667,12.3611111 C29.6666667,10.9957405 30.7735183,9.88888889 32.1388889,9.88888889 Z M22.25,9.88888889 C23.6153706,9.88888889 24.7222222,10.9957405 24.7222222,12.3611111 C24.7222222,13.7264817 23.6153706,14.8333333 22.25,14.8333333 C20.8846294,14.8333333 19.7777778,13.7264817 19.7777778,12.3611111 C19.7777778,10.9957405 20.8846294,9.88888889 22.25,9.88888889 Z M18.0225,47.6891667 L27.9113889,37.8002778 C28.880802,36.8308646 30.4525313,36.8308646 31.4219444,37.8002778 C32.3913576,38.7696909 32.3913576,40.3414202 31.4219444,41.3108333 L23.2636111,49.4444444 L31.4219444,57.5780556 C31.8899674,58.0422563 32.1532236,58.6741461 32.1532236,59.3333333 C32.1532236,59.9925206 31.8899674,60.6244104 31.4219444,61.0886111 C30.9577437,61.5566341 30.3258539,61.8198903 29.6666667,61.8198903 C29.0074794,61.8198903 28.3755896,61.5566341 27.9113889,61.0886111 L18.0225,51.1997222 C17.5544771,50.7355215 17.2912208,50.1036317 17.2912208,49.4444444 C17.2912208,48.7852572 17.5544771,48.1533674 18.0225,47.6891667 Z M12.3611111,9.88888889 C13.7264817,9.88888889 14.8333333,10.9957405 14.8333333,12.3611111 C14.8333333,13.7264817 13.7264817,14.8333333 12.3611111,14.8333333 C10.9957405,14.8333333 9.88888889,13.7264817 9.88888889,12.3611111 C9.88888889,10.9957405 10.9957405,9.88888889 12.3611111,9.88888889 Z" id="Shape"></path>
                            <path d="M50.4580556,12.3611111 L89,12.3611111 L89,2.47222222 C89,1.10685159 87.8931484,0 86.5277778,0 L38.1216667,0 L43.0661111,4.94444444 L50.4580556,12.3611111 Z" id="Path"></path>
                        </g>
                    </g>
                </g>
            </g>
        </g>
    </g>
</svg>