<?xml version="1.0" encoding="UTF-8"?>
<svg width="98px" height="89px" viewBox="0 0 98 89" version="1.1" xmlns="http://www.w3.org/2000/svg" xmlns:xlink="http://www.w3.org/1999/xlink">
    <!-- Generator: sketchtool 53 (72520) - https://sketchapp.com -->
    <title>91CEEACF-0442-48CB-9CA4-FB961563888F</title>
    <desc>Created with sketchtool.</desc>
    <g id="For-Build-MVP" stroke="none" stroke-width="1" fill="none" fill-rule="evenodd">
        <g id="VW-Bluesky-MidFidelity---Home" transform="translate(-1091.000000, -6899.000000)" fill="#939393" fill-rule="nonzero">
            <g id="Resources" transform="translate(0.000000, 6641.000000)">
                <g id="Group-11" transform="translate(976.000000, 203.000000)">
                    <g id="Demo_Links" transform="translate(115.000000, 55.000000)">
                        <path d="M98,33.5893349 L98,65.3823394 C98,70.4288481 94.3337074,74.6679154 89.5471588,75.6772171 L89.5471588,85.0637232 C89.5471588,87.2841871 87.7140126,89 85.5753419,89 C84.5569273,89 83.5385127,88.5962793 82.723781,87.8897681 L70.7064888,75.9800076 L34.3490876,75.9800076 C28.6459658,75.9800076 24.0631001,71.53908 23.7575758,66.0888507 L29.8680633,60.0330403 L31.0901609,60.0330403 L31.0901609,65.4832696 C31.0901609,67.1990826 32.5159413,68.7130352 34.3490876,68.7130352 L73.7617326,68.7130352 L82.1127323,76.9893094 L82.1127323,68.7130352 L87.4084882,68.7130352 C89.139793,68.7130352 90.6674149,67.3000127 90.6674149,65.4832696 L90.6674149,33.5893349 C90.6674149,31.8735219 89.2416345,30.3595693 87.4084882,30.3595693 L80.9924762,30.3595693 L80.9924762,22.9916667 L87.4084882,22.9916667 C93.2134514,23.0925968 98,27.836315 98,33.5893349 Z M0,42.3545048 L0,10.5128127 C0,4.64989791 4.74519231,0 10.5,0 L63,0 C68.8557692,0 73.5,4.75098264 73.5,10.5128127 L73.5,42.3545048 C73.5,48.2174196 68.7548077,52.8673175 63,52.8673175 L27.0576923,52.8673175 L15.1442308,64.8964012 C14.4375,65.6039944 13.4278846,66.0083333 12.4182692,66.0083333 C11.4086538,66.0083333 10.5,65.6039944 9.69230769,64.8964012 C8.88461538,64.1888081 8.48076923,63.076876 8.48076923,61.9649438 L8.48076923,52.5640633 C3.63461538,51.6543007 0,47.4087417 0,42.3545048 Z M40.0909091,37.9507062 C40.0909091,37.0456215 39.3886159,36.3416667 38.4856675,36.3416667 L34.2719083,36.3416667 C33.3689599,36.3416667 32.6666667,37.0456215 32.6666667,37.9507062 L32.6666667,40.6659605 C32.6666667,41.5710452 33.3689599,42.275 34.2719083,42.275 L38.4856675,42.275 C39.3886159,42.275 40.0909091,41.5710452 40.0909091,40.6659605 L40.0909091,37.9507062 Z M25.9848485,17.8220922 C25.9848485,18.4280496 26.3879748,18.9330142 26.9926642,18.9330142 L31.7293981,19.0340071 C32.5356506,19.0340071 33.2411216,18.5290426 33.4426848,17.8220922 C33.6442479,17.2161348 33.9465926,16.7111702 34.3497189,16.3071986 C35.0551899,15.7012411 35.8614425,15.3982624 36.8692582,15.3982624 C38.078637,15.3982624 39.0864528,15.802234 39.6911422,16.5091844 C40.3966132,17.2161348 40.6989579,18.2260638 40.6989579,19.5389716 C40.6989579,20.7508865 40.3966132,21.7608156 39.7919238,22.7707447 C39.1872343,23.6796809 38.4817633,24.4876241 37.4739476,25.0935816 C35.5590978,26.4064894 34.2489373,27.6184043 33.4426848,28.7293262 C32.8379953,29.5372695 32.5356506,30.6481915 32.4348691,32.1630851 C32.3340875,32.8700355 32.9387769,33.375 33.6442479,33.375 L38.784108,33.375 C39.3887975,33.375 39.8927053,32.9710284 39.9934869,32.3650709 C40.0942685,31.5571277 40.19505,30.9511702 40.4973948,30.4462057 C40.7997395,29.7392553 41.5052105,29.032305 42.4122446,28.4263475 C44.1255313,27.5174113 45.5364733,26.3054965 46.6450706,24.7906028 C47.7536679,23.2757092 48.2575758,21.5588298 48.2575758,19.6399645 C48.2575758,16.6101773 47.24976,14.1863475 45.2341286,12.3684752 C43.2184972,10.5506028 40.3966132,9.64166667 36.8692582,9.64166667 C33.5434663,9.64166667 30.9231455,10.4496099 28.9075141,11.9645035 C27.0934458,13.2774113 26.1864116,15.2972695 25.9848485,17.8220922 Z" id="Shape"></path>
                    </g>
                </g>
            </g>
        </g>
    </g>
</svg>