<?xml version="1.0" encoding="UTF-8"?>
<svg width="16px" height="16px" viewBox="0 0 16 16" version="1.1" xmlns="http://www.w3.org/2000/svg" xmlns:xlink="http://www.w3.org/1999/xlink">
    <!-- Generator: sketchtool 57.1 (101010) - https://sketch.com -->
    <title>A7C06A49-12BC-427C-AB40-55E892419577</title>
    <desc>Created with sketchtool.</desc>
    <g id="Modules" stroke="none" stroke-width="1" fill="none" fill-rule="evenodd">
        <g id="components" transform="translate(-732.000000, -1374.000000)" stroke="#666666">
            <g id="button_edit" transform="translate(725.000000, 1367.000000)">
                <g id="icon_edit">
                    <g transform="translate(8.000000, 8.000000)">
                        <path d="M3.99393044,12.9415251 C0,14.0005708 0,14.0005708 0,14.0005708 C1.01972683,10.1032854 1.01972683,10.1032854 1.01972683,10.1032854 C10.5796678,0.571884022 10.5796678,0.571884022 10.5796678,0.571884022 C11.3869516,-0.190628007 12.6616087,-0.190628007 13.4264037,0.571884022 C14.1911988,1.33439644 14.1911988,2.60524969 13.4264037,3.41012378 L3.99393044,12.9415251 Z M9.85736179,1.29203475 C12.7465866,4.13027415 12.7465866,4.13027415 12.7465866,4.13027415 L9.85736179,1.29203475 Z M3.99393054,12.9415258 C3.99393054,12.9415258 4.16388585,11.9672073 3.14415786,10.8234382 C2.12443101,9.67966917 1.0197269,10.1032859 1.0197269,10.1032859"></path>
                    </g>
                </g>
            </g>
        </g>
    </g>
</svg>