<?xml version="1.0" encoding="UTF-8"?>
<svg width="16px" height="16px" viewBox="0 0 16 16" version="1.1" xmlns="http://www.w3.org/2000/svg" xmlns:xlink="http://www.w3.org/1999/xlink">
    <!-- Generator: Sketch 57.1 (83088) - https://sketch.com -->
    <title>icon_edit</title>
    <desc>Created with Sketch.</desc>
    <g id="Symbols" stroke="none" stroke-width="1" fill="none" fill-rule="evenodd">
        <g id="button_edit" transform="translate(-7.000000, -7.000000)" stroke="#2A3B93">
            <g id="icon_edit_selected">
                <g transform="translate(8.000000, 8.000000)">
                    <path d="M3.99393054,13.0502777 C0,14.1182229 0,14.1182229 0,14.1182229 C1.01972686,10.1881871 1.01972686,10.1881871 1.01972686,10.1881871 C10.579668,0.576689783 10.579668,0.576689783 10.579668,0.576689783 C11.3869519,-0.192229928 12.661609,-0.192229928 13.4264041,0.576689783 C14.1911991,1.34560988 14.1911991,2.62714261 13.4264041,3.43878036 L3.99393054,13.0502777 Z M9.85736179,1.30289223 C12.7465867,4.16498242 12.7465867,4.16498242 12.7465867,4.16498242 L9.85736179,1.30289223 Z M3.99393054,13.0502777 C3.99393054,13.0502777 4.16388585,12.0677717 3.14415784,10.9143911 C2.12443098,9.7610106 1.01972686,10.1881871 1.01972686,10.1881871" id="icon_edit"></path>
                </g>
            </g>
        </g>
    </g>
</svg>