<?xml version="1.0" encoding="UTF-8"?>
<svg width="70px" height="89px" viewBox="0 0 70 89" version="1.1" xmlns="http://www.w3.org/2000/svg" xmlns:xlink="http://www.w3.org/1999/xlink">
    <!-- Generator: sketchtool 53 (72520) - https://sketchapp.com -->
    <title>8ECABB4E-BBB0-488A-9487-A75AA89D958D</title>
    <desc>Created with sketchtool.</desc>
    <g id="For-Build-MVP" stroke="none" stroke-width="1" fill="none" fill-rule="evenodd">
        <g id="VW-Bluesky-MidFidelity---Home" transform="translate(-384.000000, -6899.000000)" fill="#939393" fill-rule="nonzero">
            <g id="Resources" transform="translate(0.000000, 6641.000000)">
                <g id="Group-12" transform="translate(255.000000, 203.000000)">
                    <g id="Documentation_icon" transform="translate(129.000000, 55.000000)">
                        <g id="Group">
                            <path d="M0,0.0233643057 L0,88.9240176 L70,88.9240176 L70,21.7064452 L50.3125,21.7064452 C49.1671578,21.7063368 48.1251094,20.6734307 48.125,19.5381371 L48.125,0.0233643057 L0,0.0233643057 Z M52.5,2.19168323 L52.5,17.3698398 L67.8125,17.3698398 L52.5,2.19168323 Z M12.03125,16.2856858 L33.90625,16.2856858 C35.1144063,16.2856858 36.09375,17.2564373 36.09375,18.4539939 C36.09375,19.6515504 35.1144063,20.622302 33.90625,20.622302 L12.03125,20.622302 C10.8230937,20.622302 9.84375,19.6515504 9.84375,18.4539939 C9.84375,17.2564373 10.8230937,16.2856858 12.03125,16.2856858 Z M12.03125,33.6321505 L57.96875,33.6321505 C59.1769063,33.6321505 60.15625,34.602902 60.15625,35.8004586 C60.15625,36.9980151 59.1769063,37.9687667 57.96875,37.9687667 L12.03125,37.9687667 C10.8230937,37.9687667 9.84375,36.9980151 9.84375,35.8004586 C9.84375,34.602902 10.8230937,33.6321505 12.03125,33.6321505 Z M12.03125,50.978626 L57.96875,50.978626 C59.1769063,50.978626 60.15625,51.9493776 60.15625,53.1469341 C60.15625,54.3444907 59.1769063,55.3152422 57.96875,55.3152422 L12.03125,55.3152422 C10.8230937,55.3152422 9.84375,54.3444907 9.84375,53.1469341 C9.84375,51.9493776 10.8230937,50.978626 12.03125,50.978626 Z M12.03125,68.3250907 L57.96875,68.3250907 C59.1769063,68.3250907 60.15625,69.2958423 60.15625,70.4933988 C60.15625,71.6909554 59.1769063,72.6617069 57.96875,72.6617069 L12.03125,72.6617069 C10.8230937,72.6617069 9.84375,71.6909554 9.84375,70.4933988 C9.84375,69.2958423 10.8230937,68.3250907 12.03125,68.3250907 Z" id="Shape"></path>
                        </g>
                    </g>
                </g>
            </g>
        </g>
    </g>
</svg>