<?xml version="1.0" encoding="UTF-8"?>
<svg width="121px" height="89px" viewBox="0 0 121 89" version="1.1" xmlns="http://www.w3.org/2000/svg" xmlns:xlink="http://www.w3.org/1999/xlink">
    <!-- Generator: sketchtool 53 (72520) - https://sketchapp.com -->
    <title>24C89237-07A2-418A-9AE1-43EC363F92CC</title>
    <desc>Created with sketchtool.</desc>
    <g id="For-Build-MVP" stroke="none" stroke-width="1" fill="none" fill-rule="evenodd">
        <g id="VW-Bluesky-MidFidelity---Home" transform="translate(-1439.000000, -6899.000000)" fill="#939393" fill-rule="nonzero">
            <g id="Resources" transform="translate(0.000000, 6641.000000)">
                <g id="Research" transform="translate(1336.000000, 203.000000)">
                    <g id="Rearch_Icon" transform="translate(103.000000, 55.000000)">
                        <rect id="Rectangle" x="82" y="37" width="16" height="16"></rect>
                        <path d="M113.592531,0 L7.40746875,0 C3.33317187,0 0,3.36226884 0,7.47213234 L0,15.2570339 L0,15.2837337 L0,89 L121,89 L121,15.2837337 L121,15.2570339 L121,7.47213234 C121,3.36226884 117.666828,0 113.592531,0 Z M31.9666875,23.715152 C33.7174062,23.715152 35.1372656,25.1474061 35.1372656,26.9134078 C35.1372656,28.6794094 33.7174062,30.1116635 31.9666875,30.1116635 C30.2159687,30.1116635 28.7961094,28.6794094 28.7961094,26.9134078 C28.7961094,25.1474061 30.2140781,23.715152 31.9666875,23.715152 Z M23.0996562,5.51351062 C24.2642812,5.51351062 25.2095937,6.46707524 25.2095937,7.64186684 C25.2095937,8.81665845 24.2642812,9.77022307 23.0996562,9.77022307 C21.9350312,9.77022307 20.9897187,8.81665845 20.9897187,7.64186684 C20.9897187,6.46707524 21.9350312,5.51351062 23.0996562,5.51351062 Z M10.4438125,9.76831594 C9.2791875,9.76831594 8.333875,8.81475132 8.333875,7.63995971 C8.333875,6.46516811 9.2791875,5.51160349 10.4438125,5.51160349 C11.6084375,5.51160349 12.55375,6.46516811 12.55375,7.63995971 C12.55375,8.81475132 11.6084375,9.76831594 10.4438125,9.76831594 Z M16.7717344,9.76831594 C15.6071094,9.76831594 14.6617969,8.81475132 14.6617969,7.63995971 C14.6617969,6.46516811 15.6071094,5.51160349 16.7717344,5.51160349 C17.9363594,5.51160349 18.8816719,6.46516811 18.8816719,7.63995971 C18.8816719,8.81475132 17.9363594,9.76831594 16.7717344,9.76831594 Z M39.8921875,74.8853365 L24.0392969,74.8853365 L24.0392969,71.6870808 L39.8921875,71.6870808 L39.8921875,74.8853365 Z M43.0627656,68.4888251 L20.8687187,68.4888251 L20.8687187,65.2905694 L43.0627656,65.2905694 L43.0627656,68.4888251 Z M43.0627656,55.6977093 L20.8687187,55.6977093 L20.8687187,33.3099192 L43.0627656,33.3099192 L43.0627656,55.6977093 Z M68.4255,74.8853365 L52.5726094,74.8853365 L52.5726094,71.6870808 L68.4255,71.6870808 L68.4255,74.8853365 Z M71.5960781,68.4888251 L49.4039219,68.4888251 L49.4039219,65.2905694 L71.5979687,65.2905694 L71.5979687,68.4888251 L71.5960781,68.4888251 Z M71.5960781,55.6977093 L49.4039219,55.6977093 L49.4039219,33.3099192 L71.5979687,33.3099192 L71.5979687,55.6977093 L71.5960781,55.6977093 Z M57.3294219,26.9134078 C57.3294219,25.1474061 58.7492813,23.715152 60.5,23.715152 C62.2507188,23.715152 63.6705781,25.1474061 63.6705781,26.9134078 C63.6705781,28.6794094 62.2507188,30.1116635 60.5,30.1116635 C58.7492813,30.1116635 57.3294219,28.6794094 57.3294219,26.9134078 Z M96.9607031,74.8853365 L81.1078125,74.8853365 L81.1078125,71.6870808 L96.9607031,71.6870808 L96.9607031,74.8853365 Z M100.131281,68.4888251 L77.9372344,68.4888251 L77.9372344,65.2905694 L100.131281,65.2905694 L100.131281,68.4888251 Z M100.131281,55.6977093 L77.9372344,55.6977093 L77.9372344,33.3099192 L100.131281,33.3099192 L100.131281,55.6977093 Z M85.8627344,26.9134078 C85.8627344,25.1474061 87.2825937,23.715152 89.0333125,23.715152 C90.7840312,23.715152 92.2038906,25.1474061 92.2038906,26.9134078 C92.2038906,28.6794094 90.7840312,30.1116635 89.0333125,30.1116635 C87.2825937,30.1116635 85.8627344,28.6794094 85.8627344,26.9134078 Z M102.171266,11.377933 L44.1404219,11.377933 C42.1023281,11.377933 40.4366875,9.69584503 40.4366875,7.64186684 C40.4366875,5.58598153 42.1042188,3.90580067 44.1404219,3.90580067 L102.171266,3.90580067 C104.209359,3.90580067 105.875,5.58788866 105.875,7.64186684 C105.875,9.69584503 104.207469,11.377933 102.171266,11.377933 Z" id="Shape"></path>
                        <rect id="Rectangle" x="23" y="37" width="16" height="16"></rect>
                        <rect id="Rectangle" x="53" y="37" width="16" height="16"></rect>
                    </g>
                </g>
            </g>
        </g>
    </g>
</svg>