<?xml version="1.0" encoding="UTF-8"?>
<svg width="449px" height="555px" viewBox="0 0 449 555" version="1.1" xmlns="http://www.w3.org/2000/svg" xmlns:xlink="http://www.w3.org/1999/xlink">
    <!-- Generator: Sketch 60 (88103) - https://sketch.com -->
    <title>diagram_1</title>
    <desc>Created with Sketch.</desc>
    <defs>
        <polygon id="path-1" points="95 374.883507 149.179823 405.885 203 374.886493 148.820177 343.885"></polygon>
        <filter x="-25.5%" y="-28.2%" width="150.9%" height="188.7%" filterUnits="objectBoundingBox" id="filter-2">
            <feOffset dx="0" dy="10" in="SourceAlpha" result="shadowOffsetOuter1"></feOffset>
            <feGaussianBlur stdDeviation="7.5" in="shadowOffsetOuter1" result="shadowBlurOuter1"></feGaussianBlur>
            <feColorMatrix values="0 0 0 0 0   0 0 0 0 0   0 0 0 0 0  0 0 0 0.1 0" type="matrix" in="shadowBlurOuter1"></feColorMatrix>
        </filter>
        <polygon id="path-3" points="95 351.885 149.176298 382.885 203 351.884004 148.824706 320.885"></polygon>
        <filter x="-25.5%" y="-28.2%" width="150.9%" height="188.7%" filterUnits="objectBoundingBox" id="filter-4">
            <feOffset dx="0" dy="10" in="SourceAlpha" result="shadowOffsetOuter1"></feOffset>
            <feGaussianBlur stdDeviation="7.5" in="shadowOffsetOuter1" result="shadowBlurOuter1"></feGaussianBlur>
            <feColorMatrix values="0 0 0 0 0   0 0 0 0 0   0 0 0 0 0  0 0 0 0.1 0" type="matrix" in="shadowBlurOuter1"></feColorMatrix>
        </filter>
        <polygon id="path-5" points="95 324.883507 149.179823 355.885 203 324.887489 148.820177 293.885"></polygon>
        <filter x="-25.5%" y="-28.2%" width="150.9%" height="188.7%" filterUnits="objectBoundingBox" id="filter-6">
            <feOffset dx="0" dy="10" in="SourceAlpha" result="shadowOffsetOuter1"></feOffset>
            <feGaussianBlur stdDeviation="7.5" in="shadowOffsetOuter1" result="shadowBlurOuter1"></feGaussianBlur>
            <feColorMatrix values="0 0 0 0 0   0 0 0 0 0   0 0 0 0 0  0 0 0 0.1 0" type="matrix" in="shadowBlurOuter1"></feColorMatrix>
        </filter>
        <polygon id="path-7" points="95 301.883507 149.179823 332.885 203 301.887489 148.820177 270.885"></polygon>
        <filter x="-25.5%" y="-28.2%" width="150.9%" height="188.7%" filterUnits="objectBoundingBox" id="filter-8">
            <feOffset dx="0" dy="10" in="SourceAlpha" result="shadowOffsetOuter1"></feOffset>
            <feGaussianBlur stdDeviation="7.5" in="shadowOffsetOuter1" result="shadowBlurOuter1"></feGaussianBlur>
            <feColorMatrix values="0 0 0 0 0   0 0 0 0 0   0 0 0 0 0  0 0 0 0.1 0" type="matrix" in="shadowBlurOuter1"></feColorMatrix>
        </filter>
        <polygon id="path-9" points="95 479.883507 149.179823 510.885 203 479.887489 148.820177 448.885"></polygon>
        <filter x="-25.5%" y="-28.2%" width="150.9%" height="188.7%" filterUnits="objectBoundingBox" id="filter-10">
            <feOffset dx="0" dy="10" in="SourceAlpha" result="shadowOffsetOuter1"></feOffset>
            <feGaussianBlur stdDeviation="7.5" in="shadowOffsetOuter1" result="shadowBlurOuter1"></feGaussianBlur>
            <feColorMatrix values="0 0 0 0 0   0 0 0 0 0   0 0 0 0 0  0 0 0 0.1 0" type="matrix" in="shadowBlurOuter1"></feColorMatrix>
        </filter>
        <polygon id="path-11" points="90.9374 87.5589 149.7474 121.5109 208.1744 87.5579 149.3644 53.6049"></polygon>
        <filter x="-23.5%" y="-25.8%" width="146.9%" height="181.0%" filterUnits="objectBoundingBox" id="filter-12">
            <feOffset dx="0" dy="10" in="SourceAlpha" result="shadowOffsetOuter1"></feOffset>
            <feGaussianBlur stdDeviation="7.5" in="shadowOffsetOuter1" result="shadowBlurOuter1"></feGaussianBlur>
            <feColorMatrix values="0 0 0 0 0   0 0 0 0 0   0 0 0 0 0  0 0 0 0.1 0" type="matrix" in="shadowBlurOuter1"></feColorMatrix>
        </filter>
        <polygon id="path-13" points="90.9374 62.637 149.7474 96.591 208.1744 62.637 149.3644 28.684"></polygon>
        <filter x="-23.5%" y="-25.8%" width="146.9%" height="181.0%" filterUnits="objectBoundingBox" id="filter-14">
            <feOffset dx="0" dy="10" in="SourceAlpha" result="shadowOffsetOuter1"></feOffset>
            <feGaussianBlur stdDeviation="7.5" in="shadowOffsetOuter1" result="shadowBlurOuter1"></feGaussianBlur>
            <feColorMatrix values="0 0 0 0 0   0 0 0 0 0   0 0 0 0 0  0 0 0 0.1 0" type="matrix" in="shadowBlurOuter1"></feColorMatrix>
        </filter>
        <polygon id="path-15" points="90.9374 33.954 149.7474 67.907 208.1744 33.954 149.3644 0"></polygon>
        <filter x="-23.5%" y="-25.8%" width="146.9%" height="181.0%" filterUnits="objectBoundingBox" id="filter-16">
            <feOffset dx="0" dy="10" in="SourceAlpha" result="shadowOffsetOuter1"></feOffset>
            <feGaussianBlur stdDeviation="7.5" in="shadowOffsetOuter1" result="shadowBlurOuter1"></feGaussianBlur>
            <feColorMatrix values="0 0 0 0 0   0 0 0 0 0   0 0 0 0 0  0 0 0 0.1 0" type="matrix" in="shadowBlurOuter1"></feColorMatrix>
        </filter>
        <polygon id="path-17" points="19.3343 130.3899 78.1433 164.3419 136.5693 130.3889 77.7603 96.4359"></polygon>
        <filter x="-23.5%" y="-25.8%" width="146.9%" height="181.0%" filterUnits="objectBoundingBox" id="filter-18">
            <feOffset dx="0" dy="10" in="SourceAlpha" result="shadowOffsetOuter1"></feOffset>
            <feGaussianBlur stdDeviation="7.5" in="shadowOffsetOuter1" result="shadowBlurOuter1"></feGaussianBlur>
            <feColorMatrix values="0 0 0 0 0   0 0 0 0 0   0 0 0 0 0  0 0 0 0.1 0" type="matrix" in="shadowBlurOuter1"></feColorMatrix>
        </filter>
        <polygon id="path-19" points="19.3343 105.468 78.1433 139.422 136.5693 105.468 77.7603 71.515"></polygon>
        <filter x="-23.5%" y="-25.8%" width="146.9%" height="181.0%" filterUnits="objectBoundingBox" id="filter-20">
            <feOffset dx="0" dy="10" in="SourceAlpha" result="shadowOffsetOuter1"></feOffset>
            <feGaussianBlur stdDeviation="7.5" in="shadowOffsetOuter1" result="shadowBlurOuter1"></feGaussianBlur>
            <feColorMatrix values="0 0 0 0 0   0 0 0 0 0   0 0 0 0 0  0 0 0 0.1 0" type="matrix" in="shadowBlurOuter1"></feColorMatrix>
        </filter>
        <polygon id="path-21" points="19.3343 76.785 78.1433 110.738 136.5693 76.784 77.7603 42.831"></polygon>
        <filter x="-23.5%" y="-25.8%" width="146.9%" height="181.0%" filterUnits="objectBoundingBox" id="filter-22">
            <feOffset dx="0" dy="10" in="SourceAlpha" result="shadowOffsetOuter1"></feOffset>
            <feGaussianBlur stdDeviation="7.5" in="shadowOffsetOuter1" result="shadowBlurOuter1"></feGaussianBlur>
            <feColorMatrix values="0 0 0 0 0   0 0 0 0 0   0 0 0 0 0  0 0 0 0.1 0" type="matrix" in="shadowBlurOuter1"></feColorMatrix>
        </filter>
        <polygon id="path-23" points="158.9153 130.3899 217.7243 164.3419 276.1503 130.3889 217.3413 96.4359"></polygon>
        <filter x="-23.5%" y="-25.8%" width="146.9%" height="181.0%" filterUnits="objectBoundingBox" id="filter-24">
            <feOffset dx="0" dy="10" in="SourceAlpha" result="shadowOffsetOuter1"></feOffset>
            <feGaussianBlur stdDeviation="7.5" in="shadowOffsetOuter1" result="shadowBlurOuter1"></feGaussianBlur>
            <feColorMatrix values="0 0 0 0 0   0 0 0 0 0   0 0 0 0 0  0 0 0 0.1 0" type="matrix" in="shadowBlurOuter1"></feColorMatrix>
        </filter>
        <polygon id="path-25" points="158.9153 105.468 217.7243 139.422 276.1503 105.468 217.3413 71.515"></polygon>
        <filter x="-23.5%" y="-25.8%" width="146.9%" height="181.0%" filterUnits="objectBoundingBox" id="filter-26">
            <feOffset dx="0" dy="10" in="SourceAlpha" result="shadowOffsetOuter1"></feOffset>
            <feGaussianBlur stdDeviation="7.5" in="shadowOffsetOuter1" result="shadowBlurOuter1"></feGaussianBlur>
            <feColorMatrix values="0 0 0 0 0   0 0 0 0 0   0 0 0 0 0  0 0 0 0.1 0" type="matrix" in="shadowBlurOuter1"></feColorMatrix>
        </filter>
        <polygon id="path-27" points="158.9153 76.785 217.7243 110.738 276.1503 76.784 217.3413 42.831"></polygon>
        <filter x="-23.5%" y="-25.8%" width="146.9%" height="181.0%" filterUnits="objectBoundingBox" id="filter-28">
            <feOffset dx="0" dy="10" in="SourceAlpha" result="shadowOffsetOuter1"></feOffset>
            <feGaussianBlur stdDeviation="7.5" in="shadowOffsetOuter1" result="shadowBlurOuter1"></feGaussianBlur>
            <feColorMatrix values="0 0 0 0 0   0 0 0 0 0   0 0 0 0 0  0 0 0 0.1 0" type="matrix" in="shadowBlurOuter1"></feColorMatrix>
        </filter>
        <polygon id="path-29" points="87.6263 173.742 146.4353 207.695 204.8613 173.741 146.0523 139.788"></polygon>
        <filter x="-23.5%" y="-25.8%" width="146.9%" height="181.0%" filterUnits="objectBoundingBox" id="filter-30">
            <feOffset dx="0" dy="10" in="SourceAlpha" result="shadowOffsetOuter1"></feOffset>
            <feGaussianBlur stdDeviation="7.5" in="shadowOffsetOuter1" result="shadowBlurOuter1"></feGaussianBlur>
            <feColorMatrix values="0 0 0 0 0   0 0 0 0 0   0 0 0 0 0  0 0 0 0.1 0" type="matrix" in="shadowBlurOuter1"></feColorMatrix>
        </filter>
        <polygon id="path-31" points="87.6263 148.8129 146.4353 182.7649 204.8613 148.8119 146.0523 114.8589"></polygon>
        <filter x="-23.5%" y="-25.8%" width="146.9%" height="181.0%" filterUnits="objectBoundingBox" id="filter-32">
            <feOffset dx="0" dy="10" in="SourceAlpha" result="shadowOffsetOuter1"></feOffset>
            <feGaussianBlur stdDeviation="7.5" in="shadowOffsetOuter1" result="shadowBlurOuter1"></feGaussianBlur>
            <feColorMatrix values="0 0 0 0 0   0 0 0 0 0   0 0 0 0 0  0 0 0 0.1 0" type="matrix" in="shadowBlurOuter1"></feColorMatrix>
        </filter>
        <polygon id="path-33" points="87.6263 120.129 146.4353 154.083 204.8613 120.129 146.0523 86.175"></polygon>
        <filter x="-23.5%" y="-25.8%" width="146.9%" height="181.0%" filterUnits="objectBoundingBox" id="filter-34">
            <feOffset dx="0" dy="10" in="SourceAlpha" result="shadowOffsetOuter1"></feOffset>
            <feGaussianBlur stdDeviation="7.5" in="shadowOffsetOuter1" result="shadowBlurOuter1"></feGaussianBlur>
            <feColorMatrix values="0 0 0 0 0   0 0 0 0 0   0 0 0 0 0  0 0 0 0.1 0" type="matrix" in="shadowBlurOuter1"></feColorMatrix>
        </filter>
    </defs>
    <g id="Pages" stroke="none" stroke-width="1" fill="none" fill-rule="evenodd">
        <g id="Features" transform="translate(-740.000000, -1401.000000)">
            <g id="how-it-works" transform="translate(0.000000, 942.000000)">
                <g id="diagram_1" transform="translate(740.000000, 463.000000)">
                    <g id="graphics" transform="translate(0.000000, 0.115000)">
                        <g id="Fill-1">
                            <use fill="black" fill-opacity="1" filter="url(#filter-2)" xlink:href="#path-1"></use>
                            <use fill="#BBBDBF" fill-rule="evenodd" xlink:href="#path-1"></use>
                        </g>
                        <g id="Fill-3">
                            <use fill="black" fill-opacity="1" filter="url(#filter-4)" xlink:href="#path-3"></use>
                            <use fill="#D0D2D3" fill-rule="evenodd" xlink:href="#path-3"></use>
                        </g>
                        <g id="Fill-5">
                            <use fill="black" fill-opacity="1" filter="url(#filter-6)" xlink:href="#path-5"></use>
                            <use fill="#EBEBEB" fill-rule="evenodd" xlink:href="#path-5"></use>
                        </g>
                        <g id="Fill-5">
                            <use fill="black" fill-opacity="1" filter="url(#filter-8)" xlink:href="#path-7"></use>
                            <use fill="#415EBF" fill-rule="evenodd" xlink:href="#path-7"></use>
                        </g>
                        <g id="Fill-7">
                            <use fill="black" fill-opacity="1" filter="url(#filter-10)" xlink:href="#path-9"></use>
                            <use fill="#FDDC55" fill-rule="evenodd" xlink:href="#path-9"></use>
                        </g>
                        <path d="M0,146.885 L148.1023,233.885 L296,146.885" id="Stroke-9" stroke="#999999" stroke-dasharray="1,2"></path>
                        <polygon id="Fill-13" fill="#BBBDBF" points="144 256.55626 144.71598 255.885 147.999511 259.440118 151.283042 255.885 152 256.55626 147.999511 260.885"></polygon>
                        <polygon id="Fill-15" fill="#BBBDBF" points="144 433.557244 144.71598 432.885 147.999511 436.441102 151.283042 432.885 152 433.557244 147.999511 437.885"></polygon>
                        <g id="Fill-16">
                            <use fill="black" fill-opacity="1" filter="url(#filter-12)" xlink:href="#path-11"></use>
                            <use fill="#CCDDF2" fill-rule="evenodd" xlink:href="#path-11"></use>
                        </g>
                        <g id="Fill-18">
                            <use fill="black" fill-opacity="1" filter="url(#filter-14)" xlink:href="#path-13"></use>
                            <use fill="#A0BBE2" fill-rule="evenodd" xlink:href="#path-13"></use>
                        </g>
                        <g id="Fill-20">
                            <use fill="black" fill-opacity="1" filter="url(#filter-16)" xlink:href="#path-15"></use>
                            <use fill="#415EBF" fill-rule="evenodd" xlink:href="#path-15"></use>
                        </g>
                        <g id="Fill-22">
                            <use fill="black" fill-opacity="1" filter="url(#filter-18)" xlink:href="#path-17"></use>
                            <use fill="#CCDDF2" fill-rule="evenodd" xlink:href="#path-17"></use>
                        </g>
                        <g id="Fill-24">
                            <use fill="black" fill-opacity="1" filter="url(#filter-20)" xlink:href="#path-19"></use>
                            <use fill="#A0BBE2" fill-rule="evenodd" xlink:href="#path-19"></use>
                        </g>
                        <g id="Fill-26">
                            <use fill="black" fill-opacity="1" filter="url(#filter-22)" xlink:href="#path-21"></use>
                            <use fill="#415EBF" fill-rule="evenodd" xlink:href="#path-21"></use>
                        </g>
                        <g id="Fill-28">
                            <use fill="black" fill-opacity="1" filter="url(#filter-24)" xlink:href="#path-23"></use>
                            <use fill="#CCDDF2" fill-rule="evenodd" xlink:href="#path-23"></use>
                        </g>
                        <g id="Fill-30">
                            <use fill="black" fill-opacity="1" filter="url(#filter-26)" xlink:href="#path-25"></use>
                            <use fill="#A0BBE2" fill-rule="evenodd" xlink:href="#path-25"></use>
                        </g>
                        <g id="Fill-32">
                            <use fill="black" fill-opacity="1" filter="url(#filter-28)" xlink:href="#path-27"></use>
                            <use fill="#415EBF" fill-rule="evenodd" xlink:href="#path-27"></use>
                        </g>
                        <g id="Fill-34">
                            <use fill="black" fill-opacity="1" filter="url(#filter-30)" xlink:href="#path-29"></use>
                            <use fill="#CCDDF2" fill-rule="evenodd" xlink:href="#path-29"></use>
                        </g>
                        <g id="Fill-36">
                            <use fill="black" fill-opacity="1" filter="url(#filter-32)" xlink:href="#path-31"></use>
                            <use fill="#A0BBE2" fill-rule="evenodd" xlink:href="#path-31"></use>
                        </g>
                        <g id="Fill-38">
                            <use fill="black" fill-opacity="1" filter="url(#filter-34)" xlink:href="#path-33"></use>
                            <use fill="#415EBF" fill-rule="evenodd" xlink:href="#path-33"></use>
                        </g>
                        <text id="A" font-family="WorkSans-Regular, Work Sans" font-size="15" font-weight="normal" line-spacing="20" fill="#FFFFFF">
                            <tspan x="143.05" y="35.885">A</tspan>
                        </text>
                        <text id="A" font-family="WorkSans-Regular, Work Sans" font-size="15" font-weight="normal" line-spacing="20" fill="#FFFFFF">
                            <tspan x="143.05" y="303.885">A</tspan>
                        </text>
                        <text id="B" font-family="WorkSans-Regular, Work Sans" font-size="15" font-weight="normal" line-spacing="20" fill="#FFFFFF">
                            <tspan x="143.1025" y="482.885">B</tspan>
                        </text>
                        <line x1="148.5" y1="232.885" x2="148.5" y2="259.885" id="Stroke-12" stroke="#999999" stroke-dasharray="1,2"></line>
                        <line x1="148.5" y1="409.885" x2="148.5" y2="436.885" id="Stroke-14" stroke="#999999" stroke-dasharray="1,2"></line>
                    </g>
                    <g id="callout" transform="translate(245.000000, 13.000000)">
                        <path id="Stroke-14" d="M0.382691913,8.28814935 C2.8678908,8.26790098 4.89895711,10.2661382 4.91920548,12.7513371 C4.93945386,15.236536 2.94121665,17.2676023 0.456017765,17.2878506 C-2.02918112,17.308099 -4.06024743,15.3098618 -4.08049581,12.8246629 C-4.10074418,10.339464 -2.10250697,8.30839773 0.382691913,8.28814935 Z M0.39083923,9.28811616 C-1.54209324,9.3038649 -3.09627773,10.8835831 -3.080529,12.8165156 C-3.06478026,14.7494481 -1.48506202,16.3036326 0.447870448,16.2878838 C2.38080292,16.2721351 3.93498741,14.6924169 3.91923867,12.7594844 C3.90348994,10.8265519 2.3237717,9.27236743 0.39083923,9.28811616 Z M6.83076828,12.2357459 L6.83891559,13.2357127 L5.83894878,13.24386 L5.83080147,12.2438932 L6.83076828,12.2357459 Z M9.83066871,12.2113039 L9.83881602,13.2112707 L8.83884921,13.219418 L8.8307019,12.2194512 L9.83066871,12.2113039 Z M12.8305691,12.186862 L12.8387165,13.1868288 L11.8387496,13.1949761 L11.8306023,12.1950093 L12.8305691,12.186862 Z M15.8304696,12.16242 L15.8386169,13.1623868 L14.8386501,13.1705341 L14.8305028,12.1705673 L15.8304696,12.16242 Z M18.83037,12.1379781 L18.8385173,13.1379449 L17.8385505,13.1460922 L17.8304032,12.1461254 L18.83037,12.1379781 Z M21.8302704,12.1135361 L21.8384177,13.1135029 L20.8384509,13.1216502 L20.8303036,12.1216834 L21.8302704,12.1135361 Z M24.8301709,12.0890942 L24.8383182,13.089061 L23.8383514,13.0972083 L23.830204,12.0972415 L24.8301709,12.0890942 Z M27.8300713,12.0646522 L27.8382186,13.064619 L26.8382518,13.0727663 L26.8301045,12.0727995 L27.8300713,12.0646522 Z M30.8299717,12.0402102 L30.838119,13.0401771 L29.8381522,13.0483244 L29.8300049,12.0483576 L30.8299717,12.0402102 Z M33.8298721,12.0157683 L33.8380195,13.0157351 L32.8380527,13.0238824 L32.8299053,12.0239156 L33.8298721,12.0157683 Z M36.8297726,11.9913263 L36.8379199,12.9912932 L35.8379531,12.9994405 L35.8298058,11.9994737 L36.8297726,11.9913263 Z M39.829673,11.9668844 L39.8378203,12.9668512 L38.8378535,12.9749985 L38.8297062,11.9750317 L39.829673,11.9668844 Z M42.8295734,11.9424424 L42.8377208,12.9424093 L41.8377539,12.9505566 L41.8296066,11.9505898 L42.8295734,11.9424424 Z M45.8294739,11.9180005 L45.8376212,12.9179673 L44.8376544,12.9261146 L44.8295071,11.9261478 L45.8294739,11.9180005 Z M48.8293743,11.8935585 L48.8375216,12.8935254 L47.8375548,12.9016727 L47.8294075,11.9017059 L48.8293743,11.8935585 Z M51.8292747,11.8691166 L51.837422,12.8690834 L50.8374552,12.8772307 L50.8293079,11.8772639 L51.8292747,11.8691166 Z" fill="#999999" fill-rule="nonzero"></path>
                        <text id="Multiple-unknown-mac" font-family="WorkSans-Regular, Work Sans" font-size="11" font-weight="normal" line-spacing="13" fill="#999999">
                            <tspan x="58" y="45">Multiple unknown machine </tspan>
                            <tspan x="58" y="58">learning problems exhist</tspan>
                        </text>
                        <g id="number_call-out" transform="translate(56.000000, 0.000000)">
                            <g>
                                <circle id="Oval" fill="#333333" cx="11.5" cy="11.5" r="11.5"></circle>
                                <text id="1" font-family="WorkSans-SemiBold, Work Sans SemiBold" font-size="15" font-weight="500" line-spacing="20" fill="#FFFFFF">
                                    <tspan x="8.29" y="15">1</tspan>
                                </text>
                            </g>
                        </g>
                    </g>
                    <g id="callout" transform="translate(227.000000, 290.000000)">
                        <path id="Stroke-14" d="M0.672860479,6.7905529 C3.15814025,6.79337534 5.17056954,8.81038071 5.1677471,11.2956605 C5.16492466,13.7809403 3.14791929,15.7933695 0.662639521,15.7905471 C-1.82264025,15.7877247 -3.83506954,13.7707193 -3.8322471,11.2854395 C-3.82942466,8.80015975 -1.81241929,6.78773046 0.672860479,6.7905529 Z M0.671724817,7.79055226 C-1.26127056,7.78835703 -2.83005251,9.35357981 -2.83224774,11.2865752 C-2.83444297,13.2195706 -1.26922019,14.7883525 0.663775183,14.7905477 C2.59677056,14.792743 4.16555251,13.2275202 4.16774774,11.2945248 C4.16994297,9.36152944 2.60472019,7.79274749 0.671724817,7.79055226 Z M68.8349851,10.8679647 L69.8349845,10.8691003 L69.8338488,11.8690997 L68.8338495,11.867964 L68.8349851,10.8679647 Z M65.8349871,10.8645577 L66.8349864,10.8656933 L66.8338508,11.8656927 L65.8338514,11.864557 L65.8349871,10.8645577 Z M62.834989,10.8611507 L63.8349884,10.8622864 L63.8338527,11.8622857 L62.8338533,11.86115 L62.834989,10.8611507 Z M59.8349909,10.8577437 L60.8349903,10.8588794 L60.8338546,11.8588787 L59.8338553,11.8577431 L59.8349909,10.8577437 Z M56.8349929,10.8543367 L57.8349922,10.8554724 L57.8338566,11.8554717 L56.8338572,11.8543361 L56.8349929,10.8543367 Z M53.8349948,10.8509297 L54.8349942,10.8520654 L54.8338585,11.8520647 L53.8338592,11.8509291 L53.8349948,10.8509297 Z M50.8349968,10.8475227 L51.8349961,10.8486584 L51.8338604,11.8486578 L50.8338611,11.8475221 L50.8349968,10.8475227 Z M47.8349987,10.8441158 L48.834998,10.8452514 L48.8338624,11.8452508 L47.833863,11.8441151 L47.8349987,10.8441158 Z M44.8350006,10.8407088 L45.835,10.8418444 L45.8338643,11.8418438 L44.833865,11.8407081 L44.8350006,10.8407088 Z M41.8350026,10.8373018 L42.8350019,10.8384375 L42.8338662,11.8384368 L41.8338669,11.8373011 L41.8350026,10.8373018 Z M38.8350045,10.8338948 L39.8350038,10.8350305 L39.8338682,11.8350298 L38.8338688,11.8338942 L38.8350045,10.8338948 Z M35.8350064,10.8304878 L36.8350058,10.8316235 L36.8338701,11.8316228 L35.8338708,11.8304872 L35.8350064,10.8304878 Z M32.8350084,10.8270808 L33.8350077,10.8282165 L33.8338721,11.8282158 L32.8338727,11.8270802 L32.8350084,10.8270808 Z M29.8350103,10.8236738 L30.8350096,10.8248095 L30.833874,11.8248089 L29.8338746,11.8236732 L29.8350103,10.8236738 Z M26.8350122,10.8202669 L27.8350116,10.8214025 L27.8338759,11.8214019 L26.8338766,11.8202662 L26.8350122,10.8202669 Z M23.8350142,10.8168599 L24.8350135,10.8179955 L24.8338779,11.8179949 L23.8338785,11.8168592 L23.8350142,10.8168599 Z M20.8350161,10.8134529 L21.8350155,10.8145886 L21.8338798,11.8145879 L20.8338804,11.8134522 L20.8350161,10.8134529 Z M17.835018,10.8100459 L18.8350174,10.8111816 L18.8338817,11.8111809 L17.8338824,11.8100453 L17.835018,10.8100459 Z M14.83502,10.8066389 L15.8350193,10.8077746 L15.8338837,11.8077739 L14.8338843,11.8066383 L14.83502,10.8066389 Z M11.8350219,10.8032319 L12.8350213,10.8043676 L12.8338856,11.8043669 L11.8338862,11.8032313 L11.8350219,10.8032319 Z M8.83502383,10.7998249 L9.83502319,10.8009606 L9.83388753,11.80096 L8.83388817,11.7998243 L8.83502383,10.7998249 Z M5.83502577,10.796418 L6.83502512,10.7975536 L6.83388946,11.797553 L5.83389011,11.7964173 L5.83502577,10.796418 Z" fill="#999999" fill-rule="nonzero"></path>
                        <text id="An-unknown-machine-l" font-family="WorkSans-Regular, Work Sans" font-size="11" font-weight="normal" line-spacing="13" fill="#999999">
                            <tspan x="76" y="41">An unknown machine </tspan>
                            <tspan x="76" y="54">learning problem A can be </tspan>
                            <tspan x="76" y="67">reduced through layers of </tspan>
                            <tspan x="76" y="80">parameter exploration.</tspan>
                        </text>
                        <g id="number_call-out" transform="translate(74.000000, 0.000000)">
                            <g>
                                <circle id="Oval" fill="#333333" cx="11.5" cy="11.5" r="11.5"></circle>
                                <text id="1" font-family="WorkSans-SemiBold, Work Sans SemiBold" font-size="15" font-weight="500" line-spacing="20" fill="#FFFFFF">
                                    <tspan x="7.0675" y="15">2</tspan>
                                </text>
                            </g>
                        </g>
                    </g>
                    <g id="callout" transform="translate(227.000000, 469.000000)">
                        <path id="Stroke-14" d="M0.672860479,6.7905529 C3.15814025,6.79337534 5.17056954,8.81038071 5.1677471,11.2956605 C5.16492466,13.7809403 3.14791929,15.7933695 0.662639521,15.7905471 C-1.82264025,15.7877247 -3.83506954,13.7707193 -3.8322471,11.2854395 C-3.82942466,8.80015975 -1.81241929,6.78773046 0.672860479,6.7905529 Z M0.671724817,7.79055226 C-1.26127056,7.78835703 -2.83005251,9.35357981 -2.83224774,11.2865752 C-2.83444297,13.2195706 -1.26922019,14.7883525 0.663775183,14.7905477 C2.59677056,14.792743 4.16555251,13.2275202 4.16774774,11.2945248 C4.16994297,9.36152944 2.60472019,7.79274749 0.671724817,7.79055226 Z M68.8349851,10.8679647 L69.8349845,10.8691003 L69.8338488,11.8690997 L68.8338495,11.867964 L68.8349851,10.8679647 Z M65.8349871,10.8645577 L66.8349864,10.8656933 L66.8338508,11.8656927 L65.8338514,11.864557 L65.8349871,10.8645577 Z M62.834989,10.8611507 L63.8349884,10.8622864 L63.8338527,11.8622857 L62.8338533,11.86115 L62.834989,10.8611507 Z M59.8349909,10.8577437 L60.8349903,10.8588794 L60.8338546,11.8588787 L59.8338553,11.8577431 L59.8349909,10.8577437 Z M56.8349929,10.8543367 L57.8349922,10.8554724 L57.8338566,11.8554717 L56.8338572,11.8543361 L56.8349929,10.8543367 Z M53.8349948,10.8509297 L54.8349942,10.8520654 L54.8338585,11.8520647 L53.8338592,11.8509291 L53.8349948,10.8509297 Z M50.8349968,10.8475227 L51.8349961,10.8486584 L51.8338604,11.8486578 L50.8338611,11.8475221 L50.8349968,10.8475227 Z M47.8349987,10.8441158 L48.834998,10.8452514 L48.8338624,11.8452508 L47.833863,11.8441151 L47.8349987,10.8441158 Z M44.8350006,10.8407088 L45.835,10.8418444 L45.8338643,11.8418438 L44.833865,11.8407081 L44.8350006,10.8407088 Z M41.8350026,10.8373018 L42.8350019,10.8384375 L42.8338662,11.8384368 L41.8338669,11.8373011 L41.8350026,10.8373018 Z M38.8350045,10.8338948 L39.8350038,10.8350305 L39.8338682,11.8350298 L38.8338688,11.8338942 L38.8350045,10.8338948 Z M35.8350064,10.8304878 L36.8350058,10.8316235 L36.8338701,11.8316228 L35.8338708,11.8304872 L35.8350064,10.8304878 Z M32.8350084,10.8270808 L33.8350077,10.8282165 L33.8338721,11.8282158 L32.8338727,11.8270802 L32.8350084,10.8270808 Z M29.8350103,10.8236738 L30.8350096,10.8248095 L30.833874,11.8248089 L29.8338746,11.8236732 L29.8350103,10.8236738 Z M26.8350122,10.8202669 L27.8350116,10.8214025 L27.8338759,11.8214019 L26.8338766,11.8202662 L26.8350122,10.8202669 Z M23.8350142,10.8168599 L24.8350135,10.8179955 L24.8338779,11.8179949 L23.8338785,11.8168592 L23.8350142,10.8168599 Z M20.8350161,10.8134529 L21.8350155,10.8145886 L21.8338798,11.8145879 L20.8338804,11.8134522 L20.8350161,10.8134529 Z M17.835018,10.8100459 L18.8350174,10.8111816 L18.8338817,11.8111809 L17.8338824,11.8100453 L17.835018,10.8100459 Z M14.83502,10.8066389 L15.8350193,10.8077746 L15.8338837,11.8077739 L14.8338843,11.8066383 L14.83502,10.8066389 Z M11.8350219,10.8032319 L12.8350213,10.8043676 L12.8338856,11.8043669 L11.8338862,11.8032313 L11.8350219,10.8032319 Z M8.83502383,10.7998249 L9.83502319,10.8009606 L9.83388753,11.80096 L8.83388817,11.7998243 L8.83502383,10.7998249 Z M5.83502577,10.796418 L6.83502512,10.7975536 L6.83388946,11.797553 L5.83389011,11.7964173 L5.83502577,10.796418 Z" fill="#999999" fill-rule="nonzero"></path>
                        <text id="The-reduction-stack" font-family="WorkSans-Regular, Work Sans" font-size="11" font-weight="normal" line-spacing="13" fill="#999999">
                            <tspan x="76" y="40">The reduction stack </tspan>
                            <tspan x="76" y="53">process reduced the </tspan>
                            <tspan x="76" y="66">unknown problem A into </tspan>
                            <tspan x="76" y="79">well-known problem B.</tspan>
                        </text>
                        <g id="number_call-out" transform="translate(74.000000, 0.000000)">
                            <g>
                                <circle id="Oval" fill="#333333" cx="11.5" cy="11.5" r="11.5"></circle>
                                <text id="1" font-family="WorkSans-SemiBold, Work Sans SemiBold" font-size="15" font-weight="500" line-spacing="20" fill="#FFFFFF">
                                    <tspan x="7.0825" y="15">3</tspan>
                                </text>
                            </g>
                        </g>
                    </g>
                </g>
            </g>
        </g>
    </g>
</svg>