<?xml version="1.0" encoding="UTF-8"?>
<svg width="1920px" height="895px" viewBox="0 0 1920 895" version="1.1" xmlns="http://www.w3.org/2000/svg" xmlns:xlink="http://www.w3.org/1999/xlink">
    <!-- Generator: Sketch 53 (72520) - https://sketchapp.com -->
    <title>Hero_Image_BG</title>
    <desc>Created with Sketch.</desc>
    <defs>
        <polygon id="path-1" points="0 0 341 0 341 32 0 32"></polygon>
        <polygon id="path-3" points="0.269496641 0.206239357 19.9746193 0.206239357 19.9746193 19.8911495 0.269496641 19.8911495"></polygon>
        <polygon id="path-5" points="0 0.44581129 67.5565443 0.44581129 67.5565443 67.9996859 0 67.9996859"></polygon>
        <polygon id="path-7" points="0.000942228735 0.44581129 67.5578006 0.44581129 67.5578006 67.9996859 0.000942228735 67.9996859"></polygon>
        <polygon id="path-9" points="0 0 135 0 135 117 0 117"></polygon>
        <polygon id="path-11" points="0 0 86 0 86 75 0 75"></polygon>
        <polygon id="path-13" points="0 0 88 0 88 88 0 88"></polygon>
        <polygon id="path-15" points="0 0.740833468 112.263081 0.740833468 112.263081 112.999478 0 112.999478"></polygon>
        <polygon id="path-17" points="0.00156576246 0.740833468 112.265169 0.740833468 112.265169 112.999478 0.00156576246 112.999478"></polygon>
    </defs>
    <g id="HD_Desktop" stroke="none" stroke-width="1" fill="none" fill-rule="evenodd">
        <g id="VW_HD_Desktop_Home">
            <g id="Hero_Image_BG" transform="translate(0.000000, -1.000000)">
                <g id="Join_Our_Community_Bg" transform="translate(0.000000, 1.000000)">
                    <g id="Join_Our_Community_BG">
                        <path d="M0,0 L1920,0 L1920,6.77216667 L1920,895 L0,895 L0,6.77216667 L0,-8.8817842e-16 Z" id="Combined-Shape" fill="#1F6894"></path>
                        <g id="Group-3" transform="translate(1492.000000, 442.000000)">
                            <mask id="mask-2" fill="white">
                                <use xlink:href="#path-1"></use>
                            </mask>
                            <g id="Clip-2"></g>
                            <path d="M206.327595,31.9981054 C200.944261,31.9981054 195.554699,30.5703594 190.853233,27.7118363 L168.485463,14.1285464 C162.915316,10.7486383 155.716779,10.7516696 150.146632,14.1285464 L127.775748,27.7148676 C118.37593,33.42282 106.23307,33.42282 96.8301377,27.7148676 L74.4592542,14.1285464 C68.8922201,10.7425757 61.699911,10.7486383 56.1235363,14.1285464 L33.7526528,27.7148676 C24.3621748,33.4288826 12.206861,33.4288826 2.8070423,27.7118363 C0.0141846091,26.0173352 -0.838929112,22.4403921 0.904660975,19.7213091 C2.65136462,16.9991948 6.32535801,16.1777104 9.1119886,17.8722114 C14.6883633,21.2551508 21.8744453,21.2551508 27.4477065,17.8722114 L49.8154765,4.28285896 C59.2152952,-1.42206215 71.3612683,-1.42509346 80.7673141,4.28285896 L103.135084,17.8722114 C108.705232,21.2581821 115.903768,21.2581821 121.470802,17.8722114 L143.841685,4.28285896 C153.241504,-1.42206215 165.390591,-1.42206215 174.790409,4.28285896 L197.161293,17.8722114 C202.737668,21.2612134 209.936204,21.2581821 215.493897,17.8722114 L237.864781,4.28285896 C247.258372,-1.42812477 259.410573,-1.42812477 268.810391,4.28589027 L291.184388,17.8722114 C296.754536,21.2521195 303.949959,21.2581821 309.520106,17.8722114 L331.887876,4.28285896 C334.67762,2.59442056 338.3485,3.41590495 340.095204,6.13498797 C341.838794,8.85407099 340.98568,12.4310141 338.195936,14.1285464 L315.825053,27.7178989 C306.42212,33.42282 294.273034,33.4197887 284.879442,27.7148676 L262.505445,14.1285464 C256.938411,10.7425757 249.746102,10.745607 244.169727,14.1255151 L221.801957,27.7178989 C217.103605,30.5703594 211.714043,31.9981054 206.327595,31.9981054" id="Fill-1" fill="#14567F" mask="url(#mask-2)"></path>
                        </g>
                    </g>
                </g>
                <g id="Group-16" transform="translate(183.000000, 496.000000)">
                    <path d="M43.5986809,124.541677 L109.401319,124.541677 L142.304275,68.001624 L109.401319,11.4615708 L43.5986809,11.4615708 L10.6957249,68.001624 L43.5986809,124.541677 Z M110.252455,126 L42.7475448,126 L42.5380344,125.636231 L9,68.001624 L42.7475448,10 L110.252455,10 L110.461966,10.3670167 L144,68.001624 L110.252455,126 Z" id="Fill-1" stroke="#14567F" stroke-width="7" fill="#14567F"></path>
                    <g id="Group-15">
                        <path d="M43.4962138,115 C38.8013363,115 35,118.801336 35,123.496214 C35,128.191091 38.8013363,132 43.4962138,132 C48.1986637,132 52,128.191091 52,123.496214 C52,118.801336 48.1986637,115 43.4962138,115 Z" id="Fill-2" fill="#14567F"></path>
                        <path d="M119.51343,125.158851 C119.51343,119.724366 115.101616,115.318027 109.660378,115.318027 C104.219141,115.318027 99.8073268,119.724366 99.8073268,125.158851 C99.8073268,130.593335 104.219141,134.999674 109.660378,134.999674 C115.101616,134.999674 119.51343,130.593335 119.51343,125.158851 L109.660378,124.541677" id="Fill-4" fill="#14567F"></path>
                        <path d="M9.85370511,57.765369 C4.41246771,57.765369 0.000653602089,62.1717077 0.000653602089,67.6061921 C0.000653602089,73.0406764 4.41246771,77.4502791 9.85370511,77.4502791 C15.2949425,77.4502791 19.7067566,73.0406764 19.7067566,67.6061921 C19.7067566,62.1717077 15.2949425,57.765369 9.85370511,57.765369 Z" id="Fill-6" fill="#14567F"></path>
                        <path d="M43.1223783,0.212710501 C37.6811409,0.212710501 33.2693268,4.6190492 33.2693268,10.0535336 C33.2693268,15.488018 37.6811409,19.8976206 43.1223783,19.8976206 C48.5636157,19.8976206 52.9754298,15.488018 52.9754298,10.0535336 C52.9754298,4.6190492 48.5636157,0.212710501 43.1223783,0.212710501 Z" id="Fill-8" fill="#14567F"></path>
                        <path d="M109.660378,0.212710501 C104.219141,0.212710501 99.8073268,4.6190492 99.8073268,10.0535336 C99.8073268,15.488018 104.219141,19.8976206 109.660378,19.8976206 C115.101616,19.8976206 119.51343,15.488018 119.51343,10.0535336 C119.51343,4.6190492 115.101616,0.212710501 109.660378,0.212710501 Z" id="Fill-10" fill="#14567F"></path>
                        <g id="Group-14" transform="translate(132.808137, 57.559130)">
                            <mask id="mask-4" fill="white">
                                <use xlink:href="#path-3"></use>
                            </mask>
                            <g id="Clip-13"></g>
                            <path d="M19.9755997,10.0470624 C19.9755997,4.61257805 15.5637856,0.206239357 10.1225482,0.206239357 C4.67804274,0.206239357 0.269496641,4.61257805 0.269496641,10.0470624 C0.269496641,15.4815468 4.67804274,19.8911495 10.1225482,19.8911495 C15.5637856,19.8911495 19.9755997,15.4815468 19.9755997,10.0470624" id="Fill-12" fill="#14567F" mask="url(#mask-4)"></path>
                        </g>
                    </g>
                </g>
                <g id="Group-7" transform="translate(1017.000000, 181.000000)">
                    <g id="Group-3">
                        <mask id="mask-6" fill="white">
                            <use xlink:href="#path-5"></use>
                        </mask>
                        <g id="Clip-2"></g>
                        <path d="M4.50887859,67.9996859 C3.35307801,67.9996859 2.20355894,67.5599792 1.32100469,66.6805657 C-0.44096305,64.9185979 -0.44096305,62.0667856 1.32100469,60.3048179 L59.8616762,1.7672871 C61.623644,0.00531935484 64.4723155,0.00531935484 66.237424,1.7672871 C67.996251,3.52611408 67.996251,6.37792639 66.237424,8.13989413 L7.69675249,66.6805657 C6.81419824,67.5599792 5.66467918,67.9996859 4.50887859,67.9996859" id="Fill-1" fill="#14567F" mask="url(#mask-6)"></path>
                    </g>
                    <g id="Group-6">
                        <mask id="mask-8" fill="white">
                            <use xlink:href="#path-7"></use>
                        </mask>
                        <g id="Clip-5"></g>
                        <path d="M63.0486079,67.9996859 C61.8928073,67.9996859 60.7432883,67.5599792 59.860734,66.6805657 L1.32006246,8.13989413 C-0.438764516,6.37792639 -0.438764516,3.52611408 1.32006246,1.7672871 C3.08517097,0.00531935484 5.93384252,0.00531935484 7.69581026,1.7672871 L66.2364818,60.3048179 C67.9984496,62.0667856 67.9984496,64.9185979 66.2364818,66.6805657 C65.3539276,67.5599792 64.2044085,67.9996859 63.0486079,67.9996859" id="Fill-4" fill="#14567F" mask="url(#mask-8)"></path>
                    </g>
                </g>
                <g id="Group-14" transform="translate(1682.000000, 600.000000)" fill="#14567F">
                    <polygon id="Fill-1" points="130 115 136 115 136 32 130 32"></polygon>
                    <polygon id="Fill-2" points="120 120 125 120 125 26 120 26"></polygon>
                    <polygon id="Fill-3" points="108 126 114 126 114 21 108 21"></polygon>
                    <polygon id="Fill-4" points="97 131 103 131 103 15 97 15"></polygon>
                    <polygon id="Fill-5" points="87 136 93 136 93 11 87 11"></polygon>
                    <polygon id="Fill-6" points="76 142 82 142 82 6 76 6"></polygon>
                    <polygon id="Fill-7" points="65 147 70 147 70 0 65 0"></polygon>
                    <polygon id="Fill-8" points="54 142 60 142 60 6 54 6"></polygon>
                    <polygon id="Fill-9" points="43 136 49 136 49 11 43 11"></polygon>
                    <polygon id="Fill-10" points="33 131 39 131 39 15 33 15"></polygon>
                    <polygon id="Fill-11" points="22 126 28 126 28 21 22 21"></polygon>
                    <polygon id="Fill-12" points="11 120 16 120 16 26 11 26"></polygon>
                    <polygon id="Fill-13" points="0 115 6 115 6 32 0 32"></polygon>
                </g>
                <g id="Group-3" transform="translate(1326.000000, 223.000000)">
                    <mask id="mask-10" fill="white">
                        <use xlink:href="#path-9"></use>
                    </mask>
                    <g id="Clip-2"></g>
                    <path d="M7.56721914,111.490664 L127.434228,111.490664 L67.5014473,8.2625655 L7.56721914,111.490664 Z M132.230587,117 L2.76941261,117 C1.77801066,117 0.864763018,116.474684 0.371232994,115.622666 C-0.123744331,114.770647 -0.123744331,113.721455 0.371232994,112.869437 L65.1018204,1.37733412 C65.5967977,0.525315521 66.51294,0 67.5014473,0 C68.491402,0 69.4060969,0.525315521 69.8996269,1.37733412 L134.628767,112.869437 C135.123744,113.721455 135.123744,114.770647 134.628767,115.622666 C134.135237,116.474684 133.221989,117 132.230587,117 L132.230587,117 Z" id="Fill-1" fill="#14567F" mask="url(#mask-10)"></path>
                </g>
                <g id="Group-3" transform="translate(641.500000, 792.000000) rotate(-270.000000) translate(-641.500000, -792.000000) translate(539.500000, 613.500000)" fill="#14567F">
                    <path d="M204,340.18946 L204,357 L8.43132283,357 C5.41305467,357 2.63272296,355.397114 1.13019823,352.797365 C-0.376732742,350.197616 -0.376732742,346.996236 1.13019823,344.396487 L198.198875,4.20263488 C199.450683,2.04302353 201.587297,0.571309986 204,0.134887454 L204,27.8083609 L23.0379783,340.18946 L204,340.18946 Z" id="Combined-Shape"></path>
                </g>
                <g id="Group-3" transform="translate(642.000000, 160.500000) rotate(-180.000000) translate(-642.000000, -160.500000) translate(599.000000, 123.000000)">
                    <mask id="mask-12" fill="white">
                        <use xlink:href="#path-11"></use>
                    </mask>
                    <g id="Clip-2"></g>
                    <path d="M4.82059886,71.468374 L81.1803231,71.468374 L43.000922,5.29651635 L4.82059886,71.468374 Z M84.2357816,75 L1.7642184,75 C1.13265864,75 0.550886071,74.6632593 0.236489167,74.1170935 C-0.0788297222,73.5709277 -0.0788297222,72.8983689 0.236489167,72.3522031 L41.4722708,0.882906488 C41.7875897,0.336740719 42.3712062,0 43.000922,0 C43.6315598,0 44.2142543,0.336740719 44.5286512,0.882906488 L85.7635108,72.3522031 C86.0788297,72.8983689 86.0788297,73.5709277 85.7635108,74.1170935 C85.4491139,74.6632593 84.8673414,75 84.2357816,75 L84.2357816,75 Z" id="Fill-1" fill="#14567F" mask="url(#mask-12)"></path>
                </g>
                <g id="Group-3" transform="translate(1170.000000, 654.000000)" fill="#14567F">
                    <path d="M1.99202759,240 C0.678828721,230.516447 0,220.834961 0,211 C0,94.7852472 94.7845344,0 211,0 C327.215466,0 422,94.7852472 422,211 C422,220.834961 421.321171,230.516447 420.007972,240 L1.99202759,240 Z" id="Combined-Shape"></path>
                </g>
                <g id="Group-3" transform="translate(66.000000, 725.000000)">
                    <mask id="mask-14" fill="white">
                        <use xlink:href="#path-13"></use>
                    </mask>
                    <g id="Clip-2"></g>
                    <path d="M44,88 C68.2345047,88 88,68.234356 88,44 C88,19.765644 68.2345047,0 44,0 C19.7654953,0 0,19.765644 0,44 C0,68.234356 19.7654953,88 44,88" id="Fill-1" fill="#14567F" mask="url(#mask-14)"></path>
                </g>
                <g id="Group-3" transform="translate(1759.000000, 0.000000)" fill="#14567F" fill-rule="nonzero">
                    <path d="M10.5128555,0.5 L46.5840925,0.5 C38.2214719,16.8837724 33.5,35.4105501 33.5,55 C33.5,121.344442 87.6554317,175.5 154,175.5 L154,192 L154,175.5 C156.349238,175.5 158.683192,175.432097 161,175.298156 L161,208.342041 C158.679503,208.446967 156.345768,208.5 154,208.5 L154,192 L154,208.5 C69.4300177,208.5 0.5,139.569822 0.5,55 C0.5,35.8218957 4.04477694,17.4480716 10.5128654,0.499998729 Z" id="Combined-Shape"></path>
                </g>
                <g id="Group-3" transform="translate(0.000000, 1.000000)" fill="#14567F">
                    <path d="M161.298577,-1.71049018e-05 C176.435393,29.0686746 185,62.0661662 185,97 C185,204.41464 104.026687,293.522305 2.84217094e-14,306.401369 L6.99350731e-15,5.68434189e-14 L161.298586,2.84217094e-14 Z" id="Combined-Shape"></path>
                </g>
                <g id="Group-7" transform="translate(335.000000, 256.000000)">
                    <g id="Group-3">
                        <mask id="mask-16" fill="white">
                            <use xlink:href="#path-15"></use>
                        </mask>
                        <g id="Clip-2"></g>
                        <path d="M7.49269531,112.999478 C5.57202669,112.999478 3.66179648,112.268789 2.19519897,110.807411 C-0.732776833,107.879435 -0.732776833,103.140394 2.19519897,100.212418 L99.4760208,2.93681532 C102.403997,0.00883951613 107.137818,0.00883951613 110.071013,2.93681532 C112.99377,5.85957192 112.99377,10.598613 110.071013,13.5265888 L12.7901916,110.807411 C11.3235941,112.268789 9.41336393,112.999478 7.49269531,112.999478" id="Fill-1" fill="#14567F" mask="url(#mask-16)"></path>
                    </g>
                    <g id="Group-6">
                        <mask id="mask-18" fill="white">
                            <use xlink:href="#path-17"></use>
                        </mask>
                        <g id="Clip-5"></g>
                        <path d="M104.771951,112.999478 C102.851283,112.999478 100.941053,112.268789 99.4744551,110.807411 L2.19363321,13.5265888 C-0.729123387,10.598613 -0.729123387,5.85957192 2.19363321,2.93681532 C5.12682823,0.00883951613 9.86065007,0.00883951613 12.7886259,2.93681532 L110.069448,100.212418 C112.997424,103.140394 112.997424,107.879435 110.069448,110.807411 C108.60285,112.268789 106.69262,112.999478 104.771951,112.999478" id="Fill-4" fill="#14567F" mask="url(#mask-18)"></path>
                    </g>
                </g>
            </g>
        </g>
    </g>
</svg>