<?xml version="1.0" encoding="UTF-8"?>
<svg width="4812px" height="893px" viewBox="0 0 4812 893" version="1.1" xmlns="http://www.w3.org/2000/svg" xmlns:xlink="http://www.w3.org/1999/xlink">
    <!-- Generator: sketchtool 53 (72520) - https://sketchapp.com -->
    <title>633046D6-8E42-4F47-9B12-3E71380EB4C9</title>
    <desc>Created with sketchtool.</desc>
    <defs>
        <linearGradient x1="50.5111547%" y1="48.3591359%" x2="50%" y2="51.8554432%" id="linearGradient-1">
            <stop stop-color="#30729D" offset="0%"></stop>
            <stop stop-color="#00BFD6" offset="69.9456292%"></stop>
            <stop stop-color="#0CD2C2" offset="100%"></stop>
        </linearGradient>
        <linearGradient x1="44.1729984%" y1="63.2732937%" x2="44.1729984%" y2="-43.3923831%" id="linearGradient-2">
            <stop stop-color="#D1F9F6" offset="0%"></stop>
            <stop stop-color="#0CD2C2" offset="100%"></stop>
        </linearGradient>
    </defs>
    <g id="HD_Desktop" stroke="none" stroke-width="1" fill="none" fill-rule="evenodd">
        <g id="VW_HD_Desktop_Hero_IMG_Extended">
            <g id="Extended_Background" transform="translate(-0.000000, 0.000000)">
                <g id="Join_Our_Community" transform="translate(2406.000000, 446.500000) scale(-1, 1) translate(-2406.000000, -446.500000) translate(0.000000, 0.000000)" fill="url(#linearGradient-1)">
                    <g id="Join_Our_Community_Bg">
                        <g id="Join_Our_Community_BG">
                            <path d="M0,0 L4812,0 L4812,6.75703333 L4812,893 L0,893 L0,6.75703333 L0,0 Z" id="Combined-Shape"></path>
                        </g>
                    </g>
                </g>
                <g id="Background_Extended" transform="translate(0.000000, 298.000000)">
                    <path d="M972.001192,107.57682 L969.812853,107.912479 L948,61.8341539 L1032.08033,60.6009249 L1037.03893,71.9948295 C1055.26979,70.7299426 1074.43224,71.1575483 1094.36394,73.845619 C1261.26692,96.3536137 1277.28748,210.20676 1366.30155,253.538121 C1504.2892,320.709199 1598.13595,214.990493 1751.26554,214.031178 C1951.43089,212.775555 1995.81936,258.841226 2157.00533,276.682013 C2332.28544,296.084719 2410.46089,62.3747413 2703.96501,19.045282 C2741.35837,13.5248696 2796.292,19.5009978 2861.43339,33.0978687 L2860.36438,26.0571312 L2917.39263,26.0571312 L2929,48.130068 L2892.09657,55.4722771 L2892.09657,595 L972.001192,595 L972.001192,107.57682 Z" id="Combined-Shape" fill="#24BBC5" opacity="0.726260231"></path>
                    <path d="M2787.76494,42.8312659 C2779.28197,43.0678514 2771.40066,43.70641 2764.17385,44.7749515 C2470.6133,88.1791704 2392.48698,322.292386 2217.1727,302.856203 C2055.95574,284.984158 2011.52974,238.839482 1811.3259,240.097272 C1658.16687,241.058718 1564.29115,346.958876 1426.27649,279.671903 C1420.20334,276.711333 1414.46479,273.419641 1409,269.853046 C1525.01244,299.910879 1614.52984,215.229725 1751.41903,214.370712 C1951.62286,213.113399 1996.0156,259.258075 2157.23255,277.129644 C2332.54684,296.565826 2410.73447,62.452611 2704.2955,19.0488685 C2744.75847,13.0660399 2805.75563,20.5627964 2878,36.6227063 C2848.78218,37.3121135 2818.70383,39.3816334 2787.76494,42.8312659 Z" id="Combined-Shape" fill="#36D1DB" opacity="0.726260231"></path>
                    <path d="M4812,83.9650465 C4776.49037,73.3336192 4735.06433,67.7196528 4689.64333,73.845619 C4522.74864,96.3536137 4506.72887,210.20676 4417.71923,253.538121 C4279.73843,320.709199 4185.89634,214.990493 4032.77436,214.031178 C3832.61895,212.775555 3788.23268,258.841226 3627.05472,276.682013 C3451.78332,296.084719 3373.61175,62.3747413 3080.12221,19.045282 C3036.9965,12.6782826 2970.53937,21.6043208 2892,39.8770395 L2892,595 L4812,595 L4812,83.9650465 Z" id="Combined-Shape" fill="#24BBC5" opacity="0.726260231"></path>
                    <path d="M4581,130 L4581,84.6590023 C4616.70904,74.0365821 4658.39167,68.4117789 4704.10468,74.518598 C4749.82703,80.6266762 4784.26919,93.4983845 4812,109.863531 C4797.54924,105.727311 4781.70735,102.396105 4764.20862,100.058633 C4709.91961,92.8060759 4643.30337,108.007508 4581,130 Z" id="Combined-Shape" fill="#36D1DB" opacity="0.73" transform="translate(4696.500000, 101.000000) scale(-1, 1) translate(-4696.500000, -101.000000) "></path>
                    <path d="M2907,36.4011962 C2978.80792,20.4939789 3039.42967,13.0936143 3079.7061,19.0488685 C3373.26677,62.452611 3451.4543,296.565826 3626.76837,277.129644 C3787.98513,259.258075 3832.37781,213.113399 4032.58139,214.370712 C4169.47041,215.229725 4258.9877,299.910879 4375,269.853046 C4369.53522,273.419641 4363.79668,276.711333 4357.72353,279.671903 C4219.70905,346.958876 4125.83344,241.058718 3972.67459,240.097272 C3772.47101,238.839482 3728.04506,284.984158 3566.8283,302.856203 C3420.87276,319.037555 3342.27994,159.479064 3150.65223,80.5388733 C3142.96537,76.7241497 3132.67785,72.747262 3119.78961,68.6081878 C3114.73621,66.9852839 3109.64462,65.4236434 3104.51482,63.9232662 C3078.3682,55.821455 3050.25524,49.2737853 3019.82782,44.7749515 C3015.67682,44.161192 3011.30989,43.6892942 3006.73703,43.3539499 C2974.74097,39.032256 2941.49529,36.7146714 2907,36.4011962 Z" id="Combined-Shape" fill="#36D1DB" opacity="0.726260231"></path>
                    <path d="M5.82076609e-11,595 L5.82076609e-11,232.940951 C50.4469416,221.844744 107.95781,213.486557 194.774357,214.031178 C347.89634,214.990493 441.738431,320.709199 579.719228,253.538121 C668.728873,210.20676 684.748642,96.3536137 851.643331,73.845619 C879.239762,70.1236662 905.36149,70.7354064 929.577574,74.1731296 L923.60591,61.5577247 L974,60.8185441 L974,83.9650465 L974,595 L5.83213478e-11,595 Z" id="Combined-Shape" fill="#24BBC5" opacity="0.726260231"></path>
                    <path d="M5.48894263e-12,233.294607 C50.4234119,222.188602 107.915082,213.825664 194.67906,214.370712 C331.529037,215.229725 421.020788,299.910879 537,269.853046 C531.536777,273.419641 525.799871,276.711333 519.728462,279.671903 C381.75334,346.958876 287.904504,241.058718 134.789347,240.097272 C80.0778654,239.753446 37.0034165,242.951729 5.79944981e-11,248.146353 L5.79802872e-11,233.294607 Z" id="Combined-Shape" fill="#36D1DB" opacity="0.726260231"></path>
                    <g id="Combined-Shape-2" transform="translate(0.000000, 174.000000)" fill="url(#linearGradient-2)">
                        <path d="M2600.23577,319.005897 C2600.07916,316.190967 2600,313.300562 2600,310.332697 C2600,179.056777 2730.73285,18.3326975 2892,18.3326975 C3053.26715,18.3326975 3191.01643,186.561249 3184,310.332697 C3183.83074,313.318394 3183.60764,316.224636 3183.3311,319.053519 C3264.64167,310.105106 3350.13277,305.332697 3438.34724,305.332697 C3665.64328,305.332697 3874.8588,337.01682 4041.06726,390.182822 C4043.63584,313.626879 4119.16805,290.826895 4162.73214,324.51814 C4170.32143,189.714674 4390.10714,189.714674 4390.10714,332.007221 L4390.10714,347.849509 C4417.68235,336.164375 4455.6461,346.209667 4464.22835,379.565932 L4568.23759,171.000993 C4575.76379,155.909058 4597.65818,155.909058 4605.18438,171.000993 L4645.55216,251.262652 C4653.07836,266.354588 4674.97275,266.354588 4682.49895,251.262652 L4799.49711,16.6516494 C4802.22939,11.1727301 4806.85533,7.68285688 4812,6.18202987 L4812,414.332697 L4812,421.332697 L4811,421.332697 L3027.58565,421.332697 C2994.85078,422.173628 2957.53201,421.332697 2916.15056,421.332697 C2859.0613,421.332697 2802.77204,423.873656 2753.87075,421.332697 L979,421.332697 L974,421.332697 L973,421.332697 L1.13686838e-13,421.332697 L0,340.108267 C72.8284469,353.444403 140.951235,370.313433 203.067256,390.182822 C205.63584,313.626879 281.168054,290.826895 324.732143,324.51814 C332.321429,189.714674 552.107143,189.714674 552.107143,332.007221 L552.107143,347.849509 C579.682349,336.164375 617.646103,346.209667 626.228347,379.565932 L730.237592,171.000993 C737.76379,155.909058 759.658182,155.909058 767.184379,171.000993 L807.552164,251.262652 C815.078361,266.354588 836.972753,266.354588 844.49895,251.262652 L961.497107,16.6516494 C961.860857,15.9222386 962.258169,15.2280812 962.6858,14.569177 C966.153692,4.85639232 969.594615,0 973.008568,0 C976.458122,0 979.958157,4.95820693 983.508673,14.8746208 C983.86283,15.4416884 984.194893,16.0340313 984.502893,16.6516494 L1101.50105,251.262652 C1109.02725,266.354588 1130.92164,266.354588 1138.44784,251.262652 L1178.81562,171.000993 C1186.34182,155.909058 1208.23621,155.909058 1215.76241,171.000993 L1319.77165,379.565932 C1328.3539,346.209667 1366.31765,336.164375 1393.89286,347.849509 L1393.89286,332.007221 C1393.89286,189.714674 1613.67857,189.714674 1621.26786,324.51814 C1664.83195,290.826895 1740.36416,313.626879 1742.93274,390.182822 C1909.1412,337.01682 2118.35672,305.332697 2345.65276,305.332697 C2433.71061,305.332697 2519.05476,310.088175 2600.23578,319.005897 Z" id="Combined-Shape"></path>
                    </g>
                    <path d="M2970.8173,39.29678 C2924.3896,35.3307064 2875.47827,35.3203588 2824.0833,39.2657372 L2764.74915,33.5900632 C2569.70592,62.3166332 2540.78518,59.156862 2677.98692,24.1107496 C2815.18865,-10.9353627 2972.19301,-7.77559151 3149,33.5900632 L3040.74589,33.5900632 L2970.81733,39.2967818 Z" id="Combined-Shape" fill="#2FC9D4"></path>
                    <path d="" id="Path-27" stroke="#979797"></path>
                    <path d="" id="Path-29" stroke="#979797"></path>
                    <path d="" id="Path-30" stroke="#979797"></path>
                    <path d="M747.084186,108 L746,108 C844.907859,56 920.695706,30 973.363541,30 C1026.03137,30 1101.24353,56 1199,108 C1043.05436,64.2217983 892.415755,64.2217983 747.084186,108 Z" id="Combined-Shape" fill="#2ECAD5"></path>
                </g>
            </g>
        </g>
    </g>
</svg>