<?xml version="1.0" encoding="UTF-8"?>
<svg width="1920px" height="750px" viewBox="0 0 1920 750" version="1.1" xmlns="http://www.w3.org/2000/svg" xmlns:xlink="http://www.w3.org/1999/xlink">
    <!-- Generator: Sketch 53 (72520) - https://sketchapp.com -->
    <title>BG</title>
    <desc>Created with Sketch.</desc>
    <defs>
        <linearGradient x1="44.1729984%" y1="63.2732937%" x2="44.1729984%" y2="-43.3923831%" id="linearGradient-1">
            <stop stop-color="#D1F9F6" offset="0%"></stop>
            <stop stop-color="#0CD2C2" offset="100%"></stop>
        </linearGradient>
    </defs>
    <g id="HD_Desktop" stroke="none" stroke-width="1" fill="none" fill-rule="evenodd">
        <g id="VW_HD_Desktop_Home">
            <g id="Hero_Module" transform="translate(-972.000000, 0.000000)">
                <g id="BG" transform="translate(-0.000000, 0.000000)">
                    <g id="Extended_Background" transform="translate(0.000000, -0.000000)">
                        <g id="Background_Extended">
                            <rect id="Rectangle" fill="#2F749E" x="-2.91038305e-11" y="2.04636308e-12" width="4812" height="748"></rect>
                            <path d="M972.001192,258.57682 L969.812853,258.912479 L948,212.834154 L1032.08033,211.600925 L1037.03893,222.99483 C1055.26979,221.729943 1074.43224,222.157548 1094.36394,224.845619 C1261.26692,247.353614 1277.28748,361.20676 1366.30155,404.538121 C1504.2892,471.709199 1598.13595,365.990493 1751.26554,365.031178 C1951.43089,363.775555 1995.81936,409.841226 2157.00533,427.682013 C2332.28544,447.084719 2410.46089,213.374741 2703.96501,170.045282 C2741.35837,164.52487 2796.292,170.500998 2861.43339,184.097869 L2860.36438,177.057131 L2917.39263,177.057131 L2929,199.130068 L2892.09657,206.472277 L2892.09657,746 L972.001192,746 L972.001192,258.57682 Z" id="Combined-Shape" fill="#24BBC5" opacity="0.726260231"></path>
                            <path d="M2787.76494,193.831266 C2779.28197,194.067851 2771.40066,194.70641 2764.17385,195.774951 C2470.6133,239.17917 2392.48698,473.292386 2217.1727,453.856203 C2055.95574,435.984158 2011.52974,389.839482 1811.3259,391.097272 C1658.16687,392.058718 1564.29115,497.958876 1426.27649,430.671903 C1420.20334,427.711333 1414.46479,424.419641 1409,420.853046 C1525.01244,450.910879 1614.52984,366.229725 1751.41903,365.370712 C1951.62286,364.113399 1996.0156,410.258075 2157.23255,428.129644 C2332.54684,447.565826 2410.73447,213.452611 2704.2955,170.048868 C2744.75847,164.06604 2805.75563,171.562796 2878,187.622706 C2848.78218,188.312114 2818.70383,190.381633 2787.76494,193.831266 Z" id="Combined-Shape" fill="#36D1DB" opacity="0.726260231"></path>
                            <path d="M5.82076609e-11,746 L5.82076609e-11,383.940951 C50.4469416,372.844744 107.95781,364.486557 194.774357,365.031178 C347.89634,365.990493 441.738431,471.709199 579.719228,404.538121 C668.728873,361.20676 684.748642,247.353614 851.643331,224.845619 C879.239762,221.123666 905.36149,221.735406 929.577574,225.17313 L923.60591,212.557725 L974,211.818544 L974,234.965047 L974,746 L5.83213478e-11,746 Z" id="Combined-Shape" fill="#24BBC5" opacity="0.726260231"></path>
                            <g id="Combined-Shape-2" transform="translate(0.000000, 327.000000)" fill="url(#linearGradient-1)">
                                <path d="M2600.23577,319.005897 C2600.07916,316.190967 2600,313.300562 2600,310.332697 C2600,179.056777 2730.73285,18.3326975 2892,18.3326975 C3053.26715,18.3326975 3191.01643,186.561249 3184,310.332697 C3183.83074,313.318394 3183.60764,316.224636 3183.3311,319.053519 C3264.64167,310.105106 3350.13277,305.332697 3438.34724,305.332697 C3665.64328,305.332697 3874.8588,337.01682 4041.06726,390.182822 C4043.63584,313.626879 4119.16805,290.826895 4162.73214,324.51814 C4170.32143,189.714674 4390.10714,189.714674 4390.10714,332.007221 L4390.10714,347.849509 C4417.68235,336.164375 4455.6461,346.209667 4464.22835,379.565932 L4568.23759,171.000993 C4575.76379,155.909058 4597.65818,155.909058 4605.18438,171.000993 L4645.55216,251.262652 C4653.07836,266.354588 4674.97275,266.354588 4682.49895,251.262652 L4799.49711,16.6516494 C4802.22939,11.1727301 4806.85533,7.68285688 4812,6.18202987 L4812,414.332697 L4812,421.332697 L4811,421.332697 L3027.58565,421.332697 C2994.85078,422.173628 2957.53201,421.332697 2916.15056,421.332697 C2859.0613,421.332697 2802.77204,423.873656 2753.87075,421.332697 L979,421.332697 L974,421.332697 L973,421.332697 L1.13686838e-13,421.332697 L0,340.108267 C72.8284469,353.444403 140.951235,370.313433 203.067256,390.182822 C205.63584,313.626879 281.168054,290.826895 324.732143,324.51814 C332.321429,189.714674 552.107143,189.714674 552.107143,332.007221 L552.107143,347.849509 C579.682349,336.164375 617.646103,346.209667 626.228347,379.565932 L730.237592,171.000993 C737.76379,155.909058 759.658182,155.909058 767.184379,171.000993 L807.552164,251.262652 C815.078361,266.354588 836.972753,266.354588 844.49895,251.262652 L961.497107,16.6516494 C961.860857,15.9222386 962.258169,15.2280812 962.6858,14.569177 C966.153692,4.85639232 969.594615,0 973.008568,0 C976.458122,0 979.958157,4.95820693 983.508673,14.8746208 C983.86283,15.4416884 984.194893,16.0340313 984.502893,16.6516494 L1101.50105,251.262652 C1109.02725,266.354588 1130.92164,266.354588 1138.44784,251.262652 L1178.81562,171.000993 C1186.34182,155.909058 1208.23621,155.909058 1215.76241,171.000993 L1319.77165,379.565932 C1328.3539,346.209667 1366.31765,336.164375 1393.89286,347.849509 L1393.89286,332.007221 C1393.89286,189.714674 1613.67857,189.714674 1621.26786,324.51814 C1664.83195,290.826895 1740.36416,313.626879 1742.93274,390.182822 C1909.1412,337.01682 2118.35672,305.332697 2345.65276,305.332697 C2433.71061,305.332697 2519.05476,310.088175 2600.23578,319.005897 Z" id="Combined-Shape"></path>
                            </g>
                            <path d="M2970.8173,190.29678 C2924.3896,186.330706 2875.47827,186.320359 2824.0833,190.265737 L2764.74915,184.590063 C2569.70592,213.316633 2540.78518,210.156862 2677.98692,175.11075 C2815.18865,140.064637 2972.19301,143.224408 3149,184.590063 L3040.74589,184.590063 L2970.81733,190.296782 Z" id="Combined-Shape" fill="#2FC9D4"></path>
                            <path d="" id="Path-29" stroke="#979797"></path>
                            <path d="" id="Path-30" stroke="#979797"></path>
                            <path d="M747.084186,259 L746,259 C844.907859,207 920.695706,181 973.363541,181 C1026.03137,181 1101.24353,207 1199,259 C1043.05436,215.221798 892.415755,215.221798 747.084186,259 Z" id="Combined-Shape" fill="#2ECAD5"></path>
                        </g>
                    </g>
                </g>
            </g>
        </g>
    </g>
</svg>