<?xml version="1.0" encoding="UTF-8"?>
<svg width="1920px" height="893px" viewBox="0 0 1920 893" version="1.1" xmlns="http://www.w3.org/2000/svg" xmlns:xlink="http://www.w3.org/1999/xlink">
    <!-- Generator: Sketch 53 (72520) - https://sketchapp.com -->
    <title>BG</title>
    <desc>Created with Sketch.</desc>
    <defs>
        <linearGradient x1="50%" y1="45.8583337%" x2="50%" y2="-9.74903829%" id="linearGradient-1">
            <stop stop-color="#00BFD6" offset="0%"></stop>
            <stop stop-color="#62DFD8" offset="100%"></stop>
        </linearGradient>
        <linearGradient x1="44.1729984%" y1="86.6716348%" x2="44.1729984%" y2="-43.3923831%" id="linearGradient-2">
            <stop stop-color="#D1F9F6" offset="0%"></stop>
            <stop stop-color="#0CD2C2" offset="100%"></stop>
        </linearGradient>
    </defs>
    <g id="HD_Desktop" stroke="none" stroke-width="1" fill="none" fill-rule="evenodd">
        <g id="VW_HD_Desktop_Home">
            <g id="Hero_Module" transform="translate(-0.000000, 0.000000)">
                <g id="BG" transform="translate(-0.000000, 0.000000)">
                    <rect id="Solving_Problem_Framing_BG" fill="url(#linearGradient-1)" x="4.36557457e-11" y="0" width="1920" height="893"></rect>
                    <g id="Environment" transform="translate(-0.000000, 315.000000)">
                        <path d="M2.90150126e-11,67.3466739 C35.5096337,56.7231859 76.9356734,51.1134119 122.356669,57.2348033 C289.251358,79.7259896 305.271127,193.494113 394.280772,236.793116 C532.261569,303.914032 626.10366,198.274274 779.225643,197.315676 C979.381048,196.06099 1023.76732,242.092261 1184.94528,259.919724 C1360.21668,279.307941 1438.38825,45.7724918 1731.87779,2.47538974 C1775.0035,-3.88685496 1841.46063,5.03251756 1920,23.2915907 L1920,578 L5.32054401e-11,578 L5.32054401e-11,67.3466739 Z" id="Combined-Shape" fill="#24BBC5" opacity="0.726260231"></path>
                        <path d="M4.31725766e-11,113.054862 L4.31725766e-11,67.7092699 C35.6388822,57.0857735 77.2396147,51.4604004 122.86282,57.5678382 C168.495338,63.6765353 202.869827,76.5495477 230.546155,92.9163527 C216.123783,88.7797137 200.313023,85.4481701 182.848673,83.1104606 C128.666318,75.857169 62.1809646,91.0601411 -2.76756396e-12,113.054862 Z" id="Combined-Shape" fill="#36D1DB" opacity="0.73"></path>
                        <path d="M1920,22.8973117 L1920,36.1228104 C1867.66226,26.6544517 1823.4426,23.0825769 1791.78565,27.7625677 C1498.30919,71.1474344 1420.20525,305.156268 1244.94118,285.728751 C1083.77041,267.864674 1039.35714,221.740573 839.210653,222.997801 C686.095496,223.958819 592.24666,329.81176 454.271538,262.554788 C448.200129,259.595538 442.463223,256.305314 437,252.740308 C552.979212,282.78474 642.470963,198.141343 779.32094,197.282713 C979.467423,196.02596 1023.84744,242.150061 1185.01821,260.013662 C1360.28227,279.441179 1438.44751,45.4323455 1731.92444,2.04795497 C1775.04127,-4.32625428 1841.48085,4.60722849 1920,22.8973117 Z" id="Combined-Shape" fill="#36D1DB" opacity="0.726260231"></path>
                        <path d="M1920,578 L1,578 L1,571 L4.36557457e-11,571 L4.36557457e-11,162.849332 C5.14466845,164.350159 9.7706111,167.840033 12.5028933,173.318952 L129.50105,407.929955 C137.027247,423.021891 158.921639,423.021891 166.447836,407.929955 L206.815621,327.668296 C214.341818,312.57636 236.23621,312.57636 243.762408,327.668296 L347.771653,536.233234 C356.353897,502.87697 394.317651,492.831678 421.892857,504.516811 L421.892857,488.674524 C421.892857,346.381976 641.678571,346.381976 649.267857,481.185442 C692.831946,447.494198 768.36416,470.294181 770.932744,546.850125 C937.1412,493.684122 1146.35672,462 1373.65276,462 C1471.95032,462 1566.86636,467.925751 1656.38476,478.952075 L1656.38468,478.952066 C1704.4011,349.728742 1799.11064,243.223247 1919.99998,179.958229 L1920,578 Z" id="Combined-Shape" fill="url(#linearGradient-2)"></path>
                    </g>
                </g>
            </g>
        </g>
    </g>
</svg>