<?xml version="1.0" encoding="UTF-8"?>
<svg width="300px" height="270px" viewBox="0 0 300 270" version="1.1" xmlns="http://www.w3.org/2000/svg" xmlns:xlink="http://www.w3.org/1999/xlink">
    <!-- Generator: Sketch 57.1 (83088) - https://sketch.com -->
    <title>illustration_cb</title>
    <desc>Created with Sketch.</desc>
    <defs>
        <rect id="path-1" x="0" y="0" width="300" height="270" rx="20"></rect>
        <filter x="-10.6%" y="-10.2%" width="126.3%" height="121.9%" filterUnits="objectBoundingBox" id="filter-3">
            <feOffset dx="0" dy="4" in="SourceAlpha" result="shadowOffsetOuter1"></feOffset>
            <feGaussianBlur stdDeviation="5" in="shadowOffsetOuter1" result="shadowBlurOuter1"></feGaussianBlur>
            <feColorMatrix values="0 0 0 0 0   0 0 0 0 0   0 0 0 0 0  0 0 0 0.1 0" type="matrix" in="shadowBlurOuter1" result="shadowMatrixOuter1"></feColorMatrix>
            <feMerge>
                <feMergeNode in="shadowMatrixOuter1"></feMergeNode>
                <feMergeNode in="SourceGraphic"></feMergeNode>
            </feMerge>
        </filter>
        <polygon id="path-4" points="0 0.798434081 93.7862425 0.798434081 93.7862425 83.8277755 0 83.8277755"></polygon>
    </defs>
    <g id="Illustrations" stroke="none" stroke-width="1" fill="none" fill-rule="evenodd">
        <g id="v">
            <g id="illustration_cb">
                <g>
                    <rect id="Rectangle" fill="#FFF4DB" fill-rule="nonzero" x="0" y="0" width="300" height="270" rx="20"></rect>
                    <g id="Group-2">
                        <mask id="mask-2" fill="white">
                            <use xlink:href="#path-1"></use>
                        </mask>
                        <use id="Mask" fill="#FFF4DB" fill-rule="nonzero" xlink:href="#path-1"></use>
                        <g filter="url(#filter-3)" mask="url(#mask-2)">
                            <g transform="translate(34.000000, 16.000000)">
                                <polyline id="Path-2" stroke="#D0D0D0" stroke-width="25" fill="none" points="95 32 199 58 255 265"></polyline>
                                <g id="Group" stroke="none" stroke-width="1" fill="none" fill-rule="evenodd" transform="translate(171.000000, 34.000000)">
                                    <path d="M25.0308212,0 C39.655857,0.279231855 51.2793026,12.1445409 50.9948899,26.5031857 C50.7104773,40.8611494 38.6243417,52.273558 24,51.9950075 L25.0308212,0 Z" id="Fill-2" fill="#A3A3A3" fill-rule="nonzero"></path>
                                    <path d="M25.0073573,52 C10.9239895,51.7194064 -0.268958084,39.8541084 0.00492079104,25.496158 C0.278798906,11.1368456 11.9166322,-0.274871354 26,0.00504119886 L25.0073573,52 Z" id="Fill-4" fill="#BFBFBF" fill-rule="nonzero"></path>
                                </g>
                                <g id="Group-7" stroke="none" stroke-width="1" fill="none" fill-rule="evenodd" transform="translate(0.000000, 72.000000)">
                                    <g id="Group-4" fill-rule="nonzero">
                                        <path d="M75.2717027,33.3844405 C73.6254419,19.1066337 85.3221343,3.59862944 85.3221343,3.59862944 C78.377286,6.89563787 64.7971428,12.7578652 56.4231232,5.13340961 C47.3315027,-3.13778972 31.9623827,0.30359881 25.0195445,3.59862944 C25.0195445,3.59862944 40.8228432,21.0231311 38.42079,33.3844405 C17.4435291,43.0757071 0,78.1363361 0,98.61062 C0,123.805935 28.6196091,132 56.001005,132 C83.3803909,132 112,123.805935 112,98.61062 C112,78.3103833 96.0017229,43.2932661 75.2717027,33.3844405" id="Fill-166" fill="#FFB700"></path>
                                        <path d="M56.8801451,38.5263158 C49.2026579,38.5263158 41.5509807,37.1511328 37.4094657,34.3925812 C36.2579419,33.62518 35.9263825,32.0412639 36.6689168,30.8563964 C37.4114511,29.6674361 38.9501252,29.3277332 40.101649,30.093088 C47.2609505,34.8591612 67.4741643,34.1756625 73.837326,30.0767167 C74.994806,29.3256868 76.5275239,29.6858537 77.2581459,30.885046 C77.9847972,32.0801455 77.6333839,33.6599688 76.4699477,34.4130452 C72.2172512,37.157272 64.5338078,38.5263158 56.8801451,38.5263158" id="Fill-167" fill="#E8A900"></path>
                                        <path d="M85.9090909,79.8957511 C85.9090909,95.7647601 73.2297257,108.631579 57.5919086,108.631579 C41.9520925,108.631579 29.2727273,95.7647601 29.2727273,79.8957511 C29.2727273,64.0226851 41.9520925,51.1578947 57.5919086,51.1578947 C73.2297257,51.1578947 85.9090909,64.0226851 85.9090909,79.8957511" id="Fill-168" fill="#E8A900"></path>
                                    </g>
                                    <path d="M68,88.312744 C68,81.9972445 63.8728884,77.9198622 57.4854611,77.9198622 C53.7441152,77.9198622 51.846303,76.1591274 51.846303,72.6913892 C51.846303,69.808496 54.3760731,67.4649828 57.4854611,67.4649828 C59.8446414,67.4649828 61.9750762,68.8475316 62.7873165,70.9017222 C63.3049017,72.2202067 64.7297148,72.8443169 65.9587372,72.284271 C67.1935752,71.7304248 67.773193,70.2156142 67.2536693,68.9033295 C65.9742454,65.658783 63.2157297,63.3710677 59.9086126,62.6043628 L59.9086126,60.5832377 C59.9086126,59.1572905 58.8230407,58 57.4854611,58 C56.1478815,58 55.0623096,59.1572905 55.0623096,60.5832377 L55.0623096,62.608496 C50.4505677,63.697589 47,67.7894374 47,72.6913892 C47,77.7173364 49.7546386,83.0863375 57.4854611,83.0863375 C61.2461922,83.0863375 63.153697,84.8429392 63.153697,88.312744 C63.153697,91.1956372 60.6239269,93.5391504 57.5145389,93.5391504 C55.1553586,93.5391504 53.0249238,92.1566016 52.214622,90.0941447 C51.6950983,88.7839265 50.2819164,88.1639495 49.0393243,88.715729 C47.8064248,89.2716418 47.226807,90.7864524 47.7463307,92.0987371 C49.0218776,95.3350172 51.7707006,97.6185993 55.0623096,98.3956372 L55.0623096,100.416762 C55.0623096,101.844776 56.1478815,103 57.4854611,103 C58.8230407,103 59.9086126,101.844776 59.9086126,100.416762 L59.9086126,98.4059701 C64.5358626,97.3251435 68,93.2229621 68,88.312744" id="Fill-169" fill="#FFFFFF" fill-rule="nonzero"></path>
                                </g>
                                <g id="Group-8" stroke="none" stroke-width="1" fill="none" fill-rule="evenodd" transform="translate(6.000000, 0.000000)">
                                    <g id="Fill-6-Clipped">
                                        <mask id="mask-5" fill="white">
                                            <use xlink:href="#path-4"></use>
                                        </mask>
                                        <g id="path-1"></g>
                                        <path d="M91.8284868,22.3782664 C84.8403879,11.7312358 74.1106761,4.43448196 61.6148154,1.82443128 C49.1189547,-0.781432614 36.353254,1.61509131 25.6647327,8.57438912 C3.61351054,22.9418096 -2.6045777,52.5114984 11.8129472,74.4813091 C15.4419166,80.012071 22.8839519,81.5662109 28.4371074,77.950491 C33.9860597,74.34147 35.546256,66.9249737 31.9164459,61.3942118 C24.7392068,50.4566173 27.8310182,35.7483914 38.8078732,28.5998502 C44.1239729,25.1365298 50.4757202,23.943292 56.6954897,25.2411998 C62.9118967,26.5391076 68.2481714,30.1707373 71.7241475,35.4645264 C75.3522763,40.9944509 82.7951522,42.5494281 88.3483077,38.9320335 C90.3178873,37.6500356 91.7847744,35.8907425 92.6960098,33.9036876 C94.3511964,30.2955039 94.1679406,25.9437447 91.8284868,22.3782664 Z" id="Fill-6" fill="#666666" fill-rule="nonzero" mask="url(#mask-5)"></path>
                                    </g>
                                </g>
                                <path d="M78.3178946,97.1796362 C78.4637437,97.1848815 78.6088449,97.1878788 78.7591817,97.1878788 C102.204986,97.1556578 121.262602,78.0223952 121.239436,54.536304 C121.219969,31.636185 103.061382,12.9240429 80.4173738,12.0338449 C79.8399609,12.0106158 79.2595563,11.9986266 78.6709243,12 C72.7711411,12.0091172 67.9940221,16.8062953 68,22.716221 C68.0052412,28.4785297 72.5572291,33.1700531 78.2520756,33.3933519 C78.3986726,33.3993465 78.5452697,33.4023438 78.6933626,33.4038425 C90.3695181,33.3611309 99.8631728,42.8850507 99.8751399,54.5647784 C99.8848631,66.2497513 90.4039236,75.7691751 78.7367433,75.7849109 C72.8362122,75.7939028 68.0583453,80.5925797 68.0658247,86.5002574 C68.0703124,92.2633154 72.6208043,96.9555881 78.3178946,97.1796362" id="Fill-9" stroke="none" fill="#333333" fill-rule="nonzero"></path>
                                <path d="M97.9340991,9.9232876 C108.446657,16.1152971 111.951721,29.6603726 105.762955,40.1784389 C99.575945,50.6947473 86.0379631,54.2016483 75.5254052,48.0105178 L97.9340991,9.9232876 Z" id="Fill-11" stroke="none" fill="#A3A3A3" fill-rule="nonzero"></path>
                                <path d="M75.5251417,48.0108694 C65.0143407,41.81886 61.5083978,28.2737844 67.696286,17.7565971 C73.8850526,7.2385308 87.4230345,3.73162979 97.9338355,9.9236392 L75.5251417,48.0108694 Z" id="Fill-13" stroke="none" fill="#BFBFBF" fill-rule="nonzero"></path>
                            </g>
                        </g>
                    </g>
                </g>
            </g>
        </g>
    </g>
</svg>