<?xml version="1.0" encoding="UTF-8"?>
<svg width="62px" height="61px" viewBox="0 0 62 61" version="1.1" xmlns="http://www.w3.org/2000/svg" xmlns:xlink="http://www.w3.org/1999/xlink">
    <!-- Generator: sketchtool 60 (101010) - https://sketch.com -->
    <title>49476C8F-8345-4B68-8B14-036E18DB8D25</title>
    <desc>Created with sketchtool.</desc>
    <g id="Pages" stroke="none" stroke-width="1" fill="none" fill-rule="evenodd">
        <g id="Home" transform="translate(-943.000000, -1311.000000)">
            <g id="features" transform="translate(0.000000, 1000.000000)">
                <g id="illustration_efficient" transform="translate(943.000000, 311.000000)">
                    <path d="M18.5,61 C28.7172679,61 37,52.9411255 37,43 C37,38.3229396 36,46 25,36 C17.6194182,29.2903802 23.9102892,25 18.5,25 C8.28273213,25 0,33.0588745 0,43 C0,52.9411255 8.28273213,61 18.5,61 Z" id="Oval" fill="#FFFFFF"></path>
                    <g id="icon_efficient" transform="translate(12.000000, 0.000000)" fill="#415EBF" fill-rule="nonzero">
                        <g id="Shape">
                            <path d="M29.5243176,33.8908222 L29.7132382,33.7019225 L29.5243176,33.8908222 Z M38.4980437,37.168787 C38.4980437,37.7966006 39.1648221,36.9409962 26.4182416,49.6917236 C26.1132911,49.9932615 25.6573987,50.0828916 25.2609714,49.9192471 C24.8645442,49.7556025 24.604663,49.3705022 24.6012704,48.9416808 L24.6012704,40.7245454 C20.2172024,42.7191036 19.8504743,43.1246823 19.1614699,42.4357541 L7.55396919,30.8295365 C6.85940835,30.1350524 7.31504026,29.6905826 9.26536709,25.3958932 L1.05843623,25.3958932 C0.629567349,25.3925009 0.244424475,25.1326485 0.0807618468,24.7362651 C-0.0829007812,24.3398816 0.0067392385,23.8840396 0.308310521,23.5791229 C13.0493345,10.8339514 12.2158615,11.5006561 12.8270751,11.5006561 L22.061956,11.5006561 C29.996619,3.55575839 39.1592656,0 48.9386822,0 C49.2211189,0 49.4919074,0.112560161 49.6910982,0.312771699 C49.890289,0.512983236 50.0014499,0.784325903 49.9999857,1.06672752 C49.9999857,10.8672866 46.4271502,20.001141 38.4980437,27.9404828 L38.4980437,37.168787 Z M10.2877606,23.2791057 L19.9338216,13.6285552 L13.2660375,13.6285552 L3.62553309,23.267994 L10.2877606,23.2791057 Z M23.3955128,38.9466662 L11.0601123,26.5959616 L9.58208684,29.846147 L20.1394116,40.4023048 L23.3955128,38.9466662 Z M36.3699093,30.0572702 L26.7294048,39.7078207 L26.7294048,46.3748677 L36.3699093,36.729873 L36.3699093,30.0572702 Z M37.6201188,25.795916 C43.9376904,19.5153935 47.601626,11.0486996 47.8551673,2.14456678 C38.9461722,2.39525563 30.4740669,6.0590013 24.1900904,12.3784839 L12.0213845,24.5458447 L25.4514129,37.9743885 L28.6741752,34.7519824 L28.546376,34.8797675 L28.3018906,35.1242259 L28.546376,34.8797675 L37.6201188,25.795916 Z M29.0297903,34.3964066 L28.7241835,34.7019796 L29.0297903,34.3964066 Z M29.5187611,33.9074898 L29.1298071,34.2964009 L29.5187611,33.9074898 Z M37.1144785,20.1955965 C35.6367096,21.6736932 33.413927,22.1160713 31.4827415,21.3164245 C29.551556,20.5167777 28.2923412,18.6326075 28.2923412,16.5426103 C28.2923412,14.4526132 29.551556,12.5684429 31.4827415,11.7687961 C33.413927,10.9691493 35.6367096,11.4115274 37.1144785,12.8896242 C39.1286544,14.9085758 39.1286544,18.1766449 37.1144785,20.1955965 Z M35.6086706,14.3897098 C34.4213671,13.2038422 32.4975342,13.2045473 31.3111005,14.3912847 C30.1246667,15.5780222 30.1246667,17.5016426 31.3111005,18.6883801 C32.4975342,19.8751176 34.4213671,19.8758226 35.6086706,18.6899551 C36.7941403,17.501589 36.7941403,15.5780758 35.6086706,14.3897098 L35.6086706,14.3897098 Z M9.00976871,39.4855858 L3.2032401,45.2859167 C2.78742275,45.7016881 2.78742276,46.3757867 3.20324012,46.7915581 C3.61905748,47.2073295 4.29323062,47.2073295 4.70904799,46.7915581 L10.5100201,40.9856714 C10.9039546,40.5681162 10.8944035,39.9130359 10.4884631,39.5071404 C10.0825227,39.1012449 9.42737,39.0916949 9.00976871,39.4855858 Z M13.3604978,42.8691121 L8.52635436,47.7027212 C8.11053702,48.1184926 8.11053703,48.7925912 8.52635439,49.2083626 C8.94217175,49.624134 9.61634489,49.624134 10.0321623,49.2083627 L14.8663057,44.3747536 C15.2821231,43.9589822 15.282123,43.2848836 14.8663057,42.8691122 C14.4504883,42.4533408 13.7763152,42.4533407 13.3604978,42.8691121 L13.3604978,42.8691121 Z M5.62031181,35.1297818 L0.786168378,39.9633908 C0.517181705,40.2323478 0.412130451,40.624361 0.510586406,40.9917631 C0.609042362,41.3591651 0.896047726,41.6461387 1.26349036,41.7445838 C1.63093298,41.8430289 2.0229896,41.7379892 2.29197628,41.4690323 L7.12611971,36.6354232 C7.54193708,36.2196518 7.54193708,35.5455532 7.12611971,35.1297818 C6.71030234,34.7140104 6.03612918,34.7140104 5.62031181,35.1297818 L5.62031181,35.1297818 Z"></path>
                        </g>
                    </g>
                </g>
            </g>
        </g>
    </g>
</svg>