<?xml version="1.0" encoding="UTF-8"?>
<svg width="300px" height="270px" viewBox="0 0 300 270" version="1.1" xmlns="http://www.w3.org/2000/svg" xmlns:xlink="http://www.w3.org/1999/xlink">
    <!-- Generator: Sketch 57.1 (83088) - https://sketch.com -->
    <title>illustration_input-format</title>
    <desc>Created with Sketch.</desc>
    <defs>
        <path d="M274,18 C277.865993,18 281,21.1340068 281,25 L281,114 C281,117.865993 277.865993,121 274,121 L227.375,121 L216,135 L204.625,121 L152,121 C148.134007,121 145,117.865993 145,114 L145,25 C145,21.1340068 148.134007,18 152,18 L274,18 Z" id="path-1"></path>
        <filter x="-12.5%" y="-11.1%" width="125.0%" height="129.1%" filterUnits="objectBoundingBox" id="filter-2">
            <feOffset dx="0" dy="4" in="SourceAlpha" result="shadowOffsetOuter1"></feOffset>
            <feGaussianBlur stdDeviation="5" in="shadowOffsetOuter1" result="shadowBlurOuter1"></feGaussianBlur>
            <feColorMatrix values="0 0 0 0 0   0 0 0 0 0   0 0 0 0 0  0 0 0 0.1 0" type="matrix" in="shadowBlurOuter1"></feColorMatrix>
        </filter>
        <path d="M102,34 C106.970563,34 111,38.0294373 111,43 L111,43 L111,156.868 L162,179 L110.944994,179.000695 C110.447234,183.500311 106.632315,187 102,187 L102,187 L29,187 C24.0294373,187 20,182.970563 20,178 L20,178 L20,43 C20,38.0294373 24.0294373,34 29,34 L29,34 Z" id="path-3"></path>
        <filter x="-12.0%" y="-8.5%" width="123.9%" height="122.2%" filterUnits="objectBoundingBox" id="filter-4">
            <feOffset dx="0" dy="4" in="SourceAlpha" result="shadowOffsetOuter1"></feOffset>
            <feGaussianBlur stdDeviation="5" in="shadowOffsetOuter1" result="shadowBlurOuter1"></feGaussianBlur>
            <feColorMatrix values="0 0 0 0 0   0 0 0 0 0   0 0 0 0 0  0 0 0 0.1 0" type="matrix" in="shadowBlurOuter1"></feColorMatrix>
        </filter>
        <path d="M212.000582,156 C238.469627,156 260,177.309293 260,203.5 C260,229.690707 238.468464,251 212.000582,251 C185.533863,251 164,229.690707 164,203.5 C164,177.309293 185.533863,156 212.000582,156 Z" id="path-5"></path>
        <filter x="-17.7%" y="-13.7%" width="135.4%" height="135.8%" filterUnits="objectBoundingBox" id="filter-6">
            <feOffset dx="0" dy="4" in="SourceAlpha" result="shadowOffsetOuter1"></feOffset>
            <feGaussianBlur stdDeviation="5" in="shadowOffsetOuter1" result="shadowBlurOuter1"></feGaussianBlur>
            <feColorMatrix values="0 0 0 0 0   0 0 0 0 0   0 0 0 0 0  0 0 0 0.1 0" type="matrix" in="shadowBlurOuter1"></feColorMatrix>
        </filter>
    </defs>
    <g id="Illustrations" stroke="none" stroke-width="1" fill="none" fill-rule="evenodd">
        <g id="v">
            <g id="illustration_input-format">
                <g>
                    <rect id="Rectangle" fill="#F2F4FF" fill-rule="nonzero" x="0" y="0" width="300" height="270" rx="20"></rect>
                    <g id="Combined-Shape" fill-rule="nonzero">
                        <use fill="black" fill-opacity="1" filter="url(#filter-2)" xlink:href="#path-1"></use>
                        <use fill="#FFFFFF" xlink:href="#path-1"></use>
                    </g>
                    <g id="Combined-Shape" fill-rule="nonzero">
                        <use fill="black" fill-opacity="1" filter="url(#filter-4)" xlink:href="#path-3"></use>
                        <use fill="#FFFFFF" xlink:href="#path-3"></use>
                    </g>
                    <path d="M75,50 L75,83 L57,83 L57,50 L75,50 Z M70,55 L62,55 L62,79 L70,79 L70,55 Z" id="Combined-Shape" fill="#415EBF" fill-rule="nonzero"></path>
                    <path d="M99,95 L99,128 L81,128 L81,95 L99,95 Z M94,100 L86,100 L86,124 L94,124 L94,100 Z" id="Combined-Shape" fill="#415EBF" fill-rule="nonzero"></path>
                    <path d="M99,138 L99,172 L81,172 L81,138 L99,138 Z M94,143 L86,143 L86,168 L94,168 L94,143 Z" id="Combined-Shape" fill="#415EBF" fill-rule="nonzero"></path>
                    <polygon id="Fill-4" fill="#000C4C" fill-rule="nonzero" points="81 50 81 52.2310443 81 54.4620887 81.6409099 54.4620887 87.3045896 54.4620887 87.3045896 74.1332065 87.3045896 79.5367958 81 79.5367958 81 84 98.6470588 84 98.6470588 79.5367958 92.34121 79.5367958 92.34121 50"></polygon>
                    <polygon id="Fill-5" fill="#000C4C" fill-rule="nonzero" points="57 137 57 141.462235 57.6409099 141.462235 63.3058488 141.462235 63.3058488 161.136229 63.3058488 166.537765 57 166.537765 57 171 74.6470588 171 74.6470588 166.537765 68.3424692 166.537765 68.3424692 137"></polygon>
                    <polygon id="Fill-6" fill="#000C4C" fill-rule="nonzero" points="63.3058488 118.137345 63.3058488 123.537765 57 123.537765 57 128 74.6470588 128 74.6470588 123.537765 68.3424692 123.537765 68.3424692 94 57 94 57 98.4622351 57.6421691 98.4622351 63.3058488 98.4622351"></polygon>
                    <path d="M53,95 L53,128 L35,128 L35,95 L53,95 Z M47,100 L40,100 L40,124 L47,124 L47,100 Z" id="Combined-Shape" fill="#415EBF" fill-rule="nonzero"></path>
                    <path d="M53,138 L53,172 L35,172 L35,138 L53,138 Z M47,143 L40,143 L40,168 L47,168 L47,143 Z" id="Combined-Shape" fill="#415EBF" fill-rule="nonzero"></path>
                    <polygon id="Fill-9" fill="#000C4C" fill-rule="nonzero" points="35 50 35 54.4620887 35.6433824 54.4620887 41.3053989 54.4620887 41.3053989 74.134322 41.3053989 79.5367958 35 79.5367958 35 84 52.6470588 84 52.6470588 79.5367958 46.34166 79.5367958 46.34166 50"></polygon>
                    <g id="Combined-Shape" fill-rule="nonzero">
                        <use fill="black" fill-opacity="1" filter="url(#filter-6)" xlink:href="#path-5"></use>
                        <use fill="#FFFFFF" xlink:href="#path-5"></use>
                    </g>
                    <g id="noun_Gear_2618970" transform="translate(183.000000, 174.000000)" fill="#2A3B93" fill-rule="nonzero">
                        <path d="M33.2962963,0 L35.8024692,6.08641975 C37.4135802,6.62345678 39.0246913,7.16049383 40.4567901,8.05555555 L46.5432099,5.37037036 L52.6296296,11.6358025 L49.9444445,17.5432099 C50.8395061,18.9753087 51.5555555,20.5864197 51.9135802,22.3765432 L58,24.7037036 L58,33.2962963 L51.9135802,35.8024691 C51.5555555,37.4135803 50.8395061,39.0246913 49.9444445,40.4567901 L52.6296296,46.5432099 L46.5432099,52.6296296 L40.4567901,49.9444445 C39.0246913,50.8395062 37.4135802,51.5555555 35.8024692,51.9135803 L33.2962963,58 L24.7037037,58 L22.3765432,51.9135803 C20.5864198,51.5555555 18.9753087,50.8395062 17.5432099,49.9444445 L11.6358024,52.6296296 L5.37037037,46.5432099 L8.05555555,40.4567901 C7.16049383,39.0246913 6.62345679,37.4135803 6.08641976,35.8024691 L0,33.2962963 L0,24.7037036 L6.08641976,22.3765432 C6.62345679,20.5864197 7.16049383,18.9753087 8.05555555,17.5432099 L5.37037037,11.6358025 L11.6358024,5.37037036 L17.5432099,8.05555555 C18.9753087,7.16049383 20.5864198,6.62345678 22.3765432,6.08641975 L24.7037037,0 L33.2962963,0 Z M29,16.4691358 C22.1975308,16.4691358 16.4691358,22.1975309 16.4691358,29 C16.4691358,35.9814815 22.1975308,41.5308642 29,41.5308642 C35.9814814,41.5308642 41.5308642,35.9814815 41.5308642,29 C41.5308642,22.1975309 35.9814814,16.4691358 29,16.4691358 Z" id="Shape"></path>
                    </g>
                    <rect id="Rectangle" fill="#000C4C" x="158" y="33" width="111" height="35"></rect>
                    <rect id="Rectangle" fill="#415EBF" x="158" y="72" width="54" height="37"></rect>
                    <rect id="Rectangle" fill="#415EBF" x="216" y="72" width="53" height="11.1666667"></rect>
                    <rect id="Rectangle" fill="#415EBF" x="216" y="85" width="53" height="11.1666667"></rect>
                    <rect id="Rectangle" fill="#415EBF" x="216" y="99" width="53" height="11.1666667"></rect>
                </g>
            </g>
        </g>
    </g>
</svg>