<?xml version="1.0" encoding="UTF-8"?>
<svg width="300px" height="270px" viewBox="0 0 300 270" version="1.1" xmlns="http://www.w3.org/2000/svg" xmlns:xlink="http://www.w3.org/1999/xlink">
    <!-- Generator: Sketch 57.1 (83088) - https://sketch.com -->
    <title>illustration_online</title>
    <desc>Created with Sketch.</desc>
    <defs>
        <filter x="-10.7%" y="-11.8%" width="121.4%" height="123.6%" filterUnits="objectBoundingBox" id="filter-1">
            <feOffset dx="0" dy="4" in="SourceAlpha" result="shadowOffsetOuter1"></feOffset>
            <feGaussianBlur stdDeviation="5" in="shadowOffsetOuter1" result="shadowBlurOuter1"></feGaussianBlur>
            <feColorMatrix values="0 0 0 0 0   0 0 0 0 0   0 0 0 0 0  0 0 0 0.1 0" type="matrix" in="shadowBlurOuter1" result="shadowMatrixOuter1"></feColorMatrix>
            <feMerge>
                <feMergeNode in="shadowMatrixOuter1"></feMergeNode>
                <feMergeNode in="SourceGraphic"></feMergeNode>
            </feMerge>
        </filter>
        <polygon id="path-2" points="0 0 100.312836 0 100.312836 71.223737 0 71.223737"></polygon>
        <polygon id="path-4" points="0 0 15.584932 0 15.584932 26.5053008 0 26.5053008"></polygon>
        <polygon id="path-6" points="0 0 14.9469523 0 14.9469523 26.3086681 0 26.3086681"></polygon>
        <polygon id="path-8" points="0 0 15.584932 0 15.584932 26.5053008 0 26.5053008"></polygon>
    </defs>
    <g id="Illustrations" stroke="none" stroke-width="1" fill="none" fill-rule="evenodd">
        <g id="v">
            <g id="illustration_online">
                <g>
                    <rect id="Rectangle" fill="#FFEEF8" fill-rule="nonzero" x="0" y="0" width="300" height="270" rx="20"></rect>
                    <g id="Group" filter="url(#filter-1)" transform="translate(24.000000, 20.000000)">
                        <rect id="Rectangle" fill="#C40075" fill-rule="nonzero" transform="translate(196.500000, 105.500000) scale(-1, 1) translate(-196.500000, -105.500000) " x="177" y="99" width="39" height="13" rx="3"></rect>
                        <g id="Fill-1-Clipped" transform="translate(193.500000, 67.000000) scale(-1, 1) translate(-193.500000, -67.000000) translate(143.000000, 31.000000)">
                            <mask id="mask-3" fill="white">
                                <use xlink:href="#path-2"></use>
                            </mask>
                            <g id="path-9"></g>
                            <path d="M78.1579966,14.994471 C75.9097724,14.994471 73.6596109,15.4354848 71.4104182,16.0970056 C66.7996698,6.17419392 56.9039965,0 45.7694266,0 C33.0627465,0 21.8167826,8.37926317 18.4429934,20.1763837 C8.09690032,21.1686649 0,29.8786884 0,40.1322605 C0,50.0550721 7.5341178,58.5445888 17.4307598,59.9778838 C20.9169117,66.8135984 28.0015785,71.223737 35.8737532,71.223737 C39.5846307,71.223737 43.1841142,70.3417092 46.3331778,68.4674004 C50.0440553,70.2314558 54.0920211,71.223737 58.2533184,71.223737 C67.8119034,71.223737 76.4715863,66.1509751 80.9690032,58.2138284 C92.1026045,56.7794308 100.312836,47.7397494 100.312836,36.7144031 C100.312836,24.6967757 90.3038309,14.994471 78.1579966,14.994471" id="Fill-1" fill="#FFFFFF" fill-rule="nonzero" mask="url(#mask-3)"></path>
                        </g>
                        <g id="Fill-1-Clipped" transform="translate(236.355803, 27.702373) scale(-1, 1) rotate(135.000000) translate(-236.355803, -27.702373) translate(228.355803, 14.202373)">
                            <mask id="mask-5" fill="white">
                                <use xlink:href="#path-4"></use>
                            </mask>
                            <g id="path-11"></g>
                            <path d="M4.7566083,25.5763134 L6.29883915,15.8143618 L1.10395628,15.8143618 C0.400482558,15.8143618 -0.113594393,15.1449707 0.0216890152,14.4476885 L2.61913045,0.920412585 C2.72735717,0.390478068 3.18732076,0 3.70139772,0 L12.0892395,0 C12.9009401,0 13.4420736,0.864630011 13.0900662,1.61769485 L9.7620944,9.09256072 L14.469957,9.09256072 C15.3360414,9.09256072 15.877175,10.0687559 15.4169409,10.849712 L6.13649906,26.1341393 C5.70359216,26.8593128 4.62132489,26.4409434 4.7566083,25.5763134" id="Fill-1" fill="#FFB700" fill-rule="nonzero" mask="url(#mask-5)"></path>
                        </g>
                        <g id="Fill-1-Clipped" transform="translate(198.500000, 13.500000) scale(-1, 1) rotate(-180.000000) translate(-198.500000, -13.500000) translate(191.000000, 0.000000)">
                            <mask id="mask-7" fill="white">
                                <use xlink:href="#path-6"></use>
                            </mask>
                            <g id="path-13"></g>
                            <path d="M4.56189334,25.3865725 L6.04099194,15.6970411 L1.05876508,15.6970411 C0.384088535,15.6970411 -0.10894433,15.032616 0.0208011607,14.3405066 L2.51191458,0.913584395 C2.61571097,0.38758126 3.05684564,0 3.54987851,0 L11.5943584,0 C12.3728314,0 12.8918133,0.858215651 12.5542156,1.60569379 L9.3624765,9.02510648 L13.8776196,9.02510648 C14.7082502,9.02510648 15.2272322,9.99405965 14.7858381,10.7692221 L5.88529734,25.9402601 C5.47011178,26.6600538 4.43214785,26.2447882 4.56189334,25.3865725" id="Fill-1" fill="#FFB700" fill-rule="nonzero" mask="url(#mask-7)"></path>
                        </g>
                        <g id="Fill-1-Clipped" transform="translate(162.194332, 26.143238) rotate(135.000000) translate(-162.194332, -26.143238) translate(154.194332, 12.643238)">
                            <mask id="mask-9" fill="white">
                                <use xlink:href="#path-8"></use>
                            </mask>
                            <g id="path-15"></g>
                            <path d="M4.7566083,25.5763134 L6.29883915,15.8143618 L1.10395628,15.8143618 C0.400482558,15.8143618 -0.113594393,15.1449707 0.0216890152,14.4476885 L2.61913045,0.920412585 C2.72735717,0.390478068 3.18732076,0 3.70139772,0 L12.0892395,0 C12.9009401,0 13.4420736,0.864630011 13.0900662,1.61769485 L9.7620944,9.09256072 L14.469957,9.09256072 C15.3360414,9.09256072 15.877175,10.0687559 15.4169409,10.849712 L6.13649906,26.1341393 C5.70359216,26.8593128 4.62132489,26.4409434 4.7566083,25.5763134" id="Fill-1" fill="#FFB700" fill-rule="nonzero" mask="url(#mask-9)"></path>
                        </g>
                        <g id="Group-3" transform="translate(198.000000, 70.000000) scale(-1, 1) translate(-198.000000, -70.000000) translate(174.000000, 64.000000)" fill="#FF83CC" fill-rule="nonzero">
                            <path d="M5.74678024,11.3488372 C2.57292115,11.3488372 0,8.80831346 0,5.67441861 C0,2.54052375 2.57292115,0 5.74678024,0 C8.92063928,0 11.4935604,2.54052375 11.4935604,5.67441861 C11.4935604,8.80831346 8.92063928,11.3488372 5.74678024,11.3488372 Z M42.0422344,11.3488372 C38.8683752,11.3488372 36.2954542,8.80831346 36.2954542,5.67441861 C36.2954542,2.54052375 38.8683752,0 42.0422344,0 C45.2160934,0 47.7890146,2.54052375 47.7890146,5.67441861 C47.7890146,8.80831346 45.2160934,11.3488372 42.0422344,11.3488372 Z" id="Combined-Shape"></path>
                        </g>
                        <ellipse id="Oval" fill="#FF83CC" fill-rule="nonzero" transform="translate(197.000000, 69.500000) scale(-1, 1) translate(-197.000000, -69.500000) " cx="197" cy="69.5" rx="6" ry="5.5"></ellipse>
                        <circle id="Oval" fill="#FF3AB0" fill-rule="nonzero" transform="translate(196.500000, 122.500000) scale(-1, 1) translate(-196.500000, -122.500000) " cx="196.5" cy="122.5" r="2.5"></circle>
                        <circle id="Oval" fill="#FF3AB0" fill-rule="nonzero" transform="translate(196.500000, 151.500000) scale(-1, 1) translate(-196.500000, -151.500000) " cx="196.5" cy="151.5" r="2.5"></circle>
                        <circle id="Oval" fill="#FF3AB0" fill-rule="nonzero" transform="translate(169.500000, 155.500000) scale(-1, 1) translate(-169.500000, -155.500000) " cx="169.5" cy="155.5" r="2.5"></circle>
                        <circle id="Oval" fill="#FF3AB0" fill-rule="nonzero" transform="translate(197.500000, 137.500000) scale(-1, 1) translate(-197.500000, -137.500000) " cx="197.5" cy="137.5" r="3.5"></circle>
                        <circle id="Oval" fill="#FF3AB0" fill-rule="nonzero" transform="translate(183.500000, 155.500000) scale(-1, 1) translate(-183.500000, -155.500000) " cx="183.5" cy="155.5" r="3.5"></circle>
                        <circle id="Oval" fill="#FFFFFF" fill-rule="nonzero" transform="translate(142.500000, 155.500000) scale(-1, 1) translate(-142.500000, -155.500000) " cx="142.5" cy="155.5" r="2.5"></circle>
                        <circle id="Oval" fill="#FF3AB0" fill-rule="nonzero" transform="translate(156.500000, 155.500000) scale(-1, 1) translate(-156.500000, -155.500000) " cx="156.5" cy="155.5" r="3.5"></circle>
                        <circle id="Oval" fill="#FFFFFF" fill-rule="nonzero" transform="translate(129.500000, 155.500000) scale(-1, 1) translate(-129.500000, -155.500000) " cx="129.5" cy="155.5" r="3.5"></circle>
                        <path d="M72.5008783,84 C112.480165,84 145,116.524711 145,156.5 C145,196.47529 112.478409,229 72.5008783,229 C32.5251044,229 0,196.47529 0,156.5 C0,116.524711 32.5251044,84 72.5008783,84 Z" id="Combined-Shape" fill="#FFFFFF" fill-rule="nonzero"></path>
                        <g id="Group-31" transform="translate(38.000000, 103.000000)" fill-rule="nonzero">
                            <g id="Group-34">
                                <g id="Group-40">
                                    <path d="M34.2137023,7.10542736e-15 C53.1096998,7.10542736e-15 68.4285714,14.3874069 68.4285714,32.1344322 C68.4285714,55.3690534 51.3223036,57.8411013 51.3223036,76.0516356 C51.3223036,78.1938581 49.0413901,80.3349847 46.7593099,80.3349847 L21.6692615,80.3349847 C19.388348,80.3349847 17.1074345,78.1938581 17.1074345,76.0516356 C17.1074345,57.8411013 -2.13162821e-14,55.3690534 -2.13162821e-14,32.1344322 C-2.13162821e-14,14.3874069 15.3188717,7.10542736e-15 34.2137023,7.10542736e-15 Z" id="Combined-Shape" fill="#FFDD56"></path>
                                    <path d="M46.2753498,100.417284 L22.1532217,100.417284 C20.7155001,100.417284 19.5510204,98.9180041 19.5510204,97.0699925 C19.5510204,95.22198 20.7165675,93.7227013 22.1532217,93.7227013 L46.2753498,93.7227013 C47.7130713,93.7227013 48.877551,95.2233534 48.877551,97.0699925 C48.877551,98.9180041 47.7120039,100.417284 46.2753498,100.417284 Z" id="Path" fill="#FF3AB0"></path>
                                    <path d="M46.2753498,90.3761341 L22.1532217,90.3761341 C20.7155001,90.3761341 19.5510204,88.8768555 19.5510204,87.028843 C19.5510204,85.1808313 20.7165675,83.6815518 22.1532217,83.6815518 L46.2753498,83.6815518 C47.7130713,83.6815518 48.877551,85.1822039 48.877551,87.028843 C48.877551,88.8768555 47.7120039,90.3761341 46.2753498,90.3761341 Z" id="Path" fill="#FF3AB0"></path>
                                    <path d="M45.3334048,104.459455 C44.9647152,104.028572 44.296612,103.763851 43.574497,103.763851 L24.8546926,103.763851 C24.1325777,103.763851 23.4633003,104.027757 23.0957848,104.458641 C22.7282694,104.889525 22.7130052,105.423039 23.0593856,105.862882 C25.2891358,108.696615 29.5631174,110.458433 34.2140077,110.458433 C38.8625497,110.458433 43.1365313,108.698245 45.3686299,105.862882 C45.7150103,105.423039 45.7009202,104.889525 45.3334048,104.459455 Z" id="Path" fill="#FF3AB0"></path>
                                </g>
                            </g>
                        </g>
                    </g>
                </g>
            </g>
        </g>
    </g>
</svg>