<?xml version="1.0" encoding="UTF-8"?>
<svg width="70px" height="50px" viewBox="0 0 70 50" version="1.1" xmlns="http://www.w3.org/2000/svg" xmlns:xlink="http://www.w3.org/1999/xlink">
    <!-- Generator: sketchtool 60 (101010) - https://sketch.com -->
    <title>8F6F0816-B949-49C2-AB6C-3EB27BBB5BDC</title>
    <desc>Created with sketchtool.</desc>
    <g id="Pages" stroke="none" stroke-width="1" fill="none" fill-rule="evenodd">
        <g id="Home" transform="translate(-685.000000, -1308.000000)">
            <g id="features" transform="translate(0.000000, 1000.000000)">
                <g id="illustration_online" transform="translate(685.000000, 308.000000)">
                    <rect id="Rectangle" fill="#FFFFFF" x="5" y="17" width="43" height="26" rx="12"></rect>
                    <g id="icon_online" fill="#415EBF" fill-rule="nonzero">
                        <g transform="translate(0.000000, 0.000000)">
                            <path d="M0.209263393,49.6651786 L69.5452009,49.6651786 L69.5452009,0.558035714 L0.209263393,0.558035714 L0.209263393,49.6651786 Z M2.30189732,47.5725446 L2.30189732,13.9508929 L67.452567,13.9508929 L67.452567,47.5725446 L2.30189732,47.5725446 Z M67.452567,2.65066964 L67.452567,11.8582589 L2.30189732,11.8582589 L2.30189732,2.65066964 L67.452567,2.65066964 Z" id="Shape"></path>
                            <rect id="Rectangle" x="46.1077009" y="5.44084821" width="2.79017857" height="2.79017857"></rect>
                            <rect id="Rectangle" x="53.2226562" y="5.44084821" width="2.79017857" height="2.79017857"></rect>
                            <rect id="Rectangle" x="60.3376116" y="5.44084821" width="2.79017857" height="2.79017857"></rect>
                            <path d="M33.4123884,28.9481027 C32.8543527,28.9481027 32.3660714,29.4363839 32.3660714,29.9944196 L32.3660714,34.7377232 C32.3660714,35.8537946 31.4592634,36.7606027 30.343192,36.7606027 L17.2991071,36.7606027 C16.1830357,36.7606027 15.2762277,35.8537946 15.2762277,34.7377232 L15.2762277,25.2511161 C15.2762277,24.1350446 16.1830357,23.2282366 17.2991071,23.2282366 L29.0178571,23.2282366 C29.5758929,23.2282366 30.0641741,22.7399554 30.0641741,22.1819196 C30.0641741,21.6238839 29.5758929,21.1356027 29.0178571,21.1356027 L17.2991071,21.1356027 C14.9972098,21.1356027 13.1835938,23.0189732 13.1835938,25.2511161 L13.1835938,34.7377232 C13.1835938,37.0396205 15.0669643,38.8532366 17.2991071,38.8532366 L30.2734375,38.8532366 C32.5753348,38.8532366 34.3889509,36.9698661 34.3889509,34.7377232 L34.3889509,29.9944196 C34.4587054,29.4363839 33.9704241,28.9481027 33.4123884,28.9481027 Z" id="Path"></path>
                            <path d="M35.3655134,22.1819196 L23.8560268,30.8314732 L21.2751116,25.7393973 C20.9960937,25.2511161 20.3683036,25.0418527 19.8800223,25.2511161 C19.3917411,25.5301339 19.1824777,26.1579241 19.3917411,26.6462054 L23.0887277,34.0401786 L36.5513393,23.9257812 C37.0396205,23.5770089 37.109375,22.9492187 36.7606027,22.4609375 C36.4815848,21.9029018 35.8537946,21.8331473 35.3655134,22.1819196 Z" id="Path"></path>
                            <rect id="Rectangle" x="38.3649554" y="26.1579241" width="21.6238839" height="2.09263393"></rect>
                            <rect id="Rectangle" x="38.3649554" y="31.7382812" width="13.8113839" height="2.09263393"></rect>
                        </g>
                    </g>
                </g>
            </g>
        </g>
    </g>
</svg>