<?xml version="1.0" encoding="UTF-8"?>
<svg width="300px" height="270px" viewBox="0 0 300 270" version="1.1" xmlns="http://www.w3.org/2000/svg" xmlns:xlink="http://www.w3.org/1999/xlink">
    <!-- Generator: Sketch 57.1 (83088) - https://sketch.com -->
    <title>illustration_speed</title>
    <desc>Created with Sketch.</desc>
    <defs>
        <rect id="path-1" x="0" y="0" width="300" height="270" rx="20"></rect>
        <path d="M286.501108,43 C336.957725,43 378,84.0484277 378,134.5 C378,184.951572 336.955508,226 286.501108,226 C236.048925,226 195,184.951572 195,134.5 C195,84.0484277 236.048925,43 286.501108,43 Z" id="path-3"></path>
        <filter x="-9.3%" y="-7.1%" width="118.6%" height="118.6%" filterUnits="objectBoundingBox" id="filter-4">
            <feOffset dx="0" dy="4" in="SourceAlpha" result="shadowOffsetOuter1"></feOffset>
            <feGaussianBlur stdDeviation="5" in="shadowOffsetOuter1" result="shadowBlurOuter1"></feGaussianBlur>
            <feColorMatrix values="0 0 0 0 0   0 0 0 0 0   0 0 0 0 0  0 0 0 0.1 0" type="matrix" in="shadowBlurOuter1"></feColorMatrix>
        </filter>
        <path d="M274.533157,187.179646 L280.866376,147.034743 L259.53343,147.034743 C256.644594,147.034743 254.533521,144.28195 255.089067,141.414457 L265.755539,85.7850909 C266.199976,83.6057961 268.08883,82 270.199903,82 L304.644832,82 C307.978105,82 310.200287,85.5556914 308.754757,88.652584 L295.088339,119.39211 L314.421321,119.39211 C317.977923,119.39211 320.200105,123.4066 318.310139,126.618192 L280.199721,189.473641 C278.421976,192.455834 273.977612,190.735338 274.533157,187.179646" id="path-5"></path>
        <filter x="-26.6%" y="-11.9%" width="153.1%" height="131.2%" filterUnits="objectBoundingBox" id="filter-6">
            <feOffset dx="0" dy="4" in="SourceAlpha" result="shadowOffsetOuter1"></feOffset>
            <feGaussianBlur stdDeviation="5" in="shadowOffsetOuter1" result="shadowBlurOuter1"></feGaussianBlur>
            <feColorMatrix values="0 0 0 0 0   0 0 0 0 0   0 0 0 0 0  0 0 0 0.1 0" type="matrix" in="shadowBlurOuter1"></feColorMatrix>
        </filter>
    </defs>
    <g id="Illustrations" stroke="none" stroke-width="1" fill="none" fill-rule="evenodd">
        <g id="illustration_">
            <g id="illustration_speed">
                <g id="Group-2">
                    <g>
                        <mask id="mask-2" fill="white">
                            <use xlink:href="#path-1"></use>
                        </mask>
                        <use id="Mask" fill="#F2F4FF" fill-rule="nonzero" xlink:href="#path-1"></use>
                        <g mask="url(#mask-2)">
                            <g transform="translate(-136.000000, 0.000000)">
                                <rect id="Rectangle" fill="#F2F4FF" fill-rule="nonzero" x="136" y="0" width="300" height="270" rx="20"></rect>
                                <g id="Group" stroke-width="1" fill="none" fill-rule="evenodd" transform="translate(0.000000, 17.000000)">
                                    <path d="M0,145 L155,145 C158.313708,145 161,147.686292 161,151 C161,154.313708 158.313708,157 155,157 L0,157 L0,145 Z" id="Combined-Shape" fill="#FFFFFF" fill-rule="nonzero"></path>
                                    <rect id="Rectangle" fill="#FFFFFF" fill-rule="nonzero" x="147" y="197" width="88" height="4" rx="2"></rect>
                                    <rect id="Rectangle" fill="#FFFFFF" fill-rule="nonzero" x="400" y="170" width="88" height="4" rx="2"></rect>
                                    <rect id="Rectangle" fill="#FFFFFF" fill-rule="nonzero" x="0" y="84" width="173" height="9" rx="4.5"></rect>
                                    <rect id="Rectangle" fill="#FFFFFF" fill-rule="nonzero" x="226" y="223" width="152" height="9" rx="4.5"></rect>
                                    <rect id="Rectangle" fill="#FFFFFF" fill-rule="nonzero" x="354" y="26" width="48" height="6" rx="3"></rect>
                                    <rect id="Rectangle" fill="#FFFFFF" fill-rule="nonzero" x="382" y="209" width="39" height="4" rx="2"></rect>
                                    <rect id="Rectangle" fill="#FFFFFF" fill-rule="nonzero" x="171" y="21" width="64" height="9" rx="4"></rect>
                                    <rect id="Rectangle" fill="#FFFFFF" fill-rule="nonzero" x="378" y="63" width="99" height="5" rx="2.5"></rect>
                                    <rect id="Rectangle" fill="#FFFFFF" fill-rule="nonzero" x="278" y="0" width="48" height="6" rx="3"></rect>
                                    <rect id="Rectangle" fill="#FFFFFF" fill-rule="nonzero" x="123" y="0" width="48" height="6" rx="3"></rect>
                                    <rect id="Rectangle" fill="#FFFFFF" fill-rule="nonzero" x="404" y="90" width="35" height="3" rx="1.5"></rect>
                                </g>
                                <g id="Combined-Shape" fill="none" fill-rule="nonzero">
                                    <use fill="black" fill-opacity="1" filter="url(#filter-4)" xlink:href="#path-3"></use>
                                    <use fill="#415EBF" xlink:href="#path-3"></use>
                                </g>
                                <g id="Fill-1" fill="none" fill-rule="nonzero">
                                    <use fill="black" fill-opacity="1" filter="url(#filter-6)" xlink:href="#path-5"></use>
                                    <use fill="#FFB700" xlink:href="#path-5"></use>
                                </g>
                            </g>
                        </g>
                    </g>
                </g>
            </g>
        </g>
    </g>
</svg>