<?xml version="1.0" encoding="UTF-8"?>
<svg width="50px" height="49px" viewBox="0 0 50 49" version="1.1" xmlns="http://www.w3.org/2000/svg" xmlns:xlink="http://www.w3.org/1999/xlink">
    <!-- Generator: sketchtool 60 (101010) - https://sketch.com -->
    <title>46F71A1A-7D1A-48B0-856D-1B8F8907803C</title>
    <desc>Created with sketchtool.</desc>
    <g id="Pages" stroke="none" stroke-width="1" fill="none" fill-rule="evenodd">
        <g id="Home" transform="translate(-1212.000000, -1312.000000)">
            <g id="features" transform="translate(0.000000, 1000.000000)">
                <g id="illustration_versatile" transform="translate(1212.000000, 312.000000)">
                    <ellipse id="Oval" fill="#FFFFFF" cx="10" cy="39.5" rx="10" ry="9.5"></ellipse>
                    <ellipse id="Oval" fill="#FFFFFF" cx="40" cy="9.5" rx="10" ry="9.5"></ellipse>
                    <ellipse id="Oval" fill="#FFFFFF" cx="10" cy="9.5" rx="10" ry="9.5"></ellipse>
                    <ellipse id="Oval" fill="#FFFFFF" cx="39" cy="39.5" rx="10" ry="9.5"></ellipse>
                    <g id="icon_versatile" fill="#415EBF" fill-rule="nonzero">
                        <g id="Shape">
                            <path d="M44.100784,19.600392 C41.7349694,19.600392 39.7543102,21.2870057 39.300552,23.5204704 L33.2635105,23.5204704 C33.074363,21.8220964 32.400096,20.2697454 31.3847754,19.0016 L35.6577463,14.7296946 C36.4525581,15.2569451 37.3835953,15.5421308 38.3597144,15.5421308 C39.6690468,15.5421308 40.899976,15.0325207 41.825133,14.1073821 C43.7352294,12.1963439 43.7352294,9.08772175 41.825133,7.17668353 C40.899976,6.25154503 39.6690468,5.74193484 38.3597144,5.74193484 C37.050382,5.74193484 35.8204328,6.25154503 34.8952758,7.17668353 C33.2233289,8.85055701 33.0155606,11.4417288 34.2719709,13.3429669 L29.999,17.6158523 C28.7308292,16.600552 27.1784471,15.9272785 25.4810192,15.7381348 L25.4810192,9.70121402 C27.7145286,9.24550491 29.401176,7.26684534 29.401176,4.900098 C29.401176,2.19818396 27.2029481,0 24.50098,0 C21.799012,0 19.600784,2.19818396 19.600784,4.900098 C19.600784,7.26684534 21.2874315,9.24550491 23.5209408,9.70121402 L23.5209408,15.7381348 C21.8225329,15.9262985 20.2711308,16.600552 19.0019801,17.6158523 L14.7290092,13.3429669 C15.9863995,11.4417288 15.7796112,8.84957699 14.1066843,7.17570351 C13.1805472,6.25056501 11.950598,5.74095482 10.6412657,5.74095482 C9.33193328,5.74095482 8.10198408,6.25056501 7.17584703,7.17570351 C5.26575063,9.08674173 5.26575063,12.1953639 7.17584703,14.1064021 C8.10198408,15.0315406 9.33193328,15.5411508 10.6412657,15.5411508 C11.6173847,15.5411508 12.5484219,15.2559651 13.3432337,14.7287146 L17.6162046,19.0025801 C16.600884,20.2707254 15.9275971,21.8230765 15.7384495,23.5204704 L9.70140806,23.5204704 C9.24568983,21.2870057 7.26699068,19.600392 4.90019601,19.600392 C2.19822793,19.600392 0,21.798576 0,24.50049 C0,27.202404 2.19822793,29.400588 4.90019601,29.400588 C7.26699068,29.400588 9.24568983,27.7139743 9.70140806,25.4805096 L15.7384495,25.4805096 C15.9266171,27.1788836 16.600884,28.7302546 17.6171847,29.99938 L13.3432337,34.2712854 C12.5484219,33.7440349 11.6173847,33.4598292 10.6412657,33.4598292 C9.33291332,33.4598292 8.10198408,33.9694394 7.17584703,34.8945779 C5.26673067,36.8046361 5.26673067,39.9142383 7.17584703,41.8242965 C8.10198408,42.749435 9.33193328,43.2590452 10.6412657,43.2590452 C11.950598,43.2590452 13.1805472,42.749435 14.1066843,41.8242965 C15.7786311,40.151403 15.9854194,37.5582712 14.7290092,35.6570331 L19.0019801,31.3851277 C20.2701508,32.400428 21.8225329,33.0737015 23.5199608,33.2628453 L23.5199608,39.299766 C21.2864515,39.7544951 19.599804,41.7341347 19.599804,44.099902 C19.599804,46.801816 21.7980319,49 24.5,49 C27.2019681,49 29.400196,46.801816 29.400196,44.099902 C29.400196,41.7341347 27.7135485,39.7535151 25.4800392,39.299766 L25.4800392,33.2628453 C27.1784471,33.0737015 28.7298492,32.400428 29.999,31.3841477 L34.2709908,35.6570331 C33.0145806,37.5582712 33.2223489,40.151403 34.8942958,41.8242965 C35.8194528,42.749435 37.050382,43.2590452 38.3597144,43.2590452 C39.6680667,43.2590452 40.898996,42.749435 41.824153,41.8242965 C43.7332693,39.9142383 43.7332693,36.8046361 41.824153,34.8945779 C40.898996,33.9694394 39.6680667,33.4598292 38.3597144,33.4598292 C37.3835953,33.4598292 36.4525581,33.7440349 35.6567663,34.2712854 L31.3847754,29.9984 C32.400096,28.7302546 33.0733829,27.1779036 33.2625305,25.4805096 L39.299572,25.4805096 C39.7543102,27.7139743 41.7339894,29.400588 44.099804,29.400588 C46.8017721,29.400588 49,27.202404 49,24.50049 C49,21.798576 46.8027521,19.600392 44.100784,19.600392 Z M24.5,31.3606272 C20.7170487,31.3606272 17.6397256,28.2823856 17.6397256,24.50049 C17.6397256,20.7176144 20.7170487,17.6403528 24.5,17.6403528 C28.2819713,17.6403528 31.3602744,20.7176144 31.3602744,24.50049 C31.3602744,28.2823856 28.2819713,31.3606272 24.5,31.3606272 Z M36.2810512,8.56145123 C36.8357534,8.00676014 37.5737229,7.70099402 38.3597144,7.70099402 C39.1457058,7.70099402 39.8846554,8.00676014 40.4393576,8.56145123 C41.5860034,9.70807416 41.5860034,11.5730515 40.4393576,12.7196744 C39.3289732,13.8310166 37.3914357,13.8300366 36.2810512,12.7196744 C35.1353854,11.5740315 35.1353854,9.70807416 36.2810512,8.56145123 Z M21.5598824,4.900098 C21.5598824,3.27914558 22.8790152,1.9600392 24.5,1.9600392 C26.1209848,1.9600392 27.4401176,3.27914558 27.4401176,4.900098 C27.4401176,6.52105042 26.1209848,7.8401568 24.5,7.8401568 C22.8790152,7.8401568 21.5598824,6.52105042 21.5598824,4.900098 Z M8.56064243,12.7196744 C7.4149766,11.5730515 7.4149766,9.70807416 8.56064243,8.56145123 C9.11632465,8.00676014 9.85429417,7.70099402 10.6402856,7.70099402 C11.4262771,7.70099402 12.1642466,8.00676014 12.7199288,8.56145123 C13.8655946,9.70807416 13.8655946,11.5730515 12.7199288,12.7196744 C11.6085643,13.8310166 9.67200688,13.8300366 8.56064243,12.7196744 Z M4.89921597,27.4405488 C3.27823113,27.4405488 1.95909836,26.1214424 1.95909836,24.50049 C1.95909836,22.8795376 3.27823113,21.5604312 4.89921597,21.5604312 C6.52020081,21.5604312 7.83933357,22.8795376 7.83933357,24.50049 C7.83933357,26.1214424 6.52020081,27.4405488 4.89921597,27.4405488 Z M12.7189488,40.4395288 C11.6075843,41.549891 9.67102684,41.549891 8.56064243,40.4395288 C7.4149766,39.2929059 7.4149766,37.4279286 8.56064243,36.2813056 C9.11632465,35.7266145 9.85429417,35.4208484 10.6402856,35.4208484 C11.4262771,35.4208484 12.1642466,35.7266145 12.7189488,36.2813056 C13.8646146,37.4269485 13.8646146,39.2929059 12.7189488,40.4395288 Z M27.4401176,44.100882 C27.4401176,45.7218344 26.1209848,47.0409408 24.5,47.0409408 C22.8790152,47.0409408 21.5598824,45.7218344 21.5598824,44.100882 C21.5598824,42.4799296 22.8790152,41.1608232 24.5,41.1608232 C26.1209848,41.1608232 27.4401176,42.4799296 27.4401176,44.100882 Z M40.4393576,36.2813056 C41.5850234,37.4279286 41.5850234,39.2929059 40.4393576,40.4395288 C39.3279931,41.549891 37.3904556,41.549891 36.2810512,40.4395288 C35.1353854,39.2929059 35.1353854,37.4279286 36.2810512,36.2813056 C36.8357534,35.7266145 37.574703,35.4208484 38.3606944,35.4208484 C39.1447258,35.4208484 39.8836753,35.7256345 40.4393576,36.2813056 Z M44.100784,27.4405488 C42.4797992,27.4405488 41.1606664,26.1214424 41.1606664,24.50049 C41.1606664,22.8795376 42.4797992,21.5604312 44.100784,21.5604312 C45.7217689,21.5604312 47.0409016,22.8795376 47.0409016,24.50049 C47.0409016,26.1214424 45.7217689,27.4405488 44.100784,27.4405488 Z"></path>
                        </g>
                    </g>
                </g>
            </g>
        </g>
    </g>
</svg>