<?xml version="1.0" encoding="UTF-8"?>
<svg width="588px" height="429px" viewBox="0 0 588 429" version="1.1" xmlns="http://www.w3.org/2000/svg" xmlns:xlink="http://www.w3.org/1999/xlink">
    <!-- Generator: Sketch 53 (72520) - https://sketchapp.com -->
    <title>Getting_started_rocket_image</title>
    <desc>Created with Sketch.</desc>
    <defs>
        <polygon id="path-1" points="0 0 81 0 81 51 0 51"></polygon>
        <polygon id="path-3" points="0 0 46 0 46 29 0 29"></polygon>
        <polygon id="path-5" points="0 0 62 0 62 39 0 39"></polygon>
        <polygon id="path-7" points="0 0 169 0 169 105 0 105"></polygon>
        <polygon id="path-9" points="0 0 127 0 127 79 0 79"></polygon>
        <polygon id="path-11" points="0 0 75 0 75 46 0 46"></polygon>
        <polygon id="path-13" points="0 0 50 0 50 31 0 31"></polygon>
        <polygon id="path-15" points="0 0 39 0 39 23 0 23"></polygon>
        <polygon id="path-17" points="0 0 39 0 39 23 0 23"></polygon>
        <polygon id="path-19" points="0.255997023 0.438222378 72.7064686 0.438222378 72.7064686 138 0.255997023 138"></polygon>
        <polygon id="path-21" points="0.29857094 0.457722128 55.962188 0.457722128 55.962188 112.646046 0.29857094 112.646046"></polygon>
        <polygon id="path-23" points="0.0920600601 0.0978879004 159.870078 0.0978879004 159.870078 270.663854 0.0920600601 270.663854"></polygon>
        <polygon id="path-25" points="0.260848352 0.0980397727 130.700859 0.0980397727 130.700859 84.6222812 0.260848352 84.6222812"></polygon>
        <polygon id="path-27" points="0.221894891 0.0980397727 65.6996759 0.0980397727 65.6996759 84.622571 0.221894891 84.622571"></polygon>
        <linearGradient x1="36.9701027%" y1="69.4039021%" x2="53.0608702%" y2="-57.7660044%" id="linearGradient-29">
            <stop stop-color="#0CD2C2" offset="0%"></stop>
            <stop stop-color="#3455B5" offset="100%"></stop>
        </linearGradient>
        <linearGradient x1="45.6434352%" y1="69.4039021%" x2="51.0234063%" y2="-57.7660044%" id="linearGradient-30">
            <stop stop-color="#0CD2C2" offset="0%"></stop>
            <stop stop-color="#3455B5" offset="100%"></stop>
        </linearGradient>
        <linearGradient x1="128.501045%" y1="-25.3003888%" x2="29.3159089%" y2="135.034199%" id="linearGradient-31">
            <stop stop-color="#FFFFFF" offset="0%"></stop>
            <stop stop-color="#00BFD6" offset="58.129223%"></stop>
            <stop stop-color="#2A3B93" offset="100%"></stop>
        </linearGradient>
    </defs>
    <g id="HD_Desktop" stroke="none" stroke-width="1" fill="none" fill-rule="evenodd">
        <g id="VW_HD_Desktop_Learn" transform="translate(-1077.000000, -996.000000)">
            <g id="Getting_started" transform="translate(0.000000, 893.000000)">
                <g id="Getting_started_rocket_image" transform="translate(1077.000000, 103.000000)">
                    <g id="Group-3" opacity="0.820079985" transform="translate(77.000000, 170.000000)">
                        <mask id="mask-2" fill="white">
                            <use xlink:href="#path-1"></use>
                        </mask>
                        <g id="Clip-2"></g>
                        <path d="M63.1105446,10.7368421 C61.2951622,10.7368421 59.4782155,11.0526316 57.662051,11.5263158 C53.9389919,4.42105263 45.9484936,0 36.9576188,0 C26.6973059,0 17.6164832,6 14.8922364,14.4473684 C6.53803592,15.1578947 0,21.3947368 0,28.7368421 C0,35.8421053 6.08360371,41.9210526 14.0748841,42.9473684 C16.889861,47.8421053 22.6105446,51 28.9671205,51 C31.9635574,51 34.8700463,50.3684211 37.4128331,49.0263158 C40.40927,50.2894737 43.6778969,51 47.0380359,51 C54.7563441,51 61.7488123,47.3676316 65.3803592,41.6842105 C74.3704519,40.6571053 81,34.1842105 81,26.2894737 C81,17.6842105 72.9179896,10.7368421 63.1105446,10.7368421" id="Fill-1" fill="#FFFFFF" mask="url(#mask-2)"></path>
                    </g>
                    <g id="Group-3" opacity="0.376302083" transform="translate(0.000000, 87.000000)">
                        <mask id="mask-4" fill="white">
                            <use xlink:href="#path-3"></use>
                        </mask>
                        <g id="Clip-2"></g>
                        <path d="M35.8405562,6.10526316 C34.8095983,6.10526316 33.777752,6.28482972 32.7463499,6.55417957 C30.6320201,2.51393189 26.0942063,0 20.9882773,0 C15.161433,0 10.0044226,3.41176471 8.45731943,8.21517028 C3.71295867,8.61919505 0,12.1656347 0,16.3405573 C0,20.380805 3.45488606,23.8374613 7.99314407,24.4210526 C9.59177289,27.2043344 12.8405562,29 16.4504635,29 C18.1521437,29 19.8027424,28.6408669 21.2467941,27.877709 C22.9484743,28.5959752 24.8047316,29 26.7129587,29 C31.0961954,29 35.0672267,26.9345356 37.1295867,23.7027864 C42.2350715,23.1187461 46,19.4380805 46,14.9489164 C46,10.0557276 41.4102163,6.10526316 35.8405562,6.10526316" id="Fill-1" fill="#FFFFFF" mask="url(#mask-4)"></path>
                    </g>
                    <g id="Group-3" transform="translate(151.000000, 4.000000)">
                        <mask id="mask-6" fill="white">
                            <use xlink:href="#path-5"></use>
                        </mask>
                        <g id="Clip-2"></g>
                        <path d="M48.3068366,8.21052632 C46.9172847,8.21052632 45.5265353,8.45201238 44.1363847,8.81424149 C41.2866358,3.38080495 35.1704519,0 28.2885477,0 C20.4349749,0 13.4842217,4.58823529 11.3989958,11.0479876 C5.00442256,11.5913313 0,16.3606811 0,21.9752322 C0,27.4086687 4.65658555,32.0572755 10.7733681,32.8421053 C12.9280417,36.5851393 17.3068366,39 22.1723638,39 C24.4659328,39 26.6906528,38.5170279 28.6369834,37.4907121 C30.9305523,38.4566563 33.4324643,39 36.0044226,39 C41.9122634,39 47.264523,36.2223065 50.0442256,31.876161 C56.9255311,31.0907276 62,26.1408669 62,20.1037152 C62,13.5232198 55.8137698,8.21052632 48.3068366,8.21052632" id="Fill-1" fill="#FFFFFF" mask="url(#mask-6)"></path>
                    </g>
                    <g id="Group-3" opacity="0.702148438" transform="translate(405.000000, 289.000000)">
                        <mask id="mask-8" fill="white">
                            <use xlink:href="#path-7"></use>
                        </mask>
                        <g id="Clip-2"></g>
                        <path d="M131.675087,22.1052632 C127.887437,22.1052632 124.096524,22.755418 120.307242,23.7306502 C112.539378,9.10216718 95.8678447,0 77.1091058,0 C55.7017864,0 36.7553785,12.3529412 31.0714562,29.744582 C13.6410873,31.2074303 0,44.0479876 0,59.1640867 C0,73.7925697 12.6929509,86.3080495 29.3661163,88.4210526 C35.2393395,98.498452 47.1750869,105 60.4375724,105 C66.6893975,105 72.7535535,103.69969 78.0588741,100.936533 C84.3106991,103.537152 91.1304268,105 98.1410873,105 C114.244718,105 128.833942,97.5215944 136.410873,85.8204334 C155.16798,83.705805 169,70.379257 169,54.125387 C169,36.4086687 152.137534,22.1052632 131.675087,22.1052632" id="Fill-1" fill="#FFFFFF" mask="url(#mask-8)"></path>
                    </g>
                    <g id="Group-3" transform="translate(0.000000, 289.000000)">
                        <mask id="mask-10" fill="white">
                            <use xlink:href="#path-9"></use>
                        </mask>
                        <g id="Clip-2"></g>
                        <path d="M98.9511008,16.6315789 C96.1047605,16.6315789 93.2559676,17.120743 90.4084009,17.8544892 C84.571012,6.84829721 72.0426999,0 57.9458961,0 C41.8587389,0 27.6209058,9.29411765 23.3495558,22.379257 C10.2509946,23.4798762 0,33.1408669 0,44.5139319 C0,55.5201238 9.53848976,64.9365325 22.0680282,66.5263158 C26.4816338,74.1083591 35.4511008,79 45.417584,79 C50.115701,79 54.6727887,78.0216718 58.6596273,75.9427245 C63.3577443,77.8993808 68.4826284,79 73.7509946,79 C85.8525396,79 96.816039,73.3733901 102.509946,64.5696594 C116.605523,62.9786533 127,52.9520124 127,40.7229102 C127,27.3931889 114.328206,16.6315789 98.9511008,16.6315789" id="Fill-1" fill="#FFFFFF" mask="url(#mask-10)"></path>
                    </g>
                    <g id="Group-3" transform="translate(404.000000, 70.000000)">
                        <mask id="mask-12" fill="white">
                            <use xlink:href="#path-11"></use>
                        </mask>
                        <g id="Clip-2"></g>
                        <path d="M58.4356895,9.68421053 C56.7547798,9.68421053 55.0724218,9.96904025 53.3907879,10.3962848 C49.943511,3.9876161 42.5449015,0 34.2200174,0 C24.7197277,0 16.3115585,5.41176471 13.7891078,13.0309598 C6.05373696,13.6718266 0,19.2972136 0,25.9195046 C0,32.3281734 5.6329664,37.8111455 13.0323001,38.7368421 C15.6387601,43.1517028 20.9356895,46 26.8214079,46 C29.5958864,46 32.28708,45.4303406 34.6415122,44.2198142 C37.4159907,45.3591331 40.4424971,46 43.553737,46 C50.7003187,46 57.1748262,42.7237461 60.5373696,37.5975232 C68.8615295,36.6711146 75,30.8328173 75,23.7120743 C75,15.9504644 67.516657,9.68421053 58.4356895,9.68421053" id="Fill-1" fill="#FFFFFF" mask="url(#mask-12)"></path>
                    </g>
                    <g id="Group-3" opacity="0.885765439" transform="translate(499.000000, 190.000000)">
                        <mask id="mask-14" fill="white">
                            <use xlink:href="#path-13"></use>
                        </mask>
                        <g id="Clip-2"></g>
                        <path d="M38.9571263,6.52631579 C37.8365199,6.52631579 36.7149479,6.71826625 35.5938586,7.00619195 C33.295674,2.6873065 28.3632677,0 22.8133449,0 C16.4798185,0 10.8743723,3.64705882 9.19273851,8.78173375 C4.03582464,9.21362229 0,13.004644 0,17.4674923 C0,21.7863777 3.75531093,25.4814241 8.68820008,26.1052632 C10.4258401,29.0804954 13.9571263,31 17.8809386,31 C19.730591,31 21.52472,30.6160991 23.0943414,29.8003096 C24.9439938,30.5681115 26.9616647,31 29.0358246,31 C33.8002124,31 38.1165508,28.7920898 40.3582464,25.3374613 C45.9076864,24.7131424 50,20.7786378 50,15.9798762 C50,10.749226 45.0111047,6.52631579 38.9571263,6.52631579" id="Fill-1" fill="#FFFFFF" mask="url(#mask-14)"></path>
                    </g>
                    <g id="Group-3" opacity="0.573800223" transform="translate(549.000000, 58.000000)">
                        <mask id="mask-16" fill="white">
                            <use xlink:href="#path-15"></use>
                        </mask>
                        <g id="Clip-2"></g>
                        <path d="M30.3865585,4.84210526 C29.5124855,4.84210526 28.6376593,4.98452012 27.7632097,5.19814241 C25.9706257,1.99380805 22.1233488,0 17.794409,0 C12.8542584,0 8.48201043,2.70588235 7.17033604,6.51547988 C3.14794322,6.83591331 0,9.64860681 0,12.9597523 C0,16.1640867 2.92914253,18.9055728 6.77679606,19.3684211 C8.13215527,21.5758514 10.8865585,23 13.9471321,23 C15.389861,23 16.7892816,22.7151703 18.0135863,22.1099071 C19.4563152,22.6795666 21.0300985,23 22.6479432,23 C26.3641657,23 29.7309096,21.3618731 31.4794322,18.7987616 C35.8079954,18.3355573 39,15.4164087 39,11.8560372 C39,7.9752322 35.1086616,4.84210526 30.3865585,4.84210526" id="Fill-1" fill="#FFFFFF" mask="url(#mask-16)"></path>
                    </g>
                    <g id="Group-3" opacity="0.802594866" transform="translate(365.000000, 0.000000)">
                        <mask id="mask-18" fill="white">
                            <use xlink:href="#path-17"></use>
                        </mask>
                        <g id="Clip-2"></g>
                        <path d="M30.3865585,4.84210526 C29.5124855,4.84210526 28.6376593,4.98452012 27.7632097,5.19814241 C25.9706257,1.99380805 22.1233488,0 17.794409,0 C12.8542584,0 8.48201043,2.70588235 7.17033604,6.51547988 C3.14794322,6.83591331 0,9.64860681 0,12.9597523 C0,16.1640867 2.92914253,18.9055728 6.77679606,19.3684211 C8.13215527,21.5758514 10.8865585,23 13.9471321,23 C15.389861,23 16.7892816,22.7151703 18.0135863,22.1099071 C19.4563152,22.6795666 21.0300985,23 22.6479432,23 C26.3641657,23 29.7309096,21.3618731 31.4794322,18.7987616 C35.8079954,18.3355573 39,15.4164087 39,11.8560372 C39,7.9752322 35.1086616,4.84210526 30.3865585,4.84210526" id="Fill-1" fill="#FFFFFF" mask="url(#mask-18)"></path>
                    </g>
                    <g id="Group" transform="translate(193.000000, 42.000000)">
                        <g id="Group-42">
                            <g id="Group-3" transform="translate(69.000000, 249.000000)">
                                <mask id="mask-20" fill="white">
                                    <use xlink:href="#path-19"></use>
                                </mask>
                                <g id="Clip-2"></g>
                                <path d="M36.4812013,0.438222378 C-28.8561843,11.4150126 8.75360654,103.339901 36.4812013,138.000097 C64.208319,103.339901 101.819064,11.4150126 36.4812013,0.438222378 Z" id="Fill-1" fill="#2A3B93" mask="url(#mask-20)"></path>
                            </g>
                            <path d="M105.5,358 C128.081319,334.064189 158.706576,270.579633 105.5,263 C52.2934245,270.579633 82.9186809,334.064189 105.5,358" id="Fill-4" fill="#495DC7"></path>
                            <path d="M105.5,330 C118.129791,314.12286 135.259913,272.027545 105.5,267 C75.7400865,272.027545 92.8702091,314.12286 105.5,330" id="Fill-6" fill="#687FF9"></path>
                            <g id="Group-10" transform="translate(156.000000, 139.000000)">
                                <mask id="mask-22" fill="white">
                                    <use xlink:href="#path-21"></use>
                                </mask>
                                <g id="Clip-9"></g>
                                <path d="M46.8441436,112.646046 L0.29857094,112.646046 C11.5406906,84.0493519 16.8415453,51.9131136 16.8415453,23.4885647 C16.8415453,15.9661306 16.477306,8.25808809 15.7359043,0.457722128 C52.6355966,9.17170511 66.928041,64.7330838 46.8441436,112.646046" id="Fill-8" fill="#0CD2C2" mask="url(#mask-22)"></path>
                            </g>
                            <path d="M186.078881,252 L157,252 C168.072753,223.45131 173.293526,191.369017 173.293526,162.992182 C173.293526,155.482376 172.934318,147.787272 172.204117,140 C178.799026,141.577904 184.654777,144.70011 189.710559,149.033466 C191.926618,163.232204 193,177.363256 193,190.929296 C193,210.345632 190.750471,231.356673 186.078881,252" id="Fill-11" fill="#119288"></path>
                            <path d="M9.17316438,252 L56,252 C44.6894656,223.45131 39.3570607,191.369017 39.3570607,162.992182 C39.3570607,155.482376 39.723501,147.787272 40.4698643,140 C3.34719665,148.699355 -11.0320949,204.167467 9.17316438,252" id="Fill-13" fill="#0CD2C2"></path>
                            <path d="M25.9212094,252 L55,252 C43.927102,223.45131 38.706732,191.369017 38.706732,162.992182 C38.706732,155.482376 39.0654733,147.787272 39.7961554,140 C33.2011602,141.577904 27.3453324,144.70011 22.2894837,149.033466 C20.0733956,163.232204 19,177.363256 19,190.929296 C19,210.345632 21.2490866,231.356673 25.9212094,252" id="Fill-15" fill="#119288"></path>
                            <path d="M149.492617,292 C153.013788,281.513559 155.622892,270.227337 157,259 L55,259 C56.3727258,270.227337 58.9818299,281.513559 62.5073831,292 L149.492617,292 Z" id="Fill-17" fill="#0CD2C2"></path>
                            <path d="M153.201283,278 C154.872991,271.109539 156.164389,264.044048 157,257 L55,257 C55.8356106,264.044048 57.1236,271.109539 58.7992037,278 L153.201283,278 Z" id="Fill-19" fill="#21B9AD"></path>
                            <path d="M148.639785,292 C152.09193,281.513559 154.649887,270.227337 156,259 L106,259 L106,292 L148.639785,292 Z" id="Fill-21" fill="#21B9AD"></path>
                            <path d="M152.275768,278 C153.914697,271.109539 155.180774,264.044048 156,257 L106,257 L106,278 L152.275768,278 Z" id="Fill-23" fill="#119288"></path>
                            <g id="Group-27" transform="translate(26.000000, 1.000000)">
                                <mask id="mask-24" fill="white">
                                    <use xlink:href="#path-23"></use>
                                </mask>
                                <g id="Clip-26"></g>
                                <path d="M79.9810691,0.0978396797 C24.253982,32.6101244 0.0920600601,106.61627 0.0920600601,168.077817 C0.0920600601,201.041929 7.20557357,238.990126 22.4411291,270.663854 L137.521489,270.663854 C152.757045,238.990126 159.870078,201.041929 159.870078,168.077817 C159.870078,106.61627 135.708156,32.6101244 79.9810691,0.0978396797" id="Fill-25" fill="#FFFFFF" mask="url(#mask-24)"></path>
                            </g>
                            <path d="M105,272 L163.340617,272 C178.788048,240.392051 186,202.523721 186,169.628569 C186,108.295598 161.502066,34.4442702 105,2 L105,272 Z" id="Fill-28" fill="#F1F1F1"></path>
                            <g id="Group-32" transform="translate(40.000000, 0.000000)">
                                <mask id="mask-26" fill="white">
                                    <use xlink:href="#path-25"></use>
                                </mask>
                                <g id="Clip-31"></g>
                                <path d="M0.260848352,84.6222812 C17.249581,66.6037301 38.8593026,51.1863722 65.4810938,40.3623949 C92.1024051,51.1863722 113.712607,66.6037301 130.700859,84.6222812 C118.018332,49.7379915 96.7152366,18.3739574 65.4810938,0.0979914773 C34.2469509,18.3739574 12.9438557,49.7379915 0.260848352,84.6222812 Z" id="Fill-30" fill="#0CD2C2" mask="url(#mask-26)"></path>
                            </g>
                            <g id="Group-35" transform="translate(105.000000, 0.000000)">
                                <mask id="mask-28" fill="white">
                                    <use xlink:href="#path-27"></use>
                                </mask>
                                <g id="Clip-34"></g>
                                <path d="M0.221894891,40.3622017 C26.9485226,51.186179 48.6442161,66.6035369 65.6996759,84.622571 C52.9669752,49.7382812 31.5796029,18.3742472 0.221894891,0.0977982955 L0.221894891,40.3622017 Z" id="Fill-33" fill="#21B9AD" mask="url(#mask-28)"></path>
                            </g>
                            <path d="M160,147.00072 C160,176.817113 135.81525,201 106,201 C76.1842699,201 52,176.817113 52,147.00072 C52,117.184807 76.1842699,93 106,93 C135.81525,93 160,117.184807 160,147.00072" id="Fill-36" fill="#0CD2C2"></path>
                            <path d="M160,146.99976 C160,176.816683 135.81525,201 106,201 L106,93 C135.81525,93 160,117.183317 160,146.99976" id="Fill-38" fill="#119288"></path>
                            <path d="M106,187 C83.9104696,187 66,169.092998 66,147.000976 C66,124.908954 83.9104696,107 106,107 C128.08953,107 146,124.908954 146,147.000976 C146,169.092998 128.08953,187 106,187 Z" id="Fill-40" fill="#2A3B93"></path>
                        </g>
                        <g id="Group-23" transform="translate(86.000000, 112.000000)">
                            <g id="Group-22">
                                <path d="M25.5999675,28.8349515 C13.2288178,28.8349515 3.2,38.8759909 3.2,51.2621359 L48,51.2621359 C48,38.8759909 37.9711172,28.8349515 25.5999675,28.8349515" id="Fill-6" fill="#FEFEFE"></path>
                                <path d="M5.73078555,39.5145631 L5.7302528,39.5145631 L5.66931967,39.5145631 L5.66931967,39.516935 C3.71086884,39.6194411 2.13333333,44.5991349 2.13333333,50.7281553 C2.13333333,56.8570727 3.71086884,61.8367665 5.66931967,61.9392726 L5.66931967,61.9417476 L44.4025478,61.9417476 C46.3893675,61.9417476 48,56.9212163 48,50.7281553 C48,44.5349912 46.3893675,39.5145631 44.4025478,39.5145631 L5.73078555,39.5145631 Z" id="Fill-8" fill="#FFFFFF"></path>
                                <path d="M13.8651684,34.3690238 C13.8651684,34.3690238 14.0339629,19.430999 5.25137778,13.5387577 C-3.53120739,7.64651643 1.3557765,5.01631903 1.3557765,5.01631903 C1.3557765,5.01631903 4.58838312,1.8998595 12.9360367,8.4194999 C21.2836902,14.9391403 21.7806824,29.0272038 22.3723518,33.0350894 C22.9639578,37.042975 13.8651684,34.3690238 13.8651684,34.3690238" id="Fill-9" fill="#FFFFFF"></path>
                                <path d="M28.0004191,31.5635761 C28.0004191,31.5635761 32.3598561,17.423762 25.0508163,9.3937776 C17.7417765,1.36379319 23.4650893,0.220286021 23.4650893,0.220286021 C23.4650893,0.220286021 27.6367907,-1.84337195 34.3262355,6.66192258 C41.0156131,15.1671525 37.573793,28.6842801 37.0539873,32.6545364 C36.5341144,36.6247928 28.0004191,31.5635761 28.0004191,31.5635761" id="Fill-10" fill="#FFFFFF"></path>
                                <path d="M17.8681782,21.706414 C17.8681782,21.706414 17.2742821,18.6525726 15.277574,15.1998882 C14.6905438,14.1847569 13.9817768,13.1354484 13.1315336,12.1188339 C10.5543971,9.20550654 7.70183428,8.14420364 6.8663131,7.88213444 C5.4065937,7.44556738 3.86025896,7.21516057 3.33819026,7.9567442 C3.0133167,8.41820267 3.29336418,9.07118318 3.84355646,9.7588569 C3.84362247,9.75892138 7.03010325,12.4424223 7.95356012,12.9056219 C7.95356012,12.9056219 11.8633318,16.2851797 14.5006106,24.1238476 C14.5006106,24.1238476 15.1230923,25.631068 16.2957004,25.631068 C16.9793806,25.631068 17.489104,25.0606289 17.492999,25.0563084 C18.030912,24.4458239 18.4142773,23.413346 17.8681782,21.706414" id="Fill-21" fill="url(#linearGradient-29)"></path>
                                <path d="M36.2191141,21.7664961 C36.2191141,21.7664961 36.5282234,18.4245715 35.5702425,14.256637 C35.2885313,13.0311672 34.8968211,11.7345244 34.3559817,10.4302212 C32.6672742,6.65095216 30.1640863,4.71166374 29.416609,4.19423231 C28.1044206,3.31237038 26.6464261,2.61881727 25.9140041,3.23451192 C25.4582748,3.61760617 25.5431815,4.37717879 25.8845037,5.25214628 C25.8845716,5.25221592 28.241682,8.97222057 29.0169642,9.7241327 C29.0169642,9.7241327 31.8837861,14.3785781 32.1883516,23.2838306 C32.1883516,23.2838306 32.360742,25.0300746 33.5176298,25.3747968 C34.1920684,25.5757803 34.8621667,25.1339091 34.867253,25.1305664 C35.5768885,24.6555462 36.2576341,23.6974276 36.2191141,21.7664961" id="Fill-22" fill="url(#linearGradient-30)"></path>
                                <ellipse id="Oval" fill="#D8D8D8" cx="23.4666667" cy="49.1262136" rx="11.7333333" ry="11.7475728"></ellipse>
                                <circle id="Oval" fill="#FDFDFD" cx="23.2" cy="48.8058252" r="11"></circle>
                                <path d="M26.736681,46.9657168 C25.1609567,46.9657168 23.8851994,45.6895871 23.8851994,44.1171121 C23.8851994,43.3931687 24.1636304,42.7410043 24.6056331,42.2390634 C23.8559719,41.964252 23.04683,41.8058252 22.2002564,41.8058252 C18.3355529,41.8058252 15.2,44.9400082 15.2,48.8047998 C15.2,52.6711296 18.3355529,55.8058252 22.2002564,55.8058252 C26.0664982,55.8058252 29.2,52.6711296 29.2,48.8047998 C29.2,47.8767987 29.0154049,46.9944285 28.6867231,46.182812 C28.178061,46.6647573 27.4930081,46.9657168 26.736681,46.9657168" id="Fill-46" fill="url(#linearGradient-31)"></path>
                                <path d="M45.7629374,65.5996821 C38.8029381,71.465452 29.813908,75 20,75 C13.0805204,75 6.57110565,73.2428987 0.89381753,70.1504682 C1.65279194,67.1006071 2.89512183,63.7291743 4.62080722,60.0361698 L11.5296428,58.7378641 L16.9424698,60.3607462 L23.4666667,60.3607462 L43.7953083,59.2247287 C44.6097002,61.4651184 45.2655766,63.5901028 45.7629374,65.5996821 Z" id="Combined-Shape" fill="#FFFFFF"></path>
                            </g>
                        </g>
                    </g>
                </g>
            </g>
        </g>
    </g>
</svg>