<?xml version="1.0" encoding="UTF-8"?>
<svg width="1920px" height="505px" viewBox="0 0 1920 505" version="1.1" xmlns="http://www.w3.org/2000/svg" xmlns:xlink="http://www.w3.org/1999/xlink">
    <!-- Generator: Sketch 53 (72520) - https://sketchapp.com -->
    <title>Environment</title>
    <desc>Created with Sketch.</desc>
    <defs>
        <linearGradient x1="44.1729984%" y1="15.6401711%" x2="44.1729984%" y2="-43.3923831%" id="linearGradient-1">
            <stop stop-color="#D1F9F6" offset="0%"></stop>
            <stop stop-color="#0CD2C2" offset="100%"></stop>
        </linearGradient>
        <linearGradient x1="44.1729984%" y1="15.6401711%" x2="44.1729984%" y2="-43.3923831%" id="linearGradient-2">
            <stop stop-color="#D1F9F6" offset="0%"></stop>
            <stop stop-color="#0CD2C2" offset="100%"></stop>
        </linearGradient>
        <linearGradient x1="44.1729984%" y1="15.6401711%" x2="44.1729984%" y2="-43.3923831%" id="linearGradient-3">
            <stop stop-color="#D1F9F6" offset="0%"></stop>
            <stop stop-color="#0CD2C2" offset="100%"></stop>
        </linearGradient>
        <linearGradient x1="44.1729984%" y1="136.545301%" x2="44.1729984%" y2="-43.3923831%" id="linearGradient-4">
            <stop stop-color="#D1F9F6" offset="0%"></stop>
            <stop stop-color="#0CD2C2" offset="100%"></stop>
        </linearGradient>
    </defs>
    <g id="HD_Desktop" stroke="none" stroke-width="1" fill="none" fill-rule="evenodd">
        <g id="VW_HD_Desktop_About" transform="translate(0.000000, -325.000000)">
            <g id="Hero_Module">
                <g id="Environment" transform="translate(-0.000000, 325.000000)">
                    <path d="M136.813955,411.950504 L135.151732,463 L101.225111,461.907294 L101.140245,505 L0.0114496125,505 L0.316906199,348.945877 L0.440101045,286.599057 L0.871214616,67.2142903 L0.871192023,66.9247732 L1.00327037,1.32811984e-10 L19.7210713,0.0850231166 L76.4732254,67.0411363 L102,67.080773 L101.750015,194.929007 L102.861952,194 L165,253.14915 L141.802875,252.402604 L140.341486,297.280985 L250,285 L242.324493,418 L136.813955,411.950504 Z M163.941176,328.377341 L187.43228,329.705882 L188.529412,310.916776 L165.040143,309.588235 L163.941176,328.377341 Z M162.823529,356.317922 L186.312798,357.647059 L187.411765,338.858549 L163.922496,337.529412 L162.823529,356.317922 Z M199.685367,311.823529 L198.588235,330.61095 L222.079338,331.941176 L223.176471,313.151951 L199.685367,311.823529 Z M196.352941,358.551529 L219.844044,359.882353 L220.941176,341.093724 L197.450073,339.764706 L196.352941,358.551529 Z M34.4291219,103.587142 L55.1706557,103.619389 L55.2117391,83.810117 L34.4683894,83.7779981 L34.4291219,103.587142 Z M34.3801581,128.751233 L55.121945,128.787127 L55.1612125,108.977983 L34.4196787,108.945736 L34.3801581,128.751233 Z M34.2948676,172.084265 L55.0380907,172.11456 L55.0756688,152.307368 L34.334135,152.275121 L34.2948676,172.084265 Z M34.2462674,197.490206 L54.9859852,197.522581 L55.0252527,177.713437 L34.2856615,177.682886 L34.2462674,197.490206 Z M67.4311515,103.63707 L88.1690533,103.669572 L88.2084473,83.862252 L67.468603,83.8280537 L67.4311515,103.63707 Z M67.3804983,128.803112 L88.1202161,128.835487 L88.1576676,109.026471 L67.4198923,108.995791 L67.3804983,128.803112 Z M67.2970237,172.136016 L88.0366149,172.166567 L88.0723771,152.359503 L67.3344752,152.327 L67.2970237,172.136016 Z M67.2466076,197.542086 L87.9845095,197.574588 L88.0237769,177.765444 L67.2841857,177.734893 L67.2466076,197.542086 Z M107.736842,274.086359 L127.223003,274.7 L127.947368,252.898763 L108.464884,252.283333 L107.736842,274.086359 Z M359.044118,405.863636 L359.044118,390.272727 L345.455882,390.272727 L345.455882,405.863636 L359.044118,405.863636 Z M359.044118,427.022727 L359.044118,411.431818 L345.455882,411.431818 L345.455882,427.022727 L359.044118,427.022727 Z M398.676471,404.75 L398.676471,389.159091 L385.088235,389.159091 L385.088235,404.75 L398.676471,404.75 Z M398.676471,427.022727 L398.676471,411.431818 L385.088235,411.431818 L385.088235,427.022727 L398.676471,427.022727 Z M378.294118,404.75 L378.294118,389.159091 L364.705882,389.159091 L364.705882,404.75 L378.294118,404.75 Z M378.294118,427.022727 L378.294118,411.431818 L364.705882,411.431818 L364.705882,427.022727 L378.294118,427.022727 Z M364.924176,368.179362 L410,368 L410,465.949779 L381.549009,465.949779 L381.549009,466 L333,466 L333,368.050221 L364.924176,368.179362 Z M549,505 L423,505 L423,351.084557 L475.239561,351.301988 L549,351 L549,505 Z M465.371681,414.547297 L465.371681,386.675676 L443.070796,386.675676 L443.070796,414.547297 L465.371681,414.547297 Z M465.371681,451.337838 L465.371681,423.466216 L443.070796,423.466216 L443.070796,451.337838 L465.371681,451.337838 Z M530.044248,414.547297 L530.044248,386.675676 L507.743363,386.675676 L507.743363,414.547297 L530.044248,414.547297 Z M530.044248,451.337838 L530.044248,423.466216 L507.743363,423.466216 L507.743363,451.337838 L530.044248,451.337838 Z M497.707965,414.547297 L497.707965,386.675676 L475.40708,386.675676 L475.40708,414.547297 L497.707965,414.547297 Z M497.707965,451.337838 L497.707965,423.466216 L475.40708,423.466216 L475.40708,451.337838 L497.707965,451.337838 Z M301.656716,349.107383 L301.656716,333.416107 L288.223881,333.416107 L288.223881,349.107383 L301.656716,349.107383 Z M301.656716,370.402685 L301.656716,354.711409 L288.223881,354.711409 L288.223881,370.402685 L301.656716,370.402685 Z M321.80597,370.402685 L321.80597,354.711409 L308.373134,354.711409 L308.373134,370.402685 L321.80597,370.402685 Z M321.80597,349.107383 L321.80597,333.416107 L308.373134,333.416107 L308.373134,349.107383 L321.80597,349.107383 Z M258,311.299909 L333,311 L333,378.797514 L332.720408,378.797514 L332.720408,478 L303.684908,478 L303.684908,477.865496 L258,477.865496 L258,311.299909 Z" id="Combined-Shape" fill="url(#linearGradient-1)"></path>
                    <g id="Foreground" transform="translate(-0.000000, 279.000000)">
                        <path d="M1666.6661,85.4718818 C1667.75821,82.1526392 1668.35466,78.6145151 1668.35466,74.9461702 C1668.35466,60.2506254 1658.90096,47.6746303 1645.49048,42.4325544 C1647.7475,38.8888889 1649.04402,34.7301384 1649.04402,30.2804693 C1649.04402,17.3442893 1638.06418,6.86013742 1624.51649,6.86013742 C1617.70624,6.86013742 1611.54285,9.51165258 1607.09883,13.7895412 C1606.38196,6.06495994 1599.59691,0 1591.31092,0 C1582.55169,0 1575.45581,6.77978848 1575.45581,15.1388493 C1575.45581,19.5303347 1577.4272,23.4729743 1580.5523,26.2380862 C1579.65621,27.3463475 1578.87494,28.540499 1578.19728,29.7900636 C1575.2514,31.3028403 1572.47633,33.0732877 1569.90009,35.0709287 C1568.21713,28.4379849 1561.97813,23.5089927 1554.51542,23.5089927 C1545.75619,23.5089927 1538.66031,30.2832399 1538.66031,38.6478421 C1538.66031,43.0365568 1540.6289,46.9764257 1543.754,49.7415376 C1540.56169,53.6980305 1538.66031,58.6491878 1538.66031,64.0297964 C1538.66031,66.5372376 1539.08315,68.9449352 1539.85042,71.2113296 C1532.03488,77.0352427 1527,86.1063614 1527,96.3106773 C1527,112.568871 1539.77202,125.97052 1556.25439,127.898895 C1565.95731,137.16673 1578.97855,143.248314 1593.46153,144.439695 L1593.46153,175 L1606.09073,175 L1606.09073,144.209731 C1619.92685,142.577816 1632.31243,136.490691 1641.57851,127.441737 C1643.5051,127.87673 1645.51849,128.109465 1647.59068,128.109465 C1662.17447,128.109465 1674,116.819053 1674,102.89652 C1674,96.1388968 1671.20533,90.0018999 1666.6661,85.4718818" id="Fill-28" fill="url(#linearGradient-2)" transform="translate(1600.500000, 87.500000) scale(-1, 1) translate(-1600.500000, -87.500000) "></path>
                        <path d="M1493.358,142.491736 C1493.90033,140.841598 1494.19653,139.082645 1494.19653,137.258953 C1494.19653,129.953168 1489.50184,123.701102 1482.84221,121.095041 C1483.96304,119.333333 1484.6069,117.26584 1484.6069,115.053719 C1484.6069,108.62259 1479.15432,103.410468 1472.42655,103.410468 C1469.04459,103.410468 1465.98387,104.72865 1463.77697,106.855372 C1463.42097,103.015152 1460.05153,100 1455.93672,100 C1451.58689,100 1448.06309,103.370523 1448.06309,107.526171 C1448.06309,109.709366 1449.04208,111.669421 1450.594,113.044077 C1450.149,113.595041 1449.76102,114.188705 1449.4245,114.809917 C1447.96158,115.561983 1446.58348,116.442149 1445.30412,117.435262 C1444.46837,114.137741 1441.37009,111.687328 1437.66412,111.687328 C1433.3143,111.687328 1429.79049,115.055096 1429.79049,119.213499 C1429.79049,121.395317 1430.76809,123.353994 1432.32001,124.72865 C1430.73472,126.695592 1429.79049,129.157025 1429.79049,131.831956 C1429.79049,133.078512 1430.00048,134.275482 1430.3815,135.402204 C1426.50031,138.297521 1424,142.807163 1424,147.880165 C1424,155.96281 1430.34257,162.625344 1438.52769,163.584022 C1443.34615,168.19146 1449.81248,171.214876 1457.00471,171.807163 L1457.00471,187 L1463.27635,187 L1463.27635,171.692837 C1470.14735,170.881543 1476.29801,167.855372 1480.89953,163.356749 C1481.85627,163.573003 1482.85612,163.688705 1483.88517,163.688705 C1491.12746,163.688705 1497,158.075758 1497,151.15427 C1497,147.794766 1495.61217,144.743802 1493.358,142.491736" id="Fill-28" fill="url(#linearGradient-3)" transform="translate(1460.500000, 143.500000) scale(-1, 1) translate(-1460.500000, -143.500000) "></path>
                        <path d="M1827.358,63.4917355 C1827.90033,61.8415978 1828.19653,60.0826446 1828.19653,58.2589532 C1828.19653,50.953168 1823.50184,44.7011019 1816.84221,42.0950413 C1817.96304,40.3333333 1818.6069,38.2658402 1818.6069,36.053719 C1818.6069,29.6225895 1813.15432,24.4104683 1806.42655,24.4104683 C1803.04459,24.4104683 1799.98387,25.7286501 1797.77697,27.8553719 C1797.42097,24.0151515 1794.05153,21 1789.93672,21 C1785.58689,21 1782.06309,24.3705234 1782.06309,28.5261708 C1782.06309,30.7093664 1783.04208,32.6694215 1784.594,34.0440771 C1784.149,34.5950413 1783.76102,35.1887052 1783.4245,35.8099174 C1781.96158,36.5619835 1780.58348,37.4421488 1779.30412,38.4352617 C1778.46837,35.137741 1775.37009,32.6873278 1771.66412,32.6873278 C1767.3143,32.6873278 1763.79049,36.0550964 1763.79049,40.2134986 C1763.79049,42.3953168 1764.76809,44.3539945 1766.32001,45.7286501 C1764.73472,47.6955923 1763.79049,50.1570248 1763.79049,52.8319559 C1763.79049,54.0785124 1764.00048,55.2754821 1764.3815,56.4022039 C1760.50031,59.2975207 1758,63.8071625 1758,68.8801653 C1758,76.9628099 1764.34257,83.6253444 1772.52769,84.584022 C1777.34615,89.1914601 1783.81248,92.214876 1791.00471,92.8071625 L1791.00471,108 L1797.27635,108 L1797.27635,92.6928375 C1804.14735,91.8815427 1810.29801,88.8553719 1814.89953,84.3567493 C1815.85627,84.5730028 1816.85612,84.6887052 1817.88517,84.6887052 C1825.12746,84.6887052 1831,79.0757576 1831,72.15427 C1831,68.7947658 1829.61217,65.7438017 1827.358,63.4917355" id="Fill-28" fill="url(#linearGradient-3)" transform="translate(1794.500000, 64.500000) scale(-1, 1) translate(-1794.500000, -64.500000) "></path>
                        <path d="M399,226 L-3.18323146e-12,226 L-3.18323146e-12,94.6623045 C117.36646,78.4267765 247.752327,140.997539 313.581461,159.50187 C395.259689,182.460844 572.912449,192.096499 590.577568,193.007753 C609.324006,173.157706 642.144751,160 679.5,160 C724.551083,160 763.00683,179.137596 778.133222,206.071723 C838.176575,196.452928 906.757806,191 979.585537,191 C1036.21223,191 1090.2716,194.296693 1139.74636,200.285057 L1182.04191,115.154916 C1184.12826,110.948361 1190.19762,110.948361 1192.28397,115.154916 L1224.71713,180.547714 C1226.80347,184.754268 1232.87284,184.754268 1234.95918,180.547714 L1246.14957,158.176493 C1248.23591,153.969939 1254.30528,153.969939 1256.39162,158.176493 L1276.14307,198 L1285,198 L1285,197.390789 C1285,184.856432 1297.39,180.758661 1306.07143,184.454689 L1306.07143,180.035525 C1306.07143,140.343393 1367.09429,140.343393 1369.20143,177.946465 C1381.03953,168.748337 1401.37981,174.644878 1402.90858,194.920765 C1448.78444,178.045336 1506.38275,168 1568.92643,168 C1600.85885,168 1631.50215,170.618553 1659.95436,175.427743 C1686.73206,130.261698 1735.84606,100 1792,100 C1845.43461,100 1892.49461,127.401744 1920,168.972677 L1920,226 L1721,226 L1189,226 L1127,226 C1127.00801,225.9792 1127.01614,225.958415 1127.0244,225.937646 L784.685472,225.937646 C784.687831,225.958428 784.690178,225.979213 784.692511,226 L399,226 Z" id="Combined-Shape" fill="url(#linearGradient-4)"></path>
                    </g>
                </g>
            </g>
        </g>
    </g>
</svg>