<?xml version="1.0" encoding="UTF-8"?>
<svg width="822px" height="184px" viewBox="0 0 822 184" version="1.1" xmlns="http://www.w3.org/2000/svg" xmlns:xlink="http://www.w3.org/1999/xlink">
    <!-- Generator: Sketch 53 (72520) - https://sketchapp.com -->
    <title>Redefine_Existing_Solutions_Robots</title>
    <desc>Created with Sketch.</desc>
    <defs>
        <linearGradient x1="53.4073987%" y1="227.459406%" x2="48.2418832%" y2="-41.7671346%" id="linearGradient-1">
            <stop stop-color="#6EF7EC" offset="0%"></stop>
            <stop stop-color="#D1EDE8" offset="100%"></stop>
        </linearGradient>
    </defs>
    <g id="HD_Desktop" stroke="none" stroke-width="1" fill="none" fill-rule="evenodd">
        <g id="VW_HD_Desktop_About" transform="translate(-567.000000, -2536.000000)">
            <g id="Redefine_Existing_Solutions" transform="translate(0.000000, 2166.000000)">
                <g id="Redefine_Existing_Solutions_Robots" transform="translate(567.000000, 370.000000)">
                    <g id="Group-25" transform="translate(212.000000, 26.000000)">
                        <path d="M58.4998517,122 L58.5001483,122 C65.3750667,122 71,127.517067 71,134.259794 L71,145.740497 C71,152.483223 65.3750667,158 58.5001483,158 L58.4998517,158 C51.6249333,158 46,152.483223 46,145.740497 L46,134.259794 C46,127.517067 51.6249333,122 58.4998517,122" id="Fill-5" fill="#FFFFFF"></path>
                        <path d="M79.1518141,42.6942816 L81.3988631,42.6942816 C86.0379309,42.6942816 89.8335582,46.5570195 89.8335582,51.278472 L89.8335582,52.3438816 L90.9111747,52.3438816 C93.709956,52.3438816 96,54.6745942 96,57.5230788 L96,72.1706114 C96,75.0193917 93.709956,77.3501044 90.9111747,77.3501044 L89.8335582,77.3501044 L89.8335582,78.4155139 C89.8335582,83.1369665 86.0379309,87 81.3988631,87 L34.6014275,87 C29.9620691,87 26.1670228,83.1369665 26.1670228,78.4155139 L26.1670228,77.3501044 L25.0891158,77.3501044 C22.2903345,77.3501044 20,75.0193917 20,72.1706114 L20,57.5230788 C20,54.6745942 22.2903345,52.3438816 25.0891158,52.3438816 L26.1670228,52.3438816 L26.1670228,51.278472 C26.1670228,46.8415564 29.5184374,43.1629739 33.7725038,42.7357106 L41.0620805,42.7357106 C40.9030934,38.2757651 39.5888692,21.8208874 28.9208669,14.730387 C16.5201512,6.48823665 23.4204085,2.80907934 23.4204085,2.80907934 C23.4204085,2.80907934 27.9847406,-1.55026829 39.7713475,7.56949685 C51.5579544,16.689262 52.2596907,36.3958443 53.0951081,42.0021314 C53.1345837,42.2670711 53.1435024,42.5111371 53.1246641,42.7357106 L67.2476296,42.7357106 C67.8205098,38.2462839 69.15521,21.9739294 59.9409333,13.1753191 C49.1826895,2.90239182 56.5097863,0.508348031 56.5097863,0.508348031 C56.5097863,0.508348031 61.6688695,-2.96456698 71.6857906,8.06128112 C80.9484224,18.2568903 79.4976403,35.6646469 79.1518141,42.6942816 Z M47.0911552,26.4750319 C47.0911552,26.4750319 46.2710238,22.158209 43.5137012,17.2775929 C42.7030511,15.8426324 41.7242905,14.3593597 40.5501606,12.9223026 C36.9913045,8.80410619 33.0521029,7.30387872 31.8983031,6.93342517 C29.8825266,6.31630645 27.7471401,5.99060996 27.0261975,7.0388914 C26.5775685,7.69119592 26.9642956,8.61423051 27.724075,9.58630645 C27.7241662,9.5863976 32.1244865,13.3797179 33.3997198,14.0344836 C33.3997198,14.0344836 38.7988573,18.81173 42.4407659,29.8922471 C42.4407659,29.8922471 43.3003722,32.0228108 44.9196668,32.0228108 C45.8637843,32.0228108 46.5676787,31.2164545 46.5730575,31.2103471 C47.31588,30.3473836 47.8452823,28.8879023 47.0911552,26.4750319 Z M75.3786851,27.9274399 C75.3786851,27.9274399 75.3157656,23.5066719 73.5103547,18.1747492 C72.9794672,16.6070455 72.2973838,14.9609432 71.4225528,13.3249509 C68.7313844,8.6010291 65.2466766,6.39811766 64.2145992,5.82110029 C62.406446,4.84285429 60.4368058,4.13105278 59.5801357,5.03676461 C59.0470958,5.60031256 59.2608448,6.58412833 59.8200856,7.68450655 C59.8201823,7.68458864 63.3623618,12.2405522 64.4624728,13.1210589 C64.4624728,13.1210589 68.7885334,18.8325802 70.406463,30.4602061 C70.406463,30.4602061 70.8685497,32.7250626 72.4031024,33.0204625 C73.2977134,33.1926979 74.0982111,32.5231715 74.1042886,32.5181042 C74.9510426,31.7998001 75.6941283,30.4523832 75.3786851,27.9274399 Z" id="Combined-Shape" fill="#FFFFFF"></path>
                        <circle id="Oval" fill="#0CD2C2" cx="37" cy="64" r="5"></circle>
                        <circle id="Oval" fill="#0CD2C2" cx="67" cy="64" r="5"></circle>
                        <path d="M36,131.904526 L36,100.095768 C36,95.6429189 39.6614413,92 44.1375888,92 L69.8624112,92 C74.3382627,92 78,95.6429189 78,100.095768 L78,131.904526 C78,136.357081 74.3382627,140 69.8624112,140 L44.1375888,140 C39.6614413,140 36,136.357081 36,131.904526" id="Fill-9" fill="#FFFFFF"></path>
                        <polygon id="Rectangle" fill="#FFFFFF" points="21 99.5753106 41.1713837 96 43 106.424689 22.8286163 110"></polygon>
                        <path d="M78,99.8621105 L78,107.373907 L33.833383,115 L32,104.818222 L77.2793318,97 C77.5053246,97.5665999 77.649266,97.9650433 77.7111562,98.1953303 C77.8044468,98.542455 77.9236319,99.3090133 77.9236319,99.3669844 C77.9236319,99.4056318 77.9331279,99.5820717 77.9521199,99.896304 L78,99.8621105 Z" id="Combined-Shape" fill="#F2F2F2"></path>
                        <polygon id="Rectangle" fill="#F2F2F2" points="13.6933414 98 37 104.514515 34.3066586 115 11 108.485485"></polygon>
                        <path d="M0.905554993,108.736173 C4.89652955,109.280781 8.72986119,106.892391 9.76367514,103.034145 C10.7974891,99.1758984 8.67192146,95.1908263 4.94333207,93.6669834 L5.67714273,90.9283647 C11.5848091,92.5113192 15.1356245,98.4159347 13.608111,104.116693 C12.0805975,109.817451 6.05319336,113.15559 0.145527026,111.572636 L0.905554993,108.736173 Z" id="Combined-Shape" fill="#F2F2F2"></path>
                    </g>
                    <path d="M175.621116,143.834716 L175.621116,143.834716 L176,134.31349 L158.55614,133.693539 C157.906679,133.670193 157.400487,133.153328 157.424429,132.539484 L157.498154,130.691487 C157.546037,129.495766 157.989905,128.352486 158.733611,127.383769 C159.742575,126.069518 160.065215,124.380639 159.557123,122.713311 C158.897402,120.553543 156.787889,119.088076 154.412739,119.003309 C154.384617,119.00259 154.358396,119.00259 154.332174,119.001513 C152.905944,118.969186 151.531017,119.45588 150.45935,120.369282 C149.388062,121.281607 148.737461,122.524022 148.626114,123.866289 C148.532628,125.002385 148.816506,126.109747 149.445066,127.068048 C150.121129,128.096748 150.454029,129.262656 150.407287,130.43934 L150.333942,132.287338 C150.30962,132.901181 149.761246,133.380691 149.112925,133.357703 L131.667925,132.737394 L131.667545,132.745655 L131.289041,142.25862 L131.095229,147.125192 C131.070527,147.748375 131.59382,148.259852 132.252782,148.279248 C133.056533,148.302236 133.846603,148.088881 134.532926,147.686596 C136.0325,146.806597 137.865356,146.393896 139.798538,146.656458 C143.382164,147.144588 146.195481,149.996862 146.458078,153.40946 C146.802379,157.887037 142.972498,161.531309 138.358247,161.367163 C136.735545,161.309334 135.245471,160.787082 134.026354,159.942283 C133.405395,159.510186 132.682969,159.231101 131.913041,159.203803 L131.792193,159.199492 C131.142732,159.176505 130.596638,159.656014 130.572316,160.269858 L130,174.648318 L167.895229,175.995614 C171.450353,176.122046 174.440762,173.49965 174.57415,170.138415 L175.621116,143.834716 Z" id="Fill-6" fill="#2A3B93"></path>
                    <polygon id="Fill-232" fill="#F2F2F2" points="8 95 68 95 68 85 8 85"></polygon>
                    <polygon id="Fill-211" fill="#FFFFFF" points="29 150 75 150 75 95 29 95"></polygon>
                    <polygon id="Fill-212" fill="#FFFFFF" points="0 150 37 150 37 95 0 95"></polygon>
                    <path d="M37,42.0124362 L37,42 C37.1669185,42 37.3335856,42.0010374 37.4999949,42.0031058 C37.6664075,42.0010374 37.8330781,42 38,42 L38,42.0124367 C58.524327,42.5235038 75,58.7209943 75,78.6278259 L75,85 L38,85 L0,85 L0,78.6278259 C0,58.7209878 16.4752625,42.5234932 37,42.0124362 Z" id="Combined-Shape" fill="#FFFFFF"></path>
                    <path d="M30.0113152,49.6050799 C30.0113152,49.6050799 15.7122562,55.4126946 16.0044169,48.9403145 C16.2966804,42.4679235 14.7592734,19.9877517 27.2016805,8.19535926 C39.6440875,-3.59703317 45.4004596,0.803899859 45.4004596,0.803899859 C45.4004596,0.803899859 53.7567299,4.14875229 40.5052263,15.0182224 C27.2537226,25.8876924 30.0113152,49.6050799 30.0113152,49.6050799 Z M21.1588287,30.5556929 C20.5815134,33.3858445 21.3612361,34.9785116 22.3145922,35.8682355 C22.3214787,35.8745176 23.2235219,36.7046937 24.3049831,36.5904896 C26.1598416,36.3946134 26.8915031,33.8721584 26.8915031,33.8721584 C29.747452,20.8537554 35.3647436,14.7778434 35.3647436,14.7778434 C36.7477386,13.88034 41.3377485,9.04213603 41.3378421,9.04202153 C42.0927195,7.84667993 42.426099,6.75213264 41.8347484,6.06594798 C40.8844495,4.96321685 38.4770965,5.59123041 36.2413586,6.53557855 C34.9637015,7.09566079 30.6295968,9.27512001 27.0420392,14.3803148 C25.8677488,16.1535935 24.9227364,17.9557003 24.1645534,19.6826311 C21.5856646,25.5563172 21.1588287,30.5556929 21.1588287,30.5556929 Z" id="Combined-Shape" fill="#FFFFFF"></path>
                    <path d="M60.4159899,48.9015797 C60.4159899,48.9015797 45.8843377,52.6695673 47.0686476,46.2479691 C48.2530528,39.8264033 49.9178359,17.1602436 63.5038687,7.15242098 C77.090028,-2.85546964 81.9988539,2.35670167 81.9988539,2.35670167 C81.9988539,2.35670167 89.5498077,6.88390848 75.3162272,15.8552536 C61.0826466,24.8265988 60.4159899,48.9015797 60.4159899,48.9015797 Z M54.9195213,28.7896803 C53.9955888,31.5694952 54.5061,33.2775812 55.2744249,34.299231 C55.2799597,34.3064639 56.0084907,35.2615084 57.0328755,35.287099 C58.7900235,35.3310413 59.8160307,32.8817227 59.8160307,32.8817227 C64.2528253,20.1211277 70.320524,14.7235379 70.320524,14.7235379 C71.7329256,13.9982066 76.6736113,9.71518186 76.6737365,9.71511281 C77.5407981,8.60762418 78.0008216,7.54689206 77.542586,6.77771376 C76.8061391,5.54152354 74.4748279,5.86159187 72.2604838,6.52301051 C70.992299,6.92164173 66.6522409,8.55579896 62.6102452,13.2386767 C61.273375,14.8745483 60.1464296,16.5693726 59.2038687,18.2127393 C55.9983334,23.8020469 54.9195213,28.7896803 54.9195213,28.7896803 Z" id="Combined-Shape" fill="#FFFFFF"></path>
                    <path d="M37,149 C53.0160321,149 66,155.483208 66,163.480768 L66,166 L37,166 L8,166 L8,163.480768 C8,155.483208 20.9836359,149 37,149 Z" id="Combined-Shape" fill="#FFFFFF" transform="translate(37.000000, 157.500000) rotate(-180.000000) translate(-37.000000, -157.500000) "></path>
                    <path d="M0,109.000556 C0,116.731293 6.26784295,123 14,123 L14,95 C6.26784295,95 0,101.268707 0,109.000556" id="Fill-215" fill="#F2F2F2" transform="translate(7.000000, 109.000000) scale(-1, 1) translate(-7.000000, -109.000000) "></path>
                    <path d="M37,66 C37,70.4184261 33.1945777,74 28.5,74 C23.8054223,74 20,70.4184261 20,66 C20,61.5815739 23.8054223,58 28.5,58 C33.1945777,58 37,61.5815739 37,66" id="Fill-220" fill="#0CD2C2"></path>
                    <path d="M65,66 C65,70.4184261 61.1937864,74 56.5005098,74 C51.8062136,74 48,70.4184261 48,66 C48,61.5815739 51.8062136,58 56.5005098,58 C61.1937864,58 65,61.5815739 65,66" id="Fill-221" fill="#0CD2C2"></path>
                    <polygon id="Fill-222" fill="#F2F2F2" points="14 143 62 143 62 132 14 132"></polygon>
                    <path d="M83,109.000556 C83,116.731293 79.4183755,123 75,123 L75,95 C79.4183755,95 83,101.268707 83,109.000556" id="Fill-225" fill="#FFFFFF"></path>
                    <path d="M98.6959287,98.3105421 L100.006316,105.820909 C83.0035717,112.097583 65.8249302,111.286335 48.4703829,103.387166 L46.9808364,94.9395281 C47.0432684,94.9522501 47.1059031,94.9650405 47.1687404,94.9778995 C70.8660732,104.255493 88.0418027,105.366374 98.6959287,98.3105421 Z" id="Combined-Shape" fill="#FFFFFF"></path>
                    <polygon id="Fill-233" fill="#D8D8D8" points="14 138 62 138 62 132 14 132"></polygon>
                    <path d="M118.729586,174.637595 L118.729586,174.637595 L128.417119,175 L129.047946,158.313754 C129.071702,157.693631 129.598731,157.207275 130.222248,157.230539 L132.103397,157.301057 C133.321191,157.346494 134.483432,157.774691 135.469144,158.48496 C136.806452,159.45004 138.525326,159.758647 140.22154,159.272291 C142.418102,158.640173 143.910376,156.623865 143.99663,154.349839 C143.997726,154.324758 143.998823,154.299677 143.998457,154.274596 C144.031351,152.910398 143.537216,151.595273 142.607789,150.56949 C141.678361,149.545887 140.415247,148.92322 139.047238,148.817806 C137.892307,148.72766 136.766614,148.9981 135.790405,149.600411 C134.744023,150.245979 133.558756,150.563674 132.359967,150.5186 L130.478452,150.448082 C129.854936,150.425182 129.366283,149.902476 129.389674,149.280536 L130.020866,132.59538 L130.013191,132.595017 L120.333332,132.232976 L115.382478,132.047593 C114.747266,132.023966 114.227181,132.524135 114.207445,133.154799 C114.183689,133.925773 114.400786,134.678935 114.810129,135.335407 C115.706663,136.770849 116.125874,138.52435 115.858339,140.373086 C115.362742,143.799755 112.459332,146.492164 108.987229,146.741885 C104.431098,147.071212 100.722892,143.406817 100.889553,138.996894 C100.948762,137.442225 101.479811,136.017324 102.341623,134.851231 C102.779108,134.258007 103.06309,133.566276 103.090867,132.829835 L103.095618,132.71497 C103.118643,132.093757 102.631818,131.571051 102.006108,131.547424 L87.3753958,131 L86.0044632,167.247011 C85.8758126,170.648236 88.5442154,173.508579 91.96442,173.63653 L118.729586,174.637595 Z" id="Fill-10" fill="#2A3B93"></path>
                    <path d="M235.621132,115.577986 L235.621132,115.577986 L236,105.388021 L218.555721,104.724552 C217.905147,104.699567 217.398976,104.147573 217.423296,103.489871 L217.497018,101.512152 C217.544519,100.232496 217.991029,99.0081932 218.734325,97.9710917 C219.742107,96.5645851 220.065114,94.7579219 219.557803,92.9739381 C218.898108,90.6625624 216.788682,89.0930718 214.411731,89.0023542 C214.38551,89.0015854 214.35815,89.0027386 214.331929,89.0015854 C212.906898,88.9673742 211.530888,89.4878469 210.459645,90.4642139 C209.388021,91.441734 208.737447,92.7713612 208.627245,94.2078507 C208.533003,95.4225434 208.815729,96.6087907 209.446543,97.6332072 C210.120677,98.7341186 210.453185,99.9826382 210.406064,101.242305 L210.332722,103.220025 C210.308401,103.878112 209.76233,104.390128 209.111755,104.365142 L191.667856,103.701674 L191.667476,103.710515 L191.288988,113.891254 L191.095184,119.099441 C191.070483,119.766369 191.594515,120.313365 192.252689,120.334123 C193.058306,120.359108 193.848344,120.130777 194.532359,119.700253 C196.033011,118.758482 197.866931,118.31681 199.798893,118.597804 C203.382371,119.120199 206.197092,122.172691 206.458158,125.825994 C206.802445,130.616727 202.971582,134.51566 198.360182,134.339991 C196.734886,134.278103 195.244874,133.719191 194.026188,132.81509 C193.406014,132.353814 192.683618,132.053985 191.912962,132.024771 L191.792879,132.020158 C191.144585,131.995557 190.596613,132.509879 190.571912,133.16566 L190,148.553433 L227.893284,149.995304 C231.449401,150.130612 234.440826,147.325286 234.574209,143.728105 L235.621132,115.577986 Z" id="Fill-14" fill="#2A3B93"></path>
                    <path d="M123.821561,102.892536 C125.410037,102.951024 126.868773,103.482533 128.060967,104.342671 C128.667658,104.78133 129.374721,105.0639 130.128253,105.092047 L130.245725,105.096068 C130.882156,105.119829 131.416357,104.632917 131.440149,104.00929 L132,89.3756167 L94.9297398,88.0044409 C91.4513011,87.8761331 88.5252788,90.5439125 88.3944238,93.9632615 L87.370632,120.725132 L87,130.415116 L104.065056,131.046419 C104.701487,131.069815 105.196654,131.595109 105.172862,132.220564 L105.101115,134.102412 C105.054647,135.318961 104.618587,136.48287 103.892565,137.468391 C102.904461,138.806302 102.588476,140.525115 103.087361,142.220899 C103.731227,144.418947 105.79368,145.911485 108.119331,145.99739 C108.14461,145.998486 108.171375,145.999583 108.197398,145.998486 C109.592565,146.03102 110.937175,145.538259 111.986245,144.607571 C113.033086,143.677979 113.669888,142.413178 113.777695,141.047485 C113.869888,139.891984 113.593309,138.76536 112.976208,137.789709 C112.3171,136.743507 111.99145,135.556568 112.037546,134.358662 L112.109294,132.477545 C112.133457,131.851725 112.667286,131.364447 113.303717,131.387843 L130.368773,132.019146 L130.739405,122.329163 L130.928253,117.385473 C130.952416,116.760749 130.457249,116.234724 129.820818,116.211329 C129.024164,116.181719 128.243866,116.399952 127.565799,116.813388 C126.098885,117.709715 124.303717,118.130097 122.41487,117.862515 C118.908178,117.366099 116.154647,114.461809 115.899257,110.988724 C115.563569,106.432517 119.310037,102.72548 123.821561,102.892536 L99.2483553,106.065925" id="Fill-18" fill="#2A3B93"></path>
                    <path d="M91.5510734,102.643028 L92.92527,109.860193 C64.2388179,118.170849 36.1177792,119.483868 8.56215382,113.79925 L7.13932859,105.730007 C7.23962204,105.73499 7.34023779,105.740015 7.44117582,105.745084 C45.3115182,112.034479 73.3481508,111.000461 91.5510734,102.643028 Z" id="Combined-Shape" fill="#F2F2F2"></path>
                    <path d="M87.1305759,106.976307 C87.9455349,111.598168 92.3530355,114.684547 96.9756916,113.869448 C101.598348,113.054349 104.684439,108.646649 103.86948,104.024788 C103.054328,99.4018308 98.6468273,96.3154519 94.0241712,97.1305506 C89.401515,97.9456492 86.3154235,102.35335 87.1305759,106.976307" id="Fill-226" fill="#F2F2F2"></path>
                    <g id="Group-21" transform="translate(544.000000, 3.000000)">
                        <path d="M168.666667,133 L7.33333333,133 C3.28304167,133 0,129.691625 0,125.611111 L0,7.38888889 C0,3.30791319 3.28304167,0 7.33333333,0 L168.666667,0 C172.7165,0 176,3.30791319 176,7.38888889 L176,125.611111 C176,129.691625 172.7165,133 168.666667,133" id="Fill-11" fill="#235677"></path>
                        <polygon id="Fill-12" fill="#235677" points="5 128 170 128 170 17 5 17"></polygon>
                        <path d="M33,8 C33,9.657 31.6565,11 30,11 C28.343,11 27,9.657 27,8 C27,6.343 28.343,5 30,5 C31.6565,5 33,6.343 33,8" id="Fill-13" fill="#24B3C9"></path>
                        <path d="M22,8 C22,9.657 20.6565,11 19,11 C17.343,11 16,9.657 16,8 C16,6.343 17.343,5 19,5 C20.6565,5 22,6.343 22,8" id="Fill-14" fill="#24B3C9"></path>
                        <path d="M11,8 C11,9.657 9.6565,11 8,11 C6.343,11 5,9.657 5,8 C5,6.343 6.343,5 8,5 C9.6565,5 11,6.343 11,8" id="Fill-15" fill="#24B3C9"></path>
                        <polygon id="Fill-16" fill="#FFFFFF" points="47 74 76 74 76 70 47 70"></polygon>
                        <polygon id="Fill-17" fill="#FFFFFF" points="83 74 112 74 112 70 83 70"></polygon>
                        <polygon id="Fill-18" fill="#00BFD6" points="13 74 42 74 42 70 13 70"></polygon>
                        <polygon id="Fill-19" fill="#FFFFFF" points="24 84 46 84 46 80 24 80"></polygon>
                        <polygon id="Fill-20" fill="#FFFFFF" points="13 92 28 92 28 88 13 88"></polygon>
                        <polygon id="Fill-21" fill="#00BFD6" points="51 84 80 84 80 80 51 80"></polygon>
                        <polygon id="Fill-22" fill="#E8EBF0" points="86 84 101 84 101 80 86 80"></polygon>
                        <polygon id="Fill-23" fill="#00BFD6" points="107 84 122 84 122 80 107 80"></polygon>
                        <polygon id="Fill-19" fill="#FFFFFF" points="13 113 46 113 46 109 13 109"></polygon>
                        <polygon id="Fill-21" fill="#00BFD6" points="51 113 80 113 80 109 51 109"></polygon>
                        <polygon id="Fill-22" fill="#E8EBF0" points="86 113 101 113 101 109 86 109"></polygon>
                        <polygon id="Fill-23" fill="#00BFD6" points="107 113 153 113 153 109 107 109"></polygon>
                        <polygon id="Fill-24" fill="#E8EBF0" points="67 64 103 64 103 60 67 60"></polygon>
                        <polygon id="Fill-25" fill="#FFFFFF" points="24 64 60 64 60 60 24 60"></polygon>
                        <polygon id="Fill-26" fill="#FFFFFF" points="24 56 46 56 46 52 24 52"></polygon>
                        <polygon id="Fill-27" fill="#00BFD6" points="51 56 80 56 80 52 51 52"></polygon>
                        <polygon id="Fill-28" fill="#00BFD6" points="86 56 122 56 122 52 86 52"></polygon>
                        <polygon id="Fill-29" fill="#00BFD6" points="128 56 143 56 143 52 128 52"></polygon>
                        <polygon id="Fill-26" fill="#FFFFFF" points="33 123 55 123 55 119 33 119"></polygon>
                        <polygon id="Fill-27" fill="#00BFD6" points="61 123 90 123 90 119 61 119"></polygon>
                        <polygon id="Fill-28" fill="#FFFFFF" points="96 123 132 123 132 119 96 119"></polygon>
                        <polygon id="Fill-29" fill="#00BFD6" points="137 123 161 123 161 119 137 119"></polygon>
                        <polygon id="Fill-26" fill="#FFFFFF" points="33 92 55 92 55 88 33 88"></polygon>
                        <polygon id="Fill-27" fill="#00BFD6" points="61 92 90 92 90 88 61 88"></polygon>
                        <polygon id="Fill-28" fill="#FFFFFF" points="96 92 132 92 132 88 96 88"></polygon>
                        <polygon id="Fill-29" fill="#00BFD6" points="137 92 148 92 148 88 137 88"></polygon>
                        <polygon id="Fill-30" fill="#E8EBF0" points="24 46 53 46 53 42 24 42"></polygon>
                        <polygon id="Fill-31" fill="#FFFFFF" points="58 46 80 46 80 42 58 42"></polygon>
                        <polygon id="Fill-32" fill="#00BFD6" points="24 38 53 38 53 34 24 34"></polygon>
                        <polygon id="Fill-33" fill="#FFFFFF" points="58 38 87 38 87 34 58 34"></polygon>
                        <polygon id="Fill-34" fill="#FFFFFF" points="93 38 108 38 108 34 93 34"></polygon>
                        <polygon id="Fill-35" fill="#FFFFFF" points="114 38 143 38 143 34 114 34"></polygon>
                        <polygon id="Fill-36" fill="#00BFD6" points="148 38 163 38 163 34 148 34"></polygon>
                        <polygon id="Fill-32" fill="#00BFD6" points="13 102 42 102 42 98 13 98"></polygon>
                        <polygon id="Fill-33" fill="#FFFFFF" points="47 102 76 102 76 98 47 98"></polygon>
                        <polygon id="Fill-34" fill="#FFFFFF" points="82 102 97 102 97 98 82 98"></polygon>
                        <polygon id="Fill-35" fill="#FFFFFF" points="103 102 132 102 132 98 103 98"></polygon>
                        <polygon id="Fill-36" fill="#00BFD6" points="137 102 152 102 152 98 137 98"></polygon>
                        <polygon id="Fill-37" fill="#FFFFFF" points="13 28 28 28 28 24 13 24"></polygon>
                        <polygon id="Fill-38" fill="#FFFFFF" points="33 28 62 28 62 24 33 24"></polygon>
                    </g>
                    <g id="Group-22" transform="translate(695.000000, 16.000000)">
                        <path d="M52.0031222,91 L52.0031222,113.255455 C52.0031222,113.291272 52,113.326472 52,113.365994 C52,113.402429 52.0031222,113.438246 52.0031222,113.474063 L52.0031222,114.450391 C52.0031222,115.057431 52.0593211,115.650885 52.1373752,116.239399 C53.6072903,132.364553 67.3036012,145 83.992819,145 C100.592118,145 114.230357,132.502882 115.823285,116.505558 C115.930064,115.834294 116,115.149444 116,114.450391 L116,91 L52.0031222,91" id="Fill-8" fill="#FFFFFF"></path>
                        <path d="M83.852583,80.7183099 C77.2865049,80.7183099 71.9633028,75.3535209 71.9633028,68.7384875 C71.9633028,62.1253523 77.2865049,56.7605634 83.852583,56.7605634 C90.4186611,56.7605634 95.7431193,62.1253523 95.7431193,68.7384875 C95.7431193,75.3535209 90.4186611,80.7183099 83.852583,80.7183099 Z M115.823285,76.1782418 C114.230357,59.796465 100.592118,47 83.9896969,47 C67.3011035,47 53.6041681,59.9400039 52.1373752,76.4507761 C52.056199,77.0514897 52.0031222,77.6585267 52.0031222,78.2813719 L52.0031222,79.2810858 C52.0031222,79.3171286 52,79.3550684 52,79.3936406 C52,79.4315804 52.0031222,79.4688879 52.0031222,79.5049307 L52.0031222,89 L116,89 L116,78.2813719 C116,77.5662065 115.926941,76.866217 115.823285,76.1782418 L115.823285,76.1782418 Z" id="Fill-9" fill="#FFFFFF"></path>
                        <path d="M124.610986,121.234269 L124.610986,98.8687301 C124.610986,93.5121323 120.775662,89.1567379 116,89 L116,108.734901 C117.3102,108.690119 118.549978,108.33442 119.658974,107.723462 L119.658974,121.234269 C118.232193,122.150386 117.268184,123.816926 117.268184,125.738724 C117.268184,128.643813 119.444158,131 122.134388,131 C124.821659,131 127,128.643813 127,125.738724 C127,123.816926 126.035399,122.153585 124.610986,121.234269" id="Fill-10" fill="#FFFFFF"></path>
                        <path d="M88.0088269,67.6341463 C86.0954474,67.6341463 84.5463136,65.993408 84.5463136,63.9716546 C84.5463136,63.0408701 84.8844083,62.2023731 85.4211259,61.5570204 C84.510823,61.2036915 83.5282936,61 82.5003113,61 C77.8074571,61 74,65.0296638 74,69.9986816 C74,74.969677 77.8074571,79 82.5003113,79 C87.1950335,79 91,74.969677 91,69.9986816 C91,68.8055372 90.7758488,67.6710613 90.3767352,66.6275544 C89.7590741,67.2471984 88.9272241,67.6341463 88.0088269,67.6341463" id="Fill-46" fill="url(#linearGradient-1)"></path>
                        <path d="M64.2833063,55.5894898 C64.2833063,55.5894898 64.5545833,31.4732428 50.4397143,21.9606903 C36.3248453,12.4481378 44.1789265,8.20189436 44.1789265,8.20189436 C44.1789265,8.20189436 49.3741872,3.17061957 62.790059,13.6960578 C76.2059308,24.2214961 77.0046682,46.9655485 77.9555655,53.4359594 C78.9063608,59.9063703 64.2833063,55.5894898 64.2833063,55.5894898 Z M71.0125754,35.5156573 C71.0125754,35.5156573 70.0808252,30.5391415 66.9482347,24.9126742 C66.0272562,23.2584243 64.9152875,21.5484793 63.5813601,19.8918124 C59.5381485,15.144277 55.0628267,13.4147862 53.7519963,12.9877203 C51.4618753,12.276294 49.0358655,11.9008249 48.2168036,13.1093037 C47.7071168,13.8612928 48.146477,14.9253847 49.0096613,16.0460124 C49.0097649,16.0461175 54.008963,20.4191295 55.4577538,21.1739559 C55.4577538,21.1739559 61.5917068,26.6812567 65.7292743,39.4550882 C65.7292743,39.4550882 66.7058719,41.9112426 68.5455503,41.9112426 C69.6181609,41.9112426 70.4178545,40.9816597 70.4239653,40.974619 C71.2678849,39.9797782 71.8693382,38.2972604 71.0125754,35.5156573 Z" id="Combined-Shape" fill="#FFFFFF"></path>
                        <path d="M87.5475381,51.7212236 C87.5475381,51.7212236 94.4443036,28.55121 82.8811742,15.3929856 C71.3180448,2.23476111 80.3725046,0.360968684 80.3725046,0.360968684 C80.3725046,0.360968684 86.9722665,-3.0206163 97.5551773,10.9164686 C108.137982,24.8534477 102.692915,47.0031044 101.870566,53.5089108 C101.048111,60.0147173 87.5475381,51.7212236 87.5475381,51.7212236 Z M99.4264422,34.323552 C99.4264422,34.323552 99.9045955,29.2190909 98.4227188,22.8529807 C97.9869468,20.981196 97.3810202,19.0007017 96.5444092,17.0085067 C93.9321898,11.2360449 90.060071,8.27397253 88.903817,7.4836469 C86.8740257,6.13668951 84.6186904,5.07735533 83.4857251,6.01776837 C82.7807689,6.60290717 82.9121089,7.76307966 83.4400917,9.09950647 C83.4401966,9.09961284 87.0863518,14.7815542 88.2856166,15.930026 C88.2856166,15.930026 92.7202316,23.0392337 93.1913564,36.6411314 C93.1913564,36.6411314 93.4580228,39.3083474 95.2475835,39.8348766 C96.2908558,40.1418591 97.3274141,39.4669444 97.3352819,39.4618387 C98.4329994,38.7362921 99.4860278,37.27286 99.4264422,34.323552 Z" id="Combined-Shape" fill="#FFFFFF"></path>
                        <path d="M3,77 L11.3865979,77 C16.7618993,88.0122199 30.5551446,92.7241015 52.7663337,91.1356449 C89.0778888,96.3785483 89.0778888,99 52.7663337,99 C23.7590602,99 7.17028228,91.6666667 3,77 Z" id="Combined-Shape" fill="#FFFFFF"></path>
                        <circle id="Oval" fill="#FFFFFF" cx="6.5" cy="75.5" r="6.5"></circle>
                    </g>
                    <g id="Group-26" transform="translate(413.000000, 13.000000)">
                        <polygon id="Fill-7" fill="#F2F2F2" points="19 94 68 94 68 86 19 86"></polygon>
                        <path d="M42.6755198,93 L70.2505367,93 C73.4252182,93 76,95.6197805 76,98.8512233 L76,152.148777 C76,155.380219 73.4252182,158 70.2505367,158 L42.6755198,158 L16.7494633,158 C13.5747818,158 11,155.380219 11,152.148777 L11,98.8512233 C11,95.6197805 13.5747818,93 16.7494633,93 L42.6755198,93 Z" id="Combined-Shape" fill="#FFFFFF"></path>
                        <path d="M42.0789474,46.0416811 C42.3606974,46.035429 42.6341606,46 42.9169464,46 L42.9179823,46 C62.2924378,46 78,61.8002779 78,81.2914206 L78,88 L42.0789474,88 L8,88 L8,81.2847564 C8,62.0590076 23.1865166,46.4537327 42.0789474,46 L42.0789474,46.0416811 Z" id="Combined-Shape" fill="#FFFFFF"></path>
                        <path d="M42.7120703,53.7080748 C42.7120703,53.7080748 42.9891025,29.7629754 28.5747811,20.3179313 C14.1604596,10.8728872 22.1811683,6.65677842 22.1811683,6.65677842 C22.1811683,6.65677842 27.4866484,1.66120945 41.1871431,12.1119511 C54.8876379,22.5626927 55.7033208,45.1453356 56.6743918,51.5698275 C57.6453586,57.9943193 42.7120703,53.7080748 42.7120703,53.7080748 Z M49.5841035,33.7767018 C49.5841035,33.7767018 48.6325859,28.8355031 45.4335362,23.2489656 C44.4930187,21.6064555 43.3574592,19.9086456 41.9952321,18.2637358 C37.8662421,13.5498926 33.2959747,11.8326755 31.9573345,11.4086404 C29.6186277,10.702263 27.141149,10.3294585 26.3047105,11.529361 C25.7842104,12.2760134 26.2328918,13.3325537 27.1143889,14.4452285 C27.1144947,14.4453329 32.2197528,18.7873106 33.6992802,19.5367802 C33.6992802,19.5367802 39.9633675,25.0049969 44.188715,37.6881754 C44.188715,37.6881754 45.1860316,40.126899 47.0647395,40.126899 C48.1601059,40.126899 48.9767653,39.2039131 48.9830058,39.1969224 C49.8448295,38.2091418 50.4590428,36.5385644 49.5841035,33.7767018 Z" id="Combined-Shape" fill="#FFFFFF" transform="translate(38.337892, 30.285994) scale(-1, 1) rotate(6.000000) translate(-38.337892, -30.285994) "></path>
                        <path d="M65.4570712,53.6450759 C65.4570712,53.6450759 72.1480001,30.8220787 60.9299767,17.8609244 C49.7119533,4.89977017 58.4961793,3.05404145 58.4961793,3.05404145 C58.4961793,3.05404145 64.8989688,-0.27689768 75.1660286,13.4514521 C85.4329852,27.1796976 80.1504283,48.9976198 79.3526228,55.4059891 C78.554714,61.8143584 65.4570712,53.6450759 65.4570712,53.6450759 Z M76.9814449,36.5079686 C76.9814449,36.5079686 77.4453275,31.4799567 76.007678,25.2091915 C75.5849118,23.3654405 74.9970693,21.414608 74.1854273,19.45225 C71.6511706,13.7662421 67.8946166,10.8485326 66.7728714,10.0700436 C64.80366,8.74325954 62.615636,7.69979097 61.5164845,8.62611948 C60.832568,9.20249468 60.9599881,10.3452913 61.4722131,11.6617025 C61.4723149,11.6618073 65.0096492,17.2586504 66.1731214,18.3899217 C66.1731214,18.3899217 70.4753837,25.3926551 70.9324476,38.7908377 C70.9324476,38.7908377 71.1911553,41.4181069 72.9273059,41.9367503 C73.9394412,42.2391351 74.9450631,41.5743286 74.9526961,41.5692993 C76.0176518,40.8546192 77.0392521,39.4131049 76.9814449,36.5079686 Z" id="Combined-Shape" fill="#FFFFFF" transform="translate(68.321416, 30.279124) scale(-1, 1) rotate(-18.000000) translate(-68.321416, -30.279124) "></path>
                        <path d="M60.0871771,77 L25.9128229,77 C21.5427192,77 18,73.1946365 18,68.5005493 C18,63.8053635 21.5427192,60 25.9128229,60 L60.0871771,60 C64.4572808,60 68,63.8053635 68,68.5005493 C68,73.1946365 64.4572808,77 60.0871771,77" id="Fill-8" fill="#0CD2C2"></path>
                        <path d="M13,99 C5.62828131,100.278059 0,106.962031 0,115.039692 L0,118 L13,118 L13,99" id="Fill-9" fill="#FFFFFF"></path>
                        <path d="M11.3847656,135 C5.09765625,135 0,139.925373 0,146 C0,146.549655 0.0417204859,147.089885 0.122267812,147.617898 C0.932072453,152.926419 5.66643115,157 11.3847656,157 L18,157 C14.3472656,157 11.3847656,154.138755 11.3847656,150.60947 L11.3847656,135 Z" id="Fill-10" fill="#FFFFFF"></path>
                        <path d="M13,136.787301 L13,117 L0,117 L0,147 C0,141.360151 5.82089552,136.787301 13,136.787301" id="Fill-12" fill="#FFFFFF"></path>
                        <path d="M85.5525,148 L85.5525,149 L85.4475,149 C85.4855,148.66763 85.5525,148.342967 85.5525,148" id="Fill-16" fill="#BE4048"></path>
                        <polygon id="Rectangle" fill="#FFFFFF" transform="translate(87.804842, 102.594030) rotate(-362.000000) translate(-87.804842, -102.594030) " points="72.3667737 94.8620728 103.238692 94.8705109 103.242909 110.325987 72.3709914 110.317549"></polygon>
                        <polygon id="Rectangle" fill="#FFFFFF" transform="translate(112.721275, 94.206854) rotate(-32.000000) translate(-112.721275, -94.206854) " points="96.7726882 86.4862813 128.676204 86.4731758 128.669861 101.927426 96.7663454 101.940532"></polygon>
                        <path d="M43.2972973,157.016233 L43.2972973,157 C43.5322502,157 43.7664944,157.001355 43.9999929,157.004049 C44.233496,157.001355 44.467745,157 44.7027027,157 L44.7027027,157.016234 C58.796717,157.342621 70,162.549652 70,168.925339 L70,171 L44.7027027,171 L18,171 L18,168.925339 C18,162.549648 29.2030111,157.342615 43.2972973,157.016233 Z" id="Combined-Shape" fill="#FFFFFF" transform="translate(44.000000, 164.000000) rotate(-180.000000) translate(-44.000000, -164.000000) "></path>
                        <ellipse id="Oval" fill="#FFFFFF" transform="translate(129.434560, 83.775361) rotate(-17.000000) translate(-129.434560, -83.775361) " cx="129.43456" cy="83.7753609" rx="9.88049873" ry="9.88282469"></ellipse>
                    </g>
                </g>
            </g>
        </g>
    </g>
</svg>